<svg width="100" height="100" viewBox="0 0 100 100" fill="none" xmlns="http://www.w3.org/2000/svg">
<rect width="100" height="100" fill="white"/>
<path d="M46.0399 79.4388C64.0555 79.4388 78.6599 64.0553 78.6599 45.0788C78.6599 26.1022 64.0555 10.7188 46.0399 10.7188C28.0244 10.7188 13.4199 26.1022 13.4199 45.0788C13.4199 64.0553 28.0244 79.4388 46.0399 79.4388Z" fill="#FFDC67"/>
<path d="M59.77 50.5781C56.89 50.5781 51.41 50.5781 46.01 50.5781C40.61 50.5781 35.13 50.5781 32.25 50.5781C31.62 50.5781 31.27 51.0381 31.27 51.4881C31.27 58.1281 36.44 65.1781 46 65.1781C55.57 65.1781 60.73 58.1181 60.73 51.4881C60.73 51.0381 60.39 50.5781 59.75 50.5781H59.77Z" fill="#1D1D1B"/>
<path d="M36.5399 32.4688L35.3999 35.4187L33.8399 33.4688L31.4999 35.8387L32.9399 37.8787L30.3899 38.6687L30.5199 41.9187L33.1699 41.2287L31.9799 44.3288L34.8399 45.6187L36.0799 42.3288L37.9599 45.0087L40.9299 42.3288L38.8499 39.7388L42.1799 38.8587L41.5799 35.1887L38.3899 36.1787L39.5699 33.0588L36.5399 32.4688Z" fill="#1D1D1B"/>
<path d="M56.0399 32.4688L54.9099 35.4187L53.3399 33.4688L51.0099 35.8387L52.4399 37.8787L49.8899 38.6687L50.0299 41.9187L52.6699 41.2287L51.4799 44.3288L54.3499 45.6187L55.5799 42.3288L57.4699 45.0087L60.4299 42.3288L58.3499 39.7388L61.6899 38.8587L61.0899 35.1887L57.8999 36.1787L59.0699 33.0588L56.0399 32.4688Z" fill="#1D1D1B"/>
<path d="M32.8899 76.5691C34.0799 81.0891 35.2599 85.6091 36.4499 90.1291C36.5899 90.6791 36.8799 91.3291 36.9099 91.8991C36.9799 92.9891 35.7899 92.9891 34.9999 93.0091C34.2099 93.0291 33.3599 93.0491 32.5599 93.2491C31.3699 93.5391 30.0099 94.1991 29.9199 95.5891C29.7999 97.5691 32.0299 97.2991 33.3499 97.2691C35.7599 97.2191 38.1599 97.1691 40.5699 97.1091C42.9799 97.0491 45.2099 97.0991 47.5199 96.9591C47.9999 96.9291 48.5599 96.8591 48.9699 96.5791C49.5999 96.1391 49.4199 95.3691 49.3299 94.7091C48.5799 89.4791 48.3199 84.2091 48.5799 78.9291C48.5799 78.7791 47.2499 78.8991 47.2299 79.2591C47.0199 83.3791 47.1199 87.5091 47.5499 91.6191C47.6499 92.6291 47.7799 93.6391 47.9199 94.6391C47.9799 95.0291 48.0799 95.4391 48.0799 95.8291C48.0799 96.5091 47.8499 96.4991 47.2399 96.5091L40.8499 96.6491C38.7899 96.6891 36.7199 96.7391 34.6599 96.7791C33.8499 96.7991 32.3999 97.0691 31.7299 96.5291C31.1099 96.0291 31.1799 94.9691 31.5799 94.3691C32.2999 93.2991 33.8099 93.5291 34.9399 93.4891C35.6899 93.4591 36.4399 93.3791 37.1499 93.1391C37.5599 92.9991 38.0499 92.8091 38.2499 92.3991C38.5799 91.7191 37.9799 90.5091 37.7999 89.8291C36.6099 85.3091 35.4299 80.7891 34.2399 76.2691C34.1699 76.0091 32.8299 76.3491 32.8899 76.5991V76.5691Z" fill="#1D1D1B"/>
<path d="M55.8301 73.4302C55.7101 76.3102 55.9501 79.2002 56.5901 82.0102C56.9901 83.7802 57.5201 85.9002 59.6001 86.3202C60.7601 86.5502 62.0601 86.0902 63.1501 85.7602C64.4501 85.3602 65.7101 84.8502 66.9801 84.3602C69.7501 83.2902 72.5301 82.2202 75.3001 81.1502C75.4701 81.0802 74.6001 80.1402 74.3101 80.2502C72.0901 81.1102 69.8701 81.9602 67.6501 82.8202C65.4301 83.6802 63.2901 84.6102 61.0201 85.1802C60.5301 85.3002 60.0401 85.4202 59.5301 85.4602C58.8401 85.5202 58.4401 85.4102 58.1901 84.7102C57.8201 83.6502 57.6001 82.5102 57.4001 81.4002C56.9701 79.0202 56.8201 76.6102 56.9201 74.2002C56.9301 73.8702 55.8301 73.2802 55.8201 73.4302H55.8301Z" fill="#1D1D1B"/>
<path d="M72.07 64.89C71.72 68.74 70.49 72.45 68.47 75.75C68.16 76.25 69.4 76.89 69.72 76.36C71.77 73 73.02 69.19 73.38 65.26C73.43 64.69 72.13 64.23 72.07 64.88V64.89Z" fill="#1D1D1B"/>
<path d="M72.2701 81.5303C73.9201 83.0603 76.0501 84.0803 78.2901 84.4003C79.3201 84.5503 80.3301 84.5903 80.8201 83.5003C81.2801 82.4703 81.2201 81.1803 81.0101 80.1003C80.5601 77.7603 79.3701 75.4103 78.1401 73.3803C76.9101 71.3503 75.4501 69.8203 73.4301 68.7703C72.9301 68.5103 72.0701 68.6403 72.9201 69.0703C76.2101 70.7803 78.1101 74.8103 79.2801 78.1503C79.6301 79.1403 79.8901 80.2003 79.8601 81.2603C79.8401 82.0603 79.6901 83.5203 78.7301 83.7803C77.8901 84.0003 76.6401 83.5503 75.8601 83.2303C74.9001 82.8403 74.0601 82.2503 73.3001 81.5503C73.0701 81.3303 71.7601 81.0503 72.2601 81.5203L72.2701 81.5303Z" fill="#1D1D1B"/>
<path d="M12.2499 47.5287C10.0099 55.7587 10.0099 64.4587 12.2299 72.6887C12.3899 73.2787 13.7699 73.2187 13.5799 72.5487C11.3799 64.3887 11.4099 55.7987 13.6299 47.6387C13.7899 47.0487 12.4199 46.8987 12.2499 47.5287Z" fill="#1D1D1B"/>
<path d="M11.8199 72.5196C11.6499 73.5196 11.4699 74.5296 11.3099 75.5296C11.2399 75.9896 11.2799 76.4096 11.6099 76.7596C11.8999 77.0796 12.3199 77.2696 12.7199 77.4296C14.3999 78.0996 16.4199 77.9696 17.9599 77.0296C18.2299 76.8696 17.9299 76.6296 17.7499 76.5696C17.4699 76.4596 17.0599 76.4296 16.7899 76.5996C16.2599 76.9196 15.6699 77.1296 15.0499 77.1796C14.4299 77.2296 13.8799 77.1496 13.2999 76.8796C13.0499 76.7596 12.7999 76.6096 12.6999 76.3396C12.5699 75.9996 12.6999 75.5596 12.7599 75.2096C12.8999 74.3596 13.0499 73.5096 13.1899 72.6496C13.2599 72.2196 11.8899 72.0596 11.8099 72.5196H11.8199Z" fill="#1D1D1B"/>
<path d="M14.17 77.9489C13.19 79.4189 13.84 81.2189 15.38 81.9689C16.92 82.7189 18.92 82.5789 20.28 81.6289C20.62 81.3889 20.9 81.1089 21.13 80.7689C21.2 80.6689 21.26 80.5689 21.32 80.4589L21.19 80.5589C21.46 80.5589 21.77 80.7189 22.03 80.7889C22.9 81.0489 23.82 81.2089 24.7 80.8789C25.58 80.5489 26.13 79.8389 26.67 79.1289C27.4 78.1589 28.14 77.1889 28.87 76.2189C29.42 75.4989 28.26 75.3989 27.87 75.9089C27.35 76.5989 26.82 77.2889 26.3 77.9889C25.87 78.5589 25.41 79.4189 24.81 79.8189C23.52 80.6789 21.98 78.8489 20.65 79.8189C20.11 80.2089 19.99 80.8389 19.33 81.1189C18.67 81.3989 17.91 81.4089 17.23 81.2889C15.98 81.0689 14.22 79.6589 15.17 78.2289C15.67 77.4689 14.53 77.3889 14.17 77.9189V77.9489Z" fill="#1D1D1B"/>
<path d="M75.9801 42.1209C79.1401 43.6909 82.3801 45.3709 84.4701 48.3209C86.4801 51.1509 87.3601 54.6009 88.1101 57.9409C88.1301 58.0209 89.3901 57.5609 89.3201 57.2709C88.5401 53.8509 87.6401 50.3109 85.5301 47.4409C83.4201 44.5809 80.2201 42.9509 77.1101 41.4109C76.8301 41.2709 75.8801 42.0709 75.9701 42.1209H75.9801Z" fill="#1D1D1B"/>
<path d="M72.4301 51.4407C72.9201 53.4907 73.2501 55.5607 73.4001 57.6607C73.4401 58.2507 73.7601 59.4507 72.9601 59.6007C72.3901 59.7007 71.7801 59.5907 71.2101 59.6507C70.6801 59.7107 70.1301 59.8907 69.7801 60.3107C69.2501 60.9507 69.4401 61.7807 69.7501 62.4707C70.3201 63.7607 71.4601 65.2307 73.0601 64.7907C73.9301 64.5507 73.4601 63.6207 72.7001 63.8307C71.7401 64.0907 70.1801 61.2707 71.1101 60.7107C71.4801 60.4907 72.1201 60.6207 72.5301 60.6107C73.0301 60.6107 73.5601 60.5707 74.0101 60.3507C74.5201 60.1007 74.8001 59.6507 74.8601 59.0907C74.9401 58.2307 74.7801 57.2907 74.6901 56.4407C74.5001 54.6707 74.2001 52.9207 73.7801 51.1907C73.6301 50.5807 72.2701 50.7407 72.4401 51.4407H72.4301Z" fill="#1D1D1B"/>
<path d="M74.1799 63.1381C73.7699 64.2381 73.5799 65.2681 74.2799 66.2981C74.7299 66.9681 75.4699 67.5881 76.2999 67.2181C76.7499 67.0181 77.0399 66.7381 77.5699 66.7781C77.9799 66.8081 78.3699 66.9881 78.7299 67.1781C79.3999 67.5181 80.0299 67.9581 80.7499 68.1581C81.4699 68.3581 82.0999 68.1581 82.5499 67.5881C83.0399 66.9681 83.3799 65.7981 84.3799 65.9581C85.3799 66.1181 85.9199 66.9381 86.9999 66.5581C87.8699 66.2481 88.3999 65.4181 88.3599 64.5181C88.3499 64.2281 88.1099 63.8781 87.8899 63.6881C87.7799 63.5981 87.4699 63.3581 87.4799 63.6681C87.5199 64.5081 86.8799 65.2581 86.0699 65.4581C85.1599 65.6881 84.5699 64.9181 83.7199 64.7981C82.2299 64.5781 82.1999 66.6881 80.9799 67.0381C79.8099 67.3681 78.5899 66.1281 77.5499 65.7781C77.0499 65.6081 76.5299 65.5581 76.0399 65.7781C75.7199 65.9181 75.1399 66.4481 74.7699 66.1081C74.3599 65.7281 74.8799 64.5881 75.0399 64.1781C75.1699 63.8281 74.2799 62.8681 74.1799 63.1481V63.1381Z" fill="#1D1D1B"/>
<path d="M88.06 57.7306C88.39 59.8406 88.08 62.0106 87.18 63.9506C87.09 64.1506 87.68 63.9506 87.71 63.9306C87.94 63.8306 88.29 63.6706 88.41 63.4206C89.33 61.4506 89.63 59.2406 89.29 57.0906C89.27 56.9506 88 57.3606 88.06 57.7206V57.7306Z" fill="#1D1D1B"/>
<path d="M43.22 31.5484C43.53 33.4784 43.84 35.4184 44.15 37.3484C44.31 38.3384 44.47 39.3284 44.63 40.3284C44.69 40.7384 44.81 41.1584 44.78 41.5784C44.78 41.6984 44.76 41.8184 44.72 41.9384L45.61 41.7184C45.47 41.7984 45.25 41.8184 45.1 41.8584C43.9 42.2384 42.44 42.7784 42.12 44.1284C41.75 45.6684 42.93 46.9184 44.07 47.7484C44.26 47.8884 45 47.4884 45.18 47.4084C45.26 47.3684 46.22 46.8584 46.2 46.8484C45.08 46.0284 43.93 44.8384 44.23 43.3284C44.26 43.1584 44.31 42.9884 44.38 42.8284C44.44 42.6884 44.73 42.3984 44.74 42.2784C44.94 42.0884 44.8 42.1284 44.31 42.4084C43.77 42.5984 43.64 42.6584 43.92 42.5784C44.09 42.5484 44.26 42.4884 44.42 42.4384C45.1 42.2184 45.95 41.9384 46.51 41.4684C47.07 40.9984 46.89 40.2384 46.79 39.5784C46.63 38.5884 46.47 37.5984 46.31 36.5984L45.36 30.6484C45.36 30.6484 43.18 31.2084 43.23 31.5584L43.22 31.5484Z" fill="#1D1D1B"/>
<path d="M36.6199 9.30832C42.6999 9.30832 48.7899 9.30832 54.8699 9.30832C55.1399 9.30832 55.5999 9.30832 55.3199 9.01832C55.0399 8.72832 54.1099 8.73832 53.7599 8.73832C47.6799 8.73832 41.5899 8.73832 35.5099 8.73832C35.2399 8.73832 34.7799 8.73832 35.0599 9.02832C35.3399 9.31832 36.2699 9.30832 36.6199 9.30832Z" fill="#303031"/>
<path d="M38.1901 14.69C39.6701 12.45 41.1601 10.2 42.8101 8.08005C43.6101 7.04005 44.4601 6.03005 45.3601 5.08005C46.0601 4.35005 47.3401 2.95005 48.4801 3.05005L47.8701 2.91005C48.5301 3.18005 48.7901 4.59005 48.9901 5.19005C49.3101 6.19005 49.6201 7.18005 49.9401 8.18005C50.5601 10.15 51.1901 12.12 51.8101 14.09C51.9701 14.6 53.6801 14.55 53.4901 13.93C52.6101 11.14 51.7301 8.35005 50.8501 5.57005C50.5501 4.63005 50.3001 3.17005 49.4701 2.54005C48.6401 1.91005 47.3101 2.25005 46.4501 2.65005C44.2901 3.64005 42.6701 5.87005 41.2501 7.70005C39.5701 9.86005 38.0601 12.14 36.5501 14.42C36.2301 14.9 37.9001 15.17 38.2101 14.69H38.1901Z" fill="#303031"/>
</svg>
