<svg width="163" height="186" viewBox="0 0 163 186" fill="none" xmlns="http://www.w3.org/2000/svg">
<g clip-path="url(#clip0_516_1178)">
<rect width="163" height="186" fill="white"/>
<path d="M59.4711 88.7051C58.9085 92.2846 59.437 95.9494 60.9715 99.2392C61.142 99.5971 60.0679 99.2392 59.9997 99.2051C59.5734 99.0176 58.9426 98.7448 58.7379 98.2846C57.1864 94.9437 56.6749 91.1937 57.2375 87.563C57.2716 87.3073 59.5734 88.0573 59.4711 88.7051Z" fill="#1B1C1A"/>
<path d="M61.0397 161.592C91.5682 161.592 116.317 135.531 116.317 103.382C116.317 71.2335 91.5682 45.1719 61.0397 45.1719C30.5112 45.1719 5.76294 71.2335 5.76294 103.382C5.76294 135.531 30.5112 161.592 61.0397 161.592Z" fill="#F6D569"/>
<path d="M77.135 82.0234L79.0617 87.0178L81.7044 83.7109L85.6601 87.7337L83.239 91.1769L87.5527 92.5234L87.331 98.0291L82.8468 96.853L84.8587 102.12L80.0165 104.302L77.9022 98.728L74.7139 103.262L69.7011 98.728L73.2305 94.3303L67.5698 92.8473L68.5928 86.6257L73.9978 88.3132L72.0029 83.0121L77.135 82.0234Z" fill="#1B1C1A"/>
<path d="M44.0749 82.0234L46.0016 87.0178L48.6614 83.7109L52.6171 87.7337L50.1789 91.1769L54.4926 92.5234L54.271 98.0291L49.7868 96.853L51.8157 102.12L46.9564 104.302L44.8592 98.728L41.6538 103.262L36.641 98.728L40.1704 94.3303L34.5098 92.8473L35.5328 86.6257L40.9377 88.3132L38.9428 83.0121L44.0749 82.0234Z" fill="#1B1C1A"/>
<path d="M65.1658 80.1815C64.6372 83.4542 64.1257 86.7269 63.5971 89.9996C63.3243 91.6871 63.0686 93.3576 62.7958 95.0451C62.6935 95.7269 62.4889 96.4599 62.54 97.1587C62.54 97.3633 62.5741 97.5678 62.6423 97.7553L62.3354 97.9258C62.4036 98.0281 62.881 98.0792 63.0174 98.1133C64.7906 98.6758 66.5809 99.511 67.0583 101.471C67.6721 104.079 65.6943 106.193 63.7506 107.608C63.2902 107.949 61.6364 106.483 61.4318 106.619C63.3243 105.238 65.2681 103.21 64.7736 100.653C64.7224 100.363 64.6372 100.074 64.5178 99.8008C64.4326 99.6303 63.8699 98.9656 63.887 98.8462C63.6994 98.6758 63.7335 98.6758 64.0234 98.7951C64.3473 98.8803 64.3644 98.8974 64.0916 98.8292C63.8358 98.761 63.5971 98.6928 63.3584 98.6246C62.54 98.369 61.517 98.0281 60.8691 97.4656C59.9313 96.6474 60.2723 95.386 60.4428 94.3121L61.2442 89.2667L62.8469 79.1758C62.8469 79.1758 65.2169 79.7724 65.1658 80.1644V80.1815Z" fill="#1B1C1A"/>
<path d="M161.875 113.845C140.051 113.845 118.243 113.845 96.419 113.845C95.7882 113.845 94.5094 113.606 94.1684 112.975C93.8274 112.345 94.4753 112.191 95.038 112.191H160.494C161.125 112.191 162.403 112.43 162.744 113.061C163.085 113.691 162.437 113.845 161.875 113.845Z" fill="#1B1C1A"/>
<path d="M96.8452 113.881C94.4411 125.012 90.7924 135.819 85.9501 146.131C85.4386 147.222 82.1308 146.131 82.5571 145.228C87.3994 134.932 91.0481 124.108 93.4522 112.978C93.6909 111.904 97.0839 112.756 96.8452 113.881Z" fill="#1B1C1A"/>
<path d="M162.966 113.845C160.119 121.055 156.998 128.146 153.588 135.101C151.918 138.493 150.195 141.851 148.388 145.174C147.706 146.436 147.109 148.123 145.848 148.958C144.381 149.947 142.284 149.657 140.613 149.674C124.467 149.845 108.303 149.998 92.1565 150.169C83.0176 150.254 73.8617 150.356 64.7227 150.441C64.0066 150.441 62.8302 150.22 62.5062 149.47C62.1823 148.771 62.779 148.328 63.461 148.328C79.1302 148.174 94.7993 148.021 110.451 147.851C118.243 147.765 126.018 147.697 133.81 147.612C135.652 147.595 137.51 147.578 139.352 147.561C140.238 147.561 141.278 147.663 142.165 147.527C143.188 147.356 143.597 146.794 144.091 145.907C146.001 142.566 147.74 139.106 149.445 135.663C153.145 128.231 156.504 120.629 159.556 112.907C160.068 111.612 163.426 112.601 162.949 113.811L162.966 113.845Z" fill="#1B1C1A"/>
<path d="M85.1998 145.72C80.3064 146.078 75.4129 146.453 70.5366 146.811C68.0984 146.998 65.6432 147.169 63.205 147.356C62.0797 147.441 60.9544 147.527 59.812 147.612C59.3005 147.646 58.7208 147.612 58.2263 147.731C57.766 147.748 57.4591 147.97 57.3397 148.379C56.4361 148.226 56.2656 148.14 56.8623 148.123C57.6807 147.987 58.6696 148.123 59.2493 148.771C59.7097 149.265 59.6585 150.032 58.8742 150.152C57.1692 150.424 52.8385 149.913 54.0661 147.135C54.5946 145.941 56.0269 145.686 57.1692 145.566C58.9254 145.379 60.7157 145.294 62.4718 145.174L83.9039 143.572C84.6201 143.521 85.7965 143.811 86.1205 144.544C86.4444 145.277 85.8306 145.669 85.1486 145.72H85.1998Z" fill="#1B1C1A"/>
<path d="M25.2003 117.803C25.6436 123.291 30.4177 126.803 35.4646 127.911C38.5677 128.592 41.7731 128.644 44.9445 128.729C48.1158 128.814 51.2872 128.814 54.4414 128.61C55.9589 128.507 57.4934 128.371 58.9939 128.149C60.3749 127.962 61.756 127.706 63.1541 127.928C65.4559 128.303 67.4678 129.837 69.2751 131.2C71.3723 132.786 73.316 134.592 75.0381 136.57C76.3339 138.036 78.2947 140.371 76.8284 142.382C75.4985 144.206 72.5999 143.235 71.1677 142.11C68.6443 140.132 66.854 137.388 63.4269 136.962C62.4039 136.842 61.5002 135.666 63.0689 135.871C65.2683 136.144 67.2462 137.03 69.0194 138.325C69.906 138.973 70.7244 139.723 71.5087 140.49C71.9009 140.882 72.293 141.428 72.7704 141.717C74.0151 142.467 74.8335 141.82 75.021 140.695C75.4132 138.274 72.2589 135.666 70.6903 134.166C68.8489 132.411 66.7517 130.621 64.484 129.428C62.9836 128.644 61.415 129.104 59.8123 129.308C58.2948 129.496 56.7773 129.632 55.2428 129.717C52.3954 129.888 49.531 129.905 46.6836 129.854C41.5685 129.752 36.1977 129.683 31.4066 127.655C27.1611 125.865 23.3078 122.252 22.9327 117.445C22.8645 116.661 25.1321 117.104 25.1833 117.769L25.2003 117.803Z" fill="#1B1C1A"/>
<path d="M62.779 134.286C63.6997 136.365 66.3766 142.382 62.3186 142.928C61.5855 143.03 60.8523 142.809 60.2044 142.502C59.6759 142.246 59.7611 142.195 59.3349 142.536C59.0791 142.74 58.9086 143.013 58.6188 143.201C57.0842 144.189 55.5327 143.439 53.9129 143.303L54.8166 143.115C53.6742 143.934 52.7023 144.309 51.2872 144.377C49.6333 144.445 47.9112 144.326 46.2744 144.002C43.6146 143.49 40.1704 142.11 39.9488 138.956C39.8806 138.019 42.1483 138.462 42.2165 139.229C42.4211 142.314 45.9334 142.877 48.4057 143.03C49.5651 143.098 51.0314 143.269 52.0885 142.689C52.5489 142.434 52.7876 142.076 53.3332 142.024C53.9299 141.973 54.4926 142.212 55.0723 142.331C55.8055 142.485 56.4704 142.451 57.0331 141.922C57.3911 141.581 57.6128 141.189 58.0902 141.002C59.2155 140.576 59.9998 141.24 61.0058 141.496C62.6085 141.905 62.1481 138.922 61.9606 138.138C61.6025 136.723 61.1081 135.36 60.5113 134.03C60.2897 133.553 61.2615 133.502 61.4832 133.536C61.9947 133.587 62.5403 133.826 62.762 134.303L62.779 134.286Z" fill="#1B1C1A"/>
<path d="M12.3783 119.283C10.9461 122.436 11.3894 125.931 12.2248 129.186C13.0603 132.442 14.8335 135.51 17.8514 137.317C21.0739 139.243 25.2171 139.771 28.9 140.163C32.31 140.538 35.9417 140.777 38.9596 138.851C39.5222 138.493 41.4489 139.413 41.0738 139.635C37.9025 141.663 34.0321 141.544 30.4174 141.203C26.2572 140.794 21.8753 140.163 18.0219 138.459C14.5437 136.908 11.7815 134.163 10.5028 130.55C9.20696 126.885 8.4397 122.351 10.1106 118.686C10.3834 118.09 12.5658 118.84 12.3612 119.283H12.3783Z" fill="#1B1C1A"/>
<path d="M51.7643 74.2665C51.321 71.7949 48.8146 70.1927 46.5469 69.579C43.9212 68.8461 41.466 71.1983 39.7098 72.8347C39.2153 73.2949 37.1182 72.4597 37.5956 72.0165C38.8232 70.8745 40.119 69.7324 41.6535 69.0165C43.2903 68.2495 45.0636 68.2154 46.7856 68.6756C49.6501 69.4597 53.4182 71.3858 53.9979 74.6074C54.1172 75.3063 51.8666 74.9143 51.7643 74.2665Z" fill="#1B1C1A"/>
<path d="M85.0465 74.2665C84.6032 71.7949 82.0968 70.1927 79.8291 69.579C77.2034 68.8461 74.7482 71.1983 72.992 72.8347C72.4976 73.2949 70.4004 72.4597 70.8778 72.0165C72.1054 70.8745 73.4012 69.7324 74.9357 69.0165C76.5726 68.2495 78.3458 68.2154 80.0678 68.6756C82.9323 69.4597 86.7004 71.3858 87.2801 74.6074C87.3994 75.3063 85.1488 74.9143 85.0465 74.2665Z" fill="#1B1C1A"/>
<path d="M127.109 127.073C127.109 126.511 127.024 125.931 126.837 125.403C126.751 125.164 126.632 124.925 126.496 124.687C126.444 124.584 126.376 124.482 126.308 124.38C126.274 124.329 126.103 124.175 126.206 124.227L126.751 124.482H126.649C126.939 124.465 127.212 124.482 127.502 124.482C127.621 124.38 127.621 124.38 127.519 124.482L127.314 124.738L127.007 125.113C126.768 125.403 126.53 125.692 126.291 125.999C126.052 126.306 125.848 126.596 125.575 126.834C125.132 127.244 124.432 127.175 123.938 126.937C123.256 126.613 122.966 125.863 122.54 125.283C122.335 125.011 122.114 124.738 121.875 124.482C121.756 124.363 121.636 124.227 121.517 124.107C121.483 124.073 121.193 123.886 121.363 123.954L121.96 124.107C122.318 123.988 122.403 123.988 122.199 124.107C122.199 124.141 122.165 124.158 122.148 124.175C122.062 124.261 122.011 124.38 121.943 124.482C121.79 124.755 121.67 125.028 121.551 125.317C121.295 125.914 121.091 126.545 120.92 127.175C120.681 128.113 118.414 127.533 118.669 126.579C118.874 125.744 119.164 124.942 119.556 124.158C119.948 123.374 120.375 122.658 121.329 122.59C122.421 122.522 123.188 123.289 123.836 124.039C124.126 124.38 124.415 124.721 124.671 125.096C124.876 125.369 125.149 125.897 125.319 126.05L124.876 125.744L124.961 125.778L124.074 125.607H124.16C123.955 125.692 123.733 125.778 123.529 125.88C123.836 125.607 124.074 125.232 124.347 124.908C124.586 124.619 124.825 124.329 125.063 124.022C125.302 123.715 125.541 123.357 125.882 123.17C126.393 122.88 127.075 122.999 127.57 123.255C128.235 123.613 128.661 124.397 128.951 125.062C129.241 125.727 129.411 126.494 129.411 127.261C129.411 127.806 128.848 127.942 128.388 127.908C127.996 127.874 127.126 127.584 127.126 127.056L127.109 127.073Z" fill="#1B1C1A"/>
<path d="M111.474 1.6515C108.047 5.98104 106.615 11.2651 106.052 16.6685C105.37 23.1629 105.489 29.7765 105.319 36.3049C105.234 39.7651 105.131 43.2083 105.063 46.6685C105.012 49.464 105.046 52.3447 105.762 55.072C107.212 60.5265 111.679 63.6117 116.896 65.0776C122.744 66.714 129.326 67.3106 135.361 66.6117C140.8 65.981 144.995 63.2708 147.245 58.1913C149.735 52.6004 150.502 45.9867 151.201 39.9697C152.002 33.1004 152.275 26.1288 151.713 19.2424C151.406 15.4583 150.826 11.6572 149.786 8.00945C148.882 4.85604 147.075 3.23673 143.938 2.41854C136.555 0.475362 128.797 -0.172366 121.176 0.0321799C119.488 0.0833162 118.874 2.24809 120.903 2.17991C127.263 2.00945 133.605 2.55491 139.829 3.85036C142.42 4.39582 145.319 4.78786 146.427 7.54922C147.552 10.3958 147.996 13.7197 148.388 16.7367C149.922 28.5492 148.746 41.0435 146.052 52.6174C144.858 57.7481 142.778 63.0322 137.066 64.2254C131.355 65.4185 125.165 64.6685 119.743 63.3731C114.799 62.197 110.315 59.7424 108.814 54.5606C107.297 49.3276 108.149 43.3276 108.286 37.9413C108.439 31.6004 108.422 25.2083 108.848 18.8674C109.241 13.089 110.264 7.14013 113.963 2.48673C115.123 1.00377 112.31 0.577634 111.474 1.63445V1.6515Z" fill="black"/>
<path d="M61.1762 113.027C62.8642 112.448 64.8079 112.857 66.189 113.999C66.7175 114.442 67.4507 115.26 67.4336 115.993C67.4166 116.505 66.9221 116.811 66.5641 117.084C66.1378 117.408 65.6945 117.715 65.2341 118.005L64.5862 117.05C65.0466 117.186 65.5411 117.186 66.0185 117.255C66.5811 117.34 67.1438 117.476 67.6382 117.732C68.4225 118.141 69.0534 118.891 69.1898 119.777C69.4797 121.669 67.6041 122.675 66.1208 123.289C65.6945 123.459 65.1319 123.34 64.7567 123.101C64.518 122.948 64.16 122.522 64.5862 122.351C65.6945 121.891 67.2802 121.209 67.2802 119.777C67.2802 119.334 67.0585 118.669 66.6493 118.414C66.3765 118.243 65.9503 118.277 65.6434 118.243C65.2001 118.192 64.7397 118.124 64.3134 118.005C63.9724 117.902 63.0688 117.442 63.6655 117.05C64.2282 116.709 64.9273 116.3 65.3535 115.789C65.6775 115.414 65.0807 114.732 64.8079 114.459C64.2111 113.897 63.495 113.675 62.7107 113.948C62.2674 114.101 61.7389 114.016 61.3467 113.76C61.1251 113.624 60.7329 113.164 61.1762 113.01V113.027Z" fill="#1B1C1A"/>
<path d="M66.4105 117.972C74.3559 118.586 82.3354 117.768 89.9909 115.586C90.366 115.484 91.6278 115.109 91.4743 114.512C91.3209 113.915 89.9739 114.239 89.667 114.325C82.7957 116.285 75.6347 117.001 68.5077 116.455C67.7404 116.404 66.7856 116.592 66.1718 117.086C65.6944 117.461 65.7114 117.921 66.4105 117.972Z" fill="#1B1C1A"/>
<path d="M105.097 110.095C113.81 106.414 118.414 98.334 122.489 90.3056C124.142 87.0329 125.796 83.7261 126.922 80.2147C128.183 76.2943 128.678 72.1863 129.019 68.0783C129.206 65.8795 124.211 66.7488 124.057 68.6068C123.75 72.3908 123.307 76.1749 122.25 79.8397C121.329 83.0102 119.897 85.9931 118.414 88.942C114.799 96.1352 110.946 104.419 103.085 107.743C102.301 108.067 101.142 109.004 101.824 109.925C102.506 110.845 104.296 110.436 105.132 110.078L105.097 110.095Z" fill="#1B1C1A"/>
<path d="M144.91 11.8476C142.455 7.99529 136.896 8.59189 133.827 9.6487C126.41 12.2226 126.905 9.06916 123.12 8.08052C119.028 7.0237 115.976 10.7226 115.976 10.7226C110.775 17.3021 111.798 26.6942 111.389 44.7453C110.98 62.7964 125.097 60.8021 133.844 62.0976C142.574 63.393 145.029 47.6771 145.319 46.0407C145.609 44.4044 148.797 17.8646 144.927 11.8305L144.91 11.8476ZM135.447 42.1885C132.173 43.6885 130.724 42.6828 124.978 39.3248C119.215 35.9669 125.507 33.4271 125.507 33.4271C126.683 32.6771 133.469 33.6146 135.703 35.7453C137.936 37.8589 138.738 40.7055 135.447 42.2055V42.1885Z" fill="#F6D569"/>
<path d="M112.821 18.4095C122.267 16.2277 132.037 17.4038 141.551 18.5288C142.284 18.614 143.341 18.4777 143.887 17.8981C144.313 17.4549 144.364 16.8924 143.597 16.8072C133.213 15.5799 122.727 14.489 112.429 16.8584C111.969 16.9606 110.809 17.4209 110.997 18.0686C111.184 18.7163 112.429 18.4947 112.855 18.3924L112.821 18.4095Z" fill="#1B1C1A"/>
<path d="M124.467 35.5238C124.313 33.6317 125.404 31.8931 127.212 31.6715C128.286 31.5351 129.411 31.8079 130.434 32.0976C131.559 32.4215 132.753 32.8135 133.81 33.359C135.72 34.3476 136.231 36.7681 136.419 38.7454C136.521 39.6999 136.419 40.842 135.566 41.4556C134.901 41.9329 133.964 41.984 133.179 41.9329C130.588 41.7283 128.388 40.0408 126.734 38.1488C126.001 37.3135 122.847 38.4897 123.665 39.4272C125.762 41.8306 128.525 43.5181 131.747 43.7567C134.543 43.9613 138.993 42.9386 139.658 39.6999C139.948 38.3192 139.624 36.717 139.215 35.3874C138.806 34.0579 138.124 32.8988 136.964 32.1317C135.634 31.2624 133.946 30.7851 132.446 30.359C130.946 29.9329 129.189 29.6772 127.553 29.9158C124.143 30.3931 120.852 32.6261 121.159 36.4101C121.244 37.4499 124.552 36.7681 124.45 35.5238H124.467Z" fill="#1B1C1A"/>
<path d="M138.363 37.1264C135.089 35.9503 131.662 35.2003 128.201 34.8764C127.433 34.8082 126.41 35.1151 126.052 35.8821C125.694 36.6491 126.359 37.1776 127.041 37.2287C130.298 37.5185 133.35 38.2003 136.436 39.3082C137.203 39.581 138.243 39.3082 138.772 38.6776C139.3 38.0469 139.079 37.3821 138.363 37.1264Z" fill="#1B1C1A"/>
<path d="M111.969 48.2545C120.289 47.6067 128.661 48.442 136.674 50.7601C137.476 50.9988 138.465 50.8283 139.01 50.1295C139.454 49.5499 139.334 48.6806 138.567 48.459C130.025 45.9874 121.125 45.0499 112.241 45.7317C111.508 45.7829 110.519 46.2601 110.434 47.0954C110.349 47.9306 111.287 48.2886 111.969 48.2374V48.2545Z" fill="#1B1C1A"/>
<path d="M141.005 50.5573L141.858 51.0687C141.96 51.1198 142.079 51.1368 142.199 51.1368C142.369 51.1539 142.523 51.1368 142.693 51.1368C142.898 51.1198 143.12 51.0857 143.324 51.0175C143.546 50.9664 143.767 50.9152 143.972 50.83L144.347 50.6766C144.552 50.5914 144.722 50.4891 144.893 50.3698L145.029 50.2164C145.08 50.1141 145.063 50.0459 144.961 49.9777L144.108 49.4664C144.006 49.4152 143.887 49.3982 143.767 49.3982C143.597 49.3812 143.443 49.3982 143.273 49.3982C143.068 49.4152 142.847 49.4493 142.642 49.5175C142.42 49.5687 142.199 49.6198 141.994 49.705L141.619 49.8584C141.415 49.9437 141.244 50.0459 141.074 50.1652L140.937 50.3187C140.886 50.4209 140.903 50.4891 141.005 50.5573Z" fill="#1B1C1A"/>
<path d="M115.379 22.4834C113.998 22.7902 113.009 23.8641 112.548 25.1766C112.361 25.7391 112.207 26.4209 112.361 27.0175C112.565 27.8016 113.35 28.0743 114.1 28.0914C115.089 28.1084 116.095 27.8698 116.981 27.4436C117.186 27.3414 117.663 27.0516 117.425 26.7789C117.186 26.5232 116.606 26.6254 116.334 26.7618C116.163 26.847 115.975 26.9323 115.805 26.9834C115.958 26.9323 115.652 27.0175 115.617 27.0345C115.532 27.0516 115.464 27.0686 115.379 27.0857C115.549 27.0516 115.225 27.1027 115.191 27.1027C115.106 27.1027 115.021 27.1198 114.935 27.1198C114.833 27.1198 114.833 27.1198 114.901 27.1198C114.85 27.1198 114.799 27.1198 114.748 27.1198C114.748 27.1198 114.526 27.1198 114.646 27.1198C114.39 27.0857 114.168 26.9664 114.066 26.6936C113.946 26.3868 113.964 26.08 114.015 25.7732C114.1 25.1766 114.305 24.6141 114.629 24.1198C114.816 23.847 114.918 23.7448 115.157 23.5232C115.191 23.4891 115.191 23.4891 115.14 23.5232C115.174 23.5061 115.208 23.472 115.242 23.455C115.276 23.4379 115.311 23.4039 115.345 23.3868C115.259 23.4209 115.242 23.4379 115.293 23.4039C115.362 23.3698 115.43 23.3357 115.498 23.3186C115.259 23.3527 115.549 23.3186 115.583 23.3186C115.839 23.2675 116.385 23.0118 116.299 22.6709C116.214 22.33 115.6 22.4152 115.362 22.4664L115.379 22.4834Z" fill="#1B1C1A"/>
<path d="M119.931 23.2162C118.908 23.881 118.533 25.2105 118.823 26.3696C118.891 26.6424 119.028 26.9492 119.249 27.1537C119.59 27.4605 120.034 27.5628 120.494 27.5287C121.329 27.4605 122.062 26.9321 122.625 26.3526C122.881 26.0799 123.154 25.773 123.29 25.4151C123.427 25.0571 123.444 24.5969 123.12 24.3242C122.83 24.0515 122.352 24.0855 122.011 24.256C121.858 24.3412 121.653 24.4435 121.585 24.614C121.534 24.7333 121.483 24.9208 121.602 25.023C121.636 25.0571 121.67 25.0912 121.687 25.1253C121.653 25.023 121.687 25.1083 121.687 25.1253C121.687 25.1424 121.687 25.1765 121.704 25.1935C121.721 25.2105 121.704 25.2446 121.704 25.2617C121.704 25.2617 121.704 25.1765 121.704 25.2446C121.704 25.3128 121.687 25.364 121.67 25.4151C121.67 25.3299 121.67 25.398 121.67 25.4151C121.67 25.4321 121.653 25.4662 121.636 25.4833C121.619 25.5344 121.585 25.5685 121.551 25.6196C121.551 25.6367 121.517 25.6708 121.5 25.6878C121.5 25.6708 121.585 25.5855 121.5 25.6878C121.449 25.739 121.415 25.7901 121.363 25.8412C121.278 25.9435 121.193 26.0287 121.091 26.114C121.057 26.148 121.005 26.2162 120.954 26.2333C120.954 26.2333 121.057 26.148 120.988 26.1992C120.954 26.2162 120.92 26.2503 120.903 26.2674C120.852 26.3015 120.801 26.3526 120.75 26.3867C120.733 26.3867 120.698 26.4208 120.681 26.4378C120.613 26.489 120.733 26.4037 120.75 26.4037C120.698 26.4037 120.647 26.4549 120.596 26.4719C120.46 26.5401 120.63 26.4549 120.647 26.4549C120.63 26.4549 120.562 26.4719 120.545 26.489C120.545 26.489 120.733 26.4549 120.63 26.4719C120.545 26.4719 120.716 26.4719 120.716 26.4719C120.613 26.4719 120.698 26.4719 120.716 26.4719C120.818 26.4719 120.664 26.4378 120.733 26.4719C120.801 26.506 120.681 26.4378 120.664 26.4208C120.613 26.3867 120.681 26.4208 120.698 26.4378C120.681 26.4208 120.664 26.3867 120.63 26.3696C120.596 26.3355 120.562 26.2844 120.545 26.2333C120.511 26.1821 120.545 26.2333 120.545 26.2503C120.545 26.2333 120.528 26.1992 120.511 26.1821C120.46 26.0799 120.443 25.9776 120.409 25.8583C120.392 25.756 120.375 25.6537 120.357 25.5515C120.357 25.5003 120.357 25.4492 120.357 25.4151C120.357 25.5174 120.357 25.381 120.357 25.3469C120.357 25.1253 120.392 24.9208 120.426 24.7162C120.426 24.6651 120.46 24.614 120.477 24.5628C120.477 24.5458 120.477 24.5117 120.494 24.4946C120.477 24.5628 120.494 24.5458 120.494 24.4946C120.528 24.3924 120.579 24.3071 120.647 24.2049C120.647 24.1708 120.681 24.1537 120.698 24.1196C120.698 24.1026 120.784 24.0344 120.698 24.1026C120.63 24.1708 120.75 24.0515 120.767 24.0344C120.767 24.0344 120.801 24.0003 120.818 23.9833C120.903 23.898 120.852 23.9833 120.801 23.9833C120.852 23.9662 120.903 23.9151 120.954 23.881C121.21 23.7105 121.415 23.3185 121.074 23.114C120.716 22.9094 120.221 23.0287 119.897 23.2333L119.931 23.2162Z" fill="#1B1C1A"/>
<path d="M128.081 21.9046L127.638 21.2228C127.484 20.9842 127.075 21.0012 126.854 21.0353C126.564 21.0864 126.24 21.2399 126.103 21.4955C125.234 23.1149 124.62 24.8876 124.279 26.6944C124.211 27.0864 124.739 27.2058 125.029 27.1717C125.387 27.1376 125.865 26.933 125.95 26.541C126.274 24.8194 126.854 23.183 127.672 21.6319L126.137 21.9046L126.581 22.5864C126.785 22.9103 127.399 22.808 127.689 22.6717C127.979 22.5353 128.32 22.2285 128.098 21.8876L128.081 21.9046Z" fill="#1B1C1A"/>
<path d="M125.012 24.4939C125.439 24.4598 125.848 24.4257 126.274 24.4087C126.376 24.4087 126.479 24.4087 126.581 24.4087C126.393 24.4087 126.768 24.4087 126.581 24.4087C126.632 24.4087 126.683 24.4087 126.734 24.4087C126.956 24.4087 127.178 24.4087 127.382 24.4087C127.587 24.4087 127.826 24.3746 128.03 24.2893C128.184 24.2212 128.388 24.0848 128.456 23.9314C128.525 23.795 128.542 23.6416 128.439 23.5223C128.32 23.403 128.15 23.3348 127.979 23.3178C127.058 23.2837 126.121 23.3178 125.2 23.403C124.995 23.42 124.757 23.5053 124.586 23.6246C124.467 23.7098 124.296 23.8632 124.296 24.0166C124.262 24.4087 124.739 24.5109 125.029 24.4768L125.012 24.4939Z" fill="#1B1C1A"/>
<path d="M132.668 21.3593C132.02 21.0524 131.065 21.3422 130.622 21.8877C130.298 22.2968 130.247 22.8934 130.161 23.3706C129.957 24.4786 129.854 25.5865 129.837 26.7115C129.837 27.0695 130.264 27.1206 130.554 27.0695C130.775 27.0354 130.997 26.9672 131.184 26.865C131.287 26.7968 131.491 26.6604 131.491 26.507C131.491 25.6718 131.559 24.8365 131.679 24.0013C131.73 23.6093 131.798 23.2002 131.883 22.8081C131.918 22.6036 131.952 22.4161 132.02 22.2115C132.02 22.1774 132.071 22.0922 132.071 22.0581C132.122 21.9899 132.122 21.9729 132.105 22.007C131.883 22.1604 131.645 22.2115 131.355 22.1604C131.713 22.3309 132.207 22.2115 132.514 22.007C132.736 21.8706 133.009 21.5297 132.651 21.3593H132.668Z" fill="#1B1C1A"/>
<path d="M129.735 24.3928H131.883C132.105 24.3928 132.327 24.3416 132.531 24.2564C132.668 24.2053 132.889 24.0859 132.974 23.9496C133.043 23.8473 133.077 23.728 132.974 23.6428C132.855 23.5405 132.685 23.5234 132.531 23.5234H130.383C130.161 23.5234 129.94 23.5746 129.735 23.6598C129.599 23.7109 129.377 23.8303 129.292 23.9666C129.223 24.0689 129.189 24.1882 129.292 24.2734C129.411 24.3757 129.581 24.3928 129.735 24.3928Z" fill="#1B1C1A"/>
<path d="M133.998 25.2784C135.089 25.3636 136.18 25.3636 137.271 25.2784C137.868 25.2272 138.567 25.0909 138.891 24.5284C139.164 24.0681 138.857 23.5227 138.618 23.1136C138.379 22.7045 138.056 22.3977 137.629 22.2443C136.964 22.0056 136.197 22.517 135.754 22.9772C135.106 23.659 134.645 24.5965 134.339 25.4829C134.168 25.9943 133.878 26.6249 134.287 27.1022C134.731 27.6306 135.464 27.6477 136.095 27.5795C136.436 27.5454 136.964 27.3409 137.015 26.9318C137.067 26.5227 136.572 26.4034 136.265 26.4374C136.197 26.4374 136.146 26.4374 136.078 26.4374C136.044 26.4374 135.89 26.4374 136.027 26.4374C135.975 26.4374 135.924 26.4374 135.873 26.4374C135.805 26.4034 135.975 26.4545 135.873 26.4374C135.941 26.4715 135.805 26.3863 135.805 26.3863C135.822 26.3863 135.856 26.4204 135.805 26.3863L135.771 26.3352C135.771 26.3181 135.754 26.267 135.754 26.2499C135.754 26.0795 135.839 25.8238 135.89 25.6874C135.958 25.4659 136.061 25.2443 136.146 25.0227C136.333 24.5965 136.555 24.1874 136.811 23.7954C136.828 23.7613 136.862 23.7272 136.879 23.6761C136.828 23.7613 136.913 23.642 136.913 23.6249C136.981 23.5397 137.033 23.4715 137.118 23.3863C137.118 23.3863 137.254 23.2499 137.186 23.3181C137.118 23.3863 137.271 23.2499 137.271 23.2499C137.322 23.2329 137.339 23.1988 137.271 23.2499C137.339 23.2159 137.391 23.1988 137.459 23.1647L136.623 23.2499C136.743 23.284 136.589 23.2159 136.657 23.2499C136.692 23.267 136.726 23.284 136.76 23.3181C136.794 23.3352 136.862 23.4034 136.794 23.3522C136.828 23.3863 136.845 23.4034 136.879 23.4374C136.998 23.5738 137.118 23.7613 137.186 23.8806C137.186 23.8977 137.254 24.034 137.288 24.1022C137.305 24.1534 137.322 24.2386 137.339 24.2727C137.425 24.3579 137.305 24.2727 137.356 24.2897C137.356 24.2897 137.459 24.1874 137.476 24.1704C137.527 24.1193 137.595 24.1022 137.663 24.0681C137.51 24.1193 137.783 24.0681 137.697 24.0681C137.646 24.0681 137.578 24.0681 137.527 24.0681C137.033 24.1022 136.538 24.1363 136.044 24.1363C136.044 24.1363 135.839 24.1363 135.907 24.1363C135.975 24.1363 135.754 24.1363 135.771 24.1363C135.651 24.1363 135.515 24.1363 135.396 24.1363C135.14 24.1363 134.867 24.1022 134.611 24.0852C134.219 24.0511 133.725 24.2045 133.537 24.5795C133.35 24.9545 133.691 25.1931 134.032 25.2272L133.998 25.2784Z" fill="#1B1C1A"/>
<path d="M139.778 25.6528C140.818 25.8744 141.875 25.9767 142.932 25.9426C143.563 25.9256 144.228 25.8744 144.807 25.5846C145.2 25.3801 145.523 25.0392 145.421 24.5619C145.319 24.1358 144.91 23.9483 144.518 23.8971C143.87 23.8119 143.136 24.0335 142.591 24.3915C141.807 24.9028 141.483 25.8744 141.227 26.7267C141.09 27.1869 140.903 27.7324 141.193 28.1756C141.5 28.6528 141.994 28.7892 142.523 28.7721C142.881 28.7721 143.375 28.6358 143.614 28.3631C143.87 28.0733 143.392 28.0392 143.205 28.0392C143.29 28.0392 143.324 28.0392 143.205 28.0392C143.154 28.0392 143.119 28.0051 143.068 27.9881C142.966 27.9199 142.847 27.8346 142.778 27.7153C142.608 27.4426 142.625 27.1358 142.71 26.846C142.881 26.1812 143.085 25.4994 143.46 24.9199C143.529 24.8176 143.614 24.7153 143.699 24.6131C143.733 24.579 143.75 24.5619 143.784 24.5278L143.853 24.4767C143.853 24.5108 143.699 24.5449 143.665 24.5619C143.58 24.596 143.324 24.6301 143.324 24.6131C143.324 24.6131 143.273 24.6131 143.358 24.6131C143.273 24.6131 143.426 24.6301 143.443 24.6471C143.546 24.6983 143.631 24.7665 143.682 24.8687C143.733 24.971 143.767 25.0903 143.75 25.1926C143.75 25.2608 143.699 25.3971 143.665 25.3971L143.801 25.3119L144.194 25.1926C144.194 25.1926 144.33 25.1926 144.245 25.1926C144.159 25.1926 144.074 25.1926 143.989 25.2096C143.801 25.2096 143.597 25.2267 143.409 25.2267C143.273 25.2267 143.102 25.2267 142.898 25.2267C142.693 25.2267 142.489 25.2096 142.284 25.1756C141.892 25.1415 141.483 25.0733 141.09 24.9881C140.698 24.9028 140.272 25.0051 139.931 25.1926C139.795 25.2608 139.351 25.5846 139.743 25.6699L139.778 25.6528Z" fill="#1B1C1A"/>
<path d="M0.460349 26.1631C-0.0341072 32.8109 -0.136408 39.4927 0.187545 46.1745C0.255746 47.5211 5.21736 46.5836 5.13211 44.845C4.80815 38.3847 4.8934 31.9075 5.38786 25.4643C5.47311 24.4416 4.00679 24.5097 3.30773 24.595C2.60868 24.6802 0.5456 25.1916 0.477399 26.1631H0.460349Z" fill="#1B1C1A"/>
<path d="M2.86452 54.2056L3.37603 54.717C3.52948 54.8192 3.71703 54.8874 3.90458 54.8874C4.16034 54.9385 4.39904 54.9556 4.65479 54.9215C4.97875 54.9215 5.28565 54.8533 5.59255 54.7851C5.93356 54.717 6.25751 54.6317 6.58147 54.5124L7.14412 54.2738C7.43398 54.1374 7.70678 53.9499 7.94548 53.7283L8.13304 53.4556C8.21829 53.2681 8.16714 53.1147 8.01368 52.9954L7.50218 52.484C7.34873 52.3817 7.16117 52.3135 6.97362 52.3135C6.71787 52.2624 6.47917 52.2454 6.22341 52.2795C5.89946 52.2795 5.59255 52.3476 5.28565 52.4158C4.94465 52.484 4.62069 52.5692 4.29674 52.6885L3.73408 52.9272C3.44423 53.0635 3.17143 53.251 2.93272 53.4726L2.74517 53.7454C2.65992 53.9329 2.71107 54.0863 2.86452 54.2056Z" fill="#1B1C1A"/>
<path d="M82.3865 52.7205C66.3764 52.7205 50.3662 52.7205 34.3561 52.7205C33.7252 52.7205 34.5948 52.2433 34.6971 52.158C35.1404 51.8171 36.044 51.5273 36.6067 51.5273C52.6168 51.5273 68.627 51.5273 84.6371 51.5273C85.268 51.5273 84.3984 52.0046 84.2961 52.0898C83.8528 52.4308 82.9492 52.7205 82.3865 52.7205Z" fill="#2F3031"/>
<path d="M74.1344 48.3764C71.2699 42.5127 68.4225 36.6491 65.5581 30.7855L68.1497 30.4787C66.6493 32.473 65.0295 34.365 63.2563 36.1037C61.8582 37.4673 59.8463 39.9218 57.8003 40.2457C56.8114 40.3991 56.1123 39.973 55.3962 39.3253C54.4073 38.4559 53.4695 37.5355 52.4465 36.7173C50.4687 35.1491 48.1669 33.4616 45.7799 32.5582L46.7688 32.6434L46.3937 32.7116L47.6213 31.9446C46.8881 32.8991 47.2121 35.1491 47.178 36.2912C47.1439 37.8764 47.0416 39.4446 46.854 41.0298C46.496 44.0468 45.8651 47.0298 44.9956 49.9446C44.6375 51.1037 41.8072 51.5298 42.2675 49.9957C43.2394 46.7741 43.8873 43.5014 44.1771 40.1434C44.3135 38.6093 44.3306 37.0753 44.3817 35.5241C44.4158 34.348 44.3476 32.7457 44.9785 31.7059C46.4107 29.2684 49.4286 31.4673 51.0143 32.4559C52.276 33.24 53.4866 34.0923 54.646 35.0128C55.2427 35.473 55.8054 35.9502 56.368 36.4446C56.9307 36.9389 57.7662 38.0639 58.4993 38.2003L57.4252 38.3196C58.2436 38.0468 59.0108 37.1605 59.6587 36.5809C60.3919 35.9162 61.1251 35.2343 61.8071 34.5184C63.2052 33.0866 64.4839 31.5696 65.6945 29.9673C66.189 29.3025 67.7746 28.6378 68.2861 29.6605C71.1506 35.5241 73.998 41.3877 76.8624 47.2514C77.4251 48.4105 74.7311 49.5525 74.1344 48.3593V48.3764Z" fill="#2F3031"/>
<path d="M80.7157 149.421C84.8418 149.046 89.4795 149.421 93.2646 151.21C96.6747 152.83 97.7659 156.188 97.4931 159.767C96.9645 166.892 92.4292 173.301 86.257 176.728C85.4556 177.171 83.5801 176.608 84.91 175.858C90.4173 172.79 94.2536 167.114 95.089 160.875C95.5153 157.705 94.9867 154.125 91.9347 152.472C88.5417 150.614 84.0575 150.392 80.2894 150.733C79.8973 150.767 79.2835 150.597 79.3517 150.12C79.4199 149.642 80.3235 149.472 80.6986 149.438L80.7157 149.421Z" fill="#1B1C1A"/>
<path d="M61.4489 149.984C64.3645 150.308 68.9339 150.786 70.5708 153.632C71.4403 155.132 71.5256 157.058 71.6449 158.763C71.7813 160.587 71.7302 162.411 71.3551 164.217C69.974 170.967 64.0405 175.161 58.6186 178.638C57.3398 179.456 58.0048 177.581 58.6868 177.138C63.5631 174.018 68.968 170.456 69.8376 164.251C70.0593 162.666 70.0422 161.064 69.8888 159.479C69.7524 158.013 69.633 156.342 68.7975 155.081C67.1778 152.609 62.8641 152.2 60.1872 151.911C59.454 151.825 60.6816 149.933 61.4489 150.018V149.984Z" fill="#1B1C1A"/>
<path d="M88.4736 174.289C90.1445 176.744 92.003 180.102 89.7353 182.812C87.7745 185.147 84.1599 184.977 81.483 184.278C74.697 182.488 70.4856 176.522 66.9051 170.931C66.2572 169.926 68.3202 168.903 68.8829 169.755C71.8155 174.306 74.9869 179.079 79.9655 181.602C81.9263 182.591 85.0806 183.716 87.2289 182.693C88.4736 182.096 88.7123 180.528 88.4736 179.301C88.2008 177.886 87.3312 176.642 86.5299 175.466C85.8649 174.477 87.928 173.437 88.5077 174.289H88.4736Z" fill="#1B1C1A"/>
<path d="M63.5631 174.989C65.1659 177.393 66.5981 180.274 64.9783 183.069C63.512 185.626 60.102 186.274 57.391 185.882C54.0491 185.387 51.7133 183.12 49.4797 180.785C48.2521 179.489 47.0415 178.16 45.865 176.813C45.2512 176.114 44.6374 175.416 44.0407 174.7C43.5462 174.137 42.7789 173.489 42.5914 172.722C42.4038 171.955 42.796 171.239 43.0858 170.592C43.5121 169.62 43.9554 168.632 44.3987 167.66C45.3365 165.563 46.2742 163.484 47.1949 161.387C47.3654 161.012 47.8429 160.296 48.3544 160.416C48.8659 160.535 48.8147 161.166 48.6442 161.558C47.8429 163.364 47.0244 165.188 46.2231 166.995C45.848 167.83 45.4729 168.666 45.0978 169.501C44.9102 169.91 44.7056 170.336 44.5351 170.762C44.3135 171.342 44.2453 171.325 44.5692 171.836C44.9955 172.535 45.7116 173.166 46.2572 173.796C46.871 174.495 47.4848 175.211 48.0986 175.893C49.2921 177.239 50.4856 178.552 51.7474 179.847C54.1855 182.336 57.0329 184.296 60.6987 183.819C62.2332 183.631 63.9724 183.154 64.0406 181.364C64.1088 179.575 63.0005 178.092 62.0968 176.728C61.6024 175.995 63.0346 174.154 63.5972 175.006L63.5631 174.989Z" fill="#1B1C1A"/>
<path d="M36.4021 153.666C35.669 155.984 36.4533 158.763 38.2435 160.399C40.443 162.41 43.6655 162.189 46.4106 162.001C46.9391 161.967 47.6382 162.121 47.8087 162.717C47.9622 163.246 47.4166 163.706 46.9221 163.74C43.3757 163.979 39.3348 164.115 36.5215 161.541C34.2026 159.41 33.2478 156.07 34.1856 153.07C34.5095 152.013 36.7772 152.49 36.4021 153.683V153.666Z" fill="#1B1C1A"/>
<path d="M36.9139 155.59H11.85C11.0657 155.59 10.1109 155.385 9.46302 154.942C8.96856 154.618 8.95151 154.277 9.65057 154.277H34.7144C35.4987 154.277 36.4535 154.482 37.1014 154.925C37.5959 155.249 37.6129 155.59 36.9139 155.59Z" fill="#1B1C1A"/>
<path d="M10.4859 153.17C10.2642 156.477 10.2983 159.801 10.5711 163.108L8.25229 161.812C19.011 161.557 29.7697 161.676 40.5113 162.187C42.3698 162.273 43.1882 164.591 40.8523 164.489C30.4005 163.994 19.9317 163.875 9.46285 164.114C8.71264 164.131 7.22928 163.807 7.14402 162.818C6.87122 159.307 6.85417 155.795 7.09287 152.284C7.17812 150.886 10.5882 151.653 10.4859 153.187V153.17Z" fill="#1B1C1A"/>
<path d="M16.2657 163.311C16.9648 170.521 17.1864 177.766 16.8966 185.01C16.8625 185.879 13.4695 185.266 13.5036 184.107C13.7764 176.999 13.5718 169.891 12.8898 162.817C12.7704 161.658 16.1634 162.322 16.2487 163.311H16.2657Z" fill="#1B1C1A"/>
<path d="M24.9614 164.011C25.9844 170.829 26.2402 177.715 25.7457 184.602C25.6434 185.999 22.2504 185.232 22.3527 183.698C22.8301 177.033 22.5232 170.317 21.5343 163.704C21.2956 162.119 24.7398 162.613 24.9444 164.011H24.9614Z" fill="#1B1C1A"/>
<path d="M72.1395 175.278C71.8156 178.551 71.3211 181.789 70.6391 185.011C70.5368 185.488 69.0876 185.096 68.8147 185.011C68.5249 184.926 67.1438 184.585 67.2461 184.091C67.9111 180.869 68.4226 177.63 68.7465 174.358C68.7977 173.897 70.3322 174.272 70.5709 174.358C70.9119 174.46 72.1907 174.75 72.1395 175.278Z" fill="#1B1C1A"/>
</g>
<defs>
<clipPath id="clip0_516_1178">
<rect width="163" height="186" fill="white"/>
</clipPath>
</defs>
</svg>
