<svg width="191" height="191" viewBox="0 0 191 191" fill="none" xmlns="http://www.w3.org/2000/svg">
<rect width="190.21" height="190.21" fill="white"/>
<path d="M87.0546 167.82C109.574 163.185 123.873 140.203 118.992 116.488C114.111 92.7725 91.8987 77.3049 69.3791 81.9398C46.8595 86.5747 32.5606 109.557 37.4415 133.272C42.3225 156.987 64.535 172.455 87.0546 167.82Z" fill="#FFDC67"/>
<path d="M63.9801 135.279C67.5801 134.539 74.4301 133.129 81.1801 131.739C87.9201 130.349 94.7801 128.939 98.3801 128.199C99.1701 128.039 99.7201 128.529 99.8301 129.089C101.54 137.389 96.9001 147.529 84.9401 149.999C72.9801 152.469 64.7101 144.969 63.0001 136.679C62.8801 136.119 63.1901 135.449 63.9801 135.289V135.279Z" fill="#1D1D1B"/>
<path d="M66.4501 110.86L65.7901 114.85L63.3301 112.8L61.0201 116.38L63.3401 118.55L60.3501 120.19L61.3601 124.22L64.4901 122.68L63.8001 126.86L67.7101 127.74L68.4101 123.31L71.4601 126.17L74.4701 122.06L71.2001 119.35L75.1501 117.4L73.4501 112.97L69.7201 115.03L70.3801 110.82L66.4501 110.86Z" fill="#1D1D1B"/>
<path d="M90.83 105.851L90.17 109.831L87.71 107.781L85.4 111.361L87.72 113.531L84.73 115.171L85.74 119.211L88.87 117.661L88.18 121.841L92.09 122.721L92.79 118.291L95.84 121.151L98.85 117.041L95.58 114.331L99.53 112.381L97.83 107.951L94.1 110.011L94.76 105.801L90.83 105.851Z" fill="#1D1D1B"/>
<path d="M84.4601 105.959C84.5701 108.459 84.6801 110.949 84.8001 113.449C84.8601 114.729 84.9101 116.009 84.9701 117.289C84.9901 117.809 84.9701 118.379 85.1101 118.889C85.1401 119.039 85.2001 119.189 85.2801 119.319L84.1101 119.269C84.3001 119.339 84.5801 119.299 84.7801 119.319C86.3701 119.489 88.3401 119.779 89.0901 121.389C89.9501 123.219 88.8001 125.079 87.5801 126.419C87.3801 126.639 86.3501 126.329 86.1001 126.279C85.9801 126.259 84.6601 125.859 84.6801 125.839C85.8701 124.529 86.9901 122.739 86.2401 120.929C86.1501 120.729 86.0501 120.529 85.9201 120.349C85.8101 120.189 85.3701 119.909 85.3301 119.759C85.0301 119.569 85.2201 119.589 85.9001 119.809C86.6201 119.909 86.8001 119.949 86.4301 119.919C86.2101 119.919 85.9901 119.889 85.7701 119.869C84.8601 119.769 83.7301 119.639 82.9101 119.199C82.0601 118.739 82.1201 117.759 82.0801 116.909C82.0201 115.629 81.9701 114.349 81.9101 113.069C81.8001 110.509 81.6801 107.939 81.5701 105.379C81.5701 105.379 84.4401 105.509 84.4601 105.959Z" fill="#1D1D1B"/>
<path d="M58.51 82.3295C66.11 80.7595 73.72 79.1995 81.32 77.6295C81.66 77.5595 82.23 77.4495 81.81 77.1495C81.39 76.8495 80.22 77.1195 79.79 77.2095C72.19 78.7795 64.58 80.3395 56.98 81.9095C56.64 81.9795 56.07 82.0895 56.49 82.3895C56.91 82.6895 58.08 82.4195 58.51 82.3295Z" fill="#303031"/>
<path d="M61.8499 88.6415C63.1299 85.4615 64.4099 82.2715 65.9199 79.1915C66.6599 77.6915 67.4499 76.2015 68.3399 74.7815C69.0299 73.6815 70.2699 71.6115 71.7099 71.4415L70.9099 71.4215C71.7999 71.5915 72.4899 73.2815 72.8899 73.9915C73.5499 75.1515 74.1899 76.3215 74.8399 77.4915C76.1299 79.7915 77.4099 82.1015 78.6999 84.4015C79.0299 84.9915 81.1599 84.4915 80.7599 83.7715C78.9399 80.5115 77.1199 77.2515 75.3099 73.9915C74.6999 72.8915 74.0099 71.1315 72.7999 70.5615C71.5899 69.9915 70.0199 70.7615 69.0599 71.4715C66.6199 73.2715 65.1599 76.4715 63.8499 79.1215C62.2999 82.2515 60.9999 85.4915 59.6999 88.7315C59.4299 89.4115 61.5799 89.3215 61.8499 88.6415Z" fill="#303031"/>
<path d="M61.91 163.74L60.23 180.87L62.1 180.23C58.97 178.58 54.5 180.04 53.58 183.65C53.1 185.53 54.16 186.13 55.91 185.97C58.15 185.76 60.24 184.68 62.51 184.8C64.45 184.91 66.36 185.31 68.18 184.37C70 183.43 71.18 181.38 72.38 179.8C75.57 175.59 78.76 171.38 81.95 167.16C82.52 166.41 80.42 166.55 80 167.1C77.87 169.91 75.75 172.72 73.62 175.52C72.61 176.85 71.6 178.19 70.59 179.52C69.67 180.73 68.73 182.51 67.44 183.36C66.08 184.26 64.17 183.54 62.64 183.56C61.24 183.58 59.9 183.93 58.55 184.29C57.99 184.44 56.76 184.95 56.18 184.78C55.14 184.46 55.68 183.1 56.01 182.48C56.95 180.74 58.73 180.33 60.44 181.23C60.89 181.47 62.25 181.23 62.31 180.59L63.99 163.46C64.07 162.61 61.97 163 61.9 163.72L61.91 163.74Z" fill="#1D1D1B"/>
<path d="M98.85 162.711C104.85 165.451 110.49 168.951 115.58 173.151C115.96 173.471 116.54 173.401 116.97 173.211C117.2 173.111 117.9 172.621 117.51 172.301C112.32 168.021 106.62 164.431 100.5 161.641C100.04 161.431 99.43 161.541 99.02 161.821C98.75 162.011 98.39 162.501 98.86 162.711H98.85Z" fill="#1D1D1B"/>
<path d="M111.99 149.129C116.14 153.649 119.68 158.709 122.46 164.169C122.94 165.109 123.33 166.359 124.56 166.429C125.08 166.459 125.55 166.279 125.98 166.009C126.28 165.819 126.52 165.449 126.89 165.409C127.28 165.159 127.39 165.349 127.2 165.979L126.86 166.389C124.7 168.619 121.53 170.179 118.67 171.269C118.26 171.429 117.91 171.909 118.17 172.319C118.46 172.769 119.2 172.609 119.58 172.459C122.71 171.259 125.87 169.539 128.32 167.229C129.18 166.419 130.03 164.999 128.77 164.099C127.6 163.269 126.05 163.929 125.07 164.699C124.95 164.799 124.83 164.899 124.71 164.999C125.22 164.999 125.33 164.859 125.04 164.589C124.97 164.289 124.68 163.879 124.54 163.599C124.14 162.809 123.73 162.029 123.3 161.249C122.44 159.699 121.53 158.179 120.55 156.709C118.56 153.699 116.32 150.859 113.88 148.189C113.25 147.509 111.27 148.339 111.97 149.099L111.99 149.129Z" fill="#1D1D1B"/>
<path d="M119.58 120.859C123.41 119.649 126.87 117.419 129.54 114.419C130.15 113.729 128.27 112.709 127.76 113.289C125.16 116.209 121.85 118.379 118.12 119.559C117.64 119.709 117.89 120.229 118.14 120.459C118.5 120.789 119.1 121.009 119.58 120.859Z" fill="#1D1D1B"/>
<path d="M129.56 113.28C129.74 111.56 129.89 109.84 130.12 108.13C130.22 107.37 130.36 106.61 130.62 105.88C130.74 105.54 130.88 105.21 131.05 104.9C131.14 104.73 131.24 104.56 131.35 104.41C131.39 104.35 131.44 104.29 131.5 104.23C131.69 104.09 131.59 104.08 131.21 104.21L130.68 103.98C130.6 103.88 130.59 103.87 130.65 103.96C130.7 104.03 130.74 104.1 130.78 104.17C130.86 104.3 130.93 104.42 131.01 104.55C131.18 104.83 131.34 105.11 131.5 105.39C131.83 105.95 132.14 106.52 132.45 107.09C132.88 107.89 133.67 109.16 132.72 109.9C132.31 110.22 132.75 110.81 133.05 111.02C133.46 111.3 134.05 111.42 134.47 111.1C135.66 110.17 135.19 108.58 134.62 107.46C133.97 106.17 133.27 104.85 132.46 103.66C132.01 102.99 131.23 102.5 130.4 102.69C129.75 102.84 129.37 103.5 129.07 104.05C128.44 105.2 128.2 106.53 128.03 107.82C127.82 109.48 127.67 111.15 127.49 112.81C127.39 113.72 129.44 114.37 129.55 113.3L129.56 113.28Z" fill="#1D1D1B"/>
<path d="M139.32 119.33C139.33 118.89 139.38 118.46 139.43 118.02C138.81 118.2 138.4 118.78 137.77 119.13C137.15 119.47 136.41 119.69 135.7 119.69C135.09 119.69 134.49 119.41 133.87 119.49C132.92 119.62 132.18 120.87 131.62 121.54C130.63 122.7 129.68 123.9 128.67 125.05C126.6 127.39 124.21 129.56 121.19 130.56C120.42 130.82 122.19 131.88 122.72 131.7C125.77 130.68 128.17 128.66 130.3 126.3C131.55 124.91 132.7 123.44 133.92 122.03C134.2 121.71 134.67 120.92 135.08 120.75C135.4 120.62 135.76 120.75 136.08 120.8C136.72 120.88 137.36 120.88 137.99 120.75C138.47 120.66 138.94 120.48 139.38 120.27C139.34 119.98 139.31 119.67 139.32 119.34V119.33Z" fill="#1D1D1B"/>
<path d="M121.18 131.751C121.18 131.751 121.11 131.681 121.07 131.651C120.97 131.561 120.86 131.481 120.76 131.411C120.72 131.381 120.68 131.361 120.64 131.331C120.52 131.261 120.39 131.191 120.26 131.131C120.13 131.071 120 131.031 119.86 131.011C119.74 130.981 119.61 130.971 119.49 130.991C119.38 130.991 119.29 131.031 119.2 131.091C119.11 131.131 119.05 131.191 119.01 131.281L118.98 131.451C118.98 131.591 119.04 131.711 119.12 131.821L119.28 132.001C119.42 132.131 119.57 132.231 119.74 132.301C119.78 132.321 119.81 132.331 119.84 132.351L119.59 132.211C119.66 132.251 119.72 132.291 119.78 132.341L119.57 132.181C119.63 132.221 119.68 132.271 119.73 132.321C119.83 132.421 119.94 132.491 120.07 132.551C120.19 132.631 120.33 132.681 120.47 132.711C120.6 132.751 120.72 132.761 120.85 132.751C120.96 132.751 121.07 132.741 121.18 132.701L121.34 132.601C121.43 132.521 121.48 132.411 121.48 132.291L121.44 132.101C121.38 131.961 121.29 131.831 121.18 131.731V131.751Z" fill="#1D1D1B"/>
<path d="M121.39 73.1012C115.15 74.1112 107.96 73.7812 102.68 69.9112C100.24 68.1212 98.33 65.7312 96.49 63.3612C94.35 60.5912 92.33 57.7412 90.44 54.7912C87.06 49.5212 84.37 44.0912 83.15 37.9012C81.96 31.8612 81.51 25.1712 82.44 19.0612C82.89 16.1212 83.84 13.2312 85.67 10.8512C87.5 8.4712 90.01 6.4812 92.63 5.0212C98.4 1.8212 105.16 3.5212 110.82 6.1612C116 8.5712 120.57 12.1612 124.61 16.1612C128.91 20.4112 133.09 25.2112 135.45 30.8412C140.97 44.0112 136.19 58.6212 127.84 69.3912C127.36 70.0012 129.4 69.7712 129.75 69.3112C137.67 59.0912 142.45 45.7012 138.48 32.8912C136.55 26.6612 132.4 21.4612 127.95 16.8112C123.73 12.4012 118.96 8.4812 113.48 5.7412C108.14 3.0712 101.59 1.2112 95.66 2.8412C90.16 4.3612 84.4 8.6312 81.96 13.8612C79.32 19.5112 79.71 26.5912 80.24 32.6412C80.86 39.6312 82.82 46.1512 86.4 52.2012C88.33 55.4712 90.46 58.6312 92.7 61.6812C94.94 64.7312 97.3 68.0112 100.34 70.3712C106.09 74.8212 114.14 75.1312 121.04 74.0112C121.94 73.8612 122.85 72.8512 121.39 73.0812V73.1012Z" fill="#1D1D1B"/>
<path d="M121.06 73.9616C125.58 83.2016 129.36 92.7916 132.37 102.632C132.66 103.582 134.75 103.022 134.46 102.072C131.45 92.2316 127.67 82.6516 123.15 73.4016C122.71 72.5016 120.65 73.1116 121.06 73.9616Z" fill="#1D1D1B"/>
<path d="M127.13 70.1491C130.51 75.3691 132.84 81.119 135.23 86.839C136.38 89.589 137.55 92.3291 138.87 94.9991C139.18 95.6191 139.49 96.239 139.81 96.849C139.95 97.119 140.91 98.449 140.83 98.709C140.74 99.049 139.12 99.6191 138.79 99.7991C137.96 100.239 137.12 100.689 136.29 101.129C135.03 101.799 136.17 102.859 137.2 102.309C138.78 101.469 140.49 100.729 141.98 99.7591C143.11 99.0191 142.99 98.2891 142.39 97.1791C140.69 94.069 139.24 90.8391 137.87 87.5791C135.23 81.3291 132.75 74.9691 129.05 69.2491C128.56 68.4891 126.56 69.2691 127.14 70.1591L127.13 70.1491Z" fill="#1D1D1B"/>
<path d="M131.88 102.398L131.28 102.968C131.2 103.048 131 103.228 131.06 103.378C132.19 105.908 133.86 108.138 134.91 110.698C135.96 113.258 136.53 115.708 137.2 118.248C137.53 119.488 137.88 120.738 138.29 121.958C138.61 122.898 138.76 124.008 139.92 124.088C141.17 124.168 142.55 123.818 143.75 123.518C145.09 123.188 146.39 122.708 147.64 122.128C148.96 121.508 147.74 120.958 146.84 121.378C145.76 121.888 144.65 122.308 143.5 122.588C142.88 122.738 142.16 122.938 141.51 122.948C140.8 122.948 140.79 122.578 140.56 121.938C139.8 119.798 139.27 117.588 138.68 115.398C138.09 113.208 137.49 111.158 136.56 109.158C135.55 106.988 134.12 105.038 133.15 102.848L132.93 103.258L133.53 102.688C134.38 101.888 132.33 101.988 131.88 102.418V102.398Z" fill="#1D1D1B"/>
<path d="M149.16 117.74C149.16 117.74 149.19 117.78 149.2 117.81L149.13 117.7C149.41 118.14 149.63 118.65 149.61 119.19V119.06C149.61 119.26 149.56 119.45 149.46 119.62L149.54 119.48C149.5 119.55 149.45 119.62 149.4 119.68C149.39 119.7 149.37 119.71 149.36 119.73C149.29 119.81 149.43 119.66 149.43 119.66C149.43 119.66 149.32 119.75 149.31 119.76C149.18 119.86 149.5 119.65 149.35 119.73C149.31 119.75 149.14 119.84 149.32 119.75C149.5 119.66 149.32 119.75 149.27 119.77C149.23 119.79 149.11 119.82 149.31 119.77C149.36 119.75 149.52 119.7 149.31 119.77C149.07 119.84 148.81 119.94 148.61 120.1C148.52 120.17 148.33 120.35 148.39 120.5C148.45 120.66 148.63 120.72 148.78 120.74C149.03 120.77 149.31 120.74 149.55 120.67C150.39 120.42 151.49 119.93 151.66 118.95C151.79 118.23 151.47 117.57 151.09 116.98C151.01 116.85 150.65 116.84 150.54 116.84C150.27 116.84 149.97 116.91 149.72 117.01C149.52 117.09 149.28 117.2 149.15 117.38L149.07 117.52C149.04 117.61 149.07 117.69 149.13 117.76L149.16 117.74Z" fill="#1D1D1B"/>
<path d="M141.83 97.7797C141.93 97.7797 142.02 97.7797 142.12 97.7797C142.17 97.7797 142.21 97.7797 142.26 97.7997C142.13 97.7797 142.12 97.7797 142.22 97.7997C142.3 97.8297 142.38 97.8497 142.46 97.8697C142.55 97.8997 142.54 97.8997 142.43 97.8597C142.47 97.8797 142.5 97.8897 142.54 97.9097C142.61 97.9497 142.67 97.9897 142.74 98.0297C142.83 98.0897 142.68 97.9497 142.81 98.0897C142.9 98.1897 142.99 98.2797 143.07 98.3897C143.12 98.4497 143.16 98.5197 143.2 98.5897C143.24 98.6597 143.24 98.6597 143.2 98.5897C143.22 98.6297 143.24 98.6597 143.25 98.6997C143.32 98.8497 143.38 99.0097 143.43 99.1697C143.54 99.4997 143.61 99.8497 143.67 100.19C143.88 101.53 143.75 102.94 144.09 104.25C144.31 105.09 146.4 104.54 146.18 103.69C145.9 102.62 145.96 101.47 145.85 100.37C145.74 99.2697 145.54 97.9797 144.7 97.1997C144.12 96.6697 143.37 96.4297 142.59 96.4297C142.11 96.4297 141.48 96.5697 141.22 97.0297C140.99 97.4497 141.42 97.7697 141.82 97.7697L141.83 97.7797Z" fill="#1D1D1B"/>
<path d="M146.66 124.571L149.52 122.981C149.97 122.731 150.43 122.481 150.88 122.221C151.36 121.941 151.81 121.571 151.96 121.021C152.09 120.551 151.33 120.481 151.04 120.521C150.61 120.581 150 120.781 149.86 121.261C149.84 121.341 149.83 121.351 149.86 121.291C149.81 121.371 149.81 121.371 149.87 121.291C149.84 121.331 149.8 121.361 149.77 121.391C149.86 121.321 149.87 121.321 149.78 121.381C149.59 121.501 149.41 121.601 149.21 121.711L147.95 122.411L145.34 123.861C145.03 124.031 144.74 124.521 145.17 124.741C145.64 124.971 146.22 124.801 146.65 124.561L146.66 124.571Z" fill="#1D1D1B"/>
<path d="M91.9999 8.3981C90.3099 9.3381 88.6399 10.3781 87.3299 11.8181C86.0199 13.2581 85.2799 14.9881 84.7399 16.7981C83.5299 20.8381 83.5499 25.1781 84.2799 29.2981C85.0599 33.6881 86.6599 37.8781 88.4399 41.9481C90.3399 46.3081 92.3599 50.6381 94.6499 54.8181C95.0399 55.5181 97.0499 54.8381 96.7399 54.2581C94.6499 50.4381 92.7999 46.4981 91.0299 42.5181C89.3199 38.6781 87.7099 34.7481 86.7599 30.6381C85.8299 26.6381 85.5299 22.4381 86.3599 18.3881C86.7699 16.4081 87.3899 14.3181 88.5999 12.6781C89.8099 11.0381 91.5499 9.9881 93.2899 9.0181C93.6599 8.8081 93.8099 8.4881 93.4699 8.2081C93.1299 7.9281 92.3099 8.2281 91.9899 8.4081L91.9999 8.3981Z" fill="#1D1D1B"/>
<path d="M85.55 22.7709C91.54 19.7809 97.6 16.9209 103.71 14.1909C104.01 14.0609 104.55 13.7009 104.26 13.3209C103.97 12.9409 103.2 13.1409 102.87 13.2809C96.76 16.0109 90.7 18.8709 84.71 21.8609C83.42 22.5009 84.6 23.2409 85.55 22.7609V22.7709Z" fill="#1D1D1B"/>
<path d="M86.91 27.3902C91.57 24.8002 96.32 22.3902 101.16 20.1502C101.47 20.0102 101.99 19.6402 101.7 19.2502C101.42 18.8802 100.64 19.0402 100.31 19.1902C95.31 21.5002 90.41 24.0102 85.59 26.6802C85.24 26.8702 85.04 27.3102 85.43 27.5602C85.85 27.8402 86.53 27.6002 86.91 27.3802V27.3902Z" fill="#1D1D1B"/>
<path d="M92.32 9.87031V9.82031C92.21 9.37031 90.86 9.84031 90.66 9.95031C89.99 10.3103 90.06 10.5403 90.15 11.2803C90.28 12.4903 90.43 13.7103 90.59 14.9203C90.88 17.1803 91.21 19.4303 91.58 21.6803C92.35 26.3403 93.29 30.9703 94.38 35.5603C94.49 36.0303 96.59 35.5103 96.47 35.0003C95.49 30.8803 94.63 26.7403 93.91 22.5703C93.55 20.4803 93.23 18.3903 92.93 16.3003C92.8 15.3303 92.67 14.3603 92.55 13.4003C92.51 13.0503 92.23 10.0703 91.88 10.2603L90.23 10.3903V10.4403C90.34 10.9103 92.44 10.4003 92.33 9.88031L92.32 9.87031Z" fill="#1D1D1B"/>
<path d="M93.3201 11.2713C95.1001 19.2613 97.2801 27.1613 99.8701 34.9313C100.14 35.7513 102.22 35.1613 101.96 34.3713C99.3701 26.6013 97.1901 18.7113 95.4101 10.7113C95.2301 9.89134 93.1401 10.4313 93.3201 11.2713Z" fill="#1D1D1B"/>
<path d="M110.86 43.6812C116.46 40.7712 122.26 38.2312 128.2 36.0912C128.4 36.0212 129.01 35.8312 128.84 35.5512C128.69 35.3112 127.67 35.6412 127.5 35.7012C121.25 37.9512 115.17 40.6212 109.27 43.6812C108.89 43.8812 109.04 44.0312 109.38 44.0812C109.85 44.1412 110.45 43.9012 110.86 43.6812Z" fill="#1D1D1B"/>
<path d="M113.78 49.3089C119.67 46.0789 125.91 43.5789 132.4 41.8489C133.69 41.5089 133.31 40.0589 132.01 40.3989C125.34 42.1789 118.9 44.7489 112.85 48.0589C111.61 48.7389 112.73 49.8789 113.78 49.3089Z" fill="#1D1D1B"/>
<path d="M114.83 35.3507C116.95 42.9507 119.51 50.4307 122.5 57.7307C122.87 58.6307 124.94 58.0307 124.59 57.1707C121.59 49.8707 119.03 42.4007 116.92 34.7907C116.66 33.8707 114.58 34.4307 114.83 35.3507Z" fill="#1D1D1B"/>
<path d="M121.8 34.7291C123.69 41.4191 125.58 48.1191 127.46 54.8091C127.58 55.2191 129.66 54.6491 129.55 54.2491C127.66 47.5591 125.77 40.8591 123.89 34.1691C123.77 33.7591 121.69 34.3291 121.8 34.7291Z" fill="#1D1D1B"/>
<path d="M130.34 35.9691C131.52 38.3491 131.46 41.0091 131.25 43.5991C131.04 46.1891 130.54 48.8291 129.78 51.3491C128.31 56.1891 125.81 60.6491 122.16 64.1791C121.81 64.5091 122.47 64.5491 122.66 64.5391C123.1 64.5391 123.73 64.3491 124.06 64.0391C127.77 60.4591 130.36 55.9191 131.85 50.9891C132.57 48.6091 133.04 46.1591 133.29 43.6791C133.57 40.8991 133.72 37.9691 132.44 35.4091C132.18 34.8891 130.17 35.6091 130.35 35.9691H130.34Z" fill="#1D1D1B"/>
<path d="M145.38 103.361C144.49 103.361 143.5 103.211 142.63 103.441C141.64 103.691 141 104.391 140.75 105.351C140.34 106.931 141.3 108.361 142.17 109.591C142.63 110.231 142.92 110.791 142.98 111.591C143.04 112.391 143.06 113.071 143.4 113.781C144.05 115.131 145.27 116.031 146.47 116.851C147.11 117.281 148.13 117.061 148.71 116.641C149.23 116.261 149.54 115.551 148.9 115.121C148.14 114.601 147.37 114.071 146.8 113.331C146.09 112.411 146.24 111.411 146.05 110.331C145.86 109.251 145.07 108.371 144.47 107.451C144.2 107.041 143.99 106.621 143.88 106.141C143.82 105.901 143.81 105.681 143.84 105.441C143.85 105.341 143.88 105.241 143.89 105.151C143.91 104.951 144.18 104.861 143.78 105.151L143.03 105.501C143.03 105.501 142.87 105.531 142.82 105.511C142.97 105.561 143.18 105.511 143.33 105.511H144.25C144.99 105.531 145.93 105.321 146.29 104.581C146.61 103.931 146.01 103.361 145.36 103.361H145.38Z" fill="#1D1D1B"/>
<path d="M145.31 103.259C147.46 104.749 149.06 107.019 149.85 109.499C150.24 110.729 150.47 112.029 150.43 113.319C150.41 113.949 150.38 114.719 149.93 115.209C149.59 115.589 149.05 115.769 148.6 115.959C148.15 116.149 147.34 116.679 147.77 117.239C148.2 117.799 149.36 117.489 149.85 117.279C151.38 116.639 153.05 115.769 153.46 114.009C153.81 112.519 153.55 110.739 153.17 109.279C152.35 106.179 150.42 103.529 147.8 101.719C146.95 101.129 144.06 102.379 145.31 103.249V103.259Z" fill="#1D1D1B"/>
<path d="M39.1501 137.231C35.8501 141.601 31.4701 145.101 26.4701 147.331C25.9901 147.541 25.2301 148.111 25.6601 148.691C26.0901 149.271 27.2401 149.011 27.7501 148.781C33.4101 146.251 38.3401 142.331 42.0801 137.381C42.5401 136.771 41.6901 136.371 41.2001 136.341C40.4401 136.291 39.6101 136.611 39.1401 137.231H39.1501Z" fill="#1D1D1B"/>
<path d="M24.9099 147C21.6099 145.9 17.9299 145.72 15.7899 148.96C13.9199 151.8 13.6399 155.8 16.0099 158.42C17.1699 159.7 18.6399 161.04 20.3199 161.57C21.8899 162.07 24.1299 162 25.6599 161.4C27.1899 160.8 27.9399 159.44 28.6699 158.08C28.9099 157.64 29.1399 157.19 29.3199 156.71C29.3599 156.6 29.4699 155.91 29.5699 155.84C29.7599 155.69 30.6799 155.83 30.9399 155.81C31.5499 155.78 32.1599 155.72 32.7699 155.65C37.1699 155.08 41.3199 153.36 44.8599 150.67C45.9899 149.82 44.3199 148.98 43.4499 149.64C40.2599 152.07 36.4699 153.64 32.4799 154.09C31.1699 154.24 28.8999 153.78 27.9299 154.9C27.4099 155.5 27.3099 156.52 26.9699 157.23C26.6299 157.94 26.2199 158.86 25.6699 159.43C24.1899 160.96 21.2199 160.25 19.7399 159.12C18.0399 157.82 16.4699 156.23 16.4199 153.96C16.3799 152.32 16.8599 150.5 17.8799 149.19C19.3899 147.26 21.6999 147.8 23.7299 148.47C24.6799 148.79 26.1799 147.42 24.9199 147H24.9099Z" fill="#1D1D1B"/>
<path d="M58.6 109.469H70.74C71.21 109.469 71.87 109.339 72.11 108.859C72.32 108.429 71.93 108.109 71.51 108.109H59.37C58.9 108.109 58.24 108.239 58 108.719C57.79 109.149 58.18 109.469 58.6 109.469Z" fill="#1D1D1B"/>
<path d="M91.42 99.0114C88.55 101.461 85.2 103.231 81.88 104.981C81.57 105.141 81.28 105.551 81.69 105.771C82.12 106.001 82.77 105.771 83.17 105.571C86.63 103.741 90.1 101.881 93.09 99.3314C93.42 99.0514 93.31 98.7014 92.9 98.6214C92.42 98.5214 91.8 98.7014 91.42 99.0214V99.0114Z" fill="#1D1D1B"/>
</svg>
