<svg width="100" height="100" viewBox="0 0 100 100" fill="none" xmlns="http://www.w3.org/2000/svg">
<rect width="100" height="100" fill="white"/>
<path d="M47.3101 80.5312C62.9066 80.5312 75.5501 67.2117 75.5501 50.7812C75.5501 34.3508 62.9066 21.0312 47.3101 21.0312C31.7135 21.0312 19.0701 34.3508 19.0701 50.7812C19.0701 67.2117 31.7135 80.5312 47.3101 80.5312Z" fill="#FFDA6D"/>
<path d="M42.3599 37.7617L40.5499 39.8217L39.8599 37.7617L37.2499 38.9917L37.8099 41.0717L35.4999 40.9517L34.6399 43.6417L36.9999 43.8717L35.0999 46.0317L37.0399 47.9417L39.0299 45.6417L39.7599 48.3817L42.9699 47.0917L42.0499 44.3617L45.0299 44.6417L45.6399 41.4817L42.7499 41.3317L44.6399 39.1517L42.3599 37.7617Z" fill="#231F20"/>
<path d="M58.2 43.6094L56.39 45.6694L55.71 43.6094L53.1 44.8394L53.66 46.9194L51.35 46.7994L50.48 49.4794L52.84 49.7094L50.94 51.8694L52.88 53.7794L54.87 51.4794L55.6 54.2194L58.81 52.9294L57.9 50.1994L60.87 50.4894L61.48 47.3294L58.6 47.1794L60.49 44.9894L58.2 43.6094Z" fill="#231F20"/>
<path d="M48.23 39.3195C47.92 40.8895 47.61 42.4495 47.3 44.0195L46.86 46.2395C46.73 46.8795 46.72 47.8595 46.19 48.2995L46.74 47.9895L46.57 48.0695L47.52 47.7095C47.14 47.7895 46.77 47.6595 46.39 47.6995C46.1 47.7195 45.83 47.8195 45.56 47.9195C44.97 48.1295 44.31 48.3895 43.86 48.8295C42.7 49.9495 43.29 51.5895 44.05 52.7395C44.18 52.9395 45.73 52.0595 45.71 52.0295C45.32 51.4395 44.97 50.7995 44.87 50.0795C44.77 49.3195 45.03 48.8795 45.41 48.2595L45.54 48.1395C44.84 48.3395 44.66 48.4395 44.99 48.4295C45.11 48.4595 45.26 48.4495 45.38 48.4595C45.67 48.4795 45.91 48.4795 46.19 48.3995C46.71 48.2595 47.37 48.0095 47.8 47.6695C48.23 47.3295 48.28 46.7095 48.38 46.1895L48.87 43.7095C49.21 42.0095 49.54 40.3195 49.88 38.6195C49.88 38.5895 49.08 38.8595 49.01 38.8895C48.85 38.9595 48.26 39.1295 48.22 39.3295L48.23 39.3195Z" fill="#231F20"/>
<path d="M33.5401 50.3911C31.6701 51.7411 36.2501 53.2411 36.9501 53.5311C39.3501 54.5411 41.7801 55.4811 44.2301 56.3911C46.6001 57.2711 48.9701 58.1911 51.3801 58.9711C53.2701 59.5811 55.2301 59.1711 57.0401 58.5111C57.3901 58.3811 56.7701 58.3411 56.7101 58.3411C56.3301 58.3111 55.8401 58.3411 55.4801 58.4711C54.6401 58.7711 54.0301 59.0411 53.1101 58.7911C52.7101 58.6811 52.3101 58.5111 51.9201 58.3711C50.9901 58.0411 50.0601 57.7111 49.1301 57.3711C47.3401 56.7211 45.5501 56.0711 43.7801 55.3911C42.0101 54.7111 40.2401 54.0111 38.4801 53.2711C37.7801 52.9711 33.5901 51.5711 35.2701 50.3611C35.4201 50.2511 34.6701 50.2311 34.6301 50.2311C34.3301 50.2311 33.7901 50.2111 33.5301 50.4011L33.5401 50.3911Z" fill="#231F20"/>
<path d="M33.1801 51.5802C33.8601 53.0202 34.3201 54.5402 34.5101 56.1202C34.5901 56.8102 34.6301 57.5102 34.6101 58.2102C34.6001 58.8102 34.5101 59.4202 34.7001 59.9902C35.0401 61.0302 36.3401 61.6102 37.2301 62.0902C38.4601 62.7602 39.7701 63.2702 41.1201 63.6402C45.9301 64.9602 52.5201 64.4502 54.9101 59.3502C55.2001 58.7202 53.4301 58.6702 53.1501 59.2602C50.9001 64.0402 44.7201 63.8602 40.4801 62.2202C39.3501 61.7802 38.2401 61.2302 37.2401 60.5402C36.2401 59.8502 36.3901 58.9502 36.4001 57.8402C36.4201 55.5102 35.8701 53.2302 34.8801 51.1302C34.6101 50.5602 32.8501 50.8802 33.1701 51.5602L33.1801 51.5802Z" fill="#231F20"/>
<path d="M37.3101 53.6619C36.8901 55.2019 37.9901 56.4919 39.2201 57.2519C40.7101 58.1619 42.4301 58.7319 44.0701 59.2919C45.7101 59.8519 47.3101 60.4019 49.0101 60.6119C50.2601 60.7619 51.9801 60.6519 52.3701 59.1819C52.4001 59.0719 51.5201 58.8919 51.4801 59.0619C51.0401 60.7419 49.0501 60.4719 47.7501 60.1519C46.3201 59.8019 44.9201 59.3019 43.5301 58.8019C41.4701 58.0619 37.4101 56.7219 38.2101 53.7719C38.2401 53.6619 37.3601 53.4819 37.3201 53.6519L37.3101 53.6619Z" fill="#231F20"/>
<path d="M38.2301 55.8305C37.5801 55.6905 36.9901 56.0705 36.4901 56.4505C35.9901 56.8305 35.5701 57.2305 35.1701 57.6905C34.8701 58.0405 35.6701 58.4405 35.9401 58.1305C36.2701 57.7405 36.6401 57.3805 37.0501 57.0605C37.2501 56.9005 37.4501 56.7505 37.6801 56.6205C37.7901 56.5605 37.8901 56.5105 38.0001 56.4805C38.0701 56.4605 38.0501 56.4705 38.1201 56.4605C38.1901 56.4505 38.0701 56.4605 38.1401 56.4605C38.1801 56.4605 38.2201 56.4705 38.2501 56.4805C38.4301 56.5205 38.6801 56.4205 38.6701 56.2105C38.6701 55.9805 38.4001 55.8605 38.2201 55.8205L38.2301 55.8305Z" fill="#231F20"/>
<path d="M34.99 52.359C35.01 52.499 34.92 52.659 34.91 52.809C34.9 53.049 35.02 53.289 35.19 53.449C35.55 53.789 36.18 53.689 36.61 53.559L36.13 52.809C35.98 52.969 35.82 53.139 35.67 53.299C35.44 53.549 35.85 54.099 36.15 54.049C36.52 53.989 36.89 53.959 37.27 53.969L36.87 53.219C36.58 53.439 36.29 53.649 36.01 53.879C35.73 54.109 36.25 54.759 36.55 54.599C36.8 54.469 37.05 54.339 37.29 54.199L36.68 53.609C36.52 54.189 36.16 54.699 35.69 55.069C35.43 55.279 35.89 55.899 36.17 55.819C36.66 55.679 37.15 55.529 37.63 55.389L37.11 54.689C37 54.949 36.85 55.169 36.65 55.359C36.42 55.589 36.79 56.089 37.05 56.109L37.47 56.149L37.07 55.399C36.53 55.839 35.99 56.259 35.43 56.679L36.02 57.349C36.31 56.699 36.76 56.159 37.35 55.759C37.64 55.569 37.11 54.859 36.81 55.039C36.21 55.399 35.67 55.849 35.21 56.369C34.98 56.629 35.38 57.149 35.69 57.119C36.55 57.039 36.73 56.039 36.59 55.349C36.51 54.919 36.33 54.519 36.28 54.079C36.26 53.869 36.28 53.659 36.23 53.459C36.2 53.339 36.16 53.229 36.1 53.129C36.08 53.089 36.05 53.049 36.03 53.009C35.98 52.939 35.98 52.929 36.03 52.989L35.38 52.709C35.55 53.129 35.85 53.409 36.24 53.619C36.45 53.729 36.85 53.849 36.96 54.019C37.13 54.289 37.1 54.709 37.15 55.019C37.22 55.479 37.38 55.889 37.7 56.229C37.8 56.339 38.14 56.489 38.16 56.229C38.2 55.689 38.3 55.119 38.27 54.579C38.25 54.089 37.97 53.629 37.49 53.489C37.28 53.429 37.27 53.699 37.31 53.829C37.38 54.039 37.55 54.209 37.75 54.269C37.67 54.229 37.61 54.169 37.57 54.089L37.59 54.139C37.59 54.139 37.59 54.219 37.6 54.259C37.6 54.399 37.58 54.549 37.57 54.689C37.54 55.049 37.51 55.409 37.49 55.759H37.95C37.81 55.599 37.81 55.169 37.78 54.949C37.74 54.579 37.67 54.199 37.47 53.869C37.26 53.519 36.96 53.289 36.6 53.109C36.45 53.039 36.29 52.979 36.15 52.889C36.1 52.859 36.06 52.829 36.01 52.799C35.99 52.749 35.99 52.779 36.01 52.799C35.95 52.639 35.82 52.459 35.65 52.389C35.52 52.339 35.39 52.369 35.36 52.519C35.32 52.719 35.39 52.909 35.48 53.079C35.51 53.129 35.56 53.189 35.58 53.239C35.61 53.329 35.59 53.449 35.6 53.549C35.6 53.939 35.72 54.309 35.82 54.679C35.92 55.029 36.03 55.419 35.92 55.769C35.83 56.069 35.59 56.309 35.27 56.339L35.75 57.089C36.21 56.569 36.75 56.119 37.35 55.759L36.81 55.039C36.19 55.459 35.69 56.049 35.39 56.729C35.28 56.979 35.69 57.609 35.98 57.399C36.54 56.989 37.08 56.559 37.62 56.119C37.88 55.909 37.46 55.389 37.22 55.369L36.8 55.329L37.2 56.079C37.43 55.849 37.62 55.599 37.75 55.299C37.86 55.049 37.52 54.519 37.23 54.599C36.74 54.739 36.25 54.889 35.77 55.029L36.25 55.779C36.81 55.339 37.18 54.749 37.37 54.059C37.44 53.799 37.03 53.319 36.76 53.469C36.51 53.599 36.26 53.729 36.02 53.869L36.56 54.589C36.84 54.369 37.13 54.149 37.42 53.929C37.68 53.739 37.25 53.189 37.02 53.179C36.59 53.169 36.17 53.189 35.75 53.259L36.23 54.009C36.38 53.849 36.54 53.679 36.69 53.519C36.91 53.289 36.51 52.669 36.21 52.769C35.91 52.869 35.56 52.929 35.26 52.839L35.43 52.909C35.69 53.059 35.57 53.349 35.63 53.109C35.64 53.059 35.66 53.019 35.67 52.969C35.69 52.859 35.7 52.749 35.68 52.639C35.65 52.429 35.49 52.209 35.3 52.129C35.13 52.059 34.98 52.149 35.01 52.349L34.99 52.359Z" fill="#231F20"/>
<path d="M51.64 59.3089L52.65 59.4889C52.83 59.5189 53.07 59.4689 53.23 59.3789C53.31 59.3389 53.48 59.1989 53.3 59.1489C52.94 59.0489 52.59 58.9389 52.23 58.8389L52.3 58.9489C52.32 58.8789 52.33 58.8089 52.33 58.7289L51.45 58.9189C51.45 59.2489 51.36 59.5589 51.2 59.8489C51.13 59.9689 51.39 59.9889 51.44 59.9889C51.63 59.9889 51.81 59.9389 51.97 59.8489C52.25 59.6989 52.54 59.5689 52.84 59.4389L52.15 59.3989C52.01 59.7089 51.83 59.9989 51.59 60.2489C51.47 60.3689 51.64 60.4189 51.75 60.4289C51.94 60.4389 52.17 60.3989 52.33 60.2989C52.67 60.0689 53.02 59.8689 53.39 59.6889L52.7 59.6489C52.58 59.8189 52.44 59.9789 52.28 60.1089C52.12 60.2389 51.92 60.2789 51.73 60.3389C51.54 60.3989 51.24 60.4889 51.23 60.7289C51.22 60.9689 51.23 61.2389 51.24 61.4989C51.24 61.6289 51.6 61.5789 51.66 61.5789C51.8 61.5589 52.05 61.5089 52.12 61.3589C52.35 60.9089 52.61 60.4789 52.91 60.0689C52.93 60.0389 52.91 60.0089 52.89 59.9889C52.6 59.7589 52.12 59.9889 51.82 60.0889C51.64 60.1489 51.46 60.2089 51.29 60.2789C51.17 60.3289 51.02 60.4089 51.02 60.5589C51.02 60.6889 51.07 60.8189 51.08 60.9489C51.09 61.0889 51.08 61.2389 51.07 61.3789C51.03 61.6589 50.92 61.9389 50.76 62.1789C50.67 62.3289 51.06 62.3189 51.11 62.3089C51.28 62.2889 51.53 62.2389 51.63 62.0889C51.8 61.8289 51.9 61.5389 51.95 61.2289C51.97 61.0789 51.98 60.9289 51.97 60.7789C51.97 60.7089 51.96 60.6389 51.94 60.5689C51.93 60.5089 51.89 60.4289 51.92 60.3689L51.82 60.4589C51.68 60.5589 51.82 60.4589 51.87 60.4489L52.09 60.3689L52.27 60.2989L52.36 60.2689C52.49 60.2289 52.44 60.2289 52.2 60.2789L52.03 60.2589H52.04C52.04 60.2589 52.03 60.2089 52.02 60.1789C51.72 60.5889 51.46 61.0189 51.23 61.4689L52.11 61.3289C52.11 61.2089 52.11 61.0789 52.11 60.9589C52.11 60.8989 52.11 60.8389 52.11 60.7689C52.11 60.7289 52.13 60.6089 52.11 60.5789V60.5589C51.98 60.6289 51.96 60.6389 52.06 60.6089C52.11 60.6089 52.16 60.5789 52.2 60.5689C52.33 60.5289 52.46 60.4889 52.58 60.4289C53.01 60.2489 53.3 59.9389 53.57 59.5689C53.64 59.4689 53.41 59.4389 53.38 59.4389C53.22 59.4289 53.03 59.4589 52.89 59.5289C52.47 59.7289 52.06 59.9589 51.67 60.2289L52.4 60.2789C52.66 59.9989 52.88 59.6889 53.03 59.3389C53.08 59.2289 52.9 59.2089 52.84 59.2089C52.67 59.1989 52.5 59.2389 52.35 59.2989C52 59.4489 51.65 59.6189 51.31 59.7989H52.08C52.26 59.4889 52.35 59.1389 52.34 58.7789C52.34 58.5889 51.47 58.6989 51.46 58.9689C51.46 59.0089 51.46 59.0589 51.44 59.0989C51.42 59.1589 51.45 59.1989 51.51 59.2089C51.87 59.3089 52.22 59.4189 52.58 59.5189L53.23 59.1789L52.22 58.9989C52.02 58.9589 51.76 59.0189 51.6 59.1289C51.45 59.2189 51.48 59.3189 51.65 59.3489L51.64 59.3089Z" fill="#231F20"/>
<path d="M53.65 23.6787C55.18 22.7787 56.71 21.8687 58.29 21.0587C59.79 20.2787 61.42 19.4287 63.08 19.0687C63.46 18.9887 64.13 18.8487 64.38 19.1887C64.6 19.4887 64.49 20.0387 64.45 20.3887C64.37 21.2387 64.21 22.0887 64.09 22.9387C63.82 24.7287 63.56 26.5187 63.29 28.3087C63.23 28.7187 64.57 28.8187 64.64 28.3587C64.96 26.1787 65.29 23.9987 65.61 21.8187C65.72 21.0587 66.07 19.8887 65.77 19.1387C65.47 18.3887 64.29 18.3387 63.62 18.3487C61.69 18.3787 59.76 19.3687 58.07 20.2087C56.16 21.1487 54.33 22.2387 52.49 23.3187C52.22 23.4787 52.56 23.7087 52.72 23.7687C53.02 23.8687 53.38 23.8487 53.65 23.6887V23.6787Z" fill="#282B2E"/>
<path d="M22.13 61.5183C18.76 65.7583 15.21 69.8683 11.51 73.8283C11.23 74.1283 11.77 75.0883 12.1 74.7383C15.8 70.7783 19.35 66.6683 22.72 62.4283C22.98 62.0983 22.42 61.1583 22.13 61.5183Z" fill="black"/>
<path d="M32.58 72.3099C29.05 74.1199 25.53 75.9399 22 77.7499C20.26 78.6399 18.5 79.4999 16.79 80.4499C15.98 80.8999 15.25 81.4199 14.54 82.0099C13.83 82.5999 13.2 83.1299 12.37 83.4499C12.02 83.5899 12.53 84.5599 12.93 84.3999C13.76 84.0699 14.43 83.5199 15.1 82.9599C15.77 82.3999 16.55 81.8499 17.35 81.3999C19.06 80.4499 20.82 79.5999 22.56 78.6999C26.09 76.8899 29.61 75.0699 33.14 73.2599C33.49 73.0799 32.95 72.1199 32.58 72.3099Z" fill="black"/>
<path d="M11.77 73.9809C10.74 72.8209 9.81004 71.4309 8.60004 70.4609C8.13004 70.0809 7.56004 69.8009 6.94004 69.9109C6.37004 70.0109 5.90004 70.4109 5.88004 71.0109C5.86004 71.7709 6.31004 72.5909 6.56004 73.2909C6.88004 74.2109 7.21004 75.1409 7.53004 76.0609C8.15004 77.8409 8.76004 79.6109 9.40004 81.3909C9.67004 82.1309 10.02 82.8609 10.62 83.3909C11.22 83.9209 11.99 84.1909 12.74 84.4209C12.92 84.4809 12.72 84.0209 12.7 83.9909C12.61 83.8109 12.45 83.5409 12.25 83.4709C11.48 83.2309 10.46 82.9609 10.1 82.1709C9.70004 81.2809 9.43004 80.3009 9.11004 79.3809C8.49004 77.6009 7.86004 75.8109 7.24004 74.0309C7.08004 73.5709 6.92004 73.1109 6.75004 72.6409C6.62004 72.2709 6.43004 71.8709 6.59004 71.4909C6.85004 70.8509 7.72004 70.7109 8.31004 70.9309C9.11004 71.2409 9.68004 72.0809 10.23 72.7109C10.78 73.3409 11.3 73.9709 11.85 74.5909C11.97 74.7209 12.07 74.8209 12.14 74.6509C12.2 74.4909 11.88 74.0909 11.79 73.9809H11.77Z" fill="black"/>
<path d="M40.6301 13.8714C40.9401 13.1714 41.4201 12.5614 42.0501 12.1214C42.3501 11.9114 42.6901 11.7014 43.0501 11.6314C43.2301 11.6014 43.3801 11.6014 43.5501 11.6514C43.6001 11.6614 43.6201 11.7014 43.6001 11.6714C43.6301 11.7114 43.6401 11.7914 43.6401 11.8414C43.7001 12.1914 43.7501 12.6514 43.6101 12.9914C43.4701 13.3314 43.1201 13.5414 42.8401 13.7714C42.2201 14.2614 41.7401 14.9014 41.4401 15.6314C41.3601 15.8214 41.4801 16.0414 41.6001 16.1814C41.6601 16.2514 41.9201 16.4914 42.0001 16.3014C42.2801 15.6214 42.7101 15.0214 43.2901 14.5514C43.5501 14.3414 43.8301 14.1614 44.0301 13.9014C44.2701 13.5914 44.3101 13.1914 44.3001 12.8114C44.2801 12.0914 44.1301 11.2014 43.3901 10.8714C42.7701 10.5914 42.0401 10.9914 41.5401 11.3514C40.9001 11.8114 40.3801 12.4514 40.0701 13.1714C39.9901 13.3514 40.1101 13.5814 40.2301 13.7214C40.2901 13.7914 40.5501 14.0314 40.6301 13.8414V13.8714Z" fill="#231F20"/>
<path d="M40.2201 12.8809C39.7201 12.7909 39.1901 12.6409 38.6801 12.7309C38.1701 12.8209 37.6701 13.0609 37.2301 13.3309C36.4401 13.7909 35.6301 14.4909 35.4201 15.4209C35.3701 15.6409 35.6701 15.7909 35.8401 15.8009C36.0601 15.8209 36.2701 15.7109 36.3201 15.4909C36.4801 14.7709 37.2301 14.2109 37.8301 13.8609C38.1601 13.6709 38.5301 13.4609 38.9101 13.4009C39.3201 13.3409 39.7801 13.4909 40.1801 13.5609C40.3701 13.5909 40.6401 13.4609 40.6601 13.2509C40.6801 13.0109 40.4301 12.9109 40.2401 12.8709L40.2201 12.8809Z" fill="#231F20"/>
<path d="M43.7799 4.40941C43.4699 3.91941 42.9699 3.62941 42.3799 3.64941C41.7899 3.66941 41.2999 4.04941 40.9299 4.49941C40.4999 5.00941 40.1699 5.60941 39.8399 6.17941C39.4899 6.79941 39.1699 7.44941 38.8799 8.09941C38.7999 8.28941 38.8799 8.50941 39.0099 8.66941C39.0799 8.74941 39.3499 8.96941 39.4399 8.77941C39.9299 7.66941 40.4999 6.57941 41.1799 5.57941C41.4699 5.15941 41.8199 4.71941 42.3199 4.53941C42.5999 4.43941 43.1699 4.40941 43.3399 4.66941C43.4199 4.79941 43.6099 5.02941 43.7899 4.92941C43.9699 4.82941 43.8499 4.52941 43.7699 4.40941H43.7799Z" fill="#231F20"/>
<path d="M43.3401 4.55042C43.3901 5.25042 42.9601 5.90042 42.6601 6.50042C42.3701 7.07042 42.0801 7.63042 41.8001 8.21042C41.2501 9.37042 40.7901 10.5704 40.6401 11.8604C40.6001 12.2004 41.4301 12.5404 41.4701 12.1404C41.6201 10.8204 42.1201 9.59042 42.7001 8.40042C42.9801 7.83042 43.2801 7.26042 43.5601 6.69042C43.8401 6.12042 44.2101 5.50042 44.1601 4.83042C44.1401 4.49042 43.3001 4.18042 43.3301 4.55042H43.3401Z" fill="#231F20"/>
<path d="M42.1899 4.26816C42.4799 4.01816 42.3899 3.56816 42.2299 3.26816C42.0499 2.91816 41.7299 2.62816 41.3799 2.45816C41.0599 2.29816 40.6699 2.19816 40.3099 2.27816C39.9099 2.35816 39.5999 2.63816 39.3299 2.92816C38.6899 3.59816 38.1299 4.33816 37.6299 5.12816C37.3799 5.51816 37.1499 5.92816 36.9399 6.33816C36.7499 6.70816 36.6099 7.19816 36.2699 7.47816C35.9799 7.70816 36.6799 8.26816 36.9099 8.07816C37.1999 7.84816 37.3399 7.55816 37.4899 7.23816C37.6399 6.91816 37.8199 6.56816 38.0099 6.24816C38.3899 5.58816 38.8099 4.95816 39.2799 4.36816C39.5099 4.07816 39.7499 3.79816 40.0099 3.51816C40.2299 3.27816 40.4799 3.01816 40.8099 2.93816C40.9999 2.88816 41.2299 2.90816 41.3899 3.04816C41.5999 3.22816 41.6599 3.58816 41.4399 3.77816C41.2199 3.96816 41.9199 4.51816 42.1799 4.29816L42.1899 4.26816Z" fill="#231F20"/>
<path d="M38.9501 4.22817C38.7201 3.69817 38.4001 3.19817 37.8101 3.05817C37.2201 2.91817 36.6401 3.21817 36.2301 3.65817C35.2001 4.76817 34.5001 6.26817 33.8101 7.58817C33.0301 9.07817 32.2301 10.5582 31.4801 12.0682C31.1501 12.7282 30.8901 13.4082 30.8701 14.1582C30.8501 14.9082 31.0101 15.7082 31.1701 16.4682C31.2601 16.8682 32.1501 16.8882 32.0601 16.4382C31.7801 15.1682 31.5901 13.9382 32.1501 12.7182C32.7101 11.4982 33.3501 10.3982 33.9501 9.23816C34.5301 8.12816 35.0901 7.00816 35.7301 5.92816C36.0401 5.39816 36.3701 4.87817 36.7301 4.38816C36.8901 4.17816 37.1501 3.78817 37.4201 3.71817C37.8401 3.61817 38.0201 4.13816 38.1401 4.42816C38.3001 4.79816 39.1601 4.69817 38.9601 4.22817H38.9501Z" fill="#231F20"/>
<path d="M30.8701 16.5888C26.4901 22.6788 23.6101 29.7688 22.5001 37.1788C22.4401 37.5588 23.3001 37.8088 23.3601 37.4588C24.4601 30.0888 27.3101 23.0388 31.6501 16.9888C31.8901 16.6488 31.0701 16.2888 30.8701 16.5788V16.5888Z" fill="#231F20"/>
<path d="M79.48 29.9719C79.85 28.7719 80.41 27.5919 81.21 26.6119C81.39 26.3919 81.65 26.0919 81.95 26.0419C82.14 26.0119 82.01 25.9519 82.13 26.1419C82.22 26.2819 82.28 26.5119 82.32 26.6719C82.47 27.2619 82.43 27.8719 82.32 28.4619C82.19 29.1219 81.88 29.7019 81.71 30.3519C81.56 30.9419 81.93 31.3719 82.1 31.9119C82.45 33.0719 82.19 34.3419 81.44 35.2919C81.33 35.4319 82.03 36.0019 82.14 35.8519C82.95 34.8219 83.18 33.4219 82.75 32.1819C82.62 31.8019 82.34 31.4519 82.39 31.0419C82.44 30.6319 82.68 30.2419 82.8 29.8519C83.03 29.1619 83.18 28.4319 83.12 27.7019C83.07 27.0919 82.87 26.4319 82.44 25.9819C82.09 25.6119 81.59 25.2919 81.09 25.5419C80.48 25.8519 80.05 26.6519 79.72 27.2219C79.32 27.9119 79.01 28.6519 78.77 29.4219C78.7 29.6619 79.45 30.0719 79.47 29.9819L79.48 29.9719Z" fill="#231F20"/>
<path d="M89.31 25.0417C89.48 24.9017 89.22 25.0417 89.22 25.0417C89.22 25.0217 89.39 25.1917 89.41 25.2217C89.5 25.3317 89.55 25.4717 89.59 25.6117C89.68 25.9517 89.63 26.3017 89.53 26.6317C89.33 27.2717 88.95 27.8717 88.59 28.4417C87.88 29.5717 87.02 30.6117 86.07 31.5517C85.95 31.6717 86.36 31.7117 86.4 31.7117C86.58 31.7117 86.81 31.6917 86.94 31.5617C88.17 30.3617 89.23 28.9817 90.04 27.4717C90.39 26.8217 90.75 25.9917 90.39 25.2817C90.07 24.6317 89.06 24.5217 88.52 24.9717C88.37 25.0917 88.6 25.1517 88.7 25.1717C88.87 25.1917 89.17 25.1817 89.31 25.0617V25.0417Z" fill="#231F20"/>
<path d="M88.57 24.8288C87.53 25.8388 86.5 26.8388 85.46 27.8488C84.96 28.3288 84.47 28.8188 83.97 29.2988C83.56 29.6888 83.09 30.1188 82.52 30.2388C82.31 30.2788 82.07 30.4088 82.04 30.6388C82.01 30.8388 82.2 30.9888 82.4 30.9488C83.79 30.6788 84.75 29.4888 85.72 28.5488C86.85 27.4588 87.97 26.3588 89.1 25.2688C89.52 24.8588 88.95 24.4888 88.59 24.8388L88.57 24.8288Z" fill="#231F20"/>
<path d="M90.13 27.5715C90.68 26.8615 91.41 25.9315 92.43 26.0315H92.53C92.66 26.0315 92.69 26.0615 92.63 26.1115C92.66 26.1915 92.63 26.3515 92.61 26.4315C92.56 26.6715 92.48 26.9015 92.4 27.1215C92.25 27.5515 92.07 27.9815 91.86 28.3915C91.05 30.0215 89.84 31.4415 88.37 32.5115C88.24 32.6115 88.86 33.2315 89.08 33.0715C90.9 31.7515 92.3 29.9015 93.08 27.7915C93.24 27.3615 93.51 26.7915 93.3 26.3315C93.09 25.8715 92.58 25.5815 92.12 25.4715C90.93 25.2015 90.07 26.1815 89.42 27.0215C89.28 27.2015 89.99 27.7515 90.13 27.5815V27.5715Z" fill="#231F20"/>
<path d="M93.0201 28.6786C93.0201 28.6786 93.0601 28.7086 93.1001 28.7586C93.1901 28.8786 93.2201 29.0486 93.2301 29.1886C93.2501 29.4986 93.1601 29.8086 93.0501 30.0886C92.8001 30.6886 92.4101 31.2386 92.0301 31.7586C91.2601 32.8386 90.3901 33.8286 89.4201 34.7286C89.0601 35.0686 89.8301 35.5286 90.1701 35.2086C91.4401 34.0186 92.5801 32.6686 93.4801 31.1786C93.8801 30.5186 94.2501 29.7386 94.0601 28.9486C93.8901 28.2586 93.1001 27.6286 92.4101 28.0586C91.9601 28.3386 92.6301 28.9186 93.0101 28.6686L93.0201 28.6786Z" fill="#231F20"/>
<path d="M88.98 35.7287C88.38 36.7787 87.81 37.8587 87.15 38.8787C86.62 39.6887 85.83 40.6687 84.78 40.6987C84.58 40.6987 84.34 40.7787 84.17 40.8987C84.04 40.9887 84.05 41.0687 84.23 41.0687C85.57 41.0387 86.77 40.2887 87.59 39.2587C88 38.7387 88.34 38.1587 88.67 37.5787C89.06 36.8987 89.45 36.2187 89.84 35.5387C89.91 35.4087 89.52 35.4787 89.49 35.4887C89.34 35.5287 89.08 35.5887 88.99 35.7487L88.98 35.7287Z" fill="#231F20"/>
<path d="M78.6 30.6588C77.63 32.2488 77.28 34.1788 77.64 36.0088C77.73 36.4488 77.86 36.8788 78.02 37.2988C78.21 37.7788 78.67 38.3388 78.53 38.8788C78.4 39.3688 77.94 39.8388 77.65 40.2388C77.33 40.6888 77 41.1388 76.68 41.5888C75.37 43.4288 74.11 45.3488 72.53 46.9788C71.05 48.4988 69.31 49.7288 67.46 50.7688C66.95 51.0588 67.6 51.4988 68 51.2688C70.97 49.6088 73.4 47.4488 75.41 44.7188C76.51 43.2188 77.58 41.6988 78.66 40.1888C79.07 39.6188 79.57 39.0488 79.4 38.2988C79.31 37.9288 79.1 37.5888 78.95 37.2488C78.78 36.8688 78.65 36.4688 78.56 36.0588C78.16 34.2888 78.47 32.4388 79.42 30.8988C79.69 30.4588 78.82 30.3288 78.6 30.6888V30.6588Z" fill="#231F20"/>
<path d="M83.9401 40.6407C82.8201 44.1507 81.5001 47.6307 79.8601 50.9307C78.4001 53.8607 76.3601 56.7407 73.1401 57.8607C72.6801 58.0207 73.3101 58.6307 73.6601 58.5107C76.9201 57.3807 79.0501 54.5307 80.5501 51.5607C82.2601 48.1607 83.6101 44.5607 84.7701 40.9407C84.8801 40.5907 84.0801 40.2107 83.9401 40.6407Z" fill="#231F20"/>
<path d="M40.66 16.9118C40.16 17.5318 39.45 17.9518 38.74 18.2818C37.96 18.6518 37.09 18.8718 36.24 18.6018C36.06 18.5418 36 18.6818 36.07 18.8218C36.16 19.0118 36.38 19.1518 36.57 19.2118C37.48 19.5118 38.44 19.3218 39.28 18.9318C40.05 18.5818 40.84 18.1318 41.37 17.4618C41.54 17.2418 40.84 16.6818 40.66 16.9018V16.9118Z" fill="#231F20"/>
<path d="M36.6299 19.0305C36.0099 20.6705 35.7899 22.4005 35.6399 24.1305C35.4899 25.8605 35.2699 27.5205 35.8799 29.1205C35.9799 29.3805 36.8099 29.5605 36.7299 29.3405C36.1099 27.7305 36.3499 25.9605 36.4999 24.2805C36.6499 22.6105 36.8699 20.9405 37.4699 19.3605C37.5699 19.1105 36.7299 18.7805 36.6299 19.0305Z" fill="#231F20"/>
<path d="M35.6601 72.5516C30.9001 75.5016 26.2801 80.2816 26.3001 86.2616C26.3001 88.6716 27.6901 90.8516 29.8401 91.9616C31.5601 92.8516 33.5701 93.2616 35.4601 93.6216C37.5401 94.0216 39.7201 94.4016 41.8501 94.3216C42.0901 94.3216 41.7301 93.5216 41.4801 93.5316C39.8301 93.5916 38.1501 93.3416 36.5301 93.0816C34.5901 92.7716 32.6201 92.3816 30.7701 91.7016C30.0901 91.4516 29.4201 91.1616 28.8401 90.7216C27.6001 89.7716 26.8901 88.6216 26.8501 87.0316C26.7701 84.3516 27.8501 81.6616 29.3501 79.4816C31.0901 76.9316 33.5201 74.9416 36.1301 73.3316C36.3301 73.2016 35.8701 72.4316 35.6701 72.5616L35.6601 72.5516Z" fill="#231F20"/>
<path d="M46.8199 81.0314C44.6199 84.0614 41.4199 86.2614 37.7999 87.2114C37.4199 87.3114 37.9499 88.0314 38.2999 87.9414C41.9599 86.9814 45.2299 84.7414 47.4499 81.6814C47.6799 81.3714 47.0299 80.7414 46.8199 81.0314Z" fill="#231F20"/>
<path d="M40.8999 86.4107C41.9599 87.1407 43.0799 87.7907 44.2499 88.3307C44.4199 88.4107 44.7099 88.4607 44.8399 88.2807C44.9699 88.1007 44.7999 87.9007 44.6399 87.8307C43.5399 87.3207 42.4799 86.7207 41.4699 86.0307C41.2999 85.9107 41.0399 85.8407 40.8499 85.9607C40.6799 86.0807 40.7299 86.3007 40.8899 86.4107H40.8999Z" fill="#231F20"/>
<path d="M45.0099 88.5299C45.5399 88.3399 46.0199 88.6699 46.4099 88.9899C46.5899 89.1299 46.8399 89.3099 46.9199 89.5299C47.0099 89.7799 46.8999 90.0799 46.8199 90.3199C46.4499 91.4899 45.9799 92.6199 45.4299 93.7099C45.3299 93.9199 45.3999 94.1399 45.5899 94.2699C45.7399 94.3699 46.0699 94.4299 46.1699 94.2199C46.5199 93.5199 46.8499 92.7999 47.1399 92.0699C47.2799 91.6999 47.4199 91.3299 47.5499 90.9599C47.6699 90.6099 47.7999 90.2599 47.8099 89.8899C47.8299 89.1299 47.1699 88.6199 46.6099 88.2099C46.0499 87.7999 45.2899 87.5299 44.5899 87.7899C44.0799 87.9699 44.5799 88.6999 45.0199 88.5399L45.0099 88.5299Z" fill="#231F20"/>
<path d="M40.0699 94.2783C39.8399 95.2783 39.8999 96.5183 40.8199 97.1683C41.6199 97.7383 42.7499 97.9283 43.6799 97.5883C45.2299 97.0183 45.7699 95.2083 46.3899 93.8383C46.6799 93.1883 47.0399 92.5183 47.2199 91.8283C47.2799 91.5983 46.3899 91.4783 46.3199 91.7683C46.1899 92.2583 45.9399 92.7383 45.7399 93.2083C45.4699 93.8083 45.1999 94.4083 44.9299 94.9983C44.6599 95.5883 44.3999 96.1783 43.9499 96.6583C43.3699 97.2683 42.6299 97.5483 41.8499 97.1583C40.7999 96.6283 40.7399 95.3483 40.9699 94.3383C41.0199 94.0983 40.1299 93.9983 40.0699 94.2783Z" fill="#231F20"/>
<path d="M52.8699 19.5711C57.1799 21.5711 61.4799 23.5711 65.7899 25.5711C66.1599 25.7411 66.6099 25.7911 67.0099 25.7811C67.1199 25.7811 67.7099 25.7111 67.3599 25.5511C63.0499 23.5511 58.7499 21.5511 54.4399 19.5511C54.0699 19.3811 53.6199 19.3311 53.2199 19.3411C53.1099 19.3411 52.5199 19.4111 52.8699 19.5711Z" fill="#282B2E"/>
</svg>
