<svg width="100" height="100" viewBox="0 0 100 100" fill="none" xmlns="http://www.w3.org/2000/svg">
<g clip-path="url(#clip0_516_536)">
<rect width="100" height="100" fill="white"/>
<path d="M5.08008 43.611C5.08008 43.611 5.10008 43.611 5.12008 43.611C5.15008 43.581 5.12008 43.611 5.08008 43.611Z" fill="black"/>
<path d="M51.01 81.98C68.8322 81.98 83.28 66.7622 83.28 47.99C83.28 29.2178 68.8322 14 51.01 14C33.1878 14 18.74 29.2178 18.74 47.99C18.74 66.7622 33.1878 81.98 51.01 81.98Z" fill="#FFDC67"/>
<path d="M41.61 35.5195L40.48 38.4395L38.93 36.4995L36.63 38.8495L38.04 40.8595L35.52 41.6395L35.66 44.8595L38.27 44.1795L37.09 47.2495L39.93 48.5295L41.15 45.2695L43.02 47.9195L45.95 45.2695L43.89 42.6995L47.19 41.8295L46.59 38.2095L43.44 39.1895L44.6 36.0895L41.61 35.5195Z" fill="#1D1D1B"/>
<path d="M60.9001 35.5195L59.7801 38.4395L58.2301 36.4995L55.9201 38.8495L57.3401 40.8595L54.8201 41.6395L54.9501 44.8595L57.5701 44.1795L56.3901 47.2495L59.2201 48.5295L60.4501 45.2695L62.3101 47.9195L65.2401 45.2695L63.1901 42.6995L66.4901 41.8295L65.8901 38.2095L62.7401 39.1895L63.9001 36.0895L60.9001 35.5195Z" fill="#1D1D1B"/>
<path d="M80.6299 45.0606C83.7599 46.6206 86.9599 48.2706 89.0299 51.1906C91.0199 53.9906 91.8799 57.4106 92.6299 60.7106C92.6499 60.7906 93.8999 60.3406 93.8299 60.0406C93.0599 56.6606 92.1699 53.1506 90.0799 50.3106C87.9899 47.4806 84.8199 45.8706 81.7499 44.3406C81.4799 44.2006 80.5299 45.0006 80.6299 45.0406V45.0606Z" fill="#1D1D1B"/>
<path d="M77.1099 54.2883C77.5899 56.3083 77.9199 58.3683 78.0699 60.4383C78.1099 61.0283 78.4299 62.2083 77.6299 62.3583C77.0699 62.4583 76.4699 62.3483 75.8899 62.4083C75.3699 62.4683 74.8199 62.6383 74.4699 63.0583C73.9499 63.6883 74.1399 64.5183 74.4399 65.1983C75.0099 66.4783 76.1299 67.9283 77.7199 67.4983C78.5799 67.2683 78.1099 66.3383 77.3599 66.5483C76.4099 66.8083 74.8599 64.0183 75.7899 63.4683C76.1599 63.2483 76.7899 63.3783 77.1899 63.3683C77.6899 63.3683 78.1999 63.3283 78.6599 63.1083C79.1599 62.8583 79.4399 62.4083 79.4999 61.8583C79.5799 61.0083 79.4199 60.0783 79.3299 59.2383C79.1499 57.4883 78.8399 55.7483 78.4299 54.0383C78.2899 53.4283 76.9399 53.5883 77.0999 54.2883H77.1099Z" fill="#1D1D1B"/>
<path d="M78.8401 65.86C78.4301 66.95 78.2501 67.97 78.9401 68.98C79.3801 69.64 80.1101 70.26 80.9401 69.89C81.3901 69.69 81.6801 69.42 82.2001 69.46C82.6101 69.49 82.9901 69.67 83.3501 69.85C84.0101 70.18 84.6301 70.62 85.3501 70.81C86.0701 71 86.6801 70.81 87.1301 70.25C87.6101 69.64 87.9501 68.48 88.9401 68.64C89.9301 68.8 90.4601 69.61 91.5301 69.23C92.3901 68.92 92.9201 68.1 92.8801 67.21C92.8701 66.92 92.6301 66.57 92.4201 66.39C92.3101 66.3 92.0001 66.06 92.0201 66.37C92.0601 67.21 91.4201 67.94 90.6201 68.14C89.7201 68.36 89.1301 67.6 88.2901 67.48C86.8201 67.26 86.7801 69.35 85.5701 69.69C84.3601 70.03 83.2101 68.79 82.1701 68.44C81.6701 68.27 81.1701 68.23 80.6801 68.44C80.3701 68.58 79.7901 69.1 79.4301 68.77C79.0301 68.4 79.5401 67.27 79.6901 66.86C79.8201 66.51 78.9401 65.56 78.8401 65.84V65.86Z" fill="#1D1D1B"/>
<path d="M92.5799 60.5019C92.9099 62.5919 92.5999 64.7319 91.7099 66.6519C91.6199 66.8519 92.1999 66.6519 92.2399 66.6319C92.4699 66.5319 92.8199 66.3819 92.9299 66.1319C93.8399 64.1819 94.1399 61.9919 93.7999 59.8719C93.7799 59.7319 92.5199 60.1419 92.5799 60.5019Z" fill="#1D1D1B"/>
<path d="M48.22 34.6087C48.53 36.5187 48.83 38.4287 49.14 40.3487C49.3 41.3287 49.45 42.3087 49.61 43.2987C49.67 43.6987 49.79 44.1287 49.76 44.5287C49.76 44.6487 49.74 44.7688 49.7 44.8787L50.58 44.6587C50.45 44.7387 50.23 44.7587 50.08 44.7987C48.9 45.1687 47.45 45.7087 47.13 47.0487C46.77 48.5787 47.93 49.8087 49.06 50.6387C49.25 50.7787 49.98 50.3787 50.16 50.2987C50.24 50.2587 51.18 49.7588 51.17 49.7388C50.06 48.9288 48.93 47.7487 49.22 46.2587C49.25 46.0887 49.3 45.9187 49.37 45.7687C49.43 45.6287 49.72 45.3487 49.73 45.2287C49.93 45.0387 49.79 45.0787 49.31 45.3487C48.78 45.5387 48.65 45.5887 48.93 45.5187C49.1 45.4887 49.26 45.4288 49.42 45.3787C50.09 45.1687 50.93 44.8887 51.48 44.4287C52.03 43.9687 51.86 43.2087 51.75 42.5588C51.59 41.5788 51.44 40.5987 51.28 39.6087L50.34 33.7188C50.34 33.7188 48.18 34.2687 48.23 34.6187L48.22 34.6087Z" fill="#1D1D1B"/>
<path d="M41.6899 12.6111C47.7099 12.6111 53.7299 12.6111 59.7499 12.6111C60.0199 12.6111 60.4699 12.6111 60.1999 12.3211C59.9299 12.0311 58.9999 12.0511 58.6599 12.0511C52.6399 12.0511 46.6199 12.0511 40.5999 12.0511C40.3299 12.0511 39.8799 12.0511 40.1499 12.3411C40.4199 12.6311 41.3499 12.6111 41.6899 12.6111Z" fill="#303031"/>
<path d="M43.2401 17.9196C44.7101 15.6996 46.1801 13.4796 47.8101 11.3796C48.6101 10.3496 49.4401 9.34962 50.3401 8.40962C51.0301 7.67962 52.3001 6.29962 53.4201 6.39962L52.8201 6.25962C53.4701 6.52962 53.7301 7.91962 53.9201 8.51962C54.2401 9.49962 54.5401 10.4896 54.8501 11.4796C55.4701 13.4296 56.0801 15.3796 56.7001 17.3296C56.8601 17.8296 58.5501 17.7796 58.3601 17.1696C57.4901 14.4096 56.6201 11.6496 55.7501 8.88962C55.4601 7.95962 55.2101 6.50962 54.3801 5.89962C53.5501 5.28962 52.2401 5.61962 51.4001 6.00962C49.2701 6.98962 47.6601 9.19962 46.2501 10.9996C44.5801 13.1296 43.0901 15.3996 41.6001 17.6496C41.2801 18.1296 42.9401 18.3896 43.2501 17.9196H43.2401Z" fill="#303031"/>
<path d="M38.7499 72.1902C36.2399 71.9602 33.4199 72.1902 31.1199 73.2802C29.0499 74.2602 28.3799 76.3102 28.5499 78.4802C28.8699 82.8102 31.6299 86.7102 35.3799 88.7902C35.8699 89.0602 37.0099 88.7202 36.1999 88.2602C32.8599 86.4002 30.5199 82.9402 30.0099 79.1502C29.7499 77.2302 30.0799 75.0502 31.9299 74.0302C33.9899 72.9002 36.7199 72.7602 39.0099 72.9702C39.2499 72.9902 39.6199 72.8902 39.5799 72.5902C39.5399 72.2902 38.9799 72.2002 38.7599 72.1802L38.7499 72.1902Z" fill="#1D1D1B"/>
<path d="M50.4699 72.5289C48.6899 72.7289 45.9199 73.0189 44.9199 74.7489C44.3999 75.6589 44.3399 76.8389 44.2599 77.8689C44.1799 78.9789 44.2099 80.0889 44.4299 81.1789C45.2699 85.2789 48.8699 87.8289 52.1799 89.9489C52.9599 90.4489 52.5499 89.2989 52.1399 89.0389C49.1799 87.1389 45.8899 84.9789 45.3699 81.1989C45.2399 80.2389 45.2499 79.2589 45.3399 78.2889C45.4199 77.3989 45.4899 76.3789 45.9999 75.6089C46.9799 74.0989 49.6099 73.8589 51.2299 73.6789C51.6699 73.6289 50.9299 72.4789 50.4699 72.5289Z" fill="#1D1D1B"/>
<path d="M34.0399 87.3219C33.0199 88.8119 31.8999 90.8619 33.2799 92.5119C34.4699 93.9319 36.6699 93.8319 38.2999 93.4019C42.4299 92.3119 44.9899 88.6819 47.1599 85.2919C47.5499 84.6819 46.2999 84.0519 45.9599 84.5719C44.1799 87.3419 42.2499 90.2418 39.2299 91.7718C38.0399 92.3718 36.1199 93.0519 34.8199 92.4319C34.0599 92.0719 33.9199 91.1119 34.0699 90.3719C34.2399 89.5119 34.7599 88.7519 35.2499 88.0419C35.6599 87.4419 34.3999 86.8119 34.0499 87.3219H34.0399Z" fill="#1D1D1B"/>
<path d="M49.1801 87.7485C48.2101 89.2085 47.3401 90.9685 48.3201 92.6685C49.2101 94.2185 51.2801 94.6185 52.9401 94.3785C54.9701 94.0785 56.3901 92.7085 57.7501 91.2785C58.5001 90.4885 59.2301 89.6785 59.9501 88.8585C60.3201 88.4285 60.6901 88.0085 61.0601 87.5785C61.3601 87.2385 61.8301 86.8385 61.9401 86.3785C62.0501 85.9185 61.8201 85.4785 61.6401 85.0785C61.3801 84.4885 61.1101 83.8885 60.8501 83.2985C60.2801 82.0285 59.7101 80.7585 59.1501 79.4785C59.0501 79.2485 58.7501 78.8085 58.4401 78.8885C58.1301 78.9685 58.1601 79.3485 58.2701 79.5785C58.7601 80.6785 59.2501 81.7785 59.7501 82.8885C59.9801 83.3985 60.2001 83.9085 60.4301 84.4185C60.5401 84.6685 60.6701 84.9285 60.7701 85.1785C60.9101 85.5385 60.9401 85.5185 60.7501 85.8285C60.4901 86.2485 60.0501 86.6385 59.7301 87.0185C59.3601 87.4485 58.9901 87.8785 58.6101 88.2985C57.8901 89.1185 57.1501 89.9185 56.3901 90.6985C54.9101 92.2085 53.1701 93.3985 50.9501 93.1185C50.0201 92.9985 48.9601 92.7185 48.9201 91.6185C48.8801 90.5185 49.5501 89.6285 50.1001 88.7985C50.4001 88.3485 49.5301 87.2385 49.1901 87.7485H49.1801Z" fill="#1D1D1B"/>
<path d="M65.6999 74.7688C66.1399 76.1788 65.6699 77.8688 64.5799 78.8588C63.2499 80.0788 61.2899 79.9388 59.6099 79.8288C59.2899 79.8088 58.8599 79.9088 58.7599 80.2588C58.6699 80.5888 58.9999 80.8588 59.2999 80.8788C61.4599 81.0188 63.9199 81.0988 65.6299 79.5388C67.0399 78.2488 67.6199 76.2188 67.0499 74.3888C66.8499 73.7488 65.4699 74.0388 65.6999 74.7688Z" fill="#1D1D1B"/>
<path d="M40.35 56.3188C41.91 61.2388 48.56 61.1588 52.69 60.8688C55.1 60.7088 57.74 60.4388 59.9 59.2788C61.79 58.2588 63.32 56.3788 63.12 54.1288C63.05 53.2888 60.92 53.2488 60.99 54.0188C61.39 58.5588 55.85 59.4188 52.52 59.6788C49.19 59.9388 43.72 60.2288 42.42 56.1188C42.19 55.3888 40.08 55.4588 40.35 56.3288V56.3188Z" fill="#1D1D1B"/>
<path d="M12.03 30.1906C12.03 30.1906 12.88 30.4706 13.41 30.8406C13.44 30.7406 13.46 30.6406 13.5 30.5406C13.55 30.4206 13.57 30.3006 13.55 30.1706C13.55 30.0406 13.53 29.9106 13.48 29.7806C13.43 29.6406 13.36 29.5206 13.26 29.4206C13.18 29.3106 13.08 29.2206 12.95 29.1506C12.87 29.1206 12.79 29.0806 12.72 29.0506C12.56 29.0006 12.4 29.0006 12.25 29.0406L12.03 29.1406C11.9 29.2306 11.8 29.3506 11.74 29.5106C11.6 29.8606 11.51 30.2306 11.44 30.6006C11.43 30.7106 11.44 30.8106 11.46 30.9206C11.58 30.9106 11.73 30.9406 11.87 30.9906C11.92 30.7306 11.97 30.4606 12.02 30.2006L12.03 30.1906Z" fill="black"/>
<path d="M10.42 44.9716C10.36 45.0016 10.31 45.0416 10.25 45.0716C10.14 45.1316 10.03 45.1716 9.90996 45.2116C9.81996 45.2416 9.71996 45.2616 9.61996 45.2716H9.23996C9.17996 45.4516 9.13996 45.6216 9.07996 45.8016C8.98996 46.0816 8.54996 45.9816 8.20996 45.7616C7.71996 46.1216 7.27996 46.5516 6.95996 47.0716C6.48996 47.8216 6.18996 48.9116 7.02996 49.5316C7.78996 50.0816 8.83996 50.1916 9.74996 50.0916C9.78996 50.0916 9.83996 50.0716 9.87996 50.0716C9.87996 49.9416 9.88996 49.8216 9.89996 49.6916C9.89996 49.5216 9.97996 49.3816 10.09 49.2616C9.85996 49.2916 9.64996 49.3116 9.40996 49.2916C9.10996 49.2616 8.80996 49.1916 8.53996 49.0716C7.04996 48.4216 8.38996 46.6316 9.21996 46.0716C9.27996 46.0316 9.34996 45.9916 9.41996 45.9516C9.40996 45.9516 9.39996 45.9516 9.43996 45.9416C9.43996 45.9416 9.42996 45.9416 9.41996 45.9516C9.43996 45.9516 9.46996 45.9216 9.46996 45.9216C9.50996 45.9016 9.54996 45.8816 9.59996 45.8616C9.67996 45.8216 9.75996 45.7916 9.82996 45.7616C9.78996 45.7716 9.83996 45.7616 9.85996 45.7516C9.85996 45.7516 9.83996 45.7516 9.82996 45.7616C9.82996 45.7616 9.82996 45.7616 9.84996 45.7616C9.90996 45.7416 9.95996 45.7216 10.02 45.7116C10.15 45.6716 10.23 45.6516 10.38 45.6416C10.47 45.6416 10.59 45.6416 10.71 45.7416C10.96 45.9516 11.36 45.8716 11.62 45.7416C11.77 45.6716 12.21 45.3616 11.96 45.1516C11.78 45.0016 11.57 44.9116 11.34 44.8516C11.31 45.0116 11.28 45.1716 11.25 45.3316C11.25 45.3516 10.83 45.2016 10.4 44.9916L10.42 44.9716Z" fill="black"/>
<path d="M10.99 48.949C10.99 48.949 10.99 48.949 10.98 48.949C11.01 48.929 11 48.939 10.99 48.949Z" fill="black"/>
<path d="M9.42004 45.9397C9.42004 45.9397 9.43004 45.9397 9.44004 45.9297C9.41004 45.9497 9.41004 45.9497 9.42004 45.9397Z" fill="black"/>
<path d="M9.84001 45.7405C9.84001 45.7405 9.86001 45.7405 9.87001 45.7305C9.86001 45.7305 9.80001 45.7505 9.84001 45.7405Z" fill="black"/>
<path d="M11.21 49.2186C11.21 49.3786 11.2 49.5386 11.19 49.6986C11.75 49.4586 12.27 49.1286 12.7 48.7086C12.91 48.4986 12.83 48.2586 12.55 48.1986C12.23 48.1286 11.82 48.2586 11.59 48.4886C11.49 48.5886 11.37 48.6986 11.28 48.7686C11.22 48.8086 11.16 48.8486 11.1 48.8886C11.06 48.9086 11.03 48.9286 10.99 48.9586C10.99 48.9586 11 48.9586 10.98 48.9586C10.98 48.9586 10.98 48.9586 10.99 48.9586C10.99 48.9586 10.98 48.9586 10.97 48.9686C11.11 48.9986 11.22 49.0786 11.21 49.2286V49.2186Z" fill="black"/>
<path d="M7.85991 45.0519C7.85991 45.0519 7.85991 45.0819 7.84991 45.1019C7.76991 45.3419 7.96991 45.5819 8.21991 45.7519C8.46991 45.5719 8.72991 45.4019 9.00991 45.2719H8.98991C8.89991 45.2819 8.82991 45.2619 8.76991 45.2019C8.76991 45.1719 8.75991 45.1319 8.74991 45.1019C8.77991 45.0019 8.82991 44.9019 8.89991 44.8319C8.94991 44.7819 8.99991 44.7219 9.05991 44.6719C9.15991 44.5819 9.25991 44.5019 9.37991 44.4319C9.42991 44.4019 9.47991 44.3719 9.52991 44.3419C9.48991 44.2819 9.47991 44.2219 9.48991 44.1619C9.56991 43.7019 9.65991 43.2319 9.73991 42.7719C9.69991 42.7319 9.68991 42.6919 9.73991 42.6619C9.73991 42.6619 9.73991 42.6619 9.74991 42.6619C10.3999 38.9419 11.0799 35.2219 11.7899 31.5119C11.7499 31.4619 11.6899 31.4319 11.6599 31.3719C11.5799 31.2519 11.5199 31.1319 11.4999 30.9919C11.4999 30.9719 11.4999 30.9419 11.4799 30.9219C11.3299 30.9319 11.2099 31.0019 11.1799 31.1719C10.4899 35.4819 9.48991 39.7319 8.20991 43.9019C8.44991 44.0819 8.66991 44.2719 8.86991 44.4619C9.10991 44.6919 8.31991 45.0719 7.85991 45.0619V45.0519Z" fill="black"/>
<path d="M11.65 31.3587C11.68 31.4187 11.74 31.4487 11.78 31.4987C11.81 31.3287 11.84 31.1587 11.88 30.9787C11.74 30.9187 11.59 30.8987 11.47 30.9087C11.47 30.9287 11.47 30.9587 11.49 30.9787C11.52 31.1187 11.57 31.2487 11.65 31.3587Z" fill="black"/>
<path d="M9.07997 45.7995C9.13997 45.6295 9.17997 45.4495 9.23997 45.2695H9.00997C8.72997 45.3995 8.46997 45.5695 8.21997 45.7495C8.55997 45.9795 8.99997 46.0695 9.08997 45.7895L9.07997 45.7995Z" fill="black"/>
<path d="M6.57 51.0087C6.57 51.0087 6.54 50.9787 6.53 50.9688C6.52 51.0787 6.51 51.1787 6.5 51.2887C6.61 51.1987 6.66 51.0987 6.58 51.0187L6.57 51.0087Z" fill="black"/>
<path d="M6.0699 50.4997C5.5199 49.9297 4.9999 49.3097 4.6199 48.6197C4.1199 47.7097 4.0799 46.6897 4.2699 45.6897C4.3599 45.2397 4.4699 44.7997 4.6399 44.3697C4.7199 44.1797 4.7999 43.9897 4.9299 43.8197C4.9799 43.7497 5.0399 43.6797 5.0999 43.6297C5.1099 43.6297 5.1199 43.6197 5.1199 43.6097C5.1099 43.6097 5.0899 43.6097 5.0799 43.6097C5.1199 43.6097 5.1499 43.5797 5.1199 43.6097C5.5399 43.5597 6.0799 43.8797 6.4099 44.0697C6.8399 44.3197 7.2399 44.6297 7.5999 44.9797C7.6599 45.0297 7.7499 45.0497 7.8599 45.0497C7.9799 44.6597 8.0899 44.2697 8.2099 43.8797C7.4599 43.3097 6.5699 42.8797 5.6399 42.9297C4.4099 42.9997 3.5699 43.7397 3.1899 44.8697C2.8199 45.9997 2.6099 47.3097 3.0099 48.4597C3.4099 49.5997 4.3599 50.5897 5.1999 51.4297C5.2199 51.3097 5.2299 51.1997 5.2499 51.0797C5.2899 50.7697 5.7199 50.5197 6.0699 50.4797V50.4997Z" fill="black"/>
<path d="M8.87011 44.4506C8.67011 44.2606 8.44011 44.0606 8.21011 43.8906C8.09011 44.2806 7.98011 44.6706 7.86011 45.0606C8.32011 45.0606 9.11011 44.6806 8.87011 44.4606V44.4506Z" fill="black"/>
<path d="M12.4699 42.7895C12.4699 42.7895 12.5099 42.7895 12.5299 42.7895C12.4899 42.7595 12.4599 42.7195 12.4499 42.6895C12.7699 42.7695 12.8499 42.7995 12.6799 42.7895C12.6299 42.7895 12.5799 42.7895 12.5299 42.7895C12.5699 42.8295 12.6199 42.8695 12.6399 42.8995C12.7799 43.0795 12.9099 43.2695 13.0399 43.4595C13.5999 44.2595 14.0999 45.0995 14.5399 45.9595C14.9199 46.6995 15.1699 47.5795 15.9299 48.0195C16.7099 48.4795 17.6499 48.5995 18.5399 48.6295C18.7999 48.6295 18.8099 48.4995 18.6099 48.3795C18.3399 48.2095 17.9599 48.1295 17.6399 48.1195C17.4499 48.1195 17.2299 48.1195 17.0499 48.0695C17.0199 48.0695 16.8699 47.9695 16.7899 47.8795C16.4699 47.5495 16.3199 47.0795 16.1199 46.6695C15.6799 45.7695 15.1799 44.9095 14.6299 44.0695C14.3799 43.6995 14.1399 43.2895 13.8299 42.9695C13.5099 42.6295 13.0499 42.4595 12.5999 42.3595C12.3299 42.2995 12.0599 42.2695 11.7899 42.2695C11.7499 42.4795 11.7199 42.6795 11.6799 42.8895C11.9399 42.8295 12.1999 42.7895 12.4599 42.7795L12.4699 42.7895Z" fill="black"/>
<path d="M12.46 42.6914C12.46 42.6914 12.5 42.7514 12.54 42.7914C12.59 42.7914 12.64 42.7914 12.69 42.7914C12.86 42.8014 12.79 42.7714 12.46 42.6914Z" fill="black"/>
<path d="M9.73006 42.6484C9.67006 42.6684 9.68006 42.7084 9.73006 42.7584C9.73006 42.7184 9.74006 42.6884 9.75006 42.6484C9.75006 42.6484 9.75006 42.6484 9.74006 42.6484H9.73006Z" fill="black"/>
<path d="M21.0101 58.2297C20.9601 58.1897 20.7201 58.3197 20.6901 58.3297C20.5201 58.4097 20.3701 58.4997 20.2101 58.5897C20.2401 58.5697 20.2601 58.5597 20.2901 58.5397C20.2501 58.5597 20.2501 58.5597 20.2701 58.5397C20.2301 58.5597 20.2001 58.5697 20.1201 58.5997C19.9901 58.6497 19.8601 58.6797 19.7301 58.7097C19.4101 58.7797 19.0701 58.7997 18.7401 58.7797C18.0701 58.7397 17.4301 58.5397 16.8701 58.1797C17.1701 58.6697 16.8901 59.4797 16.2201 59.1897C16.1801 59.1697 16.1501 59.1597 16.1101 59.1397C16.6701 59.3997 17.2901 59.5397 17.9201 59.5197C18.9101 59.4897 19.8201 59.0997 20.6501 58.5797C20.7601 58.5197 20.9101 58.4197 20.9901 58.3197C21.0501 58.2497 21.0601 58.2497 21.0101 58.1997V58.2297Z" fill="black"/>
<path d="M20.31 58.5391C20.31 58.5391 20.28 58.5591 20.27 58.5591C20.27 58.5591 20.28 58.5591 20.29 58.5591C20.29 58.5591 20.3 58.5591 20.31 58.5491V58.5391Z" fill="black"/>
<path d="M10.2601 49.2299C10.2601 49.2299 10.2601 49.2299 10.2801 49.2299C10.3101 49.2299 10.3501 49.2099 10.3801 49.1999C10.4601 49.1799 10.5401 49.1499 10.6201 49.1199C10.6501 49.1099 10.6801 49.0999 10.7101 49.0799C10.7901 49.0499 10.8601 49.0099 10.9401 48.9699C10.9401 48.9699 10.9601 48.9699 10.9701 48.9499C10.8101 48.9199 10.6201 48.9499 10.5101 48.9799C10.3501 49.0299 10.2001 49.1299 10.0901 49.2499C10.1301 49.2499 10.1701 49.2499 10.2201 49.2299C10.2401 49.2299 10.2501 49.2299 10.2601 49.2299Z" fill="black"/>
<path d="M7.03 55.4191C7.08 55.4291 7.17 55.4491 7.25 55.4791C7.3 55.4491 7.35 55.4191 7.41 55.3991C7.51 55.1091 7.76 54.8991 8.15 55.0591C8.15 55.0591 8.16 55.0591 8.17 55.0591C8.2 54.9991 8.24 54.9691 8.29 54.9391C7.56 54.9691 6.58 54.8891 6.36 54.1391C6.22 53.6791 6.33 53.0991 6.36 52.6291C6.39 52.1791 6.45 51.7291 6.5 51.2891C6.22 51.5291 5.51 51.7491 5.3 51.5491C5.27 51.5191 5.23 51.4791 5.2 51.4491C5.07 52.3791 4.95 53.3391 4.99 54.2591C5.02 55.0691 5.55 55.5591 6.24 55.7991C6.25 55.7191 6.26 55.6391 6.27 55.5591C6.31 55.2991 6.88 55.3891 7.03 55.4291V55.4191Z" fill="black"/>
<path d="M9.71006 52.9792C9.66006 53.4492 9.57006 53.9492 9.35006 54.3692C9.17006 54.7192 9.02006 54.8892 8.63006 54.9192C8.61006 54.9192 8.58006 54.9192 8.56006 54.9192C8.78006 54.9892 9.02006 55.1892 9.13006 55.3092C9.15006 55.3292 9.16006 55.3492 9.17006 55.3692C9.33006 55.4092 9.49006 55.4392 9.65006 55.4592C9.69006 55.4292 9.73006 55.4092 9.77006 55.3792C10.5601 54.7492 10.8901 53.7392 11.0001 52.7792C11.1201 51.7592 11.1401 50.7192 11.1901 49.6992C10.7701 49.8792 10.3301 49.9992 9.88006 50.0592C9.84006 51.0292 9.82006 52.0192 9.71006 52.9892V52.9792Z" fill="black"/>
<path d="M6.07006 50.4994C6.22006 50.6594 6.38006 50.8194 6.53006 50.9694C6.53006 50.9394 6.53006 50.9194 6.53006 50.8894C6.58006 50.5594 6.34006 50.4594 6.06006 50.4894L6.07006 50.4994Z" fill="black"/>
<path d="M10.6301 49.1188C10.6301 49.1188 10.6301 49.1188 10.6201 49.1188C10.6301 49.1188 10.7101 49.0888 10.6301 49.1188Z" fill="black"/>
<path d="M9.87988 50.0609C10.3299 50.0009 10.7699 49.8809 11.1899 49.7009C11.1899 49.5409 11.1999 49.3809 11.2099 49.2209C11.2099 49.0609 11.1099 48.9909 10.9699 48.9609C10.9599 48.9609 10.9499 48.9709 10.9399 48.9809C10.8699 49.0209 10.7899 49.0509 10.7099 49.0909C10.6799 49.1009 10.6499 49.1209 10.6199 49.1309C10.6999 49.1009 10.6199 49.1309 10.6099 49.1309C10.6099 49.1309 10.6099 49.1309 10.6199 49.1309C10.5399 49.1609 10.4599 49.1809 10.3799 49.2109C10.3499 49.2109 10.3099 49.2309 10.2799 49.2409C10.2599 49.2409 10.2599 49.2409 10.2599 49.2409C10.2599 49.2409 10.2399 49.2409 10.2199 49.2409C10.1699 49.2409 10.1299 49.2409 10.0899 49.2609C9.97988 49.3809 9.90988 49.5209 9.89988 49.6909C9.89988 49.8209 9.88988 49.9409 9.87988 50.0709V50.0609Z" fill="black"/>
<path d="M6.49995 51.29C6.50995 51.18 6.51995 51.08 6.52995 50.97C6.37995 50.82 6.21995 50.66 6.06995 50.5C5.71995 50.54 5.28995 50.79 5.24995 51.1C5.22995 51.21 5.21995 51.33 5.19995 51.45C5.22995 51.48 5.26995 51.52 5.29995 51.55C5.50995 51.75 6.21995 51.54 6.49995 51.29Z" fill="black"/>
<path d="M6.30995 58.9108C6.30995 58.9108 6.36995 58.8908 6.38995 58.8808C6.38995 58.8108 6.39995 58.7408 6.40995 58.6708C6.35995 58.5108 6.30995 58.2508 6.40995 58.0908C6.42995 58.0508 6.46995 58.0208 6.49995 57.9908C6.59995 57.3008 6.73995 56.6208 6.93995 55.9508C6.89995 55.9508 6.85995 55.9508 6.81995 55.9408C6.61995 55.9108 6.42995 55.8708 6.23995 55.8008C6.07995 56.9208 6.01995 58.0508 6.07995 59.1908C6.07995 59.2208 6.09995 59.2408 6.10995 59.2608C6.10995 59.2308 6.10995 59.2008 6.10995 59.1708C6.10995 59.0508 6.21995 58.9708 6.30995 58.9208V58.9108Z" fill="black"/>
<path d="M6.92999 55.9508C6.92999 55.9508 6.92999 55.9208 6.93999 55.9108C6.98999 55.7308 7.10999 55.5908 7.24999 55.4908C7.15999 55.4608 7.07999 55.4408 7.02999 55.4308C6.87999 55.4008 6.30999 55.3008 6.26999 55.5608C6.25999 55.6408 6.24999 55.7208 6.23999 55.8008C6.41999 55.8608 6.61999 55.9108 6.81999 55.9408C6.85999 55.9408 6.89999 55.9408 6.93999 55.9508H6.92999Z" fill="black"/>
<path d="M16.1901 58.4401C16.3101 58.3701 16.7201 58.0901 16.8701 58.1901C16.8001 58.0701 16.7001 57.9701 16.5601 57.9101C15.9001 57.6301 15.1901 57.3501 14.6601 56.8601C14.3901 56.6101 14.3101 56.3301 14.1301 56.0201C13.9201 55.6401 13.5701 55.3801 13.1401 55.3101C12.3801 55.1801 11.5601 55.5301 10.7901 55.5501C10.4101 55.5601 10.0301 55.5301 9.65012 55.4701C9.56012 55.5301 9.46012 55.5901 9.37012 55.6401C9.45012 55.7701 9.51012 55.9001 9.55012 56.0301C9.60012 56.2001 9.65012 56.4501 9.55012 56.6201C9.51012 56.6901 9.48012 56.7501 9.44012 56.8201C9.76012 56.8701 10.0801 56.9201 10.4101 56.9301C10.8601 56.9501 11.3201 56.9301 11.7701 56.8701C12.1601 56.8201 12.5601 56.6701 12.9501 56.6701C12.9901 56.6701 13.1001 56.6701 13.1301 56.6901C13.1201 56.6801 13.0701 56.6901 13.0801 56.7001C13.1801 56.8501 13.2401 57.0501 13.3401 57.2101C13.5501 57.5401 13.8101 57.8201 14.1201 58.0601C14.7101 58.5401 15.4301 58.8601 16.1201 59.1601C15.9601 59.0801 15.8001 59.0001 15.6501 58.9001C15.5801 58.8601 16.1601 58.4701 16.2101 58.4401H16.1901Z" fill="black"/>
<path d="M16.8801 58.201C16.7301 58.101 16.3301 58.381 16.2001 58.451C16.1601 58.471 15.5801 58.871 15.6401 58.911C15.7901 59.011 15.9501 59.091 16.1101 59.171C16.1501 59.191 16.1801 59.201 16.2201 59.221C16.8901 59.501 17.1801 58.701 16.8701 58.211L16.8801 58.201Z" fill="black"/>
<path d="M9.36992 55.6389C9.46992 55.5889 9.55992 55.5289 9.64992 55.4689C9.48992 55.4489 9.32992 55.4089 9.16992 55.3789C9.23992 55.4589 9.30992 55.5489 9.36992 55.6389Z" fill="black"/>
<path d="M8.0099 55.3609C8.0599 55.2609 8.1099 55.1709 8.1599 55.0709C8.1599 55.0709 8.1499 55.0709 8.1399 55.0709C7.7499 54.9109 7.4999 55.1209 7.3999 55.4109C7.4999 55.3609 7.6199 55.3309 7.7299 55.3209C7.8199 55.3209 7.9099 55.3309 7.9999 55.3709L8.0099 55.3609Z" fill="black"/>
<path d="M7.41 55.3984C7.36 55.4184 7.3 55.4484 7.25 55.4784C7.29 55.4884 7.33 55.5084 7.37 55.5284C7.37 55.4784 7.39 55.4384 7.4 55.3984H7.41Z" fill="black"/>
<path d="M6.63999 57.9214C6.76999 57.7214 6.86999 57.5014 6.97999 57.2914C7.10999 57.0514 7.23999 56.8014 7.36999 56.5614C7.42999 56.4414 7.49999 56.3214 7.56999 56.1914C7.50999 56.1314 7.45999 56.0614 7.42999 55.9814C7.25999 55.9814 7.09999 55.9614 6.92999 55.9414C6.72999 56.6114 6.58999 57.2914 6.48999 57.9814C6.52999 57.9514 6.57999 57.9414 6.61999 57.9314C6.61999 57.9314 6.62999 57.9314 6.63999 57.9214Z" fill="black"/>
<path d="M6.40989 58.6719C6.40989 58.7419 6.39989 58.8119 6.38989 58.8819C6.41989 58.8719 6.44989 58.8519 6.48989 58.8419C6.45989 58.7819 6.42989 58.7319 6.40989 58.6719Z" fill="black"/>
<path d="M7.37994 55.5305C7.37994 55.5305 7.29994 55.4905 7.25994 55.4805C7.11994 55.5805 7.00994 55.7205 6.94994 55.9005C6.94994 55.9105 6.94994 55.9305 6.93994 55.9405C7.09994 55.9605 7.26994 55.9705 7.43994 55.9805C7.37994 55.8405 7.36994 55.6805 7.38994 55.5305H7.37994Z" fill="black"/>
<path d="M7.62988 56.0683C7.62988 56.0683 7.65988 56.0083 7.66988 55.9883C7.65988 55.9883 7.64988 55.9883 7.63988 55.9883C7.63988 56.0183 7.63988 56.0483 7.62988 56.0683Z" fill="black"/>
<path d="M7.66012 55.869C7.66012 55.869 7.65012 55.949 7.64012 55.999C7.65012 55.999 7.66012 55.999 7.67012 55.999C7.78012 55.789 7.89012 55.579 8.00012 55.369C7.91012 55.329 7.82012 55.309 7.73012 55.319C7.61012 55.319 7.50012 55.359 7.40012 55.409C7.39012 55.449 7.38012 55.489 7.37012 55.539C7.53012 55.619 7.68012 55.719 7.65012 55.869H7.66012Z" fill="black"/>
<path d="M7.42993 55.9883C7.45993 56.0683 7.50993 56.1383 7.56993 56.1983C7.58993 56.1583 7.60993 56.1183 7.62993 56.0783C7.62993 56.0483 7.62993 56.0183 7.63993 55.9983C7.56993 55.9983 7.49993 55.9983 7.42993 55.9983V55.9883Z" fill="black"/>
<path d="M7.63998 55.9913C7.63998 55.9913 7.63998 55.9113 7.65998 55.8613C7.67998 55.7113 7.53998 55.6013 7.37998 55.5312C7.35998 55.6813 7.37998 55.8413 7.42998 55.9813C7.49998 55.9813 7.56998 55.9813 7.63998 55.9813V55.9913Z" fill="black"/>
<path d="M7.38007 59.7683C7.29007 59.7583 7.21007 59.7083 7.14007 59.6583C7.11007 59.6583 7.07007 59.6583 7.04007 59.6583C6.90007 59.6883 6.72007 59.6783 6.60007 59.6183C6.57007 59.5983 6.54007 59.5783 6.50007 59.5483C6.31007 59.4783 6.16007 59.3783 6.11007 59.2383C6.16007 59.9183 6.11007 60.5983 5.99007 61.2583C5.97007 61.3583 6.15007 61.4583 6.21007 61.4883C6.36007 61.5483 6.56007 61.5783 6.72007 61.5583C6.97007 61.5383 7.36007 61.4783 7.41007 61.1883C7.50007 60.7183 7.53007 60.2383 7.54007 59.7683C7.49007 59.7683 7.44007 59.7683 7.39007 59.7583L7.38007 59.7683Z" fill="black"/>
<path d="M6.49996 59.5589C6.41996 59.4889 6.34996 59.3889 6.35996 59.2889C6.35996 59.1489 6.37996 59.0089 6.38996 58.8789C6.35996 58.8889 6.32996 58.8989 6.30996 58.9089C6.21996 58.9589 6.09996 59.0389 6.10996 59.1589C6.10996 59.1889 6.10996 59.2189 6.10996 59.2489C6.15996 59.3789 6.30996 59.4889 6.49996 59.5589Z" fill="black"/>
<path d="M7.08004 59.6584C7.08004 59.6584 7.05004 59.6584 7.04004 59.6584C7.08004 59.6584 7.11004 59.6584 7.14004 59.6584C7.14004 59.6584 7.13004 59.6584 7.12004 59.6484C7.11004 59.6484 7.10004 59.6584 7.08004 59.6684V59.6584Z" fill="black"/>
<path d="M6.58999 59.6286C6.71999 59.6886 6.88999 59.6986 7.02999 59.6686C6.85999 59.6686 6.65999 59.6286 6.48999 59.5586C6.51999 59.5886 6.54999 59.6086 6.58999 59.6286Z" fill="black"/>
<path d="M7.1201 59.6498C7.0101 59.5698 6.9101 59.4698 6.8201 59.3798C6.6701 59.2298 6.5701 59.0398 6.4801 58.8398C6.4501 58.8398 6.4201 58.8598 6.3801 58.8798C6.3701 59.0198 6.3501 59.1498 6.3501 59.2898C6.3501 59.3898 6.4101 59.4898 6.4901 59.5598C6.6601 59.6198 6.8601 59.6598 7.0301 59.6698C7.0401 59.6698 7.0601 59.6698 7.0701 59.6698C7.0801 59.6698 7.0901 59.6598 7.1101 59.6498H7.1201Z" fill="black"/>
<path d="M10.15 42.9989C10.15 42.9989 10.05 42.9589 9.95002 42.9089C9.81002 43.3889 9.67002 43.8589 9.52002 44.3289C9.59002 44.2889 9.66002 44.2389 9.73002 44.1989C9.84002 44.1389 9.95002 44.0989 10.07 44.0589C10.16 44.0289 10.26 44.0089 10.36 43.9989H10.99C11.08 43.9889 11.15 44.0089 11.21 44.0689C11.21 44.0989 11.22 44.1389 11.23 44.1689C11.2 44.2689 11.15 44.3689 11.08 44.4389C11.03 44.4889 10.98 44.5489 10.93 44.5989C10.86 44.6589 10.78 44.7189 10.71 44.7689C10.93 44.7589 11.15 44.7689 11.36 44.8189C11.47 44.1689 11.59 43.5289 11.7 42.8789C11.47 42.9289 11.25 42.9989 11.04 43.0889C10.78 43.1889 10.41 43.0689 10.16 42.9889L10.15 42.9989Z" fill="black"/>
<path d="M13.3201 31.1581C13.3001 31.3181 13.2501 31.4681 13.1501 31.5981C13.0901 31.6481 13.0301 31.7081 12.9801 31.7581C12.8401 31.8481 12.6901 31.8881 12.5301 31.8781C12.5001 31.8781 12.4701 31.8681 12.4301 31.8581C11.8501 35.4581 11.0501 39.0181 10.0601 42.5281C10.6201 42.3481 11.2101 42.2381 11.8001 42.2581C12.4401 38.6181 13.1101 34.9781 13.8201 31.3481C13.8501 31.1881 13.6701 30.9981 13.4201 30.8281C13.3901 30.9181 13.3601 31.0081 13.3401 31.0981C13.3401 31.1181 13.3401 31.1281 13.3401 31.1481L13.3201 31.1581Z" fill="black"/>
<path d="M13.3101 31.1697C13.3101 31.1697 13.3201 31.1297 13.3301 31.1097C13.3401 31.0497 13.3501 30.9897 13.3701 30.9297L13.3101 31.1697Z" fill="black"/>
<path d="M12.0299 30.1914C11.9799 30.4514 11.9299 30.7214 11.8799 30.9814C12.1999 31.1114 12.5099 31.3914 12.4699 31.6514C12.4599 31.7214 12.4399 31.8014 12.4299 31.8714C12.4599 31.8714 12.4899 31.8814 12.5299 31.8914C12.6899 31.8914 12.8399 31.8514 12.9799 31.7714C13.0399 31.7214 13.0999 31.6614 13.1499 31.6114C13.2499 31.4814 13.3099 31.3314 13.3199 31.1714C13.3199 31.1514 13.3199 31.1414 13.3199 31.1214C13.3199 31.1414 13.3099 31.1614 13.2999 31.1814L13.3599 30.9414C13.3499 31.0014 13.3399 31.0614 13.3199 31.1214C13.3399 31.0314 13.3799 30.9414 13.3999 30.8514C12.8699 30.4914 12.0299 30.1714 12.0199 30.2014L12.0299 30.1914Z" fill="black"/>
<path d="M10.6999 44.7908C10.6999 44.7908 10.6399 44.8408 10.6099 44.8608C10.5499 44.9008 10.4799 44.9408 10.4199 44.9708C10.8499 45.1808 11.2599 45.3308 11.2699 45.3108C11.2999 45.1508 11.3299 44.9908 11.3599 44.8308C11.1499 44.7808 10.9299 44.7708 10.7099 44.7808L10.6999 44.7908Z" fill="black"/>
<path d="M9.72998 42.7617C9.64998 43.2217 9.55998 43.6917 9.47998 44.1517C9.47998 44.2117 9.47998 44.2717 9.51998 44.3317C9.65998 43.8617 9.80998 43.3817 9.94998 42.9117C9.85998 42.8617 9.76998 42.8117 9.71998 42.7617H9.72998Z" fill="black"/>
<path d="M12.43 31.8717C12.43 31.8717 12.33 31.8517 12.28 31.8517C12.15 31.8117 12.04 31.7517 11.94 31.6717C11.88 31.6317 11.83 31.5617 11.78 31.5117C11.07 35.2217 10.38 38.9317 9.73999 42.6617C9.83999 42.6217 9.94999 42.5917 10.06 42.5617C11.05 39.0517 11.85 35.4917 12.43 31.8917V31.8717Z" fill="black"/>
<path d="M12.29 31.8505C12.29 31.8505 12.39 31.8705 12.44 31.8705C12.45 31.8005 12.47 31.7205 12.48 31.6505C12.52 31.3905 12.22 31.1205 11.89 30.9805C11.86 31.1505 11.83 31.3205 11.79 31.5005C11.84 31.5605 11.88 31.6205 11.95 31.6605C12.05 31.7505 12.16 31.8105 12.29 31.8405V31.8505Z" fill="black"/>
<path d="M9.94995 42.9081C10.05 42.9581 10.14 42.9981 10.15 42.9981C10.4 43.0881 10.77 43.2081 11.03 43.0981C11.25 43.0081 11.47 42.9481 11.69 42.8881C11.73 42.6781 11.76 42.4781 11.8 42.2681C11.21 42.2481 10.62 42.3481 10.06 42.5381C10.03 42.6581 9.98995 42.7781 9.94995 42.8981V42.9081Z" fill="black"/>
<path d="M10.06 42.5391C9.94997 42.5691 9.84997 42.5991 9.73997 42.6391C9.73997 42.6791 9.72997 42.7091 9.71997 42.7491C9.76997 42.7991 9.85997 42.8491 9.94997 42.8991C9.98997 42.7791 10.03 42.6591 10.06 42.5391Z" fill="black"/>
<path d="M10.19 44.8598C9.89002 44.6998 9.63002 44.5098 9.52002 44.3398C9.44002 44.6098 9.36002 44.8898 9.27002 45.1598C9.55002 45.0398 9.86002 44.9298 10.19 44.8598Z" fill="black"/>
<path d="M9.26998 45.1516C9.26998 45.1516 9.24998 45.2316 9.22998 45.2716H9.60998C9.70998 45.2716 9.79998 45.2416 9.89998 45.2116C10.02 45.1816 10.13 45.1316 10.24 45.0716C10.3 45.0416 10.36 45.0016 10.41 44.9716C10.34 44.9316 10.26 44.8916 10.19 44.8516C9.86998 44.9216 9.54998 45.0316 9.26998 45.1516Z" fill="black"/>
<path d="M9.26999 45.1481C9.35999 44.8781 9.42999 44.5981 9.51999 44.3281C9.46999 44.3581 9.41999 44.3881 9.36999 44.4181C9.25999 44.4881 9.14999 44.5681 9.04999 44.6581C8.99999 44.7081 8.94999 44.7681 8.88999 44.8181C8.81999 44.8981 8.75999 44.9881 8.73999 45.0881C8.73999 45.1181 8.74999 45.1581 8.75999 45.1881C8.81999 45.2481 8.88999 45.2781 8.97999 45.2581H8.99999C8.99999 45.2581 9.01999 45.2481 9.02999 45.2381C9.10999 45.1981 9.18999 45.1681 9.26999 45.1281V45.1481Z" fill="black"/>
<path d="M9.27 45.1484C9.19 45.1884 9.1 45.2184 9.03 45.2584C9.03 45.2584 9.01 45.2684 9 45.2784H9.23C9.23 45.2784 9.25 45.1984 9.27 45.1584V45.1484Z" fill="black"/>
<path d="M10.19 44.8618C10.36 44.8218 10.53 44.8018 10.7 44.7918C10.78 44.7418 10.85 44.6818 10.92 44.6218C10.97 44.5718 11.02 44.5118 11.07 44.4618C11.15 44.3818 11.2 44.2918 11.22 44.1918C11.22 44.1618 11.21 44.1218 11.2 44.0918C11.14 44.0318 11.07 44.0018 10.98 44.0218H10.35C10.25 44.0218 10.16 44.0518 10.06 44.0818C9.94001 44.1118 9.83001 44.1618 9.72001 44.2218C9.65001 44.2618 9.58001 44.3018 9.51001 44.3518C9.62001 44.5318 9.88001 44.7118 10.18 44.8718L10.19 44.8618Z" fill="black"/>
<path d="M10.4199 44.9691C10.4799 44.9291 10.5499 44.8991 10.6099 44.8591C10.6399 44.8391 10.6699 44.8091 10.6999 44.7891C10.5299 44.7991 10.3599 44.8191 10.1899 44.8591C10.2599 44.8991 10.3399 44.9391 10.4099 44.9791L10.4199 44.9691Z" fill="black"/>
<path d="M7.90004 57.4305C7.85004 57.7005 7.81004 57.9705 7.78004 58.2505C7.75004 58.5205 7.73004 58.7405 7.72004 58.9605C7.72004 59.1305 7.64004 59.2805 7.54004 59.3905C7.54004 59.5205 7.54004 59.6505 7.54004 59.7905C7.67004 59.7905 7.79004 59.7605 7.89004 59.6605C8.02004 59.5205 8.09004 59.3705 8.18004 59.2105C8.33004 58.9205 8.49004 58.6405 8.64004 58.3505C8.91004 57.8405 9.18004 57.3405 9.45004 56.8305C9.00004 56.7505 8.55004 56.6305 8.12004 56.4805C8.04004 56.8005 7.96004 57.1205 7.91004 57.4405L7.90004 57.4305Z" fill="black"/>
<path d="M8.28003 54.9506C8.38003 54.9506 8.47003 54.9406 8.56003 54.9306C8.46003 54.9006 8.36003 54.9006 8.28003 54.9506Z" fill="black"/>
<path d="M9.12991 55.3197C9.01991 55.1997 8.77991 54.9997 8.55991 54.9297C8.46991 54.9297 8.37991 54.9397 8.27991 54.9497C8.23991 54.9797 8.19991 55.0097 8.15991 55.0697C8.48991 55.1997 8.81991 55.2997 9.15991 55.3797C9.14991 55.3597 9.12991 55.3397 9.11991 55.3197H9.12991Z" fill="black"/>
<path d="M6.39997 58.0805C6.30997 58.2405 6.34997 58.5005 6.39997 58.6605C6.41997 58.4305 6.44997 58.2005 6.47997 57.9805C6.44997 58.0005 6.41997 58.0305 6.38997 58.0805H6.39997Z" fill="black"/>
<path d="M9.5401 56.0306C9.5001 55.9006 9.4401 55.7706 9.3601 55.6406C9.0201 55.8206 8.6401 55.9106 8.2401 55.9606C8.1901 56.1306 8.1401 56.3006 8.1001 56.4706C8.5301 56.6306 8.9801 56.7406 9.4301 56.8206C9.4701 56.7506 9.5001 56.6906 9.5401 56.6206C9.6301 56.4506 9.5901 56.2006 9.5401 56.0306Z" fill="black"/>
<path d="M8.17002 55.0703C8.12002 55.1703 8.07002 55.2603 8.02002 55.3603C8.21002 55.4403 8.36002 55.6203 8.29002 55.8503C8.28002 55.8903 8.27002 55.9203 8.26002 55.9603C8.65002 55.9203 9.03002 55.8203 9.38002 55.6403C9.32002 55.5403 9.25002 55.4603 9.18002 55.3803C8.84002 55.3003 8.50002 55.2003 8.18002 55.0703H8.17002Z" fill="black"/>
<path d="M7.60998 56.2305C7.48998 57.1305 7.43997 58.0405 7.44997 58.9505C7.48997 58.9905 7.51998 59.0305 7.52998 59.0905C7.52998 59.1905 7.52998 59.2905 7.52998 59.3905C7.62998 59.2705 7.69997 59.1305 7.70997 58.9605C7.71997 58.7405 7.73997 58.5205 7.76997 58.2505C7.79997 57.9805 7.83997 57.7005 7.88997 57.4305C7.94997 57.1105 8.01998 56.7905 8.09998 56.4705C7.99998 56.4305 7.88997 56.4005 7.78997 56.3605C7.70997 56.3305 7.64997 56.2805 7.59997 56.2305H7.60998Z" fill="black"/>
<path d="M6.69989 57.9297C6.69989 57.9297 6.68989 57.9297 6.67989 57.9297H6.65989C6.65989 57.9297 6.64989 57.9397 6.63989 57.9497C6.65989 57.9497 6.67989 57.9397 6.69989 57.9297Z" fill="black"/>
<path d="M6.48992 58.8414C6.58992 58.8114 6.69992 58.7914 6.80992 58.7814C6.96992 58.7714 7.16992 58.7814 7.31992 58.8514C7.36992 58.8714 7.41992 58.9014 7.45992 58.9414C7.43992 58.0314 7.48992 57.1214 7.61992 56.2214C7.60992 56.2114 7.58992 56.2014 7.57992 56.1914C7.51992 56.3114 7.44992 56.4314 7.37992 56.5614C7.24992 56.8014 7.11992 57.0514 6.98992 57.2914C6.87992 57.5014 6.77992 57.7214 6.64992 57.9214C6.66992 57.9114 6.68992 57.9014 6.69992 57.8814C6.68992 57.9014 6.66992 57.9114 6.65992 57.9314H6.67992C6.68992 57.9314 6.69992 57.9314 6.71992 57.9314C6.71992 57.9314 6.71992 57.9314 6.70992 57.9314C6.73992 57.9314 6.77992 57.9314 6.81992 57.9414C6.82992 57.9414 6.83992 57.9414 6.85992 57.9414C6.80992 57.9414 6.75992 57.9414 6.70992 57.9314C6.68992 57.9314 6.66992 57.9414 6.64992 57.9514C6.63992 57.9714 6.61992 57.9814 6.60992 58.0014C6.60992 57.9914 6.62992 57.9714 6.62992 57.9614C6.60992 57.9614 6.59992 57.9714 6.57992 57.9814C6.59992 57.9814 6.61992 57.9514 6.62992 57.9414C6.57992 57.9414 6.53992 57.9614 6.49992 57.9914C6.46992 58.2214 6.43992 58.4414 6.41992 58.6714C6.43992 58.7314 6.46992 58.7914 6.49992 58.8414H6.48992Z" fill="black"/>
<path d="M6.63011 57.9319C6.63011 57.9319 6.63011 57.9319 6.63011 57.9219C6.63011 57.9219 6.62011 57.9219 6.61011 57.9319H6.63011Z" fill="black"/>
<path d="M6.62007 57.9297C6.62007 57.9297 6.59007 57.9597 6.57007 57.9697C6.59007 57.9697 6.60007 57.9597 6.62007 57.9497C6.62007 57.9497 6.62007 57.9297 6.63007 57.9297H6.62007Z" fill="black"/>
<path d="M6.64989 57.9289C6.64989 57.9289 6.67989 57.8989 6.68989 57.8789C6.66989 57.8989 6.64989 57.9089 6.63989 57.9189C6.63989 57.9189 6.63989 57.9189 6.63989 57.9289C6.63989 57.9289 6.64989 57.9289 6.65989 57.9289H6.64989Z" fill="black"/>
<path d="M6.6001 57.9992C6.6001 57.9992 6.6301 57.9692 6.6401 57.9492C6.6401 57.9492 6.6301 57.9492 6.6201 57.9492C6.6201 57.9592 6.6101 57.9792 6.6001 57.9892V57.9992Z" fill="black"/>
<path d="M6.62012 57.9614C6.62012 57.9614 6.63012 57.9614 6.64012 57.9614C6.64012 57.9614 6.65012 57.9514 6.66012 57.9414C6.66012 57.9414 6.65012 57.9414 6.64012 57.9414C6.64012 57.9414 6.64012 57.9614 6.63012 57.9614H6.62012Z" fill="black"/>
<path d="M6.83994 57.9397C6.83994 57.9397 6.81994 57.9397 6.79994 57.9397C6.75994 57.9397 6.72994 57.9397 6.68994 57.9297C6.73994 57.9297 6.78994 57.9297 6.83994 57.9397Z" fill="black"/>
<path d="M7.63011 56.0692C7.63011 56.1192 7.62011 56.1692 7.61011 56.2192C7.67011 56.2692 7.73011 56.3192 7.80011 56.3492C7.90011 56.3892 8.00011 56.4192 8.11011 56.4592C8.15011 56.2892 8.20011 56.1192 8.25011 55.9492C8.06011 55.9692 7.87011 55.9792 7.68011 55.9792C7.67011 56.0092 7.65011 56.0392 7.64011 56.0592L7.63011 56.0692Z" fill="black"/>
<path d="M8.00993 55.3594C7.89993 55.5694 7.78993 55.7794 7.67993 55.9894C7.86993 55.9894 8.05993 55.9894 8.24993 55.9594C8.25993 55.9194 8.26993 55.8894 8.27993 55.8494C8.34993 55.6194 8.19993 55.4494 8.00993 55.3594Z" fill="black"/>
<path d="M7.61007 56.2281C7.61007 56.1781 7.62007 56.1281 7.63007 56.0781C7.61007 56.1181 7.59007 56.1581 7.57007 56.1981C7.58007 56.2081 7.60007 56.2181 7.61007 56.2281Z" fill="black"/>
<path d="M7.46989 59.4489C7.46989 59.4489 7.46989 59.4789 7.46989 59.4889C7.46989 59.5989 7.32989 59.6489 7.13989 59.6589C7.21989 59.7089 7.29989 59.7489 7.37989 59.7689C7.42989 59.7689 7.47989 59.7789 7.52989 59.7789C7.52989 59.6489 7.52989 59.5189 7.52989 59.3789C7.50989 59.3989 7.48989 59.4189 7.45989 59.4389L7.46989 59.4489Z" fill="black"/>
<path d="M7.14012 59.6592C7.33012 59.6592 7.47012 59.5992 7.47012 59.4892C7.47012 59.4792 7.47012 59.4592 7.47012 59.4492C7.37012 59.5392 7.26012 59.5992 7.12012 59.6492C7.12012 59.6492 7.13012 59.6492 7.14012 59.6592Z" fill="black"/>
<path d="M7.44995 58.9492C7.44995 59.1192 7.44995 59.2792 7.45995 59.4492C7.47995 59.4292 7.50995 59.4092 7.52995 59.3892C7.52995 59.2892 7.52995 59.1892 7.52995 59.0892C7.52995 59.0292 7.48995 58.9892 7.44995 58.9492Z" fill="black"/>
<path d="M7.30998 58.8586C7.15998 58.7886 6.95998 58.7686 6.79998 58.7886C6.69998 58.7886 6.58998 58.8186 6.47998 58.8486C6.56998 59.0486 6.66998 59.2286 6.81998 59.3886C6.89998 59.4786 7.00998 59.5786 7.11998 59.6586C7.24998 59.6186 7.36998 59.5486 7.46998 59.4586C7.46998 59.2886 7.46998 59.1286 7.45998 58.9586C7.41998 58.9186 7.35998 58.8886 7.31998 58.8686L7.30998 58.8586Z" fill="black"/>
<path d="M66.4501 74.8709C69.5501 74.8409 72.6601 74.8109 75.7601 74.7809L78.0201 74.7609H79.1501C79.4101 74.7509 79.9701 74.6309 80.1501 74.8509C80.3001 75.0409 80.2301 75.5609 80.2401 75.7909C80.2501 76.2009 80.2701 76.6209 80.2801 77.0309C80.3101 77.8109 80.3301 78.5909 80.3601 79.3809C80.3601 79.6709 82.4401 79.3609 82.4201 78.8309C82.3901 78.0009 82.3701 77.1709 82.3401 76.3509C82.3301 75.9809 82.3201 75.6109 82.3001 75.2509C82.2901 74.9409 82.3501 74.5009 82.1601 74.2409C81.8201 73.7809 80.8401 73.9709 80.3701 73.9809L77.8301 74.0109C74.4901 74.0409 71.1501 74.0809 67.8201 74.1109C67.3401 74.1109 66.7701 74.2409 66.3601 74.5009C66.0601 74.6909 66.0501 74.9009 66.4701 74.9009L66.4501 74.8709Z" fill="#1D1D1B"/>
<path d="M59.69 82.1406C64.06 82.1806 68.42 82.2006 72.79 82.2106C74.9 82.2106 77.02 82.2106 79.13 82.2106C79.9 82.2106 83.04 82.1706 82.68 80.7006C82.56 80.2006 80.49 80.7306 80.62 81.2506C81.17 81.3106 81.2 81.3306 80.71 81.3106C80.48 81.3106 80.24 81.3106 80.01 81.3106C79.6 81.3106 79.19 81.3106 78.79 81.3106C77.87 81.3106 76.96 81.3106 76.04 81.3106C74.41 81.3106 72.78 81.3106 71.15 81.3106C67.77 81.3106 64.4 81.2806 61.02 81.2506C60.56 81.2506 59.93 81.3206 59.56 81.6406C59.3 81.8606 59.23 82.1406 59.69 82.1406Z" fill="#1D1D1B"/>
<path d="M79.34 81.8001C79.36 82.6201 79.02 83.4801 78.88 84.2801C78.74 85.0801 78.63 85.8701 78.57 86.6801C78.43 88.3501 78.46 90.0301 78.62 91.7001C78.67 92.2001 79.5 92.2101 79.84 92.1201C80.31 92.0001 80.73 91.6601 80.68 91.1401C80.52 89.5401 80.52 87.9301 80.67 86.3201C80.74 85.5201 80.85 84.7201 81 83.9301C81.14 83.1801 81.44 82.3901 81.43 81.6301C81.43 81.1201 80.94 80.9301 80.48 80.9601C80.09 80.9901 79.33 81.2801 79.34 81.7901V81.8001Z" fill="#1D1D1B"/>
<path d="M73.5799 81.8183C73.1699 84.9083 73.0599 88.0183 73.2499 91.1283C73.2799 91.6383 73.7199 91.8683 74.2099 91.8383C74.5999 91.8083 75.3699 91.4983 75.3399 90.9883C75.1499 87.8783 75.2599 84.7683 75.6699 81.6783C75.8099 80.5983 73.7099 80.8483 73.5799 81.8183Z" fill="#1D1D1B"/>
<path d="M41.9201 90.49L42.3801 92.19C42.4401 92.4 42.6301 92.56 42.8201 92.64C43.0501 92.73 43.3701 92.74 43.6101 92.67C43.8501 92.6 44.1201 92.47 44.2801 92.25C44.4101 92.07 44.5001 91.86 44.4401 91.64L43.9801 89.94C43.9201 89.73 43.7301 89.57 43.5401 89.49C43.3101 89.4 42.9901 89.39 42.7501 89.46C42.5101 89.53 42.2401 89.66 42.0801 89.88C41.9501 90.06 41.8601 90.27 41.9201 90.49Z" fill="#1D1D1B"/>
<path d="M74.3501 51.2503C73.2501 51.5703 72.1701 51.9403 71.1101 52.3803C70.3201 52.7103 69.0901 53.0703 68.5101 53.7503C67.9301 54.4303 68.4001 55.8003 68.5401 56.5803C68.7501 57.7703 69.0301 58.9503 69.3301 60.1203C70.5101 64.6203 72.1501 69.0603 72.0501 73.7803C72.0501 74.0203 74.1001 73.7803 74.1101 73.2303C74.2001 69.1603 72.9901 65.2703 71.9001 61.4003C71.3601 59.4803 70.8401 57.5403 70.5301 55.5703C70.4601 55.1103 70.3601 54.6303 70.3501 54.1703C70.3301 53.4303 70.7801 53.2603 71.4101 52.9703C72.4101 52.5103 73.4501 52.1203 74.5101 51.8103C74.6801 51.7603 75.5401 51.5403 75.4701 51.2603C75.4001 50.9803 74.4901 51.2303 74.3701 51.2603L74.3501 51.2503Z" fill="#1D1D1B"/>
<path d="M72.88 74.7818C80.1 75.0818 87.31 74.3918 94.34 72.7218C95.62 72.4118 95.2401 70.9918 93.9601 71.3018C87.3001 72.8818 80.43 73.5518 73.59 73.2718C73.11 73.2518 72.4601 73.4018 72.2501 73.9018C72.0701 74.3418 72.42 74.7618 72.88 74.7718V74.7818Z" fill="#1D1D1B"/>
<path d="M86.78 48.5207L90.48 48.9307L92.33 49.1307C92.78 49.1807 93.74 49.1007 94.06 49.5107C94.33 49.8607 94.22 50.6807 94.24 51.0807C94.27 51.7307 94.3 52.3807 94.32 53.0307C94.38 54.3307 94.43 55.6307 94.49 56.9307C94.71 62.1307 94.93 67.3407 95.15 72.5407C95.16 72.8307 97.23 72.5207 97.21 71.9907C96.98 66.5507 96.75 61.1107 96.52 55.6707C96.46 54.3707 96.41 53.0707 96.35 51.7707C96.32 51.0607 96.32 50.3507 96.26 49.6407C96.23 49.2107 96.15 48.8307 95.74 48.6207C95.35 48.4207 94.78 48.4507 94.37 48.4107L92.52 48.2107L88.48 47.7607C88 47.7107 87.48 47.8407 87.04 48.0407C86.91 48.1007 86.31 48.4707 86.77 48.5207H86.78Z" fill="#1D1D1B"/>
</g>
<defs>
<clipPath id="clip0_516_536">
<rect width="100" height="100" fill="white"/>
</clipPath>
</defs>
</svg>
