<svg width="525" height="238" viewBox="0 0 525 238" fill="none" xmlns="http://www.w3.org/2000/svg">
<rect width="524.53" height="237.51" fill="white"/>
<path d="M80.59 213.1C106.49 213.68 132.4 214.1 158.31 214.37C184.15 214.64 209.98 214.75 235.82 214.7C250.37 214.67 264.91 214.6 279.46 214.48C280.02 214.48 281.26 213.62 280.14 213.63C254.23 213.85 228.32 213.92 202.41 213.82C176.5 213.72 150.74 213.48 124.9 213.08C110.36 212.85 95.81 212.58 81.27 212.25C80.7 212.24 79.46 213.07 80.59 213.1Z" fill="#1D1D1B"/>
<path d="M284.22 213.16C305.7 213.82 327.18 214.32 348.68 214.66C370.07 215 391.46 215.18 412.86 215.21C425.04 215.22 437.22 215.19 449.4 215.1C449.87 215.1 450.82 215 451.02 214.67C451.22 214.34 450.86 214.19 450.35 214.2C428.85 214.35 407.35 214.35 385.85 214.19C364.46 214.03 343.07 213.71 321.68 213.23C309.51 212.96 297.34 212.64 285.17 212.27C284.21 212.24 282.56 213.12 284.22 213.17V213.16Z" fill="#1D1D1B"/>
<path d="M455.66 214.761C456.04 214.761 456.77 214.641 456.93 214.211C457.08 213.811 456.8 213.551 456.38 213.551C456 213.551 455.27 213.671 455.11 214.101C454.96 214.501 455.24 214.761 455.66 214.761Z" fill="#1D1D1B"/>
<path d="M68.19 212.179H74.7C75.09 212.179 75.6 212.069 75.8 211.699C75.99 211.359 75.64 211.109 75.32 211.109H68.81C68.42 211.109 67.91 211.219 67.71 211.589C67.52 211.929 67.87 212.179 68.19 212.179Z" fill="#1D1D1B"/>
<path d="M459.38 214.691C460.46 215.441 461.81 215.221 463.02 214.971C464.65 214.641 465.88 215.141 467.42 215.631C470.5 216.601 473.67 216.081 476.79 215.591C483.78 214.481 490.87 214.251 497.92 214.871C498.9 214.961 500.59 213.571 498.89 213.421C492.2 212.831 485.45 212.991 478.8 213.921C475.68 214.351 472.43 215.261 469.31 214.351C467.92 213.951 466.6 213.351 465.13 213.331C463.97 213.311 462.38 214.151 461.38 213.461C460.7 212.981 458.37 213.991 459.38 214.691Z" fill="#1D1D1B"/>
<path d="M61.07 212.749C61.66 212.749 62.69 212.559 62.98 211.949C63.27 211.339 62.74 211.059 62.18 211.059C61.59 211.059 60.56 211.249 60.27 211.859C59.98 212.469 60.51 212.749 61.07 212.749Z" fill="#1D1D1B"/>
<path d="M62.35 211.192C58.63 210.962 54.91 210.702 51.19 210.512C49.62 210.432 48.1 210.492 46.65 211.162C45.2 211.832 44.02 213.132 42.38 213.162C40.59 213.192 38.72 212.722 36.94 212.532C35.16 212.342 33.28 212.212 31.45 212.142C27.74 211.992 24.03 212.062 20.34 212.352C19.83 212.392 19 212.732 18.94 213.332C18.88 213.932 19.61 214.132 20.09 214.092C23.79 213.802 27.49 213.732 31.19 213.902C33.02 213.992 34.85 214.132 36.68 214.332C38.38 214.522 40.1 214.902 41.81 214.902C43.35 214.902 44.67 214.382 45.96 213.592C46.59 213.202 47.2 212.742 47.89 212.472C48.66 212.172 49.49 212.202 50.29 212.242C54.01 212.432 57.73 212.692 61.45 212.922C62.02 212.952 62.84 212.752 63.1 212.172C63.34 211.622 62.89 211.212 62.35 211.182V211.192Z" fill="#1D1D1B"/>
<path d="M254.71 72.5018C252.04 73.7518 249.9 75.7118 247.89 77.8418C245.88 79.9718 244.87 82.1518 244.61 85.0818C244.35 88.0118 244.61 91.0818 246.58 93.5418C248.16 95.5218 250.36 96.9318 252.72 97.8018C257.73 99.6618 263.93 99.3618 268.2 95.8818C272.62 92.2818 273.37 84.9418 270.68 80.0918C267.43 74.2318 260.27 72.7718 254.11 73.1018C253.73 73.1218 253.02 73.1718 252.74 73.4718C252.56 73.6618 252.36 73.8618 252.84 73.8318C257.92 73.5618 263.34 74.4718 267.02 78.2818C270.7 82.0918 271.26 88.3318 269.01 92.9118C266.28 98.4918 259.65 99.1318 254.38 97.1118C249.9 95.3918 246.53 91.8718 246.45 86.9018C246.4 83.8418 246.88 80.8718 248.89 78.4818C250.79 76.2218 253.11 73.9518 255.81 72.6918C256.95 72.1518 255.14 72.3118 254.72 72.5118L254.71 72.5018Z" fill="#1D1D1B"/>
<path d="M260.56 74.6395C261.36 77.7895 259.72 80.7395 257.46 82.8395C256.52 83.7095 255.36 84.3995 254.66 85.5095C254.04 86.4995 253.86 87.6595 254.02 88.7995C254.83 94.6495 262.72 95.0195 266.88 92.9095C269.61 91.5195 271.63 88.9495 271.98 85.8695C272.09 84.8795 270.12 85.1295 270.02 86.0095C269.64 89.3195 267.1 91.8095 263.9 92.4995C261.12 93.0995 257.43 92.3895 256.26 89.4595C255.73 88.1495 255.77 86.5695 256.75 85.4695C257.73 84.3695 258.93 83.6595 259.89 82.6195C261.99 80.3295 263.3 77.2395 262.51 74.1195C262.28 73.2195 260.35 73.7295 260.58 74.6395H260.56Z" fill="#1D1D1B"/>
<path d="M142.021 198.074C162.863 193.784 176.096 172.507 171.577 150.55C167.058 128.593 146.498 114.271 125.655 118.561C104.813 122.851 91.58 144.128 96.0991 166.085C100.618 188.042 121.178 202.364 142.021 198.074Z" fill="#FFDC67"/>
<path d="M120.65 167.96C123.98 167.27 130.33 165.97 136.57 164.68C142.81 163.39 149.16 162.09 152.49 161.4C153.22 161.25 153.73 161.7 153.84 162.22C155.42 169.9 151.12 179.3 140.05 181.57C128.98 183.85 121.32 176.92 119.74 169.23C119.63 168.71 119.92 168.09 120.65 167.94V167.96Z" fill="#1D1D1B"/>
<path d="M122.94 145.359L122.32 149.039L120.05 147.149L117.91 150.459L120.06 152.469L117.29 153.989L118.23 157.729L121.12 156.289L120.48 160.159L124.1 160.979L124.75 156.879L127.57 159.529L130.36 155.719L127.34 153.209L130.99 151.399L129.42 147.299L125.96 149.209L126.58 145.309L122.94 145.359Z" fill="#1D1D1B"/>
<path d="M145.51 140.712L144.89 144.402L142.62 142.512L140.48 145.812L142.63 147.822L139.86 149.342L140.8 153.082L143.69 151.652L143.05 155.522L146.67 156.342L147.32 152.232L150.14 154.882L152.93 151.082L149.91 148.572L153.56 146.762L151.99 142.662L148.53 144.562L149.15 140.672L145.51 140.712Z" fill="#1D1D1B"/>
<path d="M139.61 140.819C139.71 143.129 139.82 145.439 139.92 147.749C139.97 148.939 140.03 150.119 140.08 151.309C140.1 151.789 140.08 152.319 140.21 152.789C140.24 152.929 140.29 153.059 140.37 153.189L139.29 153.149C139.47 153.209 139.72 153.179 139.91 153.199C141.38 153.349 143.2 153.629 143.9 155.119C144.69 156.819 143.63 158.539 142.5 159.779C142.32 159.979 141.36 159.699 141.13 159.649C141.02 159.629 139.8 159.259 139.82 159.239C140.92 158.029 141.96 156.369 141.26 154.699C141.18 154.509 141.09 154.329 140.97 154.159C140.87 154.009 140.46 153.749 140.42 153.609C140.14 153.439 140.32 153.449 140.95 153.649C141.62 153.739 141.78 153.779 141.44 153.749C141.24 153.749 141.03 153.729 140.83 153.709C139.99 153.619 138.94 153.499 138.19 153.089C137.44 152.679 137.46 151.749 137.42 150.969C137.37 149.779 137.31 148.599 137.26 147.409L136.94 140.289C136.94 140.289 139.6 140.409 139.62 140.829L139.61 140.819Z" fill="#1D1D1B"/>
<path d="M115.58 118.941C122.62 117.491 129.66 116.041 136.7 114.591C137.02 114.521 137.54 114.421 137.15 114.141C136.76 113.861 135.68 114.111 135.28 114.191C128.24 115.641 121.2 117.091 114.16 118.541C113.84 118.611 113.32 118.711 113.71 118.991C114.1 119.271 115.18 119.021 115.58 118.941Z" fill="#303031"/>
<path d="M118.68 124.788C119.86 121.838 121.05 118.888 122.45 116.038C123.13 114.648 123.86 113.268 124.69 111.958C125.33 110.938 126.48 109.018 127.81 108.868L127.07 108.848C127.9 109.008 128.54 110.568 128.9 111.218C129.51 112.298 130.1 113.378 130.71 114.458C131.9 116.588 133.09 118.718 134.28 120.858C134.59 121.408 136.56 120.938 136.18 120.268C134.5 117.248 132.81 114.238 131.13 111.218C130.56 110.198 129.92 108.568 128.81 108.048C127.7 107.528 126.24 108.228 125.35 108.888C123.09 110.548 121.74 113.518 120.53 115.968C119.1 118.868 117.89 121.868 116.69 124.868C116.44 125.498 118.43 125.418 118.68 124.788Z" fill="#303031"/>
<path d="M118.73 194.309C118.21 199.599 117.69 204.879 117.18 210.169C117.76 209.969 118.34 209.779 118.91 209.579C116.01 208.049 111.87 209.409 111.02 212.749C110.58 214.489 111.56 215.049 113.17 214.899C115.24 214.709 117.18 213.699 119.28 213.819C121.08 213.919 122.85 214.289 124.53 213.419C126.22 212.549 127.31 210.659 128.42 209.189C131.37 205.289 134.33 201.389 137.28 197.489C137.81 196.789 135.87 196.919 135.48 197.439C133.51 200.039 131.54 202.639 129.57 205.239C128.63 206.469 127.7 207.709 126.76 208.939C125.91 210.059 125.04 211.709 123.85 212.499C122.59 213.329 120.82 212.669 119.41 212.689C118.12 212.699 116.87 213.039 115.63 213.359C115.11 213.499 113.97 213.969 113.44 213.809C112.47 213.509 112.97 212.259 113.28 211.679C114.15 210.069 115.8 209.689 117.38 210.529C117.79 210.749 119.06 210.529 119.11 209.939C119.63 204.649 120.15 199.369 120.66 194.079C120.74 193.289 118.79 193.649 118.73 194.319V194.309Z" fill="#1D1D1B"/>
<path d="M152.94 193.351C158.5 195.891 163.71 199.131 168.43 203.021C168.79 203.311 169.32 203.251 169.72 203.081C169.93 202.991 170.58 202.541 170.22 202.241C165.42 198.281 160.13 194.961 154.47 192.371C154.04 192.181 153.48 192.271 153.1 192.531C152.85 192.701 152.51 193.161 152.95 193.351H152.94Z" fill="#1D1D1B"/>
<path d="M165.09 180.78C168.93 184.97 172.2 189.64 174.78 194.71C175.22 195.58 175.58 196.74 176.73 196.81C177.21 196.84 177.65 196.68 178.05 196.42C178.32 196.25 178.55 195.91 178.89 195.86C179.25 195.63 179.35 195.8 179.18 196.39L178.87 196.77C176.87 198.84 173.93 200.28 171.28 201.29C170.9 201.43 170.58 201.88 170.82 202.27C171.09 202.69 171.77 202.54 172.13 202.4C175.03 201.29 177.95 199.7 180.23 197.56C181.02 196.81 181.81 195.49 180.65 194.67C179.57 193.9 178.13 194.51 177.23 195.23C177.12 195.32 177.01 195.41 176.89 195.51C177.37 195.51 177.47 195.38 177.2 195.13C177.14 194.85 176.87 194.47 176.74 194.22C176.37 193.49 175.99 192.76 175.59 192.05C174.8 190.62 173.95 189.21 173.04 187.84C171.2 185.05 169.13 182.42 166.87 179.96C166.29 179.33 164.46 180.1 165.1 180.8L165.09 180.78Z" fill="#1D1D1B"/>
<path d="M167.64 133.408C171.18 132.288 174.39 130.228 176.86 127.448C177.43 126.808 175.69 125.868 175.22 126.398C172.82 129.108 169.74 131.108 166.29 132.198C165.85 132.338 166.07 132.818 166.31 133.038C166.64 133.338 167.2 133.548 167.64 133.408Z" fill="#1D1D1B"/>
<path d="M176.87 126.392C177.04 124.802 177.17 123.212 177.39 121.622C177.49 120.912 177.62 120.212 177.85 119.542C177.96 119.232 178.09 118.922 178.25 118.632C178.33 118.482 178.42 118.322 178.53 118.172C178.57 118.112 178.62 118.062 178.67 118.012C178.84 117.882 178.75 117.872 178.4 117.992L177.91 117.772C177.84 117.682 177.83 117.672 177.88 117.752C177.92 117.812 177.96 117.882 178 117.942C178.07 118.062 178.14 118.172 178.21 118.292C178.36 118.552 178.52 118.812 178.67 119.072C178.97 119.592 179.26 120.122 179.55 120.642C179.95 121.382 180.68 122.562 179.8 123.242C179.42 123.542 179.83 124.092 180.11 124.272C180.49 124.532 181.04 124.642 181.42 124.342C182.52 123.482 182.08 122.012 181.56 120.972C180.96 119.782 180.31 118.562 179.56 117.452C179.14 116.832 178.42 116.382 177.65 116.552C177.05 116.692 176.7 117.302 176.42 117.812C175.84 118.882 175.61 120.112 175.46 121.302C175.26 122.842 175.13 124.382 174.96 125.922C174.87 126.762 176.76 127.362 176.87 126.382V126.392Z" fill="#1D1D1B"/>
<path d="M185.91 131.991C185.92 131.581 185.96 131.181 186.01 130.781C185.44 130.951 185.06 131.491 184.47 131.801C183.89 132.111 183.21 132.321 182.55 132.321C181.98 132.321 181.43 132.061 180.86 132.131C179.98 132.251 179.3 133.411 178.77 134.031C177.86 135.111 176.98 136.221 176.04 137.281C174.12 139.451 171.91 141.451 169.12 142.381C168.41 142.621 170.04 143.601 170.54 143.441C173.37 142.491 175.59 140.631 177.56 138.441C178.72 137.161 179.78 135.791 180.91 134.481C181.17 134.181 181.61 133.451 181.98 133.301C182.28 133.181 182.61 133.301 182.91 133.341C183.5 133.421 184.1 133.411 184.68 133.301C185.12 133.211 185.56 133.051 185.97 132.851C185.93 132.581 185.9 132.301 185.91 131.991Z" fill="#1D1D1B"/>
<path d="M169.11 143.491C169.11 143.491 169.05 143.431 169.01 143.401C168.92 143.321 168.82 143.241 168.72 143.171C168.68 143.141 168.65 143.121 168.61 143.101C168.5 143.041 168.38 142.971 168.26 142.921C168.14 142.861 168.02 142.831 167.89 142.811C167.78 142.781 167.66 142.781 167.55 142.791C167.45 142.791 167.36 142.831 167.28 142.881C167.2 142.911 167.14 142.971 167.11 143.061L167.08 143.221C167.08 143.351 167.13 143.461 167.21 143.571L167.36 143.741C167.49 143.861 167.63 143.951 167.79 144.021C167.82 144.031 167.85 144.051 167.89 144.071L167.66 143.941C167.72 143.971 167.78 144.011 167.84 144.061L167.65 143.911C167.7 143.951 167.75 143.991 167.79 144.041C167.88 144.131 167.99 144.201 168.1 144.261C168.21 144.331 168.34 144.381 168.47 144.411C168.59 144.451 168.7 144.461 168.82 144.451C168.92 144.451 169.03 144.451 169.12 144.401L169.27 144.311C169.36 144.231 169.4 144.141 169.4 144.021L169.37 143.851C169.32 143.721 169.24 143.601 169.13 143.511L169.11 143.491Z" fill="#1D1D1B"/>
<path d="M169.31 89.1994C163.53 90.1394 156.88 89.8294 151.99 86.2494C149.73 84.5994 147.96 82.3794 146.26 80.1794C144.28 77.6194 142.41 74.9694 140.66 72.2494C137.53 67.3694 135.04 62.3494 133.91 56.6194C132.78 50.8894 132.39 44.8394 133.25 39.1794C133.66 36.4494 134.54 33.7794 136.24 31.5794C137.94 29.3794 140.26 27.5294 142.68 26.1794C148.02 23.2194 154.28 24.7894 159.52 27.2294C164.31 29.4594 168.55 32.7794 172.29 36.4794C176.27 40.4194 180.14 44.8594 182.32 50.0694C187.43 62.2594 183.01 75.7894 175.28 85.7594C174.84 86.3294 176.73 86.1094 177.05 85.6894C184.38 76.2294 188.81 63.8394 185.14 51.9794C183.35 46.2094 179.51 41.3994 175.39 37.0894C171.49 33.0094 167.06 29.3794 162 26.8394C156.94 24.2994 150.99 22.6394 145.5 24.1594C140.4 25.5594 135.08 29.5194 132.81 34.3594C130.37 39.5894 130.72 46.1494 131.22 51.7494C131.79 58.2294 133.61 64.2494 136.92 69.8594C138.71 72.8794 140.67 75.8094 142.75 78.6394C144.83 81.4694 147 84.4994 149.82 86.6794C155.14 90.7994 162.59 91.0894 168.98 90.0494C169.81 89.9094 170.65 88.9694 169.3 89.1894L169.31 89.1994Z" fill="#1D1D1B"/>
<path d="M169 90.0007C173.19 98.5607 176.69 107.431 179.47 116.541C179.74 117.421 181.67 116.901 181.4 116.021C178.61 106.911 175.11 98.0407 170.93 89.4807C170.52 88.6507 168.61 89.2107 169 90.0007Z" fill="#1D1D1B"/>
<path d="M174.62 86.4607C177.75 91.2907 179.91 96.6207 182.12 101.911C183.18 104.451 184.27 106.991 185.49 109.461C185.77 110.031 186.06 110.601 186.36 111.171C186.49 111.421 187.37 112.651 187.31 112.901C187.23 113.211 185.73 113.741 185.42 113.911C184.65 114.321 183.88 114.731 183.11 115.141C181.95 115.761 183 116.741 183.95 116.231C185.41 115.451 186.99 114.771 188.37 113.871C189.41 113.191 189.31 112.511 188.75 111.491C187.18 108.611 185.84 105.621 184.56 102.611C182.11 96.8207 179.82 90.9407 176.39 85.6407C175.93 84.9307 174.08 85.6507 174.62 86.4807V86.4607Z" fill="#1D1D1B"/>
<path d="M179.02 116.318L178.46 116.838C178.38 116.908 178.2 117.078 178.26 117.218C179.3 119.558 180.85 121.618 181.83 123.998C182.81 126.378 183.33 128.638 183.95 130.988C184.26 132.138 184.58 133.288 184.96 134.418C185.25 135.288 185.39 136.318 186.46 136.388C187.61 136.468 188.89 136.138 190.01 135.858C191.25 135.548 192.46 135.108 193.61 134.568C194.83 133.998 193.7 133.478 192.87 133.868C191.87 134.338 190.85 134.728 189.77 134.988C189.19 135.128 188.53 135.308 187.93 135.318C187.28 135.318 187.27 134.978 187.05 134.378C186.35 132.398 185.85 130.348 185.31 128.318C184.77 126.288 184.21 124.388 183.35 122.548C182.41 120.538 181.09 118.728 180.19 116.698L179.99 117.078L180.55 116.558C181.34 115.818 179.44 115.918 179.02 116.308V116.318Z" fill="#1D1D1B"/>
<path d="M195.02 130.52C195.02 130.52 195.05 130.56 195.06 130.58L195 130.48C195.26 130.89 195.46 131.36 195.45 131.86V131.74C195.45 131.92 195.4 132.1 195.31 132.26L195.38 132.13C195.34 132.2 195.3 132.26 195.25 132.31C195.24 132.32 195.22 132.34 195.21 132.35C195.15 132.42 195.27 132.28 195.28 132.29C195.28 132.29 195.18 132.37 195.17 132.38C195.05 132.47 195.35 132.28 195.21 132.35C195.17 132.37 195.01 132.45 195.18 132.37C195.35 132.29 195.18 132.37 195.14 132.38C195.1 132.4 195 132.43 195.17 132.38C195.22 132.36 195.36 132.32 195.17 132.38C194.95 132.45 194.7 132.53 194.52 132.69C194.44 132.76 194.26 132.93 194.32 133.06C194.38 133.21 194.54 133.26 194.68 133.28C194.92 133.31 195.17 133.28 195.4 133.22C196.18 132.99 197.19 132.53 197.35 131.63C197.47 130.96 197.18 130.35 196.82 129.81C196.74 129.69 196.42 129.68 196.31 129.68C196.06 129.68 195.78 129.74 195.55 129.84C195.37 129.92 195.14 130.02 195.02 130.19L194.95 130.32C194.92 130.41 194.95 130.48 195.01 130.54L195.02 130.52Z" fill="#1D1D1B"/>
<path d="M188.23 112.051C188.32 112.051 188.41 112.051 188.5 112.051C188.54 112.051 188.58 112.051 188.63 112.061C188.51 112.041 188.5 112.041 188.59 112.061C188.66 112.081 188.74 112.101 188.81 112.121C188.89 112.151 188.88 112.151 188.78 112.111C188.81 112.131 188.85 112.141 188.88 112.161C188.94 112.201 189 112.231 189.06 112.271C189.15 112.331 189 112.201 189.13 112.331C189.22 112.421 189.3 112.511 189.37 112.611C189.41 112.671 189.45 112.731 189.49 112.791C189.52 112.851 189.53 112.851 189.49 112.791C189.51 112.821 189.52 112.861 189.54 112.891C189.6 113.031 189.66 113.181 189.71 113.331C189.81 113.641 189.88 113.961 189.93 114.281C190.13 115.521 190 116.821 190.32 118.041C190.52 118.811 192.46 118.301 192.25 117.521C191.99 116.531 192.05 115.461 191.95 114.451C191.85 113.441 191.67 112.241 190.89 111.511C190.36 111.021 189.66 110.801 188.94 110.801C188.49 110.801 187.91 110.931 187.67 111.361C187.46 111.751 187.85 112.041 188.22 112.041L188.23 112.051Z" fill="#1D1D1B"/>
<path d="M192.7 136.85L195.35 135.38C195.77 135.15 196.19 134.92 196.61 134.68C197.05 134.42 197.47 134.08 197.61 133.57C197.73 133.14 197.03 133.07 196.76 133.1C196.36 133.15 195.79 133.34 195.67 133.79C195.65 133.86 195.65 133.87 195.67 133.82C195.62 133.89 195.63 133.89 195.67 133.82C195.64 133.85 195.61 133.88 195.58 133.91C195.67 133.85 195.67 133.84 195.59 133.9C195.42 134.01 195.24 134.11 195.07 134.21L193.9 134.86L191.49 136.2C191.2 136.36 190.94 136.81 191.34 137.01C191.78 137.23 192.32 137.06 192.71 136.84L192.7 136.85Z" fill="#1D1D1B"/>
<path d="M142.1 29.3014C140.54 30.1714 138.99 31.1314 137.78 32.4714C136.57 33.8114 135.88 35.4014 135.38 37.0814C134.26 40.8214 134.28 44.8414 134.96 48.6514C135.68 52.7114 137.16 56.5914 138.81 60.3614C140.57 64.4014 142.44 68.4114 144.56 72.2813C144.92 72.9314 146.78 72.3014 146.49 71.7614C144.55 68.2314 142.84 64.5714 141.2 60.9014C139.61 57.3414 138.13 53.7114 137.25 49.9014C136.37 46.0914 136.11 42.3114 136.88 38.5614C137.26 36.7314 137.83 34.7914 138.96 33.2714C140.09 31.7514 141.69 30.7814 143.3 29.8814C143.64 29.6914 143.78 29.3914 143.47 29.1314C143.16 28.8714 142.4 29.1414 142.1 29.3114V29.3014Z" fill="#1D1D1B"/>
<path d="M136.13 42.5991C141.68 39.8391 147.28 37.1891 152.94 34.6591C153.22 34.5391 153.71 34.2091 153.45 33.8591C153.19 33.5091 152.47 33.6891 152.17 33.8291C146.51 36.3591 140.91 39.0091 135.36 41.7691C134.17 42.3691 135.26 43.0391 136.13 42.6091V42.5991Z" fill="#1D1D1B"/>
<path d="M137.38 46.8814C141.69 44.4814 146.09 42.2514 150.57 40.1814C150.86 40.0514 151.34 39.7114 151.07 39.3514C150.82 39.0114 150.09 39.1614 149.78 39.3014C145.16 41.4414 140.61 43.7614 136.16 46.2314C135.84 46.4114 135.65 46.8114 136.01 47.0514C136.4 47.3114 137.03 47.0814 137.38 46.8914V46.8814Z" fill="#1D1D1B"/>
<path d="M142.39 30.6581V30.6081C142.29 30.1881 141.04 30.6281 140.85 30.7281C140.23 31.0581 140.3 31.2681 140.37 31.9581C140.49 33.0781 140.63 34.2081 140.77 35.3281C141.04 37.4181 141.35 39.5081 141.69 41.5881C142.4 45.8981 143.27 50.1881 144.28 54.4381C144.38 54.8781 146.32 54.3881 146.21 53.9181C145.3 50.1081 144.51 46.2681 143.84 42.4081C143.51 40.4781 143.21 38.5381 142.94 36.5981C142.82 35.6981 142.7 34.8081 142.59 33.9081C142.55 33.5781 142.3 30.8281 141.97 30.9981L140.44 31.1181V31.1681C140.55 31.5981 142.49 31.1281 142.38 30.6481L142.39 30.6581Z" fill="#1D1D1B"/>
<path d="M143.32 31.9595C144.97 39.3595 146.99 46.6695 149.38 53.8595C149.63 54.6195 151.56 54.0795 151.31 53.3395C148.92 46.1495 146.89 38.8395 145.25 31.4395C145.08 30.6795 143.14 31.1795 143.32 31.9595Z" fill="#1D1D1B"/>
<path d="M159.56 61.9689C164.75 59.2689 170.11 56.9289 175.62 54.9389C175.8 54.8689 176.37 54.6989 176.21 54.4389C176.07 54.2189 175.12 54.5189 174.97 54.5789C169.19 56.6589 163.55 59.1289 158.1 61.9689C157.75 62.1489 157.89 62.2989 158.2 62.3389C158.63 62.3889 159.19 62.1689 159.57 61.9689H159.56Z" fill="#1D1D1B"/>
<path d="M162.26 67.1701C167.71 64.1801 173.49 61.8601 179.49 60.2601C180.68 59.9401 180.33 58.6001 179.13 58.9201C172.96 60.5701 167 62.9501 161.39 66.0101C160.24 66.6401 161.28 67.6901 162.25 67.1601L162.26 67.1701Z" fill="#1D1D1B"/>
<path d="M163.24 54.2493C165.2 61.2893 167.57 68.2093 170.34 74.9693C170.68 75.7993 172.6 75.2493 172.27 74.4493C169.5 67.6893 167.13 60.7693 165.17 53.7293C164.93 52.8793 163 53.3893 163.24 54.2493Z" fill="#1D1D1B"/>
<path d="M169.69 53.6799C171.44 59.8799 173.19 66.0699 174.93 72.2699C175.04 72.6499 176.97 72.1299 176.86 71.7499C175.11 65.5499 173.36 59.3599 171.62 53.1599C171.51 52.7799 169.58 53.2999 169.69 53.6799Z" fill="#1D1D1B"/>
<path d="M177.6 54.83C178.69 57.03 178.64 59.5 178.44 61.89C178.24 64.28 177.79 66.73 177.08 69.07C175.72 73.55 173.4 77.68 170.02 80.95C169.7 81.26 170.3 81.29 170.48 81.28C170.89 81.28 171.47 81.11 171.77 80.81C175.2 77.49 177.6 73.29 178.98 68.73C179.65 66.53 180.08 64.26 180.31 61.97C180.57 59.4 180.71 56.69 179.53 54.31C179.29 53.82 177.43 54.49 177.6 54.83Z" fill="#1D1D1B"/>
<path d="M191.52 117.21C190.7 117.21 189.78 117.079 188.97 117.279C188.06 117.509 187.46 118.16 187.23 119.05C186.85 120.51 187.74 121.84 188.54 122.97C188.96 123.56 189.23 124.08 189.29 124.82C189.35 125.56 189.36 126.189 189.68 126.839C190.28 128.089 191.41 128.919 192.53 129.679C193.12 130.079 194.06 129.869 194.6 129.479C195.08 129.129 195.37 128.47 194.78 128.07C194.07 127.59 193.36 127.099 192.84 126.419C192.18 125.569 192.32 124.65 192.15 123.64C191.98 122.63 191.24 121.82 190.69 120.97C190.44 120.59 190.24 120.2 190.14 119.75C190.09 119.53 190.07 119.319 190.1 119.099C190.11 119.009 190.14 118.92 190.15 118.83C190.17 118.65 190.42 118.57 190.05 118.83L189.35 119.15C189.35 119.15 189.2 119.18 189.16 119.16C189.29 119.2 189.5 119.16 189.64 119.16H190.5C191.19 119.17 192.05 118.98 192.39 118.3C192.69 117.7 192.13 117.169 191.53 117.169L191.52 117.21Z" fill="#1D1D1B"/>
<path d="M191.45 117.119C193.44 118.499 194.92 120.599 195.65 122.899C196.01 124.039 196.22 125.249 196.19 126.439C196.17 127.029 196.15 127.729 195.73 128.189C195.41 128.539 194.92 128.709 194.5 128.879C194.08 129.049 193.34 129.549 193.73 130.059C194.12 130.569 195.2 130.289 195.65 130.099C197.07 129.509 198.61 128.699 198.99 127.069C199.31 125.689 199.07 124.039 198.72 122.689C197.96 119.819 196.18 117.369 193.75 115.689C192.96 115.139 190.29 116.309 191.45 117.109V117.119Z" fill="#1D1D1B"/>
<path d="M97.67 159.31C94.62 163.35 90.56 166.59 85.94 168.66C85.5 168.86 84.79 169.38 85.19 169.92C85.59 170.46 86.65 170.22 87.12 170C92.36 167.65 96.93 164.03 100.39 159.44C100.82 158.88 100.03 158.5 99.58 158.48C98.87 158.44 98.11 158.73 97.68 159.3L97.67 159.31Z" fill="#1D1D1B"/>
<path d="M84.4801 168.348C81.4201 167.328 78.0201 167.168 76.0401 170.168C74.3001 172.798 74.0501 176.498 76.2401 178.928C77.3201 180.118 78.6801 181.358 80.2301 181.848C81.6901 182.308 83.7601 182.248 85.1801 181.688C86.6001 181.128 87.2901 179.868 87.9601 178.618C88.1801 178.208 88.4001 177.788 88.5601 177.348C88.6001 177.248 88.7001 176.608 88.7901 176.538C88.9701 176.398 89.8201 176.528 90.0601 176.508C90.6201 176.478 91.1901 176.428 91.7501 176.358C95.8301 175.828 99.6701 174.238 102.94 171.748C103.98 170.958 102.44 170.188 101.64 170.788C98.6801 173.028 95.1801 174.498 91.4801 174.908C90.2701 175.038 88.1601 174.618 87.2701 175.658C86.7901 176.208 86.7001 177.158 86.3801 177.808C86.0601 178.458 85.6901 179.318 85.1801 179.848C83.8101 181.268 81.0601 180.608 79.6901 179.558C78.1201 178.348 76.6601 176.878 76.6201 174.778C76.5901 173.258 77.0201 171.578 77.9701 170.368C79.3701 168.588 81.5001 169.078 83.3801 169.708C84.2601 169.998 85.6501 168.738 84.4801 168.348Z" fill="#1D1D1B"/>
<path d="M192.61 103.412C195.91 97.8519 201.2 93.4719 207.34 91.4119C208.81 90.9219 210.33 90.5319 211.86 90.3119C212.82 90.1719 213.79 90.0619 214.76 90.1119C215.29 90.1419 215.7 90.2919 216.19 90.4219L216.45 90.6519C217.48 90.7419 217.8 90.6319 217.4 90.3519C217.28 90.1719 217.25 89.9819 217.29 89.7819C217.29 89.5319 217.34 89.2919 217.48 89.0719C217.64 88.7019 217.93 88.3919 218.2 88.1019C218.8 87.4719 219.54 87.0119 220.33 86.6519C221.81 85.9719 223.44 85.6319 225.03 85.2919C225.55 85.1819 226.41 84.6519 226.24 84.0019C226.06 83.3119 225.06 83.3819 224.55 83.4919C221.07 84.2319 216.51 85.3519 214.73 88.8419C212.56 93.1119 219.69 93.3319 219.46 90.2919C219.31 88.3919 216.51 88.1719 215.12 88.1619C213.07 88.1419 211 88.5019 209.02 88.9919C205.32 89.9119 201.78 91.5419 198.66 93.7319C195.09 96.2219 192.09 99.4519 189.87 103.192C189.5 103.812 190.19 104.222 190.72 104.282C191.4 104.362 192.26 104.032 192.62 103.432L192.61 103.412Z" fill="#1D1D1B"/>
<path d="M115.67 144.069H126.9C127.34 144.069 127.95 143.949 128.17 143.509C128.37 143.109 128 142.809 127.61 142.809H116.38C115.94 142.809 115.33 142.929 115.11 143.369C114.91 143.769 115.28 144.069 115.67 144.069Z" fill="#1D1D1B"/>
<path d="M146.05 134.391C143.39 136.661 140.29 138.291 137.22 139.921C136.94 140.071 136.67 140.451 137.04 140.651C137.44 140.861 138.04 140.651 138.41 140.461C141.61 138.771 144.82 137.041 147.59 134.681C147.9 134.421 147.8 134.101 147.41 134.021C146.96 133.931 146.39 134.091 146.04 134.391H146.05Z" fill="#1D1D1B"/>
<path d="M410.173 163.95C414.692 141.993 401.459 120.716 380.617 116.426C359.774 112.136 339.214 126.458 334.695 148.415C330.176 170.372 343.409 191.649 364.252 195.939C385.094 200.229 405.654 185.907 410.173 163.95Z" fill="#0086CD"/>
<path d="M361.49 138.879L359.53 142.069L358.14 139.449L354.91 141.719L356.14 144.379L353.01 144.749L352.47 148.559L355.69 148.329L353.64 151.669L356.69 153.789L358.83 150.239L360.45 153.749L364.46 151.279L362.61 147.809L366.67 147.509L366.76 143.119L362.84 143.589L364.88 140.209L361.49 138.879Z" fill="#1D1D1B"/>
<path d="M384.15 143.07L382.19 146.26L380.79 143.65L377.57 145.91L378.8 148.58L375.67 148.95L375.13 152.76L378.35 152.52L376.3 155.87L379.35 157.99L381.49 154.43L383.11 157.94L387.12 155.47L385.26 152.01L389.33 151.71L389.42 147.32L385.5 147.78L387.54 144.4L384.15 143.07Z" fill="#1D1D1B"/>
<path d="M366.66 138.671C366.56 140.981 366.45 143.291 366.35 145.601C366.3 146.791 366.24 147.971 366.19 149.161C366.17 149.641 366.19 150.171 366.06 150.641C366.03 150.781 365.98 150.911 365.9 151.041L366.98 151.001C366.8 151.061 366.55 151.031 366.36 151.051C364.89 151.201 363.07 151.481 362.37 152.971C361.58 154.671 362.64 156.391 363.77 157.631C363.95 157.831 364.91 157.551 365.14 157.501C365.25 157.481 366.47 157.111 366.45 157.091C365.35 155.881 364.31 154.221 365.01 152.551C365.09 152.361 365.18 152.181 365.3 152.011C365.4 151.861 365.81 151.601 365.85 151.461C366.13 151.291 365.95 151.301 365.32 151.501C364.65 151.591 364.49 151.631 364.83 151.601C365.03 151.601 365.24 151.581 365.44 151.561C366.28 151.471 367.33 151.351 368.08 150.941C368.87 150.521 368.81 149.601 368.85 148.821C368.9 147.631 368.96 146.451 369.01 145.261L369.33 138.141C369.33 138.141 366.67 138.261 366.65 138.681L366.66 138.671Z" fill="#1D1D1B"/>
<path d="M394.52 185.831C395.63 191.901 397.52 197.791 400.15 203.371C400.49 204.09 402.38 203.491 402.08 202.851C399.45 197.271 397.55 191.381 396.45 185.311C396.32 184.581 394.38 185.061 394.52 185.831Z" fill="#1D1D1B"/>
<path d="M379.47 194.821C381.25 197.541 383.23 200.121 385.41 202.541C386.46 203.701 387.56 204.831 388.69 205.911C389.22 206.421 389.76 206.921 390.31 207.401C390.64 207.701 390.99 207.981 391.32 208.281C391.67 208.601 392 208.761 391.64 209.211C391.21 209.751 390.62 209.991 390.38 210.711C390.22 211.181 390.24 211.751 390.55 212.161C391.33 213.231 392.92 212.741 393.84 212.161C396.5 210.511 398.79 208.031 400.58 205.491C401.28 204.491 399.47 204.231 398.97 204.941C397.36 207.241 395.4 209.331 393.09 210.951C392.93 211.061 392.56 211.451 392.32 211.311C392 211.131 392.39 210.541 392.53 210.381C392.9 209.931 393.49 209.781 393.76 209.221C394.29 208.121 393.01 207.351 392.31 206.741C388.05 203.021 384.33 198.701 381.24 193.971C380.77 193.261 378.93 193.991 379.47 194.811V194.821Z" fill="#1D1D1B"/>
<path d="M363.26 105.589C363.28 105.529 363.29 105.629 363.26 105.589C363.04 105.329 363.61 105.399 362.61 105.099L361.74 105.189C362.16 103.889 362.14 102.449 361.69 101.199C361.54 100.789 362 100.699 362.31 100.759C362.7 100.839 363.3 101.109 363.45 101.529C363.98 103.009 364.01 104.589 363.52 106.089C363.42 106.389 362.84 106.239 362.65 106.179C362.05 105.999 361.24 105.409 361.46 104.689C361.5 104.539 361.77 104.509 361.88 104.509C362.11 104.509 362.38 104.589 362.58 104.699C362.88 104.859 363.38 105.179 363.26 105.579V105.589Z" fill="#1D1D1B"/>
<path d="M355.86 107.621C355.4 106.851 354.92 106.111 354.4 105.381C354.15 105.021 353.89 104.671 353.62 104.321C353.49 104.141 353.35 103.971 353.22 103.801C353.15 103.711 353.08 103.631 353.01 103.541C352.96 103.481 352.96 103.481 353.01 103.541C352.96 103.481 352.92 103.431 352.87 103.371C352.75 103.231 352.61 103.051 352.62 102.851C352.62 102.681 352.75 102.541 352.91 102.491C353.33 102.361 353.95 102.581 354.23 102.921C355.43 104.371 356.53 105.901 357.49 107.521C357.58 107.661 357.65 107.861 357.57 108.021C357.49 108.181 357.29 108.251 357.12 108.261C356.67 108.281 356.1 108.031 355.86 107.631V107.621Z" fill="#1D1D1B"/>
<path d="M352.77 110.17C351 109.26 349.27 108.26 347.6 107.18C347.26 106.96 347.03 106.4 347.37 106.09C347.75 105.74 348.33 105.97 348.69 106.2C348.81 106.27 348.92 106.35 349.04 106.42C349.07 106.44 349.31 106.59 349.17 106.5C349.38 106.63 349.58 106.76 349.79 106.88C350.17 107.11 350.56 107.34 350.95 107.57C351.76 108.04 352.58 108.48 353.41 108.91C353.77 109.09 354.21 109.55 353.99 109.99C353.77 110.43 353.13 110.36 352.78 110.17H352.77Z" fill="#1D1D1B"/>
<path d="M363.71 114.869C375.28 117.679 386.85 120.489 398.43 123.299C398.88 123.409 398.35 122.909 398.28 122.829C398.02 122.509 397.42 122.139 397.01 122.039C385.44 119.229 373.87 116.419 362.29 113.609C361.84 113.499 362.37 113.999 362.44 114.079C362.7 114.399 363.3 114.769 363.71 114.869Z" fill="#303031"/>
<path d="M370.43 113.179C373.52 109.439 376.62 105.709 379.71 101.969L377.9 101.289C378.63 102.989 379.47 104.649 380.45 106.219C381.22 107.449 382.25 109.579 383.67 110.169C384.35 110.449 384.94 110.259 385.57 109.929C386.44 109.469 387.27 108.969 388.17 108.559C389.88 107.769 391.83 106.949 393.71 106.719L392.99 106.609L393.25 106.719L392.5 105.949C392.86 106.759 392.23 108.329 392.05 109.169C391.8 110.319 391.6 111.479 391.45 112.649C391.18 114.899 391.11 117.159 391.23 119.419C391.28 120.319 393.25 121.119 393.19 119.929C393.06 117.439 393.16 114.939 393.54 112.469C393.71 111.339 393.96 110.219 394.2 109.099C394.38 108.249 394.71 107.099 394.44 106.239C393.83 104.229 391.26 105.289 389.95 105.719C388.9 106.059 387.88 106.469 386.88 106.929C386.37 107.159 385.87 107.409 385.38 107.669C384.89 107.929 384.08 108.599 383.53 108.569L384.28 108.849C383.73 108.499 383.34 107.729 382.97 107.199C382.55 106.589 382.15 105.969 381.77 105.329C381.01 104.049 380.35 102.729 379.76 101.359C379.52 100.789 378.48 100.029 377.95 100.679C374.86 104.419 371.76 108.149 368.67 111.889C368.05 112.629 369.81 113.929 370.44 113.169L370.43 113.179Z" fill="#303031"/>
<path d="M403.67 161.449C407.09 162.899 410.87 163.419 414.55 162.909C415.4 162.789 414.69 160.949 413.98 161.039C410.39 161.529 406.76 161.059 403.43 159.639C403 159.459 402.86 159.969 402.9 160.289C402.96 160.729 403.24 161.259 403.67 161.439V161.449Z" fill="#1D1D1B"/>
<path d="M415.25 162.131C416.41 161.031 417.55 159.911 418.74 158.841C419.27 158.371 419.83 157.921 420.45 157.561C420.74 157.391 421.04 157.251 421.35 157.131C421.51 157.071 421.69 157.001 421.86 156.961C421.93 156.941 422 156.931 422.07 156.921C422.29 156.931 422.22 156.871 421.88 156.731L421.65 156.251C421.65 156.131 421.65 156.121 421.65 156.211C421.65 156.291 421.63 156.361 421.62 156.441C421.6 156.571 421.58 156.711 421.55 156.841C421.5 157.141 421.45 157.431 421.39 157.731C421.28 158.321 421.16 158.911 421.03 159.501C420.85 160.321 420.64 161.691 419.53 161.641C419.05 161.621 419 162.301 419.09 162.631C419.21 163.071 419.56 163.521 420.04 163.541C421.44 163.611 422.06 162.201 422.34 161.071C422.66 159.771 422.96 158.431 423.11 157.101C423.2 156.361 422.94 155.541 422.24 155.181C421.69 154.891 421.03 155.131 420.49 155.341C419.36 155.771 418.38 156.561 417.49 157.371C416.34 158.411 415.23 159.491 414.11 160.561C413.49 161.141 414.54 162.831 415.26 162.151L415.25 162.131Z" fill="#1D1D1B"/>
<path d="M418.47 172.259C418.74 171.959 419.04 171.679 419.33 171.399C418.79 171.159 418.15 171.319 417.49 171.179C416.85 171.039 416.2 170.749 415.7 170.329C415.27 169.959 415.02 169.399 414.54 169.089C413.8 168.609 412.53 169.039 411.72 169.169C410.32 169.389 408.93 169.659 407.53 169.859C404.66 170.259 401.68 170.339 398.95 169.239C398.25 168.959 398.85 170.769 399.34 170.969C402.1 172.089 405 172.109 407.93 171.729C409.64 171.509 411.34 171.159 413.05 170.899C413.44 170.839 414.25 170.569 414.64 170.699C414.95 170.799 415.12 171.109 415.32 171.339C415.72 171.779 416.17 172.159 416.69 172.459C417.08 172.679 417.52 172.839 417.96 172.959C418.11 172.729 418.27 172.499 418.47 172.269V172.259Z" fill="#1D1D1B"/>
<path d="M398.24 170.078C398.24 170.078 398.24 169.988 398.23 169.938C398.21 169.818 398.19 169.698 398.16 169.578C398.15 169.538 398.14 169.498 398.12 169.448C398.08 169.328 398.03 169.198 397.98 169.078C397.93 168.958 397.86 168.848 397.77 168.748C397.7 168.658 397.62 168.578 397.52 168.508C397.44 168.448 397.35 168.408 397.26 168.408C397.18 168.378 397.1 168.388 397.02 168.428L396.89 168.528C396.81 168.628 396.77 168.748 396.76 168.878V169.098C396.78 169.268 396.83 169.428 396.91 169.588C396.93 169.618 396.94 169.658 396.95 169.688L396.85 169.438C396.88 169.508 396.9 169.578 396.91 169.648L396.86 169.408C396.87 169.468 396.88 169.538 396.88 169.598C396.89 169.728 396.92 169.848 396.98 169.968C397.02 170.098 397.08 170.218 397.16 170.328C397.23 170.428 397.31 170.518 397.4 170.588C397.47 170.658 397.56 170.718 397.66 170.748L397.83 170.778C397.95 170.778 398.04 170.728 398.12 170.638L398.21 170.488C398.25 170.348 398.27 170.218 398.25 170.068L398.24 170.078Z" fill="#1D1D1B"/>
<path d="M434.19 128.829C429.55 126.009 425.08 122.019 423.1 116.829C422.04 114.059 421.93 111.089 422.02 108.159C422.12 104.889 422.39 101.619 422.79 98.369C423.53 92.449 424.73 86.729 427.57 81.429C430.13 76.659 433.56 72.139 437.4 68.319C439.4 66.339 441.74 64.489 444.5 63.719C447.49 62.889 450.95 63.079 453.95 63.789C459.63 65.149 463.39 69.839 465.9 74.849C468.41 79.859 469.55 85.079 470.08 90.449C470.65 96.229 470.77 102.379 469.04 107.979C465.22 120.349 453.45 127.839 441.31 130.339C441.05 130.389 440.22 130.559 440.19 130.919C440.16 131.279 440.75 131.249 440.99 131.199C452.26 128.869 463.28 123.049 468.89 112.599C471.83 107.129 472.47 101.069 472.32 94.949C472.17 88.829 471.34 82.939 469.17 77.359C467.2 72.269 463.9 66.699 458.85 64.169C453.8 61.639 446.8 61.559 441.72 63.939C436.64 66.319 432.84 71.109 429.59 75.529C425.94 80.499 423.18 85.959 421.92 92.019C421.14 95.799 420.68 99.659 420.37 103.499C420.08 107.099 419.73 110.869 420.37 114.449C421.53 121.059 426.87 126.169 432.38 129.519C432.89 129.829 434.56 129.049 434.19 128.819V128.829Z" fill="#1D1D1B"/>
<path d="M432.85 129.861C430.48 139.021 427.39 147.971 423.61 156.651C423.17 157.661 425.11 157.651 425.46 156.871C429.29 148.081 432.41 139.001 434.81 129.721C435.05 128.801 433.07 129.021 432.85 129.871V129.861Z" fill="#1D1D1B"/>
<path d="M439.47 130.659C438.71 136.329 436.91 141.749 435.17 147.179C434.36 149.699 433.56 152.219 432.89 154.779C432.7 155.509 432.51 156.249 432.34 156.989C432.26 157.339 432.03 158.669 431.99 158.689C431.88 158.739 430.46 158.259 430.16 158.199C429.38 158.029 428.61 157.849 427.83 157.679C427.39 157.579 426.76 157.639 426.46 158.049C426.23 158.369 426.22 158.849 426.7 158.949C428.31 159.309 429.94 159.789 431.57 160.029C432.63 160.189 433.52 159.829 433.86 158.779C434.34 157.299 434.54 155.689 434.95 154.179C435.38 152.569 435.87 150.969 436.37 149.369C438.32 143.149 440.55 136.989 441.42 130.499C441.55 129.549 439.58 129.819 439.47 130.659Z" fill="#1D1D1B"/>
<path d="M424.32 155.961L423.56 156.001C423.17 156.021 422.35 156.171 422.21 156.641C421.52 158.991 421.35 161.441 420.62 163.781C419.89 166.121 418.78 168.321 417.72 170.531C417.22 171.581 416.72 172.631 416.27 173.711C415.99 174.371 415.25 175.531 415.77 176.201C416.29 176.871 417.55 177.421 418.32 177.811C419.44 178.391 420.62 178.831 421.83 179.171C422.27 179.291 422.81 179.221 423.19 178.971C423.37 178.851 423.85 178.411 423.38 178.281C422.35 177.991 421.34 177.641 420.37 177.171C419.79 176.891 419.22 176.591 418.68 176.241C418.4 176.071 417.71 175.761 417.57 175.461C417.27 174.831 418.38 172.971 418.65 172.361C419.13 171.301 419.64 170.251 420.14 169.201C421.09 167.231 422.03 165.241 422.65 163.131C423.3 160.911 423.47 158.581 424.13 156.361L422.78 157.001L423.54 156.961C423.89 156.941 424.67 156.841 424.82 156.451C424.97 156.061 424.7 155.931 424.31 155.951L424.32 155.961Z" fill="#1D1D1B"/>
<path d="M426.31 177.521C426.26 177.901 426.16 178.271 425.98 178.601L426.05 178.471C425.97 178.601 425.88 178.731 425.78 178.831L425.91 178.701C425.91 178.701 425.84 178.761 425.81 178.791C425.79 178.801 425.77 178.821 425.76 178.831C425.76 178.831 425.98 178.691 425.86 178.761C425.84 178.771 425.82 178.781 425.8 178.791C425.8 178.791 426.07 178.671 425.95 178.721C425.76 178.791 426.25 178.631 426.05 178.691C425.92 178.731 426.25 178.651 426.23 178.651C426.21 178.651 426.18 178.651 426.16 178.661C426.03 178.681 426.43 178.651 426.3 178.651C426.27 178.651 426.25 178.651 426.22 178.651C426.1 178.651 426.45 178.671 426.33 178.651C426.3 178.651 426.28 178.651 426.25 178.651C426.19 178.651 426.14 178.631 426.08 178.621L426.25 178.661C426.11 178.621 425.98 178.581 425.85 178.521C425.67 178.441 425.41 178.461 425.22 178.481C424.98 178.511 424.7 178.601 424.49 178.721C424.36 178.801 424.14 178.921 424.11 179.091C424.08 179.241 424.16 179.331 424.29 179.391C425.04 179.731 425.93 179.711 426.68 179.391C427.04 179.231 427.37 179.021 427.63 178.721C427.8 178.531 427.92 178.291 428.02 178.061C428.13 177.801 428.19 177.521 428.23 177.241C428.25 177.091 428.19 177.011 428.05 176.941C427.87 176.861 427.61 176.871 427.42 176.901C427.17 176.941 426.91 177.011 426.69 177.141C426.56 177.221 426.33 177.341 426.31 177.511V177.521Z" fill="#1D1D1B"/>
<path d="M432.99 158.768C433.46 159.168 433.71 159.628 433.67 160.158C433.62 160.778 433.38 161.228 433.04 161.768C432.38 162.838 431.44 163.748 430.89 164.888C430.69 165.298 431.07 165.538 431.44 165.568C431.85 165.598 432.51 165.418 432.71 165.008C433.3 163.808 434.32 162.848 434.98 161.688C435.31 161.118 435.6 160.458 435.62 159.788C435.63 159.058 435.33 158.428 434.77 157.958C434.41 157.648 433.89 157.698 433.48 157.878C433.25 157.978 432.63 158.448 432.99 158.758V158.768Z" fill="#1D1D1B"/>
<path d="M419.64 180.279C420.66 180.489 421.68 180.689 422.7 180.899C423.84 181.129 425.07 181.539 426.14 180.839C426.42 180.659 426.69 180.249 426.29 180.029C425.89 179.809 425.27 179.959 424.92 180.199C425.03 180.129 425.24 180.029 425.37 180.079C425.31 180.079 425.26 180.079 425.2 180.069C425.26 180.069 425.27 180.069 425.21 180.069C425.02 180.039 424.82 179.989 424.63 179.949L423.36 179.689L420.81 179.169C420.35 179.079 419.78 179.199 419.44 179.539C419.15 179.819 419.22 180.199 419.64 180.279Z" fill="#1D1D1B"/>
<path d="M452.82 65.8281C450.78 65.4181 448.7 65.1281 446.64 65.5381C444.88 65.8881 443.25 66.7081 441.76 67.6981C438.69 69.7381 436.2 72.5481 434.27 75.6681C432.05 79.2781 430.57 83.2781 429.32 87.3081C427.97 91.6681 426.74 96.0781 425.81 100.538C425.66 101.258 427.6 100.958 427.74 100.298C428.55 96.4281 429.6 92.6181 430.72 88.8281C431.84 85.0381 433.05 81.3081 434.87 77.8181C436.43 74.8281 438.41 72.0281 440.95 69.7981C442.21 68.6981 443.63 67.6881 445.17 67.0181C447.26 66.1181 449.47 66.4381 451.63 66.8681C452.25 66.9881 453.9 66.0381 452.81 65.8181L452.82 65.8281Z" fill="#1D1D1B"/>
<path d="M438.17 71.9516C444.18 73.4616 450.16 75.0916 456.11 76.8416C456.75 77.0316 458.38 76.0816 457.28 75.7616C451.34 74.0016 445.36 72.3716 439.34 70.8716C438.92 70.7716 438.27 70.9116 437.97 71.2416C437.7 71.5416 437.73 71.8516 438.16 71.9516H438.17Z" fill="#1D1D1B"/>
<path d="M436.11 75.9585C441.02 76.9585 445.9 78.1385 450.73 79.4985C451.16 79.6185 451.78 79.4585 452.1 79.1285C452.39 78.8285 452.31 78.4985 451.9 78.3785C447.07 77.0185 442.2 75.8385 437.28 74.8385C436.83 74.7485 436.24 74.8585 435.91 75.2085C435.63 75.4985 435.68 75.8685 436.11 75.9585Z" fill="#1D1D1B"/>
<path d="M451.35 66.3793L451.37 66.3393C451.43 66.2193 451.3 66.1393 451.21 66.1193C449.39 65.7193 448.58 67.6793 447.76 68.8993C446.46 70.8493 445.21 72.8193 443.99 74.8093C441.58 78.7493 439.33 82.7693 437.23 86.8793C437.08 87.1693 438.88 87.0493 439.14 86.5493C442.72 79.5793 446.73 72.8393 451.16 66.3693L450.77 66.6793L450.88 66.6293L449.53 66.8693L449.63 66.8893L449.47 66.6693L449.45 66.7093C449.3 66.9893 451.09 66.8793 451.36 66.3793H451.35Z" fill="#1D1D1B"/>
<path d="M451.15 68.9409C447.59 75.6309 444.37 82.5009 441.52 89.5209C441.14 90.4509 443.07 90.3009 443.34 89.6309C446.2 82.6109 449.41 75.7409 452.97 69.0509C453.43 68.1809 451.49 68.3009 451.15 68.9409Z" fill="#1D1D1B"/>
<path d="M442.63 101.799C448.43 103.149 454.14 104.879 459.71 106.989C460.08 107.128 460.59 106.989 460.95 106.849C461.02 106.829 461.81 106.449 461.54 106.349C455.89 104.209 450.11 102.449 444.23 101.079C443.82 100.979 443.26 101.168 442.88 101.338C442.72 101.408 442.21 101.689 442.63 101.789V101.799Z" fill="#1D1D1B"/>
<path d="M442.37 107.629C448.46 108.909 454.37 110.939 459.98 113.629C460.79 114.019 462.2 112.849 461.09 112.319C455.33 109.559 449.28 107.529 443.03 106.219C442.07 106.019 441.09 107.369 442.36 107.639L442.37 107.629Z" fill="#1D1D1B"/>
<path d="M451.78 98.7897C448.69 105.41 446 112.21 443.71 119.15C443.37 120.18 445.29 120.12 445.55 119.34C447.84 112.4 450.53 105.6 453.62 98.9797C454.07 98.0097 452.13 98.0397 451.78 98.7897Z" fill="#1D1D1B"/>
<path d="M457.02 102.82C454.32 108.66 451.62 114.51 448.92 120.35C448.82 120.57 450.6 120.46 450.82 119.99C453.52 114.15 456.22 108.3 458.92 102.46C459.02 102.24 457.24 102.35 457.02 102.82Z" fill="#1D1D1B"/>
<path d="M462.28 108.828C461.72 111.088 460.21 112.828 458.6 114.438C456.99 116.048 455.24 117.518 453.35 118.778C449.57 121.308 445.29 122.988 440.72 123.258C440.42 123.278 439.57 123.398 439.43 123.728C439.29 124.058 439.55 124.078 439.89 124.058C444.87 123.758 449.68 122.078 453.91 119.448C456.04 118.118 458.03 116.558 459.83 114.818C461.63 113.078 463.55 111.048 464.19 108.488C464.3 108.058 462.41 108.328 462.28 108.818V108.828Z" fill="#1D1D1B"/>
<path d="M432.43 164.29C431.91 163.83 431.36 163.17 430.68 162.96C429.75 162.68 428.67 163.1 427.94 163.68C426.69 164.68 426.42 166.15 426.29 167.66C426.23 168.32 426.14 168.9 425.74 169.45C425.3 170.06 424.87 170.6 424.65 171.34C424.25 172.64 424.59 174.05 424.93 175.33C425.27 176.61 428.17 175.82 427.83 174.55C427.6 173.71 427.35 172.82 427.41 171.94C427.48 170.95 428.07 170.39 428.58 169.59C429.15 168.71 429.17 167.71 429.28 166.7C429.33 166.24 429.39 165.77 429.58 165.35C429.66 165.18 429.77 165.05 429.85 164.9C429.94 164.73 430.02 164.78 429.88 164.82L429.11 164.89C428.96 164.89 428.89 164.73 429.02 164.9C429.13 165.04 429.3 165.14 429.43 165.26L430.17 165.9C431.07 166.69 433.64 165.36 432.42 164.29H432.43Z" fill="#1D1D1B"/>
<path d="M432.24 165.161C432.84 167.431 432.7 169.801 431.89 172.011C431.5 173.071 430.93 174.071 430.23 174.951C430.08 175.141 429.92 175.331 429.75 175.501C429.64 175.621 429.51 175.721 429.39 175.841C429.19 176.041 429.31 175.831 429.42 175.881C429.34 175.841 429.03 175.831 428.93 175.811C428.6 175.731 428.27 175.631 427.95 175.531C427.31 175.331 426.37 175.641 425.9 176.081C425.43 176.521 425.61 176.951 426.18 177.131C428.06 177.731 430.05 177.741 431.64 176.421C432.76 175.501 433.65 174.181 434.27 172.891C435.53 170.251 435.89 167.251 435.14 164.401C434.87 163.371 431.97 164.141 432.24 165.181V165.161Z" fill="#1D1D1B"/>
<path d="M336.73 170.15C332.65 170.57 328.3 171.43 325.99 175.2C323.68 178.97 324.36 183.95 325.79 188.09C326.04 188.82 327.96 188.28 327.72 187.57C326.45 183.88 325.59 179.64 327.42 175.98C328.21 174.39 329.44 173.13 331.07 172.42C332.7 171.71 334.66 171.49 336.49 171.31C336.85 171.27 337.53 171.05 337.58 170.62C337.63 170.19 337.04 170.11 336.73 170.15Z" fill="#1D1D1B"/>
<path d="M345.06 182.731C342.51 182.761 339.97 182.751 337.42 182.821C336.69 182.841 335.76 182.921 335.23 183.491C334.63 184.131 334.89 185.591 334.89 186.401C334.89 187.001 334.99 187.681 334.86 188.271C334.67 189.131 334.16 189.251 333.37 189.471C332.18 189.811 330.96 190.021 329.73 190.171C328.42 190.331 327.11 190.421 325.79 190.491C325.36 190.511 323.93 190.781 323.9 190.091C323.88 189.471 325.19 188.821 325.64 188.711C325.85 188.661 326.62 188.401 326.5 188.061C326.38 187.721 325.65 187.871 325.43 187.931C324.23 188.241 323.06 188.831 322.31 189.851C321.56 190.871 322.15 191.411 323.22 191.491C324.77 191.611 326.44 191.361 327.98 191.211C329.52 191.061 330.95 190.861 332.42 190.531C333.6 190.261 335.03 189.991 336.01 189.241C337.07 188.421 336.82 187.061 336.82 185.871C336.82 185.471 336.82 185.071 336.83 184.671C336.83 184.321 337.09 183.251 336.42 183.741C336.61 183.601 337.38 183.731 337.66 183.731H338.9C340.69 183.701 342.48 183.681 344.27 183.661C344.89 183.661 346.35 182.721 345.07 182.731H345.06Z" fill="#1D1D1B"/>
<path d="M333.18 153.939C332.07 154.249 330.96 154.559 329.85 154.869L328.37 155.279L327.44 155.539L327.07 155.639C326.74 155.729 326.83 155.719 327.33 155.619L328.12 155.919C327.63 155.459 327.47 154.839 326.86 154.429C326.25 154.019 325.53 153.769 324.82 153.619C323.19 153.269 321.43 153.199 319.81 153.639C316.65 154.509 314.53 157.209 313.9 160.349C313.62 161.729 313.38 163.549 314.34 164.739C315.3 165.929 317.17 166.379 318.54 166.609C321.68 167.139 325.48 166.099 327 163.069C326.17 163.289 325.33 163.519 324.5 163.739C327.62 165.469 331.2 166.099 334.73 165.639C335.26 165.569 336.29 165.259 336.36 164.599C336.43 163.939 335.56 163.819 335.08 163.889C332.18 164.259 329.33 163.669 326.78 162.259C326.09 161.879 324.65 162.189 324.28 162.929C323 165.469 319.61 165.469 317.45 163.949C316.27 163.119 316.55 161.409 316.78 160.179C317.04 158.749 317.59 157.329 318.63 156.279C319.61 155.289 320.65 155.029 322.01 155.139C323.27 155.239 324.45 155.489 325.13 156.639C325.89 157.919 327.44 157.239 328.6 156.919C330.27 156.449 331.93 155.989 333.6 155.519C334.06 155.389 335 154.969 334.83 154.329C334.66 153.689 333.61 153.789 333.17 153.919L333.18 153.939Z" fill="#1D1D1B"/>
<path d="M361.91 168.669C363.58 168.769 365.26 168.789 366.93 168.689C368.6 168.589 370.18 168.499 371.66 167.829C374.4 166.589 376.24 163.719 377.92 161.349C378.32 160.789 376.45 161.039 376.16 161.449C374.75 163.439 373.26 165.789 371.17 167.149C370.12 167.839 368.68 167.779 367.47 167.839C366.03 167.909 364.59 167.889 363.16 167.799C362.71 167.769 362.15 167.889 361.79 168.169C361.51 168.389 361.52 168.629 361.92 168.659L361.91 168.669Z" fill="#1D1D1B"/>
<path d="M377.43 160.349C377.75 160.349 378.06 160.349 378.38 160.339C378.51 160.339 378.64 160.339 378.77 160.329C378.69 160.329 378.66 160.329 378.76 160.329C378.84 160.329 378.91 160.329 378.99 160.329C379.04 160.329 379.09 160.329 379.14 160.339C379.14 160.339 379.36 160.369 379.26 160.349C379.16 160.329 379.35 160.369 379.37 160.379C379.43 160.399 379.49 160.409 379.55 160.429C379.62 160.449 379.7 160.499 379.59 160.439C379.64 160.459 379.68 160.489 379.73 160.509C379.82 160.559 379.91 160.619 379.99 160.679C380.01 160.699 380.11 160.789 380.02 160.709C380.05 160.739 380.08 160.769 380.11 160.799C380.19 160.869 380.26 160.949 380.32 161.029C380.46 161.199 380.58 161.369 380.69 161.559C380.75 161.649 380.8 161.749 380.85 161.849C380.82 161.789 380.85 161.849 380.86 161.879C380.89 161.939 380.92 161.999 380.95 162.059C381.04 162.259 381.13 162.459 381.22 162.659C381.4 163.079 381.96 163.099 382.34 162.989C382.62 162.909 383.33 162.569 383.15 162.149C382.75 161.219 382.31 160.289 381.49 159.669C381.01 159.309 380.41 159.139 379.83 159.079C379.49 159.049 379.15 159.059 378.81 159.069C378.68 159.069 378.55 159.069 378.42 159.079C378.39 159.079 378.13 159.099 378.35 159.079C378.27 159.079 378.19 159.079 378.12 159.079C377.67 159.069 377.08 159.209 376.85 159.639C376.64 160.039 377.03 160.339 377.41 160.349H377.43Z" fill="#1D1D1B"/>
<path d="M351.03 130.611C354.96 132.501 358.92 134.331 362.91 136.081C363.32 136.261 363.91 136.101 364.27 135.881C364.51 135.741 364.88 135.371 364.46 135.191C360.47 133.441 356.51 131.611 352.58 129.721C352.18 129.531 351.57 129.711 351.22 129.921C350.97 130.071 350.63 130.421 351.03 130.611Z" fill="#1D1D1B"/>
<path d="M377.89 138.192C380.25 136.912 382.91 136.632 385.52 136.172C386.82 135.942 388.11 135.682 389.36 135.272C389.53 135.212 389.69 135.152 389.86 135.102C389.61 135.052 389.6 135.102 389.85 135.272C389.98 135.552 390.26 135.822 390.43 136.082C390.84 136.682 391.22 137.312 391.56 137.962C391.94 138.682 393.83 138.082 393.49 137.442C393.12 136.742 392.73 136.052 392.29 135.392C391.93 134.862 391.56 134.182 390.91 133.972C390.11 133.712 389.34 134.082 388.58 134.312C387.82 134.542 387.03 134.722 386.24 134.872C383.13 135.462 379.92 135.722 377.09 137.252C376.8 137.412 376.32 137.732 376.6 138.112C376.85 138.452 377.59 138.342 377.89 138.182V138.192Z" fill="#1D1D1B"/>
<path d="M394.54 154.929C394.28 155.869 394.1 156.829 393.99 157.789C393.94 158.229 393.86 158.739 394.08 159.149C394.29 159.529 394.62 159.749 394.98 159.979C395.47 160.289 395.97 160.429 396.56 160.339C397.19 160.239 397.8 159.919 398.14 159.359C398.6 158.609 398.68 157.749 398.74 156.889C398.77 156.479 398.21 156.469 397.92 156.519C397.67 156.559 397.41 156.629 397.19 156.759C397.06 156.839 396.83 156.979 396.82 157.149C396.78 157.809 396.73 158.499 396.48 159.119C396.43 159.249 396.35 159.359 396.28 159.479C396.23 159.539 396.22 159.559 396.25 159.529C396.28 159.499 396.27 159.519 396.21 159.569C396.45 159.429 396.7 159.349 396.96 159.339C396.97 159.339 396.99 159.339 397 159.339C396.89 159.239 396.69 159.179 396.55 159.089C396.45 159.019 396.34 158.949 396.25 158.869C396 158.649 395.89 158.409 395.9 158.079C395.9 157.709 395.97 157.339 396.02 156.979C396.13 156.209 396.29 155.449 396.5 154.699C396.61 154.289 395.91 154.289 395.68 154.329C395.33 154.379 394.69 154.549 394.58 154.959L394.54 154.929Z" fill="#1D1D1B"/>
<path d="M376.46 161.5L377.42 163.2C377.57 163.47 377.74 163.74 377.88 164.01C378.02 164.28 378 164.39 377.83 164.63C377.26 165.43 376.57 166.12 375.77 166.69C374.31 167.72 372.55 168.22 370.77 168.06C370.31 168.02 369.77 168.14 369.4 168.43C369.11 168.66 369.15 168.95 369.55 168.98C372.14 169.22 374.78 168.52 376.96 167.1C377.96 166.44 378.87 165.61 379.57 164.63C379.71 164.44 379.89 164.23 379.93 163.99C379.99 163.65 379.72 163.33 379.56 163.05L378.39 160.98C378.07 160.42 376.23 161.09 376.46 161.5Z" fill="#1D1D1B"/>
</svg>
