<svg width="219" height="185" viewBox="0 0 219 185" fill="none" xmlns="http://www.w3.org/2000/svg">
<g clip-path="url(#clip0_516_1227)">
<rect width="219" height="185" fill="white"/>
<path d="M122.533 157.779C158.083 157.779 186.901 127.477 186.901 90.0983C186.901 52.7195 158.083 22.418 122.533 22.418C86.9827 22.418 58.1638 52.7195 58.1638 90.0983C58.1638 127.477 86.9827 157.779 122.533 157.779Z" fill="#0086CD"/>
<path d="M141.277 65.2578L143.509 71.0712L146.601 67.2099L151.196 71.8864L148.383 75.8979L153.407 77.4424L153.128 83.8779L147.911 82.505L150.273 88.6188L144.626 91.1715L142.178 84.6717L138.464 89.9488L132.624 84.6717L136.725 79.5661L130.133 77.8285L131.336 70.5993L137.627 72.5514L135.308 66.3948L141.277 65.2578Z" fill="#231F20"/>
<path d="M102.801 65.2578L105.056 71.0712L108.147 67.2099L112.742 71.8864L109.908 75.8979L114.932 77.4424L114.674 83.8779L109.457 82.505L111.797 88.6188L106.151 91.1715L103.724 84.6717L99.9886 89.9488L94.17 84.6717L98.2709 79.5661L91.6794 77.8285L92.8603 70.5993L99.1512 72.5514L96.8324 66.3948L102.801 65.2578Z" fill="#231F20"/>
<path d="M127.9 63.3472C127.299 67.1656 126.676 70.9625 126.075 74.781L125.131 80.6373C125.002 81.431 124.787 82.2891 124.83 83.1042C124.83 83.3402 124.873 83.5762 124.959 83.8121L123.585 83.5547C123.585 83.5547 124.401 83.7907 124.529 83.8121C126.805 84.5415 129.468 85.5712 130.09 88.124C130.82 91.1701 128.501 93.6156 126.247 95.2674C125.903 95.5034 124.594 94.7954 124.272 94.6667C124.121 94.6024 122.425 93.68 122.468 93.6585C124.68 92.0496 126.934 89.6899 126.354 86.7296C126.29 86.3864 126.204 86.0646 126.054 85.7428C125.946 85.5068 125.324 84.8418 125.324 84.6488C124.98 84.327 125.195 84.3699 125.989 84.8204C126.87 85.1207 127.063 85.2065 126.569 85.0778C126.247 85.0134 125.925 84.9062 125.624 84.7989C124.401 84.4128 122.855 83.8979 121.846 83.0399C120.708 82.0745 121.116 80.6158 121.309 79.3287C121.631 77.3766 121.931 75.4245 122.253 73.4724C122.876 69.5682 123.499 65.6425 124.121 61.7383C124.121 61.7383 128.008 62.7251 127.9 63.3472Z" fill="#231F20"/>
<path d="M145.227 24.6914C128.437 24.6914 111.647 24.6914 94.8785 24.6914C94.2129 24.6914 95.1147 24.1766 95.2435 24.0908C95.6944 23.7476 96.6605 23.4258 97.2402 23.4258C114.03 23.4258 130.82 23.4258 147.589 23.4258C148.254 23.4258 147.353 23.9406 147.224 24.0264C146.773 24.3697 145.807 24.6914 145.227 24.6914Z" fill="#282B2E"/>
<path d="M136.574 20.1419C133.59 14.0067 130.584 7.85003 127.6 1.71482L130.305 1.39304C128.738 3.47387 127.041 5.46888 125.173 7.29228C123.713 8.72955 121.588 11.3038 119.462 11.6255C118.432 11.7757 117.68 11.3252 116.95 10.6602C115.92 9.73778 114.932 8.7939 113.858 7.91438C111.776 6.2626 109.371 4.50355 106.881 3.55967L107.911 3.64548L107.525 3.70984L108.813 2.89467C108.04 3.88145 108.383 6.24114 108.362 7.44244C108.319 9.09423 108.212 10.746 108.018 12.3978C107.653 15.5727 106.988 18.6832 106.065 21.7508C105.7 22.9735 102.737 23.4026 103.209 21.7937C104.218 18.4257 104.905 14.972 105.206 11.4754C105.356 9.86649 105.378 8.25761 105.421 6.64873C105.442 5.42598 105.399 3.75274 106.043 2.6587C107.546 0.105939 110.702 2.42273 112.377 3.45241C113.687 4.26758 114.975 5.16855 116.177 6.13388C116.8 6.62727 117.401 7.12067 117.981 7.63551C118.561 8.15035 119.462 9.3302 120.214 9.48036L119.097 9.60907C119.956 9.30875 120.772 8.38632 121.438 7.78567C122.211 7.09921 122.962 6.36985 123.692 5.61904C125.152 4.11742 126.505 2.52999 127.771 0.85675C128.287 0.170294 129.961 -0.537614 130.477 0.534974C133.461 6.67018 136.467 12.8268 139.451 18.962C140.053 20.1848 137.218 21.3861 136.596 20.1204L136.574 20.1419Z" fill="#282B2E"/>
<path d="M144.368 96.4897L123.542 100.458C115.361 102.003 107.052 103.59 102.715 104.427C101.749 104.62 101.363 105.414 101.491 106.079C103.402 116.118 113.257 125.299 127.75 122.554C142.243 119.808 148.04 107.645 146.107 97.5838C145.979 96.8973 145.334 96.2967 144.368 96.4897Z" fill="#1D1D1B"/>
<path d="M57.4983 80.9594C50.3271 85.0353 42.7265 88.2101 34.7395 90.2695C27.3321 92.1787 19.5383 92.8437 12.5174 96.0186C7.47181 98.3139 1.18093 102.626 0.0859312 108.525C-0.515245 111.7 1.95387 113.287 4.40152 114.617C7.81534 116.484 10.628 118.822 12.9039 121.997C13.548 122.898 17.563 121.568 16.7901 120.495C14.8792 117.835 12.5389 115.583 9.72623 113.909C6.91358 112.236 3.28505 111.013 4.44446 107.002C6.39828 100.287 14.0418 96.7479 20.2039 95.1391C27.0745 93.3371 34.0739 92.4147 40.8586 90.2266C47.6433 88.0385 53.8912 85.2498 59.9674 81.7961C62.3721 80.4232 58.6362 80.3373 57.4983 80.9809V80.9594Z" fill="#0086CD"/>
<path d="M61.2341 143.77C64.562 148.79 71.0891 150.849 76.8217 149.476C77.5947 149.283 78.797 148.554 78.5394 147.588C78.2817 146.623 76.8647 146.645 76.1132 146.816C75.9629 146.859 75.8126 146.881 75.6408 146.923C75.2973 147.009 76.1347 146.859 75.555 146.923C75.2758 146.966 74.9967 146.988 74.6961 147.009C74.5458 147.009 74.3741 147.009 74.2238 147.031C74.0735 147.052 73.9661 147.031 74.1808 147.031C73.9017 147.031 73.6011 147.031 73.322 146.988C73 146.966 72.6994 146.923 72.3773 146.859C72.3558 146.859 72.0123 146.795 72.1411 146.816C72.3129 146.859 71.862 146.752 71.8191 146.73C71.2394 146.58 70.6597 146.387 70.1014 146.173C68.1476 145.379 66.2797 143.856 65.0344 141.968C64.0682 140.509 60.0961 142.032 61.2341 143.749V143.77Z" fill="#0086CD"/>
<path d="M19.0014 126.156C24.1114 127.679 28.8564 130.146 33.0861 133.385C34.4173 134.415 38.1317 132.506 36.3067 131.111C31.8623 127.701 26.7952 125.126 21.4276 123.518C20.4614 123.217 19.1732 123.539 18.4861 124.311C17.8635 124.998 18.0782 125.899 18.9799 126.156H19.0014Z" fill="#0086CD"/>
<path d="M94.8142 145.12C92.753 150.569 85.4315 150.89 80.8798 153.014C78.2818 154.237 75.9201 155.953 74.5459 158.549C73.0859 161.273 72.5492 164.426 72.2701 167.473C71.9909 170.669 72.0768 173.908 72.2271 177.126C72.3559 179.85 72.313 183.24 75.233 184.548C80.4289 186.865 85.2598 180.065 86.7842 176.053C87.2995 174.68 83.1556 175.152 82.6404 176.568C82.1895 177.769 81.5883 178.906 80.8368 179.936C80.4933 180.387 78.7971 182.725 78.153 182.596C78.0242 182.575 77.1439 181.18 77.1224 181.137C76.8862 180.687 76.7789 180.151 76.6715 179.657C76.4353 178.477 76.4568 177.233 76.3924 176.032C76.1562 170.54 75.8342 164.233 78.2174 159.128C80.4074 154.451 85.6033 153.786 89.9833 152.178C93.7621 150.783 97.498 148.574 98.9795 144.627C99.4948 143.232 95.3509 143.726 94.8356 145.141L94.8142 145.12Z" fill="#1D1D1B"/>
<path d="M88.8238 174.876C95.7373 175.627 101.921 171.487 107.568 168.033C113.214 164.579 117.916 160.932 121.352 155.591C121.931 154.69 120.836 153.96 120.085 153.853C119.011 153.703 117.959 154.239 117.38 155.119C114.481 159.602 110.101 162.842 105.635 165.63C103.381 167.046 101.062 168.419 98.7003 169.663C96.0809 171.036 93.2897 172.194 90.2623 171.873C89.2962 171.765 87.9864 172.173 87.557 173.138C87.1276 174.104 87.922 174.79 88.8238 174.876Z" fill="#1D1D1B"/>
<path d="M67.16 115.862C61.4488 119.766 55.1579 122.748 48.4591 124.55C45.6679 125.301 42.7909 126.009 41.0303 128.497C39.2697 130.986 38.4967 134.504 37.8526 137.486C37.1226 140.853 36.7147 144.35 36.7362 147.804C36.7362 150.399 37.2085 153.253 39.8494 154.411C42.2326 155.441 45.3244 154.797 47.5573 153.617C50.1338 152.244 51.6582 149.799 52.6673 147.139C53.0109 146.259 48.9959 146.688 48.5665 147.825C47.8794 149.627 46.3979 153.424 43.9503 152.974C41.5026 152.523 40.9444 149.327 40.88 147.246C40.7082 141.561 41.7817 135.576 43.8429 130.299C44.2723 129.184 44.8091 127.982 45.7323 127.189C46.6556 126.395 47.9867 126.245 49.1462 125.944C51.6367 125.258 54.1059 124.443 56.5106 123.499C61.3844 121.568 66.0006 119.101 70.3376 116.141C71.0676 115.648 70.7885 115.262 70.0585 115.111C69.1782 114.94 67.847 115.39 67.117 115.905L67.16 115.862Z" fill="#1D1D1B"/>
<path d="M58.2712 146.474C64.9486 142.548 71.3683 138.215 77.4659 133.431C78.1959 132.874 78.4965 131.801 77.6591 131.179C76.8218 130.557 75.4691 130.793 74.6747 131.393C68.8562 135.963 62.7586 140.124 56.4033 143.878C55.6518 144.307 54.8144 145.23 55.4586 146.109C56.0383 146.925 57.4983 146.946 58.2927 146.474H58.2712Z" fill="#1D1D1B"/>
<path d="M203.756 65.6867C204.164 64.0349 205.989 63.6274 207.427 64.0993C209.166 64.6785 210.412 66.3303 211.292 67.8748C213.096 71.0068 214.019 74.8037 214.491 78.3647C214.878 81.2393 215.887 88.49 212.859 90.3348C210.519 91.7506 206.955 91.4074 204.357 92.2869C193.171 96.1268 187.567 107.904 177.111 112.859C174.556 114.06 176.81 116.549 179 115.498C184.389 112.945 188.576 108.783 192.784 104.643C196.993 100.503 201.48 95.9552 207.427 94.6681C210.197 94.0674 213.139 94.1103 215.565 92.4585C218.249 90.6351 218.785 87.6319 218.957 84.6072C219.344 77.8928 218.206 69.0332 213.525 63.799C209.639 59.4443 201.179 59.4228 199.548 65.9441C199.011 68.0464 203.284 67.6174 203.756 65.6867Z" fill="#1D1D1B"/>
<path d="M202.833 73.4936C203.305 75.7889 203.606 78.1486 203.606 80.5083C203.606 81.5165 203.67 82.7179 203.219 83.6403C203.047 84.005 202.768 84.2838 202.468 84.5627C202.06 84.9274 201.823 85.1204 201.48 85.3135L202.489 84.8845H202.704C203.026 84.8845 203.369 84.8845 203.691 84.8845C203.305 84.8201 202.747 84.2838 202.382 84.0264C201.866 83.6617 201.351 83.297 200.836 82.9324C199.676 82.1172 195.876 83.8119 197.551 84.9917C198.302 85.528 199.075 86.0643 199.827 86.6006C200.814 87.3085 201.909 87.4158 203.069 87.0726C204.078 86.7722 204.937 86.0858 205.731 85.3993C206.44 84.7772 206.998 84.0693 207.341 83.2112C207.986 81.6024 207.792 79.6502 207.706 77.9556C207.599 76.0893 207.363 74.223 206.976 72.3781C206.783 71.4986 205.216 71.6702 204.615 71.8418C203.949 72.0349 202.639 72.5712 202.833 73.4936Z" fill="#1D1D1B"/>
<path d="M77.1652 37.4766C81.2446 34.1516 82.3826 28.0378 79.6129 23.5329C75.7911 17.3334 67.9758 20.5511 62.5652 22.6105C56.4891 24.9059 50.7994 29.2606 49.8546 36.0608C49.3394 39.8148 49.7473 43.762 49.8546 47.5375C49.962 51.6777 49.9191 55.8822 50.5417 60.0009C51.6367 67.2731 56.0167 74.1591 63.9179 74.7598C65.5711 74.8885 68.2979 72.5288 65.5067 72.3143C57.8202 71.7351 54.9861 62.9613 54.4064 56.5472C54.0629 52.8575 54.0844 49.1249 53.977 45.4352C53.8696 41.7455 53.3758 37.5838 54.342 33.8512C55.2223 30.4404 57.6699 27.8018 60.6544 26.0428C62.4149 25.0131 64.3473 24.3052 66.2796 23.7046C67.9329 23.1897 69.9941 22.2887 71.7117 22.2458C74.9752 22.1815 76.7358 26.4504 76.9291 29.1319C77.1438 32.0278 76.0702 34.8595 73.8158 36.7258C73.0644 37.3479 73.4938 37.9914 74.2238 38.2703C75.147 38.6135 76.4567 38.0558 77.1652 37.4766Z" fill="#1D1D1B"/>
<path d="M69.1568 44.19L74.3742 55.8598C74.8036 56.8037 75.8986 57.0611 76.8433 56.7608C77.5303 56.5462 78.9474 55.7096 78.518 54.7443L73.3006 43.0745C72.8712 42.1307 71.7762 41.8732 70.8315 42.1736C70.1445 42.3881 68.7274 43.2247 69.1568 44.19Z" fill="#1D1D1B"/>
<path d="M59.903 36.9597C60.1392 37.4531 60.3968 37.8821 60.7833 38.2468C61.0195 38.4613 61.2771 38.6758 61.5348 38.8474C61.8139 39.019 62.1359 39.1478 62.458 39.2765C62.9733 39.491 63.5745 39.5982 64.1327 39.5982C64.4977 39.5982 64.8627 39.5982 65.2062 39.5553C65.8074 39.4695 66.2583 39.3194 66.838 39.1263C67.2245 38.9761 67.7183 38.59 67.933 38.2253C68.1047 37.925 68.1477 37.496 67.89 37.1956C67.6109 36.8739 67.16 36.7237 66.7306 36.7023C66.1509 36.6808 65.6356 36.8095 65.0989 37.0026H65.0559C65.2277 36.9597 65.4209 36.8953 65.5927 36.831C65.4424 36.8739 65.2921 36.9168 65.1203 36.9597L65.6786 36.8524C65.5283 36.8739 65.3565 36.8953 65.2062 36.8953H65.743C65.5283 36.8953 65.3136 36.8739 65.0989 36.831L65.5712 36.9168C65.335 36.8739 65.0774 36.8095 64.8627 36.7023L65.2492 36.8739C64.9271 36.7452 64.648 36.5735 64.3903 36.359L64.6695 36.595C64.3689 36.3376 64.1112 36.0372 63.9395 35.694L64.1112 36.0158C64.1112 36.0158 64.0683 35.93 64.0468 35.8656C64.0039 35.6726 63.8965 35.5224 63.7462 35.4366C63.5959 35.2864 63.4242 35.2006 63.2095 35.1577C62.7371 35.0076 62.1145 35.0505 61.6421 35.1792C61.1697 35.3079 60.6115 35.5439 60.268 35.93C60.0533 36.1874 59.7312 36.6164 59.903 36.9811V36.9597Z" fill="#1D1D1B"/>
<path d="M191.303 77.3566C193.858 75.7477 196.22 73.817 198.324 71.6504C198.496 71.4573 198.603 71.1999 198.388 71.0068C198.152 70.7923 197.594 70.7923 197.315 70.8138C196.391 70.8781 195.211 71.157 194.545 71.8434C194.051 72.3583 193.557 72.8517 193.042 73.3236C192.784 73.5596 192.505 73.817 192.226 74.053C192.162 74.0959 192.097 74.1602 192.033 74.2031C191.926 74.2889 191.84 74.3748 191.99 74.246C191.861 74.3533 191.711 74.482 191.561 74.5893C190.444 75.4902 189.285 76.3269 188.082 77.0777C187.911 77.1849 187.546 77.5067 187.61 77.7641C187.674 78.0216 188.147 78.1074 188.361 78.1288C189.371 78.1932 190.444 77.8714 191.303 77.3351V77.3566Z" fill="#1D1D1B"/>
</g>
<defs>
<clipPath id="clip0_516_1227">
<rect width="219" height="185" fill="white"/>
</clipPath>
</defs>
</svg>
