<svg width="100" height="100" viewBox="0 0 100 100" fill="none" xmlns="http://www.w3.org/2000/svg">
<rect width="100" height="100" fill="white"/>
<path d="M56.6099 78.0609C73.1674 78.0609 86.5899 63.9355 86.5899 46.5109C86.5899 29.0864 73.1674 14.9609 56.6099 14.9609C40.0524 14.9609 26.6299 29.0864 26.6299 46.5109C26.6299 63.9355 40.0524 78.0609 56.6099 78.0609Z" fill="#008FD5"/>
<path d="M47.89 34.9297L46.84 37.6397L45.41 35.8397L43.26 38.0297L44.58 39.8897L42.24 40.6197L42.36 43.6097L44.79 42.9697L43.7 45.8197L46.33 47.0097L47.46 43.9797L49.2 46.4397L51.92 43.9797L50.01 41.5997L53.07 40.7897L52.52 37.4297L49.59 38.3397L50.67 35.4597L47.89 34.9297Z" fill="#231F20"/>
<path d="M65.7999 34.9297L64.7599 37.6397L63.3199 35.8397L61.1799 38.0297L62.4899 39.8897L60.1499 40.6197L60.2799 43.6097L62.7099 42.9697L61.6099 45.8197L64.2399 47.0097L65.3799 43.9797L67.1099 46.4397L69.8299 43.9797L67.9199 41.5997L70.9799 40.7897L70.4299 37.4297L67.4999 38.3397L68.5799 35.4597L65.7999 34.9297Z" fill="#231F20"/>
<path d="M54.1199 34.0391C54.3999 35.8191 54.6899 37.5891 54.9699 39.3691L55.4099 42.0991C55.4699 42.4691 55.5699 42.8691 55.5499 43.2491C55.5499 43.3591 55.5299 43.4691 55.4899 43.5791L56.1299 43.4591C56.1299 43.4591 55.7499 43.5691 55.6899 43.5791C54.6299 43.9191 53.3899 44.3991 53.0999 45.5891C52.7599 47.0091 53.8399 48.1491 54.8899 48.9191C55.0499 49.0291 55.6599 48.6991 55.8099 48.6391C55.8799 48.6091 56.6699 48.1791 56.6499 48.1691C55.6199 47.4191 54.5699 46.3191 54.8399 44.9391C54.8699 44.7791 54.9099 44.6291 54.9799 44.4791C55.0299 44.3691 55.3199 44.0591 55.3199 43.9691C55.4799 43.8191 55.3799 43.8391 55.0099 44.0491C54.5999 44.1891 54.5099 44.2291 54.7399 44.1691C54.8899 44.1391 55.0399 44.0891 55.1799 44.0391C55.7499 43.8591 56.4699 43.6191 56.9399 43.2191C57.4699 42.7691 57.2799 42.0891 57.1899 41.4891C57.0399 40.5791 56.8999 39.6691 56.7499 38.7591C56.4599 36.9391 56.1699 35.1091 55.8799 33.2891C55.8799 33.2891 54.0699 33.7491 54.1199 34.0391Z" fill="#231F20"/>
<path d="M48.7 52.4291C49 55.9491 54.37 55.7391 56.84 55.7091C58.66 55.6891 60.52 55.6891 62.32 55.3991C63.76 55.1691 65.89 54.5991 65.72 52.7291C65.7 52.5191 64.76 52.4991 64.77 52.6091C64.92 54.2191 63.26 54.8691 61.95 55.1091C60.43 55.3891 58.86 55.4091 57.32 55.4391C54.94 55.4891 49.93 55.9591 49.64 52.5491C49.62 52.3391 48.68 52.3191 48.69 52.4291H48.7Z" fill="#231F20"/>
<path d="M69.5801 50.2897C69.2901 50.2897 68.6601 50.2597 68.4101 50.4697C67.6301 51.1297 66.9101 51.7497 65.9001 52.0097C64.8001 52.2897 63.6001 52.1897 62.4601 52.1997C60.4201 52.2197 58.3801 52.2297 56.3301 52.2097C54.3701 52.1997 52.4101 52.1597 50.4501 52.0797C49.4501 52.0397 44.3501 52.3097 45.5601 50.3397C45.4801 50.4697 43.9201 50.0197 43.6501 50.4597C43.3601 50.9297 43.4101 51.2697 43.6501 51.5397C43.6301 51.6397 43.6701 51.7497 43.7901 51.8697C44.9001 52.9597 45.8401 54.1997 46.5901 55.5697C47.2401 56.7597 47.4901 58.1297 48.1301 59.2997C48.7601 60.4397 50.1601 60.6397 51.3301 60.8297C52.8801 61.0897 54.4501 61.1697 56.0201 61.0697C61.3401 60.7497 67.8201 58.0297 68.3601 51.9897C68.3601 51.8897 68.3201 51.8097 68.2401 51.7397C68.9101 51.4297 69.5501 50.9997 70.2401 50.4197C70.3901 50.2897 69.6101 50.2797 69.5601 50.2797L69.5801 50.2897ZM49.2801 53.0997C49.2901 53.1397 49.3101 53.1897 49.3201 53.2297C49.2901 53.1797 49.2401 53.1297 49.2101 53.0797C49.2301 53.0797 49.2601 53.0897 49.2801 53.0897V53.0997ZM65.3201 53.6997C65.2001 53.7997 65.0801 53.8997 64.9601 53.9997C64.8701 54.0797 64.7801 54.1597 64.8301 54.2897C64.8701 54.4097 64.9701 54.5197 65.0301 54.6397C65.0901 54.7797 65.1401 54.9297 65.1701 55.0797C65.2101 55.2697 65.2101 55.4697 65.2001 55.6697C63.0501 58.7397 58.6201 60.0897 54.9401 60.0697C53.6501 60.0697 52.2401 59.9797 51.0001 59.5897C49.8101 59.2097 49.6601 57.9997 49.2801 56.9397C49.4201 56.6397 49.5801 56.3397 49.7601 56.0497C49.9001 55.8297 50.0501 55.5997 50.2301 55.4097C50.3201 55.3097 50.3701 55.2597 50.4701 55.1897C50.5001 55.1697 50.5301 55.1497 50.5601 55.1397C50.5701 55.1397 50.6201 55.1097 50.5801 55.1297C50.6001 55.1197 50.6301 55.1097 50.6601 55.0997C50.6601 55.0997 50.7901 55.0797 50.7101 55.0897C50.9101 55.0597 51.1001 54.9297 51.0201 54.7097C50.9401 54.4997 50.6501 54.3597 50.4401 54.3897C50.4001 54.3897 50.3701 54.4097 50.3301 54.4197C50.2201 53.9997 50.1201 53.5697 49.9601 53.1797C49.8301 52.8597 49.6101 52.5197 49.3001 52.3697C51.7301 52.4697 54.1601 52.5197 56.6001 52.5297C59.2701 52.5297 61.9301 52.5197 64.6001 52.4797C64.6301 52.4797 64.6601 52.4797 64.6901 52.4797C64.6901 52.4797 64.6901 52.4897 64.6901 52.4997C64.7101 52.5597 64.7201 52.6197 64.7301 52.6797C64.7301 52.6797 64.7301 52.6797 64.7401 52.6897C64.8101 52.9597 64.8501 53.2297 64.8001 53.5097C64.7701 53.7097 65.1201 53.6697 65.4001 53.5897C65.3901 53.6297 65.3801 53.6697 65.3601 53.6997H65.3201Z" fill="#231F20"/>
<path d="M46.0501 16.0197C53.8701 16.0197 61.6901 16.0197 69.5001 16.0197C69.8101 16.0197 69.3901 15.7797 69.3301 15.7397C69.1201 15.5797 68.6701 15.4297 68.4001 15.4297C60.5801 15.4297 52.7601 15.4297 44.9501 15.4297C44.6401 15.4297 45.0601 15.6697 45.1201 15.7097C45.3301 15.8697 45.7801 16.0197 46.0501 16.0197Z" fill="#282B2E"/>
<path d="M50.0699 13.9006C51.4599 11.0406 52.8599 8.17057 54.2499 5.31057L52.9899 5.16057C53.7199 6.13057 54.5099 7.06057 55.3799 7.91057C56.0599 8.58057 57.0499 9.78057 58.0399 9.93057C58.5199 10.0006 58.8699 9.79057 59.2099 9.48057C59.6899 9.05057 60.1499 8.61057 60.6499 8.20057C61.6199 7.43057 62.7399 6.61057 63.8999 6.17057L63.4199 6.21057L63.5999 6.24057L62.9999 5.86057C63.3599 6.32057 63.1999 7.42057 63.2099 7.98057C63.2299 8.75057 63.2799 9.52057 63.3699 10.2906C63.5399 11.7706 63.8499 13.2206 64.2799 14.6506C64.4499 15.2206 65.8299 15.4206 65.6099 14.6706C65.1399 13.1006 64.8199 11.4906 64.6799 9.86057C64.6099 9.11057 64.5999 8.36057 64.5799 7.61057C64.5699 7.04057 64.5899 6.26057 64.2899 5.75057C63.5899 4.56057 62.1199 5.64057 61.3399 6.12057C60.7299 6.50057 60.1299 6.92057 59.5699 7.37057C59.2799 7.60057 58.9999 7.83057 58.7299 8.07057C58.4599 8.31057 58.0399 8.86057 57.6899 8.93057L58.2099 8.99057C57.8099 8.85057 57.4299 8.42057 57.1199 8.14057C56.7599 7.82057 56.4099 7.48057 56.0699 7.13057C55.3899 6.43057 54.7599 5.69057 54.1699 4.91057C53.9299 4.59057 53.1499 4.26057 52.9099 4.76057C51.5199 7.62057 50.1199 10.4906 48.7299 13.3506C48.4499 13.9206 49.7699 14.4806 50.0599 13.8906L50.0699 13.9006Z" fill="#282B2E"/>
<path d="M14.5501 38.3082C17.1601 44.0882 19.9101 50.0482 24.5501 54.5082C25.8801 55.7882 27.3401 56.9082 28.9301 57.8482C29.6401 58.2682 29.8101 57.3882 29.2301 57.0482C23.8301 53.8382 20.4301 48.4982 17.7201 42.9882C16.9501 41.4182 16.2201 39.8182 15.5001 38.2282C15.2601 37.6982 14.2201 37.5782 14.5601 38.3182L14.5501 38.3082Z" fill="black"/>
<path d="M21.2599 33.5684C23.2199 35.6484 25.5199 37.3584 28.0499 38.6984C28.3199 38.8384 28.6499 38.7284 28.8499 38.5284C28.9999 38.3784 29.1899 37.9884 28.9099 37.8384C26.4599 36.5484 24.1899 34.8984 22.2799 32.8784C22.0699 32.6584 21.7599 32.7084 21.5199 32.8684C21.3499 32.9784 21.0399 33.3584 21.2499 33.5784L21.2599 33.5684Z" fill="black"/>
<path d="M14.75 38.0983C12.49 37.8383 10.23 38.3983 8.09003 37.3583C6.69003 36.6683 4.25003 34.6583 5.42003 32.8883C5.59003 32.6283 5.42003 32.3183 5.16003 32.2283C4.85003 32.1183 4.51003 32.2983 4.34003 32.5483C2.96003 34.6383 5.15003 37.0183 6.89003 38.0183C7.89003 38.5883 9.01003 38.9383 10.15 39.0483C11.59 39.1983 13.04 38.9683 14.48 39.1383C15.16 39.2183 15.55 38.1883 14.74 38.0983H14.75Z" fill="black"/>
<path d="M15.4301 23.7807C13.7101 24.6907 11.9101 25.7707 11.5601 27.8507C11.4701 28.3607 11.4301 28.9107 11.7201 29.3707C11.9901 29.8007 12.4301 30.0407 12.9201 30.1407C13.9201 30.3407 14.9601 29.7607 15.8501 29.3907C16.5301 29.1107 15.9201 28.0307 15.2701 28.3007C14.8701 28.4707 14.4601 28.6407 14.0501 28.8007C13.7501 28.9107 13.4201 29.0207 13.1001 29.0007C12.9701 29.0007 12.8401 28.9507 12.7501 28.9107C12.7001 28.8907 12.7101 28.9007 12.6701 28.8407C12.7001 28.8907 12.6701 28.8707 12.6601 28.7807C12.6101 28.4507 12.7201 28.0607 12.8101 27.7407C13.2501 26.3007 14.7701 25.5207 16.0101 24.8707C16.6601 24.5307 16.0501 23.4507 15.4301 23.7807Z" fill="black"/>
<path d="M13.7501 29.0808C13.4401 29.6608 13.3201 30.3508 13.4701 30.9908C13.6301 31.7008 14.0601 32.3108 14.6601 32.7208C14.8301 32.8408 15.1901 33.0708 15.4101 32.9408C15.6301 32.8108 15.2901 32.5108 15.1901 32.4508C15.1601 32.4308 15.1301 32.4108 15.1001 32.3908C15.1001 32.3908 14.9401 32.2408 14.9901 32.2908C15.0401 32.3408 14.9501 32.2408 14.9501 32.2408C14.9301 32.2208 14.9101 32.2008 14.9001 32.1708C14.8801 32.1408 14.8601 32.1108 14.8401 32.0808C14.8301 32.0608 14.7901 32.0008 14.8201 32.0508C14.6901 31.8208 14.6001 31.5808 14.5501 31.3308C14.4501 30.7608 14.5501 30.2008 14.8301 29.6908C14.9401 29.4908 14.5601 29.2308 14.4201 29.1608C14.3001 29.0908 13.8601 28.8708 13.7501 29.0808Z" fill="black"/>
<path d="M12.96 26.1103C11.64 24.8603 10.31 23.6003 9.16999 22.1703C8.58999 21.4503 8.04999 20.6803 7.61999 19.8503C7.23999 19.1103 6.90999 18.2403 7.18999 17.4203C7.30999 17.0703 7.51999 16.7303 7.91999 16.7303C8.35999 16.7303 8.81999 16.9503 9.19999 17.1603C9.98999 17.6003 10.71 18.1903 11.41 18.7603C12.86 19.9403 14.21 21.2603 15.44 22.6703C15.68 22.9503 16.81 22.4603 16.52 22.1303C15.39 20.8203 14.16 19.6103 12.83 18.5003C11.68 17.5403 10.32 16.2603 8.75999 16.0803C7.37999 15.9203 5.93999 16.8503 5.89999 18.3103C5.84999 19.8503 7.01999 21.3603 7.92999 22.5103C9.10999 24.0203 10.5 25.3303 11.88 26.6403C12.16 26.9003 13.26 26.3803 12.96 26.1003V26.1103Z" fill="black"/>
<path d="M14.99 22.1197C15.69 22.8597 16.39 23.5897 17.09 24.3297C17.16 24.3997 17.31 24.4197 17.4 24.4197C17.55 24.4197 17.73 24.3997 17.88 24.3597C17.99 24.3197 18.42 24.1597 18.25 23.9797L16.15 21.7697C16.08 21.6997 15.93 21.6797 15.84 21.6797C15.69 21.6797 15.51 21.6997 15.36 21.7397C15.25 21.7797 14.82 21.9397 14.99 22.1197Z" fill="black"/>
<path d="M17.6701 24.6082C18.9701 25.6782 20.3801 26.8182 21.0101 28.4282C21.3201 29.2182 21.3901 30.0482 21.2201 30.8782C21.0501 31.7082 20.8401 32.4782 21.2101 33.2582C21.3201 33.4982 21.5701 33.8082 21.8701 33.7482C22.1601 33.6882 22.1801 33.3182 22.0801 33.0982C21.8901 32.6982 22.0101 32.2582 22.1001 31.8482C22.2001 31.4082 22.2901 30.9582 22.3001 30.5082C22.3201 29.5882 22.1001 28.6682 21.7101 27.8482C20.8801 26.1182 19.4201 24.8782 17.9701 23.6882C17.7601 23.5182 17.4501 23.5482 17.3601 23.8082C17.2501 24.0982 17.4701 24.4382 17.6901 24.6082H17.6701Z" fill="black"/>
<path d="M12.49 26.4396C11.64 25.6796 10.65 24.9196 9.42999 25.1696C8.87999 25.2796 8.41999 25.6196 7.95999 25.9296C7.49999 26.2396 7.07999 26.5396 6.65999 26.8896C5.85999 27.5496 5.13999 28.3296 4.63999 29.2496C4.16999 30.1196 3.87999 31.2696 4.55999 32.1096C4.71999 32.3096 5.00999 32.5796 5.29999 32.4596C5.55999 32.3496 5.50999 31.9796 5.36999 31.7896C4.90999 31.2196 5.45999 30.2396 5.77999 29.7096C6.20999 28.9996 6.80999 28.3896 7.43999 27.8596C8.06999 27.3296 8.77999 26.7796 9.51999 26.3996C10.45 25.9296 11.2 26.3996 11.89 27.0196C12.07 27.1796 12.4 27.3896 12.62 27.1796C12.83 26.9896 12.66 26.5996 12.49 26.4396Z" fill="black"/>
<path d="M7.84994 34.0697C9.23994 34.6397 10.6799 34.1097 11.8799 33.3597C12.9499 32.6897 14.0699 31.8397 14.5299 30.6097C14.6599 30.2497 13.5899 29.6597 13.4999 29.9197C13.0799 31.0397 12.1199 31.8397 11.1399 32.4697C10.1599 33.0997 8.74994 33.8797 7.55994 33.3897C7.39994 33.3297 7.12994 33.2797 7.18994 33.5297C7.24994 33.7797 7.63994 33.9897 7.84994 34.0797V34.0697Z" fill="black"/>
<path d="M85.5601 40.1985C88.5601 42.3285 91.2201 44.9285 93.3401 47.9385C93.8901 48.7285 94.5001 49.5685 94.7801 50.4985C95.0601 51.4285 94.8001 52.3885 94.4501 53.2885C93.8001 54.9485 92.9401 56.5185 91.9201 57.9785C90.7301 59.6785 89.3201 61.1885 87.7401 62.5285C87.1801 62.9985 88.0301 63.8985 88.5501 63.4585C91.5201 60.9485 93.8901 57.7985 95.4001 54.2085C95.7801 53.3085 96.1501 52.3385 96.0901 51.3485C96.0301 50.3585 95.5701 49.3785 95.0201 48.5185C93.9801 46.8585 92.7601 45.3085 91.4201 43.8785C89.8301 42.1885 88.0701 40.6685 86.1801 39.3285C85.5401 38.8685 84.9201 39.7485 85.5601 40.2085V40.1985Z" fill="black"/>
<path d="M37.29 67.6711C34.61 70.3311 32.55 73.7711 31.54 77.4211C31.31 78.2611 31.11 79.1511 31.12 80.0311C31.12 80.7911 31.42 81.4911 31.76 82.1611C32.55 83.7011 33.59 85.1211 34.64 86.4811C36.19 88.5011 37.99 90.3211 39.97 91.9111C40.19 92.0911 41.21 91.5011 41.04 91.3611C37.96 88.8711 35.24 85.7511 33.26 82.3111C32.87 81.6411 32.49 80.9311 32.33 80.1611C32.17 79.3911 32.33 78.5011 32.5 77.7211C32.92 75.8911 33.68 74.1811 34.55 72.5211C35.55 70.6011 36.81 68.9211 38.34 67.3911C38.54 67.2011 38.12 67.2511 38.05 67.2711C37.79 67.3211 37.48 67.4711 37.29 67.6611V67.6711Z" fill="black"/>
<path d="M50.77 75.2401C49.7 76.3801 48.58 77.4801 47.41 78.5101C46.48 79.3301 45.03 80.1701 44.66 81.4301C44.47 82.0501 44.7 82.6101 45.02 83.1401C45.41 83.7801 45.8 84.4101 46.16 85.0701C46.94 86.5201 47.57 88.0401 48.07 89.6001C48.18 89.9401 49.37 89.7901 49.31 89.6201C48.86 88.2301 48.32 86.8701 47.66 85.5601C47.32 84.8801 46.95 84.2201 46.55 83.5701C46.18 82.9701 45.72 82.3601 45.86 81.6101C46.11 80.3401 47.71 79.4201 48.61 78.6301C49.78 77.5901 50.9 76.5001 51.97 75.3601C52.1 75.2201 51.01 74.9901 50.77 75.2401Z" fill="black"/>
<path d="M40.08 91.4687C39.02 91.7987 37.94 92.0287 36.86 92.2787C35.88 92.5087 34.76 92.6787 33.86 93.1587C33.11 93.5587 32.65 94.4387 33.53 94.9987C34.41 95.5587 35.67 95.4487 36.66 95.4587C39.65 95.5087 42.65 95.4987 45.64 95.4287C47.14 95.3887 48.63 95.3487 50.13 95.2787C50.51 95.2587 51.01 95.2487 51.28 94.9287C51.6 94.5487 51.54 93.8987 51.5 93.4387C51.42 92.5387 51.09 91.6887 50.49 91.0087C50.14 90.6087 49.47 90.2087 49.31 89.6787C49.2 89.3287 48.02 89.4087 48.07 89.5787C48.18 89.9587 48.47 90.2087 48.74 90.4687C49.15 90.8587 49.53 91.2587 49.8 91.7587C50.2 92.4887 50.35 93.4087 50.26 94.2287C50.17 94.9987 49.5 94.8887 48.89 94.9087C48.22 94.9387 47.55 94.9587 46.88 94.9787C44.36 95.0587 41.84 95.0887 39.32 95.0787C38.06 95.0787 36.8 95.0587 35.54 95.0387C35.15 95.0387 34.65 95.0487 34.39 94.6887C34.06 94.2287 34.42 93.7587 34.81 93.5187C35.66 92.9887 36.84 92.8487 37.81 92.6187C38.86 92.3787 39.91 92.1487 40.94 91.8287C41.17 91.7587 41.16 91.6587 40.96 91.5487C40.75 91.4287 40.32 91.4087 40.08 91.4787V91.4687Z" fill="black"/>
<path d="M62.73 73.5313C65.92 78.7313 68.91 84.0613 71.68 89.5013C71.89 89.9113 73.11 89.7113 72.86 89.2313C70.09 83.7913 67.11 78.4613 63.91 73.2613C63.66 72.8613 62.45 73.0913 62.73 73.5313Z" fill="black"/>
<path d="M78.1601 66.6193C78.7301 71.0493 79.2901 75.4793 79.8601 79.8993C80.1401 82.0793 80.3601 84.2793 80.7101 86.4493C80.8801 87.4793 81.1401 88.4493 81.5001 89.4293C81.8601 90.4093 82.1601 91.2793 82.1901 92.2793C82.2001 92.6993 83.4301 92.5293 83.4101 92.0493C83.3801 91.0493 83.0501 90.1293 82.7201 89.1993C82.3901 88.2693 82.1001 87.2393 81.9301 86.2193C81.5801 84.0493 81.3501 81.8493 81.0801 79.6693C80.5101 75.2393 79.9501 70.8093 79.3801 66.3893C79.3201 65.9493 78.1001 66.1493 78.1601 66.6193Z" fill="black"/>
<path d="M71.9299 89.2817C70.3099 89.9217 68.4799 90.3717 66.9899 91.2917C66.4099 91.6517 65.8999 92.1417 65.7699 92.8417C65.6599 93.4817 65.8999 94.1417 66.5299 94.3817C67.3199 94.6917 68.3699 94.5317 69.1999 94.5417C70.2999 94.5517 71.3999 94.5617 72.5099 94.5817C74.6299 94.6017 76.7399 94.6417 78.8599 94.6517C79.7499 94.6517 80.6499 94.5617 81.4499 94.1317C82.2499 93.7017 82.8199 92.9917 83.3599 92.2817C83.4899 92.1217 82.9299 92.1517 82.8899 92.1617C82.6699 92.1917 82.3099 92.2517 82.1699 92.4417C81.6199 93.1617 80.9499 94.1417 79.9699 94.2117C78.8699 94.2917 77.7399 94.2017 76.6299 94.1817C74.4999 94.1617 72.3799 94.1317 70.2499 94.1117C69.6999 94.1117 69.1499 94.1017 68.5999 94.0917C68.1599 94.0917 67.6699 94.1317 67.3199 93.8117C66.7399 93.2817 66.9299 92.3117 67.3899 91.7817C68.0199 91.0517 69.1299 90.7717 70.0099 90.4317C70.8899 90.0917 71.7499 89.7817 72.6199 89.4417C72.8099 89.3717 72.9499 89.3017 72.7899 89.1617C72.6399 89.0317 72.0899 89.2217 71.9399 89.2817H71.9299Z" fill="black"/>
<path d="M85.6399 55.7705C85.4199 55.1905 85.1799 54.6105 84.9199 54.0405C84.6999 53.5605 84.4899 53.0805 84.1799 52.6605C83.4799 51.7305 82.2499 51.5705 81.1599 51.4905C80.0699 51.4105 79.0899 51.5005 78.1599 52.0105C77.8099 52.2005 77.5299 52.5805 77.3599 52.9305C77.1699 53.3005 76.9699 53.9005 77.0299 54.3305C77.1899 55.4405 78.5599 55.7005 79.4699 55.7505C79.6899 55.7605 80.0399 55.7105 80.0199 55.4205C79.9999 55.1505 79.5899 54.9705 79.3599 54.9505C79.0799 54.9305 78.6699 54.9505 78.4299 54.7905C78.0799 54.5605 78.2999 54.0205 78.3899 53.7105C78.4899 53.3505 78.7199 52.9105 79.0499 52.7005C79.2199 52.5905 79.4299 52.5505 79.6199 52.4805C79.8499 52.3905 80.0599 52.3005 80.3099 52.2805C80.8399 52.2405 81.3699 52.2805 81.8999 52.3405C82.3599 52.4005 82.8099 52.4505 83.1199 52.8305C83.4299 53.2105 83.6199 53.7205 83.8199 54.1705C84.0699 54.7205 84.2899 55.2805 84.5099 55.8405C84.6799 56.2805 85.8799 56.3805 85.6499 55.7705H85.6399Z" fill="black"/>
<path d="M83.6399 56.1191C83.4699 55.6791 82.8799 55.5791 82.4799 55.4791C81.9099 55.3291 81.3299 55.1791 80.7499 55.0891C79.6399 54.9291 78.4999 54.9491 77.4499 55.3591C76.6199 55.6791 75.5699 56.3591 75.5299 57.3491C75.4899 58.3391 76.5499 59.0691 77.3899 59.3291C78.3999 59.6391 79.5599 59.3391 80.5199 59.8091C80.7699 59.9291 81.1799 59.8791 81.3899 59.6991C81.5999 59.5191 81.5699 59.3191 81.3299 59.1991C80.4499 58.7691 79.4499 58.8791 78.4999 58.7691C77.6799 58.6691 76.3699 57.8491 76.8799 56.8591C77.3099 56.0191 78.4699 55.7091 79.3399 55.7091C79.9399 55.7091 80.5299 55.8091 81.1199 55.9491C81.4199 56.0191 81.7199 56.0991 82.0099 56.1791C82.2099 56.2291 82.4099 56.2491 82.4899 56.4491C82.6499 56.8691 83.8599 56.6291 83.6599 56.1091L83.6399 56.1191Z" fill="black"/>
<path d="M81.8499 59.1484C80.9799 59.1984 80.2199 59.5484 79.5399 60.0784C78.8599 60.6084 78.2099 61.2084 77.8999 61.9984C77.6599 62.5984 77.6899 63.3284 78.0799 63.8684C78.5599 64.5184 79.4099 64.5084 80.1399 64.5584C80.6199 64.5884 80.9799 64.7284 81.2999 65.1084C81.5599 65.4184 81.7499 65.7984 82.0499 66.0784C82.5999 66.5984 83.3899 66.7384 84.1199 66.6984C85.4199 66.6184 86.2099 66.0284 87.0599 65.1184C87.9099 64.2084 88.6399 63.1684 89.5299 62.2884C89.7299 62.0884 89.3899 62.0184 89.2499 62.0084C88.9999 61.9884 88.6199 62.0584 88.4299 62.2484C87.6599 63.0184 87.0099 63.9084 86.2899 64.7184C85.5099 65.5984 84.5699 66.8184 83.3199 65.8384C82.7299 65.3684 82.5199 64.5684 81.7999 64.2484C81.0399 63.9184 79.9199 64.2984 79.3299 63.6384C78.7899 63.0284 78.9399 62.1084 79.3299 61.4684C79.7599 60.7784 80.7599 59.7384 81.6099 59.6884C81.7699 59.6884 82.3099 59.5984 82.3299 59.3784C82.3599 59.1484 81.9999 59.1584 81.8499 59.1684V59.1484Z" fill="black"/>
<path d="M82.6699 51.6795C82.8799 51.2795 83.1799 50.9195 83.5699 50.6795C83.9599 50.4395 84.4599 50.2795 84.4299 49.7495C84.4099 49.2895 84.0299 48.8795 83.8399 48.4795C83.6099 47.9995 83.4599 47.4895 83.3899 46.9595C83.3599 46.7495 82.1699 47.0295 82.2099 47.3495C82.2799 47.8495 82.4099 48.3395 82.6199 48.7995C82.8099 49.2095 83.1799 49.6095 83.2399 50.0695C83.2699 50.2895 83.1999 50.3895 83.0199 50.4795C82.8099 50.5895 82.5999 50.7195 82.4199 50.8595C82.0399 51.1595 81.7299 51.5195 81.5099 51.9495C81.4099 52.1395 81.9499 52.0395 81.9999 52.0295C82.2099 51.9795 82.5699 51.8795 82.6799 51.6595L82.6699 51.6795Z" fill="black"/>
</svg>
