<svg width="162" height="185" viewBox="0 0 162 185" fill="none" xmlns="http://www.w3.org/2000/svg">
<g clip-path="url(#clip0_516_1129)">
<rect width="162" height="185" fill="white"/>
<path d="M59.1062 88.226C58.547 91.7863 59.0723 95.4314 60.5974 98.7035C60.7669 99.0595 59.6993 98.7035 59.6315 98.6696C59.2079 98.4831 58.5809 98.2118 58.3775 97.754C56.8355 94.4311 56.3271 90.7013 56.8863 87.0901C56.9202 86.8358 59.2079 87.5818 59.1062 88.226Z" fill="#1B1C1A"/>
<path d="M60.6652 160.72C91.0064 160.72 115.603 134.799 115.603 102.823C115.603 70.8473 91.0064 44.9258 60.6652 44.9258C30.324 44.9258 5.72754 70.8473 5.72754 102.823C5.72754 134.799 30.324 160.72 60.6652 160.72Z" fill="#0D7EBE"/>
<path d="M76.6618 81.582L78.5766 86.5495L81.2032 83.2605L85.1346 87.2616L82.7283 90.6862L87.0155 92.0256L86.7952 97.5017L82.3385 96.3319L84.3381 101.571L79.5256 103.741L77.4243 98.1968L74.2555 102.706L69.2735 98.1968L72.7812 93.8227L67.1553 92.3477L68.172 86.1596L73.5438 87.838L71.5611 82.5654L76.6618 81.582Z" fill="#1B1C1A"/>
<path d="M43.8043 81.582L45.7192 86.5495L48.3627 83.2605L52.2941 87.2616L49.8709 90.6862L54.1581 92.0256L53.9378 97.5017L49.4811 96.3319L51.4976 101.571L46.6681 103.741L44.5838 98.1968L41.3981 102.706L36.4161 98.1968L39.9238 93.8227L34.2979 92.3477L35.3146 86.1596L40.6863 87.838L38.7037 82.5654L43.8043 81.582Z" fill="#1B1C1A"/>
<path d="M64.7661 79.7503C64.2408 83.0054 63.7325 86.2605 63.2071 89.5157C62.936 91.1941 62.6818 92.8556 62.4107 94.534C62.309 95.2121 62.1057 95.9412 62.1565 96.6363C62.1565 96.8397 62.1904 97.0432 62.2582 97.2297L61.9532 97.3992C62.021 97.5009 62.4954 97.5518 62.631 97.5857C64.3933 98.1452 66.1726 98.9759 66.6471 100.926C67.2572 103.52 65.2915 105.622 63.3597 107.029C62.9021 107.368 61.2584 105.91 61.0551 106.046C62.936 104.672 64.8678 102.655 64.3764 100.112C64.3256 99.8236 64.2408 99.5354 64.1222 99.2641C64.0375 99.0946 63.4783 98.4334 63.4952 98.3147C63.3088 98.1452 63.3427 98.1452 63.6308 98.2638C63.9528 98.3486 63.9697 98.3656 63.6986 98.2977C63.4444 98.2299 63.2071 98.1621 62.9699 98.0943C62.1565 97.84 61.1398 97.5009 60.4959 96.9414C59.5638 96.1277 59.9028 94.8731 60.0722 93.805L60.8687 88.7867L62.4615 78.75C62.4615 78.75 64.817 79.3434 64.7661 79.7333V79.7503Z" fill="#1B1C1A"/>
<path d="M160.881 113.234C139.191 113.234 117.518 113.234 95.8272 113.234C95.2002 113.234 93.9293 112.997 93.5904 112.37C93.2515 111.742 93.8954 111.59 94.4546 111.59H159.509C160.136 111.59 161.407 111.827 161.746 112.454C162.085 113.082 161.441 113.234 160.881 113.234Z" fill="#1B1C1A"/>
<path d="M96.2509 113.272C93.8616 124.343 90.2352 135.092 85.4227 145.349C84.9143 146.434 81.6269 145.349 82.0505 144.45C86.8631 134.21 90.4894 123.444 92.8788 112.374C93.116 111.306 96.4882 112.153 96.2509 113.272Z" fill="#1B1C1A"/>
<path d="M161.966 113.235C159.136 120.406 156.035 127.459 152.646 134.376C150.985 137.75 149.274 141.09 147.478 144.396C146.8 145.651 146.207 147.329 144.953 148.16C143.495 149.143 141.411 148.855 139.75 148.872C123.703 149.041 107.639 149.194 91.591 149.364C82.5082 149.448 73.4084 149.55 64.3255 149.635C63.6138 149.635 62.4446 149.414 62.1226 148.668C61.8006 147.973 62.3937 147.533 63.0716 147.533C78.6446 147.38 94.2176 147.227 109.774 147.058C117.518 146.973 125.245 146.905 132.989 146.82C134.819 146.804 136.666 146.787 138.496 146.77C139.378 146.77 140.411 146.871 141.292 146.736C142.309 146.566 142.716 146.007 143.207 145.125C145.105 141.802 146.834 138.361 148.528 134.936C152.205 127.544 155.544 119.983 158.577 112.303C159.085 111.014 162.424 111.997 161.949 113.201L161.966 113.235Z" fill="#1B1C1A"/>
<path d="M84.6771 144.939C79.8137 145.295 74.9503 145.668 70.1039 146.024C67.6807 146.21 65.2405 146.38 62.8173 146.566C61.6989 146.651 60.5805 146.736 59.4451 146.821C58.9367 146.855 58.3606 146.821 57.8692 146.939C57.4116 146.956 57.1066 147.177 56.988 147.584C56.0899 147.431 55.9204 147.346 56.5135 147.329C57.3269 147.194 58.3097 147.329 58.8859 147.973C59.3434 148.465 59.2926 149.228 58.5131 149.347C56.8185 149.618 52.5144 149.109 53.7344 146.346C54.2597 145.159 55.6832 144.905 56.8185 144.786C58.5639 144.6 60.3432 144.515 62.0886 144.396L83.3892 142.803C84.101 142.752 85.2702 143.04 85.5922 143.769C85.9141 144.498 85.3041 144.888 84.6263 144.939H84.6771Z" fill="#1B1C1A"/>
<path d="M25.0455 117.17C25.4861 122.629 30.2309 126.121 35.2468 127.223C38.3309 127.901 41.5167 127.952 44.6686 128.037C47.8204 128.122 50.9723 128.122 54.1073 127.918C55.6154 127.817 57.1405 127.681 58.6317 127.461C60.0043 127.274 61.3769 127.02 62.7665 127.24C65.0541 127.613 67.0537 129.139 68.8499 130.495C70.9342 132.072 72.866 133.869 74.5776 135.836C75.8654 137.294 77.8142 139.616 76.3568 141.617C75.0351 143.431 72.1543 142.465 70.7309 141.346C68.223 139.379 66.4437 136.65 63.0376 136.226C62.0209 136.107 61.1227 134.937 62.6817 135.141C64.8677 135.412 66.8334 136.294 68.5958 137.582C69.4769 138.226 70.2903 138.972 71.0698 139.735C71.4596 140.125 71.8493 140.668 72.3238 140.956C73.5608 141.702 74.3742 141.058 74.5606 139.939C74.9504 137.531 71.8154 134.937 70.2564 133.445C68.4263 131.699 66.342 129.919 64.0882 128.732C62.597 127.952 61.038 128.41 59.4451 128.613C57.937 128.8 56.4288 128.936 54.9037 129.02C52.0738 129.19 49.2269 129.207 46.397 129.156C41.3133 129.054 35.9755 128.986 31.2137 126.969C26.9943 125.189 23.1646 121.595 22.7918 116.814C22.724 116.034 24.9778 116.475 25.0286 117.136L25.0455 117.17Z" fill="#1B1C1A"/>
<path d="M62.3936 133.563C63.3086 135.631 65.9691 141.616 61.936 142.159C61.2074 142.26 60.4787 142.04 59.8348 141.735C59.3095 141.48 59.3942 141.43 58.9706 141.769C58.7164 141.972 58.5469 142.243 58.2588 142.43C56.7337 143.413 55.1917 142.667 53.5819 142.532L54.48 142.345C53.3446 143.159 52.3787 143.532 50.9722 143.6C49.3285 143.667 47.617 143.549 45.9902 143.227C43.3467 142.718 39.9237 141.345 39.7034 138.208C39.6356 137.276 41.8894 137.717 41.9572 138.48C42.1605 141.548 45.6513 142.108 48.1084 142.26C49.2607 142.328 50.718 142.498 51.7687 141.921C52.2262 141.667 52.4634 141.311 53.0057 141.26C53.5988 141.209 54.158 141.446 54.7342 141.565C55.4628 141.718 56.1237 141.684 56.6829 141.158C57.0388 140.819 57.2591 140.429 57.7335 140.243C58.8519 139.819 59.6314 140.48 60.6312 140.734C62.2241 141.141 61.7666 138.174 61.5802 137.395C61.2243 135.987 60.7329 134.631 60.1398 133.309C59.9195 132.834 60.8854 132.783 61.1057 132.817C61.6141 132.868 62.1563 133.105 62.3766 133.58L62.3936 133.563Z" fill="#1B1C1A"/>
<path d="M12.3024 118.642C10.8789 121.778 11.3195 125.254 12.1498 128.492C12.9802 131.73 14.7425 134.782 17.7419 136.579C20.9446 138.495 25.0624 139.02 28.7227 139.41C32.1118 139.783 35.7212 140.02 38.7206 138.105C39.2798 137.749 41.1946 138.664 40.8218 138.885C37.6699 140.902 33.8233 140.783 30.2308 140.444C26.0961 140.037 21.7411 139.41 17.9114 137.715C14.4544 136.172 11.7093 133.442 10.4383 129.848C9.15047 126.203 8.38792 121.693 10.0486 118.048C10.3197 117.455 12.4888 118.201 12.2854 118.642H12.3024Z" fill="#1B1C1A"/>
<path d="M51.4467 73.8677C51.0061 71.4094 48.5151 69.8157 46.2613 69.2054C43.6517 68.4764 41.2116 70.816 39.4662 72.4435C38.9747 72.9013 36.8904 72.0706 37.3649 71.6298C38.585 70.4939 39.8729 69.358 41.398 68.6459C43.0247 67.883 44.7871 67.8491 46.4986 68.3068C49.3454 69.0867 53.0904 71.0025 53.6666 74.2067C53.7852 74.9019 51.5484 74.5119 51.4467 73.8677Z" fill="#1B1C1A"/>
<path d="M84.5246 73.8677C84.084 71.4094 81.593 69.8157 79.3392 69.2054C76.7296 68.4764 74.2894 70.816 72.544 72.4435C72.0526 72.9013 69.9683 72.0706 70.4428 71.6298C71.6629 70.4939 72.9507 69.358 74.4758 68.6459C76.1026 67.883 77.865 67.8491 79.5765 68.3068C82.4233 69.0867 86.1683 71.0025 86.7445 74.2067C86.8631 74.9019 84.6263 74.5119 84.5246 73.8677Z" fill="#1B1C1A"/>
<path d="M126.329 126.393C126.329 125.833 126.245 125.257 126.058 124.731C125.974 124.494 125.855 124.257 125.719 124.019C125.669 123.918 125.601 123.816 125.533 123.714C125.499 123.663 125.33 123.511 125.431 123.561L125.974 123.816H125.872C126.16 123.799 126.431 123.816 126.719 123.816C126.838 123.714 126.838 123.714 126.736 123.816L126.533 124.07L126.228 124.443C125.991 124.731 125.753 125.019 125.516 125.325C125.279 125.63 125.075 125.918 124.804 126.155C124.364 126.562 123.669 126.494 123.178 126.257C122.5 125.935 122.212 125.189 121.788 124.613C121.585 124.341 121.364 124.07 121.127 123.816C121.009 123.697 120.89 123.561 120.771 123.443C120.737 123.409 120.449 123.222 120.619 123.29L121.212 123.443C121.568 123.324 121.652 123.324 121.449 123.443C121.449 123.477 121.415 123.494 121.398 123.511C121.314 123.595 121.263 123.714 121.195 123.816C121.042 124.087 120.924 124.358 120.805 124.647C120.551 125.24 120.348 125.867 120.178 126.494C119.941 127.427 117.687 126.851 117.941 125.901C118.145 125.07 118.433 124.274 118.823 123.494C119.212 122.714 119.636 122.002 120.585 121.934C121.669 121.866 122.432 122.629 123.076 123.375C123.364 123.714 123.652 124.053 123.906 124.426C124.11 124.697 124.381 125.223 124.55 125.376L124.11 125.07L124.194 125.104L123.313 124.935H123.398C123.194 125.02 122.974 125.104 122.771 125.206C123.076 124.935 123.313 124.562 123.584 124.24C123.821 123.951 124.059 123.663 124.296 123.358C124.533 123.053 124.77 122.697 125.109 122.51C125.618 122.222 126.296 122.341 126.787 122.595C127.448 122.951 127.871 123.731 128.16 124.392C128.448 125.053 128.617 125.816 128.617 126.579C128.617 127.122 128.058 127.257 127.6 127.223C127.211 127.19 126.346 126.901 126.346 126.376L126.329 126.393Z" fill="#1B1C1A"/>
<path d="M110.79 1.6465C107.384 5.95277 105.961 11.2085 105.402 16.5828C104.724 23.0422 104.842 29.6203 104.673 36.1136C104.588 39.5552 104.487 42.9799 104.419 46.4215C104.368 49.2019 104.402 52.0671 105.114 54.7798C106.554 60.205 110.994 63.2736 116.179 64.7316C121.991 66.3592 128.532 66.9526 134.531 66.2575C139.937 65.6302 144.105 62.9345 146.342 57.8823C148.816 52.3214 149.579 45.7434 150.274 39.7587C151.07 32.9263 151.341 25.9922 150.782 19.1428C150.477 15.3791 149.901 11.5984 148.867 7.97028C147.969 4.83382 146.173 3.22321 143.055 2.40943C135.717 0.476691 128.007 -0.167554 120.432 0.0358921C118.755 0.0867535 118.145 2.23989 120.161 2.17207C126.482 2.00253 132.786 2.54506 138.971 3.83355C141.547 4.37607 144.427 4.76601 145.529 7.51252C146.647 10.3438 147.088 13.6498 147.478 16.6506C149.003 28.3996 147.833 40.8268 145.156 52.3384C143.97 57.4415 141.903 62.6972 136.226 63.8839C130.549 65.0707 124.398 64.3247 119.009 63.0363C114.095 61.8664 109.638 59.4251 108.147 54.2711C106.639 49.0663 107.486 43.0986 107.622 37.7412C107.774 31.4344 107.757 25.0767 108.181 18.7699C108.571 13.0225 109.587 7.10563 113.264 2.47724C114.417 1.00226 111.621 0.578414 110.79 1.62955V1.6465Z" fill="black"/>
<path d="M60.8007 112.42C62.4783 111.844 64.4101 112.251 65.7827 113.387C66.308 113.828 67.0367 114.641 67.0197 115.37C67.0028 115.879 66.5114 116.184 66.1555 116.455C65.7319 116.778 65.2913 117.083 64.8337 117.371L64.1898 116.421C64.6473 116.557 65.1388 116.557 65.6132 116.625C66.1725 116.71 66.7317 116.845 67.2231 117.1C68.0026 117.507 68.6296 118.252 68.7651 119.134C69.0532 121.016 67.1892 122.016 65.7149 122.627C65.2913 122.796 64.7321 122.677 64.3593 122.44C64.122 122.288 63.7662 121.864 64.1898 121.694C65.2913 121.236 66.8672 120.558 66.8672 119.134C66.8672 118.693 66.6469 118.032 66.2402 117.778C65.9691 117.608 65.5455 117.642 65.2404 117.608C64.7999 117.557 64.3423 117.49 63.9187 117.371C63.5798 117.269 62.6817 116.811 63.2748 116.421C63.834 116.082 64.5287 115.676 64.9524 115.167C65.2743 114.794 64.6812 114.116 64.4101 113.845C63.817 113.285 63.1053 113.065 62.3258 113.336C61.8852 113.488 61.3599 113.404 60.9701 113.149C60.7499 113.014 60.3601 112.556 60.8007 112.403V112.42Z" fill="#1B1C1A"/>
<path d="M66.003 117.335C73.8996 117.945 81.8302 117.131 89.4387 114.961C89.8115 114.859 91.0655 114.486 90.913 113.893C90.7605 113.3 89.4218 113.622 89.1168 113.706C82.2877 115.656 75.1705 116.368 68.0873 115.826C67.3247 115.775 66.3758 115.961 65.7657 116.453C65.2913 116.826 65.3082 117.284 66.003 117.335Z" fill="#1B1C1A"/>
<path d="M104.453 109.503C113.112 105.841 117.687 97.805 121.737 89.8197C123.381 86.5646 125.025 83.2756 126.143 79.7831C127.397 75.8837 127.889 71.7978 128.227 67.712C128.414 65.5249 123.449 66.3896 123.296 68.2375C122.991 72.0013 122.551 75.765 121.5 79.4101C120.585 82.5635 119.162 85.5304 117.687 88.4634C114.095 95.618 110.265 103.858 102.453 107.163C101.674 107.486 100.521 108.418 101.199 109.334C101.877 110.249 103.656 109.842 104.487 109.486L104.453 109.503Z" fill="#1B1C1A"/>
<path d="M144.021 11.7833C141.581 7.95176 136.056 8.54515 133.006 9.59628C125.635 12.1563 126.126 9.01985 122.364 8.03653C118.297 6.9854 115.264 10.6644 115.264 10.6644C110.096 17.2085 111.112 26.5501 110.706 44.5042C110.299 62.4583 124.33 60.4747 133.023 61.7632C141.699 63.0517 144.139 47.4202 144.427 45.7927C144.716 44.1651 147.884 17.768 144.038 11.7664L144.021 11.7833ZM134.616 41.9611C131.362 43.453 129.922 42.4528 124.211 39.1129C118.484 35.773 124.737 33.2469 124.737 33.2469C125.906 32.5009 132.65 33.4333 134.87 35.5526C137.09 37.6548 137.886 40.4861 134.616 41.9781V41.9611Z" fill="#0D7EBE"/>
<path d="M112.129 18.3077C121.517 16.1376 131.227 17.3074 140.682 18.4264C141.411 18.5111 142.462 18.3755 143.004 17.7991C143.428 17.3583 143.478 16.7988 142.716 16.714C132.396 15.4934 121.974 14.4083 111.739 16.7649C111.282 16.8666 110.129 17.3244 110.316 17.9686C110.502 18.6129 111.739 18.3925 112.163 18.2907L112.129 18.3077Z" fill="#1B1C1A"/>
<path d="M123.703 35.333C123.55 33.4511 124.635 31.7218 126.431 31.5014C127.499 31.3658 128.617 31.637 129.634 31.9253C130.752 32.2474 131.939 32.6373 132.989 33.1798C134.887 34.1632 135.395 36.5706 135.582 38.5372C135.684 39.4867 135.582 40.6226 134.735 41.2329C134.074 41.7076 133.142 41.7585 132.362 41.7076C129.786 41.5042 127.6 39.8257 125.957 37.9439C125.228 37.1131 122.093 38.2829 122.907 39.2154C124.991 41.6059 127.736 43.2843 130.939 43.5217C133.718 43.7251 138.141 42.7079 138.802 39.4867C139.09 38.1134 138.768 36.5197 138.361 35.1973C137.954 33.875 137.276 32.7221 136.124 31.9592C134.802 31.0945 133.125 30.6198 131.634 30.196C130.142 29.7721 128.397 29.5178 126.77 29.7552C123.381 30.2299 120.111 32.4508 120.416 36.2146C120.5 37.2488 123.788 36.5706 123.686 35.333H123.703Z" fill="#1B1C1A"/>
<path d="M137.514 36.9229C134.26 35.7531 130.854 35.0071 127.414 34.685C126.651 34.6172 125.635 34.9223 125.279 35.6852C124.923 36.4482 125.584 36.9737 126.262 37.0246C129.498 37.3128 132.532 37.991 135.599 39.093C136.361 39.3642 137.395 39.093 137.92 38.4657C138.446 37.8384 138.225 37.1772 137.514 36.9229Z" fill="#1B1C1A"/>
<path d="M111.282 47.9976C119.551 47.3533 127.871 48.184 135.836 50.4898C136.632 50.7271 137.615 50.5576 138.157 49.8625C138.598 49.286 138.479 48.4214 137.717 48.201C129.227 45.7427 120.382 44.8102 111.553 45.4884C110.824 45.5392 109.841 46.014 109.757 46.8447C109.672 47.6754 110.604 48.0315 111.282 47.9806V47.9976Z" fill="#1B1C1A"/>
<path d="M140.14 50.2854L140.987 50.794C141.089 50.8449 141.208 50.8618 141.326 50.8618C141.496 50.8788 141.648 50.8618 141.818 50.8618C142.021 50.8449 142.241 50.811 142.445 50.7431C142.665 50.6923 142.885 50.6414 143.089 50.5567L143.462 50.4041C143.665 50.3193 143.834 50.2176 144.004 50.0989L144.139 49.9463C144.19 49.8446 144.173 49.7768 144.072 49.709L143.224 49.2004C143.123 49.1495 143.004 49.1325 142.885 49.1325C142.716 49.1156 142.563 49.1325 142.394 49.1325C142.191 49.1495 141.97 49.1834 141.767 49.2512C141.547 49.3021 141.326 49.3529 141.123 49.4377L140.75 49.5903C140.547 49.6751 140.377 49.7768 140.208 49.8955L140.072 50.048C140.022 50.1498 140.039 50.2176 140.14 50.2854Z" fill="#1B1C1A"/>
<path d="M114.671 22.362C113.298 22.6671 112.315 23.7352 111.858 25.0407C111.671 25.6001 111.519 26.2783 111.671 26.8717C111.875 27.6515 112.654 27.9228 113.4 27.9398C114.383 27.9567 115.383 27.7194 116.264 27.2955C116.467 27.1938 116.942 26.9056 116.704 26.6343C116.467 26.38 115.891 26.4817 115.62 26.6174C115.45 26.7021 115.264 26.7869 115.094 26.8378C115.247 26.7869 114.942 26.8717 114.908 26.8886C114.823 26.9056 114.756 26.9225 114.671 26.9395C114.84 26.9056 114.518 26.9564 114.484 26.9564C114.4 26.9564 114.315 26.9734 114.23 26.9734C114.129 26.9734 114.129 26.9734 114.196 26.9734C114.146 26.9734 114.095 26.9734 114.044 26.9734C114.044 26.9734 113.824 26.9734 113.942 26.9734C113.688 26.9395 113.468 26.8208 113.366 26.5495C113.247 26.2444 113.264 25.9392 113.315 25.634C113.4 25.0407 113.603 24.4812 113.925 23.9895C114.112 23.7183 114.213 23.6165 114.451 23.3961C114.484 23.3622 114.484 23.3622 114.434 23.3961C114.467 23.3792 114.501 23.3453 114.535 23.3283C114.569 23.3114 114.603 23.2775 114.637 23.2605C114.552 23.2944 114.535 23.3114 114.586 23.2775C114.654 23.2436 114.722 23.2096 114.789 23.1927C114.552 23.2266 114.84 23.1927 114.874 23.1927C115.128 23.1418 115.671 22.8875 115.586 22.5484C115.501 22.2094 114.891 22.2941 114.654 22.345L114.671 22.362Z" fill="#1B1C1A"/>
<path d="M119.195 23.0901C118.179 23.7513 117.806 25.0737 118.094 26.2266C118.162 26.4978 118.297 26.803 118.518 27.0064C118.856 27.3116 119.297 27.4133 119.755 27.3794C120.585 27.3116 121.314 26.786 121.873 26.2096C122.127 25.9383 122.398 25.6332 122.534 25.2771C122.669 24.9211 122.686 24.4634 122.364 24.1921C122.076 23.9208 121.602 23.9547 121.263 24.1243C121.11 24.2091 120.907 24.3108 120.839 24.4803C120.788 24.599 120.737 24.7855 120.856 24.8872C120.89 24.9211 120.924 24.955 120.941 24.9889C120.907 24.8872 120.941 24.972 120.941 24.9889C120.941 25.0059 120.941 25.0398 120.958 25.0567C120.975 25.0737 120.958 25.1076 120.958 25.1246C120.958 25.1246 120.958 25.0398 120.958 25.1076C120.958 25.1754 120.941 25.2263 120.924 25.2771C120.924 25.1924 120.924 25.2602 120.924 25.2771C120.924 25.2941 120.907 25.328 120.89 25.345C120.873 25.3958 120.839 25.4297 120.805 25.4806C120.805 25.4975 120.771 25.5315 120.754 25.5484C120.754 25.5315 120.839 25.4467 120.754 25.5484C120.703 25.5993 120.67 25.6501 120.619 25.701C120.534 25.8027 120.449 25.8875 120.348 25.9723C120.314 26.0062 120.263 26.074 120.212 26.0909C120.212 26.0909 120.314 26.0062 120.246 26.057C120.212 26.074 120.178 26.1079 120.161 26.1248C120.11 26.1587 120.06 26.2096 120.009 26.2435C119.992 26.2435 119.958 26.2774 119.941 26.2944C119.873 26.3452 119.992 26.2605 120.009 26.2605C119.958 26.2605 119.907 26.3113 119.856 26.3283C119.721 26.3961 119.89 26.3113 119.907 26.3113C119.89 26.3113 119.822 26.3283 119.805 26.3452C119.805 26.3452 119.992 26.3113 119.89 26.3283C119.805 26.3283 119.975 26.3283 119.975 26.3283C119.873 26.3283 119.958 26.3283 119.975 26.3283C120.077 26.3283 119.924 26.2944 119.992 26.3283C120.06 26.3622 119.941 26.2944 119.924 26.2774C119.873 26.2435 119.941 26.2774 119.958 26.2944C119.941 26.2774 119.924 26.2435 119.89 26.2266C119.856 26.1927 119.822 26.1418 119.805 26.0909C119.771 26.0401 119.805 26.0909 119.805 26.1079C119.805 26.0909 119.788 26.057 119.771 26.0401C119.721 25.9383 119.704 25.8366 119.67 25.7179C119.653 25.6162 119.636 25.5145 119.619 25.4128C119.619 25.3619 119.619 25.3111 119.619 25.2771C119.619 25.3789 119.619 25.2432 119.619 25.2093C119.619 24.9889 119.653 24.7855 119.687 24.582C119.687 24.5312 119.721 24.4803 119.738 24.4295C119.738 24.4125 119.738 24.3786 119.755 24.3616C119.738 24.4295 119.755 24.4125 119.755 24.3616C119.788 24.2599 119.839 24.1751 119.907 24.0734C119.907 24.0395 119.941 24.0226 119.958 23.9887C119.958 23.9717 120.043 23.9039 119.958 23.9717C119.89 24.0395 120.009 23.9208 120.026 23.9039C120.026 23.9039 120.06 23.87 120.077 23.853C120.161 23.7683 120.11 23.853 120.06 23.853C120.11 23.8361 120.161 23.7852 120.212 23.7513C120.466 23.5818 120.67 23.1918 120.331 22.9884C119.975 22.7849 119.483 22.9036 119.161 23.1071L119.195 23.0901Z" fill="#1B1C1A"/>
<path d="M127.295 21.7866L126.855 21.1084C126.702 20.8711 126.296 20.888 126.075 20.9219C125.787 20.9728 125.465 21.1254 125.33 21.3797C124.465 22.9903 123.855 24.7535 123.516 26.5506C123.449 26.9405 123.974 27.0592 124.262 27.0253C124.618 26.9914 125.092 26.7879 125.177 26.398C125.499 24.6857 126.075 23.0581 126.889 21.5153L125.364 21.7866L125.804 22.4647C126.007 22.7868 126.618 22.6851 126.906 22.5495C127.194 22.4139 127.533 22.1087 127.312 21.7696L127.295 21.7866Z" fill="#1B1C1A"/>
<path d="M124.245 24.3625C124.669 24.3286 125.075 24.2947 125.499 24.2777C125.601 24.2777 125.702 24.2777 125.804 24.2777C125.618 24.2777 125.99 24.2777 125.804 24.2777C125.855 24.2777 125.906 24.2777 125.956 24.2777C126.177 24.2777 126.397 24.2777 126.6 24.2777C126.804 24.2777 127.041 24.2438 127.244 24.159C127.397 24.0912 127.6 23.9556 127.668 23.803C127.736 23.6674 127.753 23.5148 127.651 23.3961C127.532 23.2775 127.363 23.2096 127.193 23.1927C126.278 23.1588 125.346 23.1927 124.431 23.2774C124.228 23.2944 123.991 23.3792 123.821 23.4978C123.703 23.5826 123.533 23.7352 123.533 23.8878C123.499 24.2777 123.974 24.3794 124.262 24.3455L124.245 24.3625Z" fill="#1B1C1A"/>
<path d="M131.854 21.2453C131.21 20.9401 130.261 21.2284 129.82 21.7709C129.498 22.1778 129.447 22.7712 129.363 23.2459C129.159 24.3479 129.058 25.4499 129.041 26.5688C129.041 26.9248 129.464 26.9757 129.752 26.9248C129.973 26.8909 130.193 26.8231 130.379 26.7214C130.481 26.6536 130.684 26.518 130.684 26.3654C130.684 25.5346 130.752 24.7039 130.871 23.8732C130.922 23.4832 130.99 23.0763 131.074 22.6864C131.108 22.4829 131.142 22.2965 131.21 22.093C131.21 22.0591 131.261 21.9743 131.261 21.9404C131.311 21.8726 131.311 21.8557 131.295 21.8896C131.074 22.0421 130.837 22.093 130.549 22.0421C130.905 22.2117 131.396 22.093 131.701 21.8896C131.922 21.7539 132.193 21.4149 131.837 21.2453H131.854Z" fill="#1B1C1A"/>
<path d="M128.939 24.2631H131.074C131.295 24.2631 131.515 24.2122 131.718 24.1275C131.854 24.0766 132.074 23.9579 132.159 23.8223C132.227 23.7206 132.26 23.6019 132.159 23.5171C132.04 23.4154 131.871 23.3984 131.718 23.3984H129.583C129.363 23.3984 129.142 23.4493 128.939 23.5341C128.804 23.5849 128.583 23.7036 128.498 23.8392C128.431 23.941 128.397 24.0596 128.498 24.1444C128.617 24.2461 128.787 24.2631 128.939 24.2631Z" fill="#1B1C1A"/>
<path d="M133.175 25.1445C134.26 25.2293 135.344 25.2293 136.429 25.1445C137.022 25.0937 137.717 24.958 138.039 24.3986C138.31 23.9408 138.005 23.3983 137.768 22.9914C137.53 22.5845 137.208 22.2793 136.785 22.1268C136.124 21.8894 135.361 22.398 134.921 22.8558C134.277 23.5339 133.819 24.4664 133.514 25.348C133.345 25.8566 133.057 26.4839 133.463 26.9586C133.904 27.4842 134.633 27.5011 135.26 27.4333C135.599 27.3994 136.124 27.1959 136.175 26.7891C136.226 26.3822 135.734 26.2635 135.429 26.2974C135.361 26.2974 135.31 26.2974 135.243 26.2974C135.209 26.2974 135.056 26.2974 135.192 26.2974C135.141 26.2974 135.09 26.2974 135.039 26.2974C134.972 26.2635 135.141 26.3143 135.039 26.2974C135.107 26.3313 134.972 26.2465 134.972 26.2465C134.989 26.2465 135.022 26.2804 134.972 26.2465L134.938 26.1957C134.938 26.1787 134.921 26.1279 134.921 26.1109C134.921 25.9414 135.005 25.6871 135.056 25.5514C135.124 25.331 135.226 25.1106 135.31 24.8902C135.497 24.4664 135.717 24.0595 135.971 23.6695C135.988 23.6356 136.022 23.6017 136.039 23.5509C135.988 23.6356 136.073 23.517 136.073 23.5C136.141 23.4152 136.192 23.3474 136.276 23.2627C136.276 23.2627 136.412 23.127 136.344 23.1948C136.276 23.2627 136.429 23.127 136.429 23.127C136.48 23.1101 136.497 23.0762 136.429 23.127C136.497 23.0931 136.548 23.0762 136.615 23.0423L135.785 23.127C135.904 23.1609 135.751 23.0931 135.819 23.127C135.853 23.144 135.887 23.1609 135.921 23.1948C135.954 23.2118 136.022 23.2796 135.954 23.2287C135.988 23.2627 136.005 23.2796 136.039 23.3135C136.158 23.4491 136.276 23.6356 136.344 23.7543C136.344 23.7713 136.412 23.9069 136.446 23.9747C136.463 24.0256 136.48 24.1103 136.497 24.1443C136.581 24.229 136.463 24.1443 136.514 24.1612C136.514 24.1612 136.615 24.0595 136.632 24.0425C136.683 23.9917 136.751 23.9747 136.819 23.9408C136.666 23.9917 136.937 23.9408 136.853 23.9408C136.802 23.9408 136.734 23.9408 136.683 23.9408C136.192 23.9747 135.7 24.0086 135.209 24.0086C135.209 24.0086 135.005 24.0086 135.073 24.0086C135.141 24.0086 134.921 24.0086 134.938 24.0086C134.819 24.0086 134.684 24.0086 134.565 24.0086C134.311 24.0086 134.04 23.9747 133.785 23.9578C133.396 23.9239 132.904 24.0764 132.718 24.4494C132.531 24.8224 132.87 25.0598 133.209 25.0937L133.175 25.1445Z" fill="#1B1C1A"/>
<path d="M138.92 25.5144C139.954 25.7348 141.004 25.8365 142.055 25.8026C142.682 25.7856 143.343 25.7348 143.919 25.4466C144.309 25.2431 144.631 24.904 144.529 24.4293C144.427 24.0055 144.021 23.819 143.631 23.7681C142.987 23.6834 142.258 23.9038 141.716 24.2598C140.936 24.7684 140.615 25.7348 140.36 26.5825C140.225 27.0402 140.038 27.5828 140.326 28.0236C140.631 28.4983 141.123 28.6339 141.648 28.6169C142.004 28.6169 142.495 28.4813 142.733 28.21C142.987 27.9218 142.512 27.8879 142.326 27.8879C142.411 27.8879 142.445 27.8879 142.326 27.8879C142.275 27.8879 142.241 27.854 142.19 27.8371C142.089 27.7692 141.97 27.6845 141.902 27.5658C141.733 27.2945 141.75 26.9894 141.835 26.7012C142.004 26.04 142.207 25.3618 142.58 24.7854C142.648 24.6836 142.733 24.5819 142.817 24.4802C142.851 24.4463 142.868 24.4293 142.902 24.3954L142.97 24.3446C142.97 24.3785 142.817 24.4124 142.784 24.4293C142.699 24.4632 142.445 24.4972 142.445 24.4802C142.445 24.4802 142.394 24.4802 142.479 24.4802C142.394 24.4802 142.546 24.4972 142.563 24.5141C142.665 24.565 142.75 24.6328 142.8 24.7345C142.851 24.8362 142.885 24.9549 142.868 25.0566C142.868 25.1244 142.817 25.2601 142.784 25.2601L142.919 25.1753L143.309 25.0566C143.309 25.0566 143.444 25.0566 143.36 25.0566C143.275 25.0566 143.19 25.0566 143.106 25.0736C142.919 25.0736 142.716 25.0905 142.529 25.0905C142.394 25.0905 142.224 25.0905 142.021 25.0905C141.818 25.0905 141.614 25.0736 141.411 25.0397C141.021 25.0058 140.615 24.938 140.225 24.8532C139.835 24.7684 139.411 24.8701 139.072 25.0566C138.937 25.1244 138.496 25.4466 138.886 25.5313L138.92 25.5144Z" fill="#1B1C1A"/>
<path d="M0.457531 26.0217C-0.033892 32.6337 -0.135566 39.2795 0.186401 45.9254C0.254183 47.2648 5.18536 46.3323 5.10063 44.603C4.77866 38.1775 4.86339 31.7351 5.35481 25.3266C5.43954 24.3093 3.98222 24.3771 3.28745 24.4619C2.59268 24.5467 0.542259 25.0553 0.474476 26.0217H0.457531Z" fill="#1B1C1A"/>
<path d="M2.84694 53.9139L3.3553 54.4225C3.50781 54.5242 3.69422 54.592 3.88062 54.592C4.1348 54.6429 4.37204 54.6599 4.62622 54.626C4.94819 54.626 5.25321 54.5581 5.55823 54.4903C5.89714 54.4225 6.21911 54.3377 6.54108 54.2191L7.10028 53.9817C7.38836 53.8461 7.65949 53.6596 7.89673 53.4392L8.08313 53.1679C8.16786 52.9814 8.11702 52.8288 7.96451 52.7102L7.45614 52.2016C7.30363 52.0998 7.11723 52.032 6.93083 52.032C6.67664 51.9812 6.4394 51.9642 6.18522 51.9981C5.86325 51.9981 5.55823 52.0659 5.25321 52.1337C4.9143 52.2016 4.59233 52.2863 4.27037 52.405L3.71116 52.6424C3.42309 52.778 3.15196 52.9645 2.91472 53.1849L2.72832 53.4561C2.64359 53.6426 2.69443 53.7952 2.84694 53.9139Z" fill="#1B1C1A"/>
<path d="M81.8812 52.4407C65.9693 52.4407 50.0574 52.4407 34.1454 52.4407C33.5185 52.4407 34.3827 51.966 34.4844 51.8812C34.9249 51.5421 35.8231 51.2539 36.3823 51.2539C52.2942 51.2539 68.2061 51.2539 84.118 51.2539C84.745 51.2539 83.8808 51.7286 83.7791 51.8134C83.3385 52.1525 82.4404 52.4407 81.8812 52.4407Z" fill="#2F3031"/>
<path d="M73.6795 48.1128C70.8327 42.2807 68.0027 36.4485 65.1559 30.6164L67.7316 30.3113C66.2404 32.2949 64.6306 34.1767 62.8682 35.906C61.4787 37.2623 59.4791 39.7037 57.4456 40.0258C56.4628 40.1784 55.768 39.7545 55.0563 39.1103C54.0735 38.2457 53.1414 37.3301 52.1247 36.5164C50.159 34.9566 47.8714 33.2782 45.499 32.3796L46.4818 32.4644L46.109 32.5322L47.3291 31.7693C46.6004 32.7187 46.9224 34.9566 46.8885 36.0925C46.8546 37.6692 46.7529 39.229 46.5665 40.8057C46.2107 43.8065 45.5837 46.7734 44.7195 49.6725C44.3636 50.8254 41.5506 51.2492 42.0082 49.7234C42.9741 46.5191 43.618 43.264 43.9061 39.9241C44.0417 38.3982 44.0586 36.8724 44.1094 35.3296C44.1433 34.1598 44.0755 32.5661 44.7025 31.5319C46.126 29.1075 49.1253 31.2946 50.7013 32.2779C51.9552 33.0578 53.1584 33.9055 54.3107 34.821C54.9038 35.2787 55.463 35.7534 56.0222 36.2451C56.5814 36.7368 57.4117 37.8557 58.1404 37.9913L57.0728 38.11C57.8862 37.8388 58.6488 36.9572 59.2927 36.3807C60.0214 35.7195 60.75 35.0414 61.4278 34.3293C62.8174 32.9052 64.0883 31.3963 65.2914 29.8027C65.7829 29.1415 67.3588 28.4803 67.8672 29.4975C70.714 35.3296 73.544 41.1617 76.3908 46.9938C76.95 48.1467 74.2726 49.2826 73.6795 48.0958V48.1128Z" fill="#2F3031"/>
<path d="M80.2205 148.615C84.3213 148.242 88.9305 148.615 92.6924 150.395C96.0816 152.006 97.1661 155.346 96.8949 158.906C96.3696 165.993 91.8621 172.368 85.7278 175.775C84.9313 176.216 83.0673 175.657 84.3891 174.911C89.8625 171.859 93.6753 166.213 94.5056 160.008C94.9293 156.855 94.4039 153.295 91.3707 151.65C87.9985 149.802 83.5418 149.582 79.7968 149.921C79.4071 149.955 78.797 149.785 78.8648 149.31C78.9326 148.836 79.8307 148.666 80.2035 148.632L80.2205 148.615Z" fill="#1B1C1A"/>
<path d="M61.0719 149.172C63.9696 149.494 68.511 149.969 70.1378 152.8C71.002 154.292 71.0867 156.208 71.2053 157.903C71.3409 159.717 71.2901 161.531 70.9173 163.328C69.5447 170.042 63.6476 174.213 58.2589 177.671C56.988 178.485 57.6488 176.62 58.3267 176.179C63.1731 173.077 68.5449 169.533 69.4091 163.362C69.6294 161.786 69.6125 160.192 69.4599 158.615C69.3244 157.157 69.2058 155.496 68.3754 154.241C66.7656 151.783 62.4783 151.376 59.8179 151.088C59.0892 151.003 60.3093 149.121 61.0719 149.206V149.172Z" fill="#1B1C1A"/>
<path d="M87.9308 173.349C89.5915 175.791 91.4386 179.13 89.1848 181.826C87.2361 184.149 83.6436 183.979 80.9831 183.284C74.2388 181.504 70.0532 175.57 66.4946 170.009C65.8507 169.009 67.9011 167.992 68.4603 168.84C71.375 173.366 74.5269 178.113 79.475 180.622C81.4237 181.606 84.5587 182.725 86.6938 181.707C87.9308 181.114 88.1681 179.554 87.9308 178.334C87.6597 176.926 86.7955 175.689 85.999 174.519C85.3382 173.536 87.3886 172.502 87.9647 173.349H87.9308Z" fill="#1B1C1A"/>
<path d="M63.1732 174.048C64.7661 176.438 66.1895 179.303 64.5797 182.084C63.1224 184.627 59.7332 185.271 57.0389 184.881C53.7176 184.39 51.396 182.135 49.1761 179.812C47.956 178.524 46.7529 177.201 45.5837 175.862C44.9736 175.167 44.3636 174.472 43.7705 173.76C43.2791 173.2 42.5165 172.556 42.3301 171.793C42.1437 171.03 42.5335 170.318 42.8215 169.674C43.2452 168.707 43.6858 167.724 44.1263 166.758C45.0583 164.672 45.9904 162.604 46.9054 160.519C47.0749 160.146 47.5494 159.434 48.0577 159.552C48.5661 159.671 48.5153 160.298 48.3458 160.688C47.5494 162.485 46.736 164.299 45.9395 166.096C45.5667 166.927 45.1939 167.758 44.8211 168.589C44.6347 168.996 44.4314 169.419 44.2619 169.843C44.0416 170.42 43.9738 170.403 44.2958 170.911C44.7194 171.606 45.4311 172.234 45.9734 172.861C46.5835 173.556 47.1935 174.268 47.8035 174.946C48.9897 176.286 50.1759 177.591 51.4299 178.88C53.8531 181.355 56.683 183.305 60.3263 182.83C61.8514 182.643 63.5799 182.169 63.6477 180.388C63.7155 178.608 62.614 177.133 61.7159 175.777C61.2245 175.048 62.6479 173.217 63.2071 174.065L63.1732 174.048Z" fill="#1B1C1A"/>
<path d="M36.1788 152.839C35.4502 155.145 36.2296 157.909 38.0089 159.536C40.1949 161.537 43.3976 161.316 46.1259 161.13C46.6512 161.096 47.346 161.249 47.5154 161.842C47.6679 162.367 47.1257 162.825 46.6343 162.859C43.1096 163.096 39.0935 163.232 36.2974 160.672C33.9928 158.553 33.0439 155.23 33.9759 152.246C34.2978 151.195 36.5516 151.67 36.1788 152.856V152.839Z" fill="#1B1C1A"/>
<path d="M36.6874 154.759H11.7773C10.9978 154.759 10.0489 154.555 9.40493 154.114C8.9135 153.792 8.89656 153.453 9.59133 153.453H34.5014C35.2809 153.453 36.2298 153.657 36.8738 154.097C37.3652 154.419 37.3821 154.759 36.6874 154.759Z" fill="#1B1C1A"/>
<path d="M10.4215 152.349C10.2013 155.638 10.2351 158.944 10.5063 162.233L8.20167 160.945C18.8943 160.69 29.587 160.809 40.2628 161.318C42.1098 161.403 42.9232 163.708 40.6017 163.607C30.214 163.115 19.8094 162.996 9.40481 163.234C8.6592 163.251 7.18493 162.928 7.1002 161.945C6.82908 158.453 6.81213 154.96 7.04937 151.468C7.1341 150.077 10.5232 150.84 10.4215 152.366V152.349Z" fill="#1B1C1A"/>
<path d="M16.1661 162.434C16.8609 169.605 17.0812 176.811 16.7931 184.016C16.7592 184.881 13.3871 184.271 13.421 183.118C13.6921 176.048 13.4887 168.978 12.8109 161.942C12.6923 160.79 16.0645 161.451 16.1492 162.434H16.1661Z" fill="#1B1C1A"/>
<path d="M24.8082 163.129C25.825 169.91 26.0791 176.76 25.5877 183.609C25.4861 184.999 22.1139 184.236 22.2155 182.71C22.69 176.081 22.385 169.402 21.4022 162.823C21.1649 161.247 24.5879 161.738 24.7913 163.129H24.8082Z" fill="#1B1C1A"/>
<path d="M71.6966 174.334C71.3747 177.59 70.8833 180.811 70.2054 184.015C70.1038 184.49 68.6634 184.1 68.3922 184.015C68.1042 183.93 66.7316 183.591 66.8332 183.1C67.4941 179.895 68.0025 176.674 68.3245 173.419C68.3753 172.961 69.9004 173.334 70.1376 173.419C70.4766 173.521 71.7475 173.809 71.6966 174.334Z" fill="#1B1C1A"/>
</g>
<defs>
<clipPath id="clip0_516_1129">
<rect width="162" height="185" fill="white"/>
</clipPath>
</defs>
</svg>
