<svg width="100" height="100" viewBox="0 0 100 100" fill="none" xmlns="http://www.w3.org/2000/svg">
<rect width="100" height="100" fill="white"/>
<path d="M53.1 6.39844L51.7 10.0484L49.76 7.62844L46.88 10.5684L48.65 13.0784L45.5 14.0484L45.67 18.0784L48.94 17.2184L47.46 21.0484L51 22.6484L52.53 18.5784L54.86 21.8884L58.52 18.5784L55.95 15.3784L60.07 14.2884L59.33 9.75844L55.39 10.9884L56.84 7.11844L53.1 6.39844Z" fill="#008FD5"/>
<path d="M45.3199 29.8689C48.8499 28.8389 50.3999 29.8689 50.6699 33.4089C48.0299 35.3189 47.7199 37.8989 48.2299 40.9089C48.6999 43.6989 48.2899 46.5589 48.5599 49.3789C48.7899 46.1589 48.8899 42.9489 48.4699 39.7189C48.0499 36.4989 48.8999 35.0289 51.5399 34.0289C51.9599 34.1189 52.3699 34.1989 52.7899 34.2889C54.4799 34.3189 54.7899 35.6789 55.0699 36.8589C55.8399 40.0689 56.0699 43.3389 56.0399 46.6389C56.1199 47.1389 56.1199 47.6489 56.0399 48.1489C56.1699 55.8389 56.5099 63.5589 54.1599 71.0389C53.4499 73.2889 52.9799 75.7089 50.9899 77.3389C48.3299 81.6589 45.2299 85.5289 40.8399 88.3089C35.3399 91.7889 29.4399 93.1489 23.0099 92.2789C20.6099 91.9589 19.7899 90.6289 20.9199 88.3789C22.2199 85.7889 23.8199 83.3589 25.2999 80.8489C28.2699 75.8089 30.2699 70.3789 31.9699 64.8089C32.6599 62.5689 31.7699 60.4689 31.3599 58.3489C30.8799 55.8489 30.1099 53.4089 28.9599 51.1189C28.5499 50.2989 28.1899 49.4589 28.1099 48.5089C27.9899 47.0889 28.3999 45.9789 29.7099 45.3289C31.0899 44.6389 32.1799 45.1889 33.0899 46.2489C33.6299 46.8789 34.1199 47.5489 34.8599 48.5089C35.0899 44.9489 34.9499 41.7389 34.7299 38.5289C34.6199 36.9689 34.4499 35.4189 34.4599 33.8589C34.4799 31.1289 36.0999 30.0889 38.8699 30.9589C38.3799 36.1089 39.3199 41.2489 39.0599 46.3989C39.0199 47.2189 39.0199 48.0489 39.2399 48.8589C39.2599 45.1289 39.6099 41.4089 39.1199 37.6889C38.8199 35.4089 38.9599 33.1689 39.5099 30.9489C39.5099 29.7589 39.9699 28.8089 41.1699 28.5589C42.4899 28.2889 43.8799 28.1589 44.6999 29.6589C42.5799 35.9289 44.4599 42.2889 44.2999 48.5989C44.4899 46.5089 44.5899 44.4189 44.2999 42.3289C43.8899 39.3689 44.0299 36.3989 44.1499 33.4289C44.1999 32.1589 44.4899 30.8989 45.3299 29.8589L45.3199 29.8689Z" fill="#FFDA6D"/>
<path d="M50.98 77.3507C55.02 69.1107 55.76 60.3007 55.49 51.3107C55.46 50.2507 55.55 49.1907 55.58 48.1307C56.44 47.5107 56.39 46.5907 56.47 45.6707C56.79 41.7507 56.85 37.8107 57.37 33.9207C57.53 32.7507 57.57 31.5207 58.3 30.5007C60.04 28.7807 61.88 28.9007 63.16 30.8807C63.52 31.4307 63.59 31.7507 64.47 31.4807C67.08 30.6707 68.82 32.3507 68.46 35.1907C67.84 40.0407 67.66 44.9007 67.7 49.7807C66.47 51.8107 65 53.7107 64.23 56.0107C65.86 54.2507 66.4 51.7707 68.12 50.0707C68.79 48.6407 69.77 47.4207 70.92 46.3707C72.23 45.1707 73.79 45.1607 75.25 46.0507C76.66 46.9107 76.53 48.3807 76.13 49.6807C75.8 50.7407 75.14 51.7007 74.59 52.6907C73.8 54.1107 72.89 55.4807 72.21 56.9507C70.37 60.9307 69.86 64.8707 71.4 69.2507C73.67 75.7107 76.59 81.7807 80.17 87.5907C82.84 91.9207 82.05 93.4007 77.01 93.5807C66.86 93.9407 59.17 89.4607 53.4 81.3507C52.5 80.0807 51.79 78.6907 50.99 77.3507H50.98Z" fill="#008FD5"/>
<path d="M45.32 29.8697C45.39 31.8197 44.64 33.6697 44.76 35.6697C45 39.8197 45 43.9897 45.08 48.1497C45.09 48.7097 45.07 49.2797 44.98 49.8397C44.91 50.2997 44.6 50.5897 44.1 50.5797C43.53 50.5597 43.42 50.1197 43.43 49.6897C43.58 43.8997 42.74 38.1297 43.27 32.3397C43.36 31.3097 43.56 30.1997 44.7 29.6797C44.91 29.7397 45.11 29.8097 45.32 29.8797V29.8697Z" fill="#231F20"/>
<path d="M39.51 30.9592C39.67 31.2692 39.99 31.5992 39.96 31.8892C39.33 37.6292 40.42 43.3492 40.1 49.0692C40.06 49.7392 40.55 50.8992 39.34 50.8992C38.25 50.8992 38.47 49.7992 38.46 49.0592C38.35 44.5292 38.42 39.9892 38.03 35.4592C37.9 33.9192 37.93 32.3292 38.88 30.9592C39.09 30.9592 39.31 30.9592 39.52 30.9492L39.51 30.9592Z" fill="#231F20"/>
<path d="M51.5399 34.0397C48.4099 35.7997 49.0699 38.6197 49.2899 41.4597C49.5099 44.2097 49.36 46.9897 49.31 49.7597C49.3 50.4197 49.3099 51.4097 48.3599 51.3797C47.2699 51.3397 47.6899 50.3197 47.6799 49.6997C47.6399 45.8697 47.66 42.0497 47.4 38.2297C47.19 35.0797 48.0999 33.9897 50.6699 33.4297C50.9599 33.6397 51.2499 33.8497 51.5399 34.0597V34.0397Z" fill="#231F20"/>
<path d="M58.3 30.4883C57.99 34.7083 57.77 38.9283 57.34 43.1283C57.2 44.4683 57.13 45.8083 57.11 47.1383C57.1 48.3183 56.72 48.7783 55.58 48.1183C55.56 47.6483 55.54 47.1683 55.52 46.6883C55.86 43.7483 55.35 40.8083 55.52 37.8583C55.61 36.1683 55.74 34.4883 56 32.8183C56.15 31.8583 56.46 31.0483 57.46 30.6883C57.74 30.6183 58.02 30.5583 58.31 30.4883H58.3Z" fill="#231F20"/>
<path d="M57.45 30.6919C56.26 32.2719 56.43 34.2019 56.3 35.9719C56.07 39.2119 55.57 42.4419 55.77 45.7019C55.79 46.0319 55.6 46.3719 55.51 46.7019C55.29 43.5519 55.31 40.3819 54.54 37.3019C54.24 36.1319 53.91 34.9819 52.79 34.3019C53.22 31.2919 54.26 30.4819 57.46 30.7019L57.45 30.6919Z" fill="#008FD5"/>
<path d="M68.11 50.0695C67.4 52.5195 65.88 54.5495 64.72 56.7695C64.54 57.1095 64.17 57.4495 63.67 57.2295C63.32 57.0695 63.05 56.6895 63.23 56.3795C64.56 54.0695 65.18 51.2795 67.69 49.7695C67.83 49.8695 67.97 49.9595 68.11 50.0595V50.0695Z" fill="#231F20"/>
<path d="M70.73 26.7396C70.64 26.6796 70.38 26.5696 70.22 26.3796C69.96 26.0596 70.02 25.6696 70.32 25.4296C71.48 24.5196 72.67 23.6296 73.87 22.7696C74.2 22.5296 74.6 22.7196 74.81 22.9996C74.95 23.1896 74.98 23.5296 74.93 23.7896C74.84 24.2796 71.43 26.7596 70.74 26.7496L70.73 26.7396Z" fill="#FFDA6D"/>
<path d="M74.19 32.4407C73.47 32.5707 73.09 32.4007 72.92 31.9407C72.74 31.4407 73.05 31.1107 73.47 30.9607C74.8 30.4707 76.14 30.0207 77.47 29.5707C77.93 29.4207 78.33 29.5307 78.53 29.9907C78.77 30.5607 78.51 30.9607 77.96 31.1507C76.63 31.6207 75.29 32.0707 74.18 32.4507L74.19 32.4407Z" fill="#FFDA6D"/>
<path d="M24.56 31.0781C25.8 31.7781 27.16 32.5181 28.47 33.3181C28.78 33.5081 28.78 33.9781 28.53 34.2681C28.38 34.4481 28 34.6281 27.82 34.5681C26.36 34.0581 24.92 33.4181 23.81 32.3381C23.25 31.7981 23.76 31.3481 24.56 31.0881V31.0781Z" fill="#008FD5"/>
<path d="M31.9099 26.6985C31.9699 27.3985 31.7699 27.6485 31.4199 27.8185C31.0199 27.9985 30.6899 27.8185 30.4999 27.5285C29.8299 26.5485 29.1899 25.5385 28.5799 24.5085C28.3999 24.1985 28.4599 23.8085 28.7299 23.5385C29.0199 23.2485 29.4799 23.2085 29.6699 23.4785C30.4999 24.5885 31.2599 25.7685 31.8999 26.6985H31.9099Z" fill="#008FD5"/>
<path d="M21.68 47.3194C20.79 47.1394 19.89 46.9794 19 46.7894C18.53 46.6894 18.26 46.3594 18.37 45.8694C18.48 45.3794 18.87 45.2094 19.33 45.2694C20.23 45.3894 21.14 45.5294 22.03 45.6994C22.58 45.8094 23.21 45.9294 23.04 46.7294C22.87 47.5394 22.24 47.3294 21.68 47.3194Z" fill="#008FD5"/>
<path d="M74.97 56.9414C76.03 57.3714 77.19 57.8714 78.06 58.8114C78.2 58.9614 78.18 59.3614 78.1 59.6014C77.97 60.0114 77.51 60.0714 77.23 59.9314C76.23 59.4414 75.26 58.8914 74.29 58.3314C73.95 58.1414 73.86 57.7914 74 57.4214C74.15 57.0414 74.48 56.9614 74.97 56.9414Z" fill="#FFDA6D"/>
<path d="M78.85 46.3904C78.1 46.1604 76.82 46.8604 76.74 45.6304C76.66 44.4004 77.92 44.6904 78.7 44.7004C79.47 44.7004 80.68 44.3504 80.68 45.6204C80.68 46.8704 79.48 46.1304 78.85 46.3904Z" fill="#FFDA6D"/>
<path d="M24.0199 62.4987C23.3699 62.5487 22.9099 62.3287 23.0199 61.8487C23.3399 60.4187 24.6999 60.1187 25.7999 59.6087C26.2099 59.4187 26.7399 59.9087 26.6499 60.2787C26.2899 61.6687 24.8299 61.7987 24.0199 62.4987Z" fill="#008FD5"/>
<path d="M22.1799 56.6289C21.4699 56.6889 20.7299 56.6989 20.9099 55.8989C21.2199 54.5589 22.6199 54.9889 23.5199 54.5989C24.0499 54.3689 24.6499 54.7589 24.5699 55.2689C24.3299 56.6789 22.9599 56.2689 22.1799 56.6289Z" fill="#008FD5"/>
<path d="M35.43 52.1512C35.36 54.3512 34.93 56.5112 34.54 58.6612C34.42 59.3312 34.29 60.0612 33.44 59.8912C32.57 59.7212 32.78 58.9012 32.88 58.3012C33.33 55.8612 33.78 53.4312 33.75 50.9312C33.75 50.2212 33.73 49.2912 34.63 49.2512C35.69 49.2112 35.36 50.2212 35.42 50.8612C35.46 51.2812 35.42 51.7112 35.42 52.1412L35.43 52.1512Z" fill="#231F20"/>
<path d="M60.08 46.5284C60.54 42.6684 60.78 38.3184 61.78 34.0684C61.95 33.3584 61.98 32.2084 62.99 32.4884C63.95 32.7584 63.39 33.7684 63.26 34.4984C62.49 38.7084 61.67 42.9184 61.79 47.2384C61.8 47.6584 61.79 48.0884 61.76 48.5084C61.71 49.1884 61.44 49.8984 60.71 49.8484C60 49.8084 60.11 49.0284 60.09 48.4784C60.08 47.9884 60.09 47.4884 60.09 46.5284H60.08Z" fill="#231F20"/>
</svg>
