<svg width="191" height="191" viewBox="0 0 191 191" fill="none" xmlns="http://www.w3.org/2000/svg">
<rect width="190.21" height="190.21" fill="white"/>
<path d="M112.174 127.842C117.292 102.975 102.3 78.8763 78.6875 74.0165C55.0752 69.1567 31.7846 85.376 26.6665 110.243C21.5484 135.111 36.541 159.209 60.1533 164.069C83.7656 168.929 107.056 152.709 112.174 127.842Z" fill="#0086CD"/>
<path d="M57.01 99.4492L54.8 103.059L53.21 100.099L49.56 102.659L50.96 105.679L47.41 106.099L46.79 110.419L50.45 110.149L48.12 113.939L51.57 116.339L54.01 112.309L55.83 116.289L60.38 113.489L58.28 109.569L62.88 109.229L62.98 104.259L58.54 104.779L60.85 100.949L57.01 99.4492Z" fill="#1D1D1B"/>
<path d="M82.68 104.199L80.46 107.809L78.88 104.849L75.23 107.409L76.62 110.429L73.08 110.849L72.46 115.169L76.11 114.899L73.79 118.689L77.24 121.089L79.67 117.059L81.5 121.039L86.05 118.239L83.94 114.319L88.55 113.979L88.65 108.999L84.21 109.529L86.52 105.699L82.68 104.199Z" fill="#1D1D1B"/>
<path d="M62.88 99.2111C62.76 101.831 62.65 104.441 62.53 107.061C62.47 108.401 62.41 109.751 62.35 111.091C62.33 111.641 62.35 112.231 62.21 112.771C62.18 112.931 62.12 113.081 62.03 113.221L63.25 113.171C63.05 113.241 62.76 113.201 62.55 113.221C60.88 113.391 58.82 113.711 58.03 115.401C57.13 117.321 58.34 119.271 59.61 120.681C59.82 120.911 60.9 120.581 61.16 120.531C61.28 120.511 62.67 120.091 62.64 120.071C61.39 118.701 60.21 116.821 61 114.921C61.09 114.711 61.2 114.501 61.33 114.311C61.45 114.141 61.91 113.851 61.95 113.691C62.26 113.491 62.07 113.511 61.36 113.741C60.6 113.841 60.42 113.881 60.81 113.861C61.04 113.861 61.27 113.831 61.5 113.811C62.45 113.711 63.64 113.571 64.49 113.111C65.38 112.631 65.32 111.601 65.36 110.711C65.42 109.371 65.48 108.021 65.54 106.681L65.9 98.6211C65.9 98.6211 62.89 98.7611 62.87 99.2311L62.88 99.2111Z" fill="#1D1D1B"/>
<path d="M94.4299 152.631C95.6799 159.501 97.8299 166.181 100.81 172.491C101.19 173.301 103.34 172.631 103 171.901C100.02 165.581 97.8699 158.911 96.6199 152.041C96.4699 151.221 94.2699 151.751 94.4299 152.631Z" fill="#1D1D1B"/>
<path d="M77.38 162.82C79.4 165.9 81.64 168.83 84.11 171.56C85.3 172.88 86.54 174.15 87.83 175.38C88.43 175.95 89.05 176.52 89.67 177.07C90.05 177.41 90.44 177.73 90.82 178.07C91.22 178.43 91.59 178.61 91.18 179.12C90.69 179.74 90.03 180 89.75 180.82C89.57 181.35 89.6 182 89.94 182.47C90.82 183.69 92.63 183.12 93.67 182.47C96.68 180.6 99.28 177.79 101.3 174.91C102.09 173.78 100.04 173.48 99.48 174.29C97.65 176.9 95.43 179.26 92.82 181.1C92.63 181.23 92.22 181.66 91.95 181.51C91.59 181.3 92.03 180.64 92.18 180.45C92.6 179.94 93.27 179.77 93.57 179.14C94.17 177.9 92.72 177.02 91.93 176.33C87.1 172.12 82.9 167.22 79.39 161.86C78.86 161.05 76.77 161.88 77.38 162.81V162.82Z" fill="#1D1D1B"/>
<path d="M59.02 61.7388C59.04 61.6688 59.05 61.7888 59.02 61.7388C58.78 61.4488 59.41 61.5188 58.29 61.1888L57.31 61.2888C57.79 59.8188 57.76 58.1788 57.25 56.7688C57.08 56.2988 57.6 56.1988 57.95 56.2788C58.4 56.3688 59.08 56.6688 59.25 57.1488C59.85 58.8188 59.88 60.6188 59.33 62.3088C59.22 62.6488 58.56 62.4688 58.35 62.4088C57.67 62.2088 56.75 61.5388 57 60.7188C57.05 60.5488 57.35 60.5188 57.47 60.5188C57.73 60.5188 58.03 60.6188 58.26 60.7288C58.6 60.9088 59.16 61.2688 59.03 61.7288L59.02 61.7388Z" fill="#1D1D1B"/>
<path d="M50.6399 64.04C50.1199 63.17 49.5699 62.32 48.9899 61.5C48.6999 61.09 48.4099 60.69 48.1099 60.29C47.9599 60.09 47.8099 59.89 47.6499 59.7C47.5699 59.6 47.4899 59.51 47.4199 59.41C47.3599 59.34 47.3599 59.34 47.4199 59.41C47.3699 59.35 47.3099 59.28 47.2599 59.22C47.1299 59.06 46.9599 58.86 46.9699 58.63C46.9699 58.44 47.1199 58.28 47.2999 58.22C47.7799 58.08 48.4799 58.32 48.7899 58.7C50.1499 60.35 51.3899 62.08 52.4899 63.91C52.5899 64.07 52.6699 64.29 52.5799 64.48C52.4899 64.67 52.2599 64.74 52.0699 64.75C51.5599 64.77 50.9099 64.49 50.6399 64.03V64.04Z" fill="#1D1D1B"/>
<path d="M47.1401 66.9301C45.1301 65.9001 43.1801 64.7601 41.2801 63.5401C40.9001 63.2901 40.6301 62.6601 41.0101 62.3001C41.4401 61.9001 42.1001 62.1601 42.5101 62.4201C42.6401 62.5001 42.7701 62.5901 42.9101 62.6701C42.9401 62.6901 43.2201 62.8601 43.0501 62.7601C43.2801 62.9101 43.5201 63.0501 43.7501 63.1901C44.1901 63.4501 44.6201 63.7101 45.0701 63.9701C45.9901 64.5001 46.9201 65.0001 47.8601 65.4801C48.2701 65.6901 48.7601 66.2101 48.5101 66.7001C48.2601 67.1901 47.5401 67.1101 47.1401 66.9101V66.9301Z" fill="#1D1D1B"/>
<path d="M59.53 72.2593C72.64 75.4393 85.75 78.6293 98.85 81.8093C99.36 81.9293 98.76 81.3693 98.68 81.2793C98.39 80.9193 97.7 80.4893 97.24 80.3793C84.13 77.1993 71.02 74.0093 57.92 70.8293C57.41 70.7093 58.01 71.2693 58.09 71.3593C58.38 71.7193 59.07 72.1493 59.53 72.2593Z" fill="#303031"/>
<path d="M67.1501 70.3398C70.6501 66.1098 74.1601 61.8698 77.6601 57.6398L75.6101 56.8698C76.4401 58.7998 77.3901 60.6698 78.5001 62.4498C79.3701 63.8498 80.5401 66.2598 82.1401 66.9198C82.9201 67.2398 83.5801 67.0298 84.2901 66.6498C85.2701 66.1298 86.2201 65.5698 87.2301 65.0998C89.1601 64.1998 91.3801 63.2798 93.5101 63.0198L92.6901 62.8898L92.9801 63.0198L92.1301 62.1398C92.5401 63.0598 91.8301 64.8398 91.6201 65.7798C91.3401 67.0798 91.1101 68.3998 90.9501 69.7198C90.6401 72.2698 90.5601 74.8298 90.7001 77.3898C90.7601 78.4098 92.9901 79.3098 92.9201 77.9698C92.7701 75.1398 92.8801 72.3198 93.3101 69.5198C93.5101 68.2298 93.7901 66.9698 94.0601 65.6998C94.2701 64.7398 94.6301 63.4398 94.3301 62.4598C93.6401 60.1798 90.7301 61.3798 89.2401 61.8698C88.0601 62.2598 86.8901 62.7198 85.7601 63.2398C85.1901 63.4998 84.6201 63.7798 84.0601 64.0698C83.5001 64.3598 82.5901 65.1198 81.9601 65.0898L82.8101 65.4098C82.1901 65.0198 81.7401 64.1398 81.3301 63.5398C80.8501 62.8498 80.4001 62.1498 79.9801 61.4298C79.1201 59.9798 78.3701 58.4798 77.7101 56.9398C77.4301 56.2998 76.2701 55.4398 75.6601 56.1698C72.1601 60.3998 68.6501 64.6398 65.1501 68.8698C64.4501 69.7098 66.4401 71.1898 67.1601 70.3198L67.1501 70.3398Z" fill="#303031"/>
<path d="M104.79 125.019C108.66 126.669 112.94 127.249 117.11 126.679C118.07 126.549 117.26 124.459 116.47 124.569C112.41 125.129 108.29 124.589 104.52 122.989C104.04 122.779 103.88 123.369 103.92 123.729C103.98 124.229 104.3 124.819 104.79 125.029V125.019Z" fill="#1D1D1B"/>
<path d="M117.9 125.781C119.21 124.541 120.5 123.261 121.85 122.061C122.45 121.521 123.08 121.021 123.78 120.611C124.11 120.421 124.45 120.261 124.8 120.121C124.99 120.051 125.18 119.981 125.37 119.931C125.45 119.911 125.53 119.901 125.61 119.891C125.85 119.901 125.78 119.831 125.4 119.681L125.14 119.141C125.14 119.001 125.14 118.991 125.14 119.101C125.13 119.191 125.12 119.271 125.1 119.361C125.08 119.511 125.05 119.671 125.02 119.821C124.96 120.161 124.9 120.491 124.84 120.831C124.72 121.501 124.58 122.171 124.43 122.831C124.22 123.761 123.99 125.311 122.73 125.251C122.18 125.221 122.13 126.001 122.23 126.371C122.36 126.871 122.76 127.371 123.31 127.401C124.89 127.471 125.6 125.881 125.91 124.601C126.27 123.131 126.61 121.611 126.78 120.101C126.88 119.261 126.59 118.341 125.8 117.921C125.18 117.591 124.42 117.871 123.82 118.101C122.54 118.591 121.43 119.481 120.42 120.401C119.12 121.581 117.86 122.811 116.59 124.011C115.89 124.671 117.08 126.581 117.9 125.811V125.781Z" fill="#1D1D1B"/>
<path d="M121.56 137.26C121.87 136.92 122.2 136.6 122.54 136.29C121.92 136.02 121.2 136.19 120.46 136.04C119.73 135.88 119 135.56 118.43 135.07C117.94 134.65 117.66 134.02 117.11 133.67C116.27 133.13 114.83 133.62 113.92 133.76C112.34 134.01 110.77 134.32 109.18 134.54C105.93 134.99 102.55 135.09 99.46 133.83C98.67 133.51 99.35 135.56 99.9 135.79C103.03 137.06 106.32 137.08 109.62 136.66C111.56 136.41 113.48 136.02 115.42 135.72C115.86 135.65 116.78 135.35 117.22 135.49C117.57 135.6 117.76 135.96 117.99 136.21C118.44 136.71 118.96 137.14 119.54 137.48C119.99 137.73 120.48 137.91 120.98 138.04C121.15 137.78 121.33 137.52 121.56 137.26Z" fill="#1D1D1B"/>
<path d="M98.64 134.79C98.64 134.74 98.64 134.69 98.62 134.64C98.6 134.5 98.57 134.37 98.54 134.23C98.53 134.18 98.51 134.13 98.5 134.09C98.45 133.95 98.4 133.81 98.34 133.68C98.28 133.54 98.2 133.42 98.1 133.31C98.02 133.2 97.93 133.11 97.82 133.04C97.73 132.97 97.63 132.93 97.52 132.92C97.43 132.89 97.33 132.9 97.24 132.94L97.1 133.05C97.01 133.17 96.97 133.3 96.96 133.44V133.69C96.99 133.88 97.04 134.07 97.13 134.25C97.15 134.29 97.16 134.32 97.18 134.36L97.07 134.08C97.1 134.16 97.12 134.23 97.14 134.31L97.08 134.04C97.09 134.11 97.1 134.19 97.11 134.26C97.12 134.4 97.16 134.54 97.22 134.67C97.27 134.81 97.34 134.95 97.43 135.07C97.5 135.19 97.6 135.28 97.71 135.37C97.79 135.45 97.89 135.51 98.01 135.55L98.21 135.58C98.34 135.58 98.45 135.53 98.53 135.42L98.63 135.25C98.68 135.1 98.69 134.94 98.67 134.78L98.64 134.79Z" fill="#1D1D1B"/>
<path d="M139.36 88.0619C134.1 84.8619 129.04 80.3419 126.8 74.472C125.6 71.3419 125.48 67.972 125.58 64.662C125.7 60.952 126 57.2519 126.46 53.5719C127.29 46.8619 128.66 40.392 131.88 34.382C134.77 28.972 138.66 23.8519 143.02 19.542C145.28 17.302 147.94 15.2119 151.06 14.3319C154.44 13.3819 158.37 13.6019 161.76 14.4119C168.2 15.9519 172.46 21.2619 175.3 26.9419C178.14 32.622 179.43 38.5219 180.03 44.6119C180.67 51.152 180.81 58.1219 178.85 64.4619C174.52 78.4719 161.19 86.952 147.43 89.7919C147.13 89.8519 146.19 90.0319 146.16 90.4519C146.13 90.8719 146.8 90.8219 147.06 90.7719C159.82 88.1319 172.3 81.5419 178.67 69.7019C182 63.5119 182.72 56.6419 182.55 49.7119C182.38 42.7819 181.44 36.1119 178.99 29.7819C176.75 24.0219 173.02 17.7119 167.3 14.8419C161.58 11.9719 153.65 11.8919 147.9 14.5819C142.15 17.2719 137.84 22.7119 134.17 27.7119C130.04 33.3419 126.91 39.5219 125.49 46.3919C124.6 50.6719 124.08 55.042 123.73 59.3919C123.4 63.4719 123.01 67.7319 123.72 71.792C125.03 79.282 131.08 85.0619 137.32 88.8619C137.9 89.2119 139.79 88.3219 139.37 88.0719L139.36 88.0619Z" fill="#1D1D1B"/>
<path d="M137.85 89.2416C135.17 99.6216 131.66 109.762 127.38 119.582C126.88 120.722 129.08 120.722 129.47 119.832C133.81 109.872 137.34 99.5916 140.06 89.0716C140.33 88.0316 138.09 88.2816 137.84 89.2416H137.85Z" fill="#1D1D1B"/>
<path d="M145.34 90.1389C144.48 96.5589 142.45 102.709 140.47 108.849C139.55 111.699 138.65 114.559 137.88 117.459C137.66 118.289 137.45 119.119 137.26 119.959C137.17 120.359 136.91 121.869 136.86 121.889C136.74 121.939 135.13 121.409 134.78 121.329C133.9 121.129 133.02 120.939 132.15 120.739C131.65 120.629 130.94 120.689 130.6 121.149C130.34 121.509 130.33 122.049 130.87 122.169C132.7 122.579 134.54 123.119 136.39 123.399C137.59 123.579 138.6 123.169 138.98 121.989C139.52 120.309 139.75 118.489 140.21 116.779C140.7 114.949 141.25 113.139 141.81 111.329C144.02 104.289 146.54 97.3089 147.53 89.9589C147.68 88.8789 145.45 89.1789 145.32 90.1389H145.34Z" fill="#1D1D1B"/>
<path d="M128.18 118.789L127.32 118.829C126.88 118.849 125.95 119.019 125.79 119.549C125.01 122.209 124.82 124.989 123.99 127.639C123.16 130.289 121.9 132.779 120.7 135.279C120.13 136.469 119.56 137.659 119.06 138.879C118.75 139.629 117.9 140.939 118.49 141.709C119.08 142.479 120.51 143.089 121.37 143.539C122.64 144.199 123.97 144.699 125.35 145.079C125.84 145.219 126.46 145.139 126.89 144.849C127.09 144.719 127.63 144.219 127.1 144.069C125.93 143.749 124.79 143.339 123.69 142.819C123.03 142.509 122.39 142.159 121.77 141.769C121.46 141.569 120.67 141.219 120.51 140.879C120.17 140.159 121.43 138.059 121.74 137.369C122.28 136.169 122.86 134.979 123.43 133.789C124.51 131.559 125.57 129.299 126.27 126.919C127.01 124.399 127.2 121.769 127.95 119.249L126.42 119.969L127.28 119.929C127.67 119.909 128.56 119.789 128.73 119.349C128.9 118.909 128.59 118.759 128.16 118.779L128.18 118.789Z" fill="#1D1D1B"/>
<path d="M130.43 143.212C130.37 143.632 130.27 144.062 130.06 144.432L130.14 144.292C130.05 144.442 129.95 144.582 129.83 144.702L129.98 144.562C129.98 144.562 129.9 144.632 129.86 144.662C129.84 144.682 129.82 144.692 129.8 144.712C129.81 144.712 130.05 144.562 129.92 144.632C129.9 144.642 129.87 144.652 129.85 144.672C129.84 144.672 130.15 144.542 130.02 144.592C129.8 144.672 130.36 144.492 130.13 144.552C129.98 144.592 130.35 144.512 130.33 144.512C130.3 144.512 130.28 144.512 130.25 144.522C130.11 144.542 130.56 144.512 130.41 144.512C130.38 144.512 130.35 144.512 130.32 144.512C130.18 144.512 130.58 144.542 130.44 144.512C130.41 144.512 130.38 144.512 130.35 144.502C130.29 144.502 130.22 144.482 130.16 144.462L130.36 144.512C130.21 144.472 130.06 144.422 129.91 144.352C129.71 144.262 129.41 144.282 129.2 144.312C128.93 144.352 128.61 144.442 128.37 144.582C128.22 144.672 127.98 144.812 127.94 145.002C127.91 145.172 127.99 145.272 128.15 145.342C129 145.722 130.01 145.702 130.86 145.342C131.27 145.162 131.64 144.922 131.94 144.582C132.13 144.362 132.27 144.102 132.38 143.832C132.5 143.532 132.57 143.222 132.61 142.902C132.63 142.732 132.56 142.632 132.4 142.562C132.2 142.472 131.9 142.482 131.69 142.522C131.41 142.572 131.11 142.642 130.86 142.792C130.71 142.882 130.46 143.022 130.43 143.212Z" fill="#1D1D1B"/>
<path d="M138 121.982C138.53 122.432 138.82 122.952 138.77 123.562C138.71 124.262 138.44 124.772 138.06 125.392C137.32 126.602 136.25 127.642 135.62 128.922C135.39 129.382 135.82 129.662 136.25 129.692C136.72 129.732 137.46 129.532 137.69 129.062C138.36 127.702 139.51 126.622 140.27 125.302C140.64 124.652 140.98 123.912 140.99 123.152C141 122.322 140.66 121.612 140.03 121.072C139.62 120.722 139.03 120.772 138.56 120.982C138.3 121.102 137.6 121.632 138.01 121.972L138 121.982Z" fill="#1D1D1B"/>
<path d="M122.88 146.34L126.34 147.04C127.63 147.3 129.03 147.76 130.24 146.97C130.56 146.76 130.87 146.3 130.41 146.05C129.95 145.8 129.26 145.97 128.86 146.24C128.98 146.16 129.22 146.05 129.36 146.11C129.3 146.11 129.23 146.11 129.17 146.1C129.24 146.1 129.25 146.1 129.18 146.1C128.96 146.06 128.74 146.01 128.52 145.97L127.08 145.68L124.2 145.09C123.68 144.98 123.04 145.13 122.65 145.5C122.33 145.82 122.4 146.24 122.88 146.34Z" fill="#1D1D1B"/>
<path d="M160.46 16.7113C158.15 16.2513 155.8 15.9213 153.46 16.3813C151.46 16.7713 149.62 17.7113 147.94 18.8313C144.46 21.1413 141.64 24.3213 139.46 27.8613C136.94 31.9413 135.27 36.4813 133.86 41.0513C132.33 45.9913 130.94 50.9813 129.88 56.0413C129.71 56.8613 131.91 56.5113 132.07 55.7713C132.99 51.3913 134.18 47.0713 135.45 42.7813C136.72 38.4913 138.09 34.2613 140.15 30.3113C141.91 26.9313 144.16 23.7513 147.04 21.2313C148.47 19.9813 150.07 18.8313 151.82 18.0813C154.18 17.0613 156.69 17.4213 159.13 17.9113C159.83 18.0513 161.7 16.9713 160.47 16.7213L160.46 16.7113Z" fill="#1D1D1B"/>
<path d="M143.87 23.6382C150.68 25.3482 157.45 27.1882 164.19 29.1782C164.92 29.3882 166.76 28.3182 165.52 27.9582C158.79 25.9682 152.01 24.1182 145.2 22.4182C144.73 22.2982 143.99 22.4582 143.65 22.8282C143.35 23.1682 143.38 23.5182 143.87 23.6382Z" fill="#1D1D1B"/>
<path d="M141.54 28.1791C147.11 29.3091 152.63 30.6491 158.1 32.1891C158.59 32.3291 159.29 32.1391 159.65 31.7791C159.98 31.4391 159.89 31.0591 159.42 30.9291C153.95 29.3891 148.43 28.0591 142.86 26.9191C142.35 26.8191 141.69 26.9491 141.31 27.3291C141 27.6491 141.05 28.0791 141.54 28.1791Z" fill="#1D1D1B"/>
<path d="M158.8 17.3282L158.83 17.2782C158.9 17.1482 158.75 17.0582 158.65 17.0382C156.59 16.5782 155.67 18.7982 154.75 20.1782C153.28 22.3782 151.86 24.6182 150.48 26.8782C147.75 31.3382 145.2 35.8982 142.82 40.5482C142.65 40.8782 144.69 40.7382 144.98 40.1682C149.03 32.2682 153.58 24.6382 158.6 17.3082L158.15 17.6582L158.27 17.5982L156.74 17.8682L156.86 17.8982L156.68 17.6582L156.65 17.7082C156.48 18.0282 158.51 17.8982 158.81 17.3282H158.8Z" fill="#1D1D1B"/>
<path d="M158.57 20.2286C154.54 27.8086 150.89 35.5886 147.66 43.5386C147.23 44.5986 149.41 44.4186 149.72 43.6686C152.96 35.7186 156.6 27.9386 160.63 20.3586C161.16 19.3686 158.95 19.5086 158.57 20.2286Z" fill="#1D1D1B"/>
<path d="M148.92 57.4497C155.49 58.9797 161.95 60.9397 168.27 63.3297C168.69 63.4897 169.26 63.3197 169.67 63.1697C169.75 63.1397 170.65 62.7197 170.34 62.5997C163.95 60.1797 157.4 58.1797 150.74 56.6397C150.27 56.5297 149.64 56.7397 149.21 56.9397C149.03 57.0197 148.46 57.3397 148.93 57.4497H148.92Z" fill="#1D1D1B"/>
<path d="M148.63 64.0514C155.53 65.5014 162.23 67.8014 168.58 70.8414C169.5 71.2814 171.1 69.9614 169.84 69.3514C163.32 66.2214 156.46 63.9214 149.38 62.4414C148.29 62.2114 147.18 63.7414 148.63 64.0414V64.0514Z" fill="#1D1D1B"/>
<path d="M159.29 54.0292C155.79 61.5292 152.74 69.2292 150.15 77.0892C149.76 78.2592 151.94 78.1892 152.23 77.3092C154.82 69.4492 157.88 61.7492 161.37 54.2492C161.88 53.1492 159.68 53.1892 159.29 54.0292Z" fill="#1D1D1B"/>
<path d="M165.23 58.609C162.17 65.229 159.11 71.849 156.05 78.469C155.93 78.719 157.95 78.599 158.2 78.059C161.26 71.439 164.32 64.819 167.38 58.199C167.5 57.949 165.48 58.069 165.23 58.609Z" fill="#1D1D1B"/>
<path d="M171.18 65.4116C170.55 67.9716 168.83 69.9416 167.01 71.7716C165.19 73.6016 163.2 75.2616 161.06 76.6916C156.77 79.5616 151.93 81.4516 146.75 81.7616C146.41 81.7816 145.45 81.9216 145.29 82.2916C145.13 82.6616 145.43 82.6916 145.81 82.6716C151.45 82.3316 156.9 80.4316 161.69 77.4516C164.1 75.9516 166.35 74.1716 168.4 72.2016C170.45 70.2316 172.62 67.9316 173.34 65.0316C173.46 64.5416 171.32 64.8416 171.18 65.4116Z" fill="#1D1D1B"/>
<path d="M137.37 128.229C136.78 127.709 136.15 126.959 135.38 126.719C134.33 126.399 133.1 126.879 132.28 127.539C130.87 128.669 130.56 130.339 130.41 132.039C130.34 132.789 130.24 133.439 129.79 134.059C129.29 134.749 128.81 135.369 128.55 136.199C128.1 137.679 128.48 139.269 128.87 140.719C129.26 142.169 132.54 141.269 132.15 139.839C131.89 138.889 131.6 137.879 131.68 136.889C131.76 135.769 132.43 135.129 133 134.229C133.64 133.239 133.67 132.099 133.8 130.959C133.86 130.439 133.92 129.909 134.14 129.429C134.23 129.239 134.35 129.089 134.45 128.919C134.56 128.729 134.64 128.779 134.49 128.819L133.62 128.899C133.45 128.899 133.37 128.719 133.52 128.909C133.64 129.059 133.84 129.189 133.98 129.309L134.82 130.039C135.84 130.929 138.75 129.419 137.37 128.219V128.229Z" fill="#1D1D1B"/>
<path d="M137.16 129.209C137.84 131.779 137.68 134.469 136.76 136.959C136.32 138.159 135.67 139.289 134.87 140.289C134.7 140.509 134.52 140.719 134.33 140.919C134.2 141.049 134.05 141.169 133.92 141.299C133.69 141.529 133.83 141.279 133.96 141.339C133.87 141.299 133.52 141.279 133.4 141.259C133.02 141.169 132.66 141.059 132.29 140.939C131.57 140.709 130.51 141.059 129.97 141.559C129.43 142.059 129.64 142.539 130.29 142.749C132.42 143.429 134.67 143.439 136.48 141.939C137.74 140.899 138.75 139.409 139.45 137.939C140.88 134.949 141.29 131.549 140.44 128.319C140.13 127.159 136.85 128.019 137.16 129.199V129.209Z" fill="#1D1D1B"/>
<path d="M28.97 134.871C24.35 135.341 19.43 136.321 16.81 140.591C14.19 144.861 14.96 150.501 16.58 155.191C16.87 156.021 19.04 155.401 18.77 154.601C17.33 150.421 16.35 145.621 18.43 141.471C19.33 139.671 20.71 138.251 22.57 137.441C24.43 136.631 26.64 136.391 28.71 136.181C29.11 136.141 29.89 135.891 29.94 135.401C29.99 134.911 29.33 134.831 28.98 134.861L28.97 134.871Z" fill="#1D1D1B"/>
<path d="M38.4 149.121C35.52 149.151 32.63 149.151 29.75 149.221C28.93 149.241 27.87 149.331 27.27 149.981C26.59 150.701 26.88 152.361 26.88 153.271C26.88 153.951 26.99 154.721 26.85 155.391C26.64 156.361 26.05 156.501 25.16 156.751C23.81 157.131 22.43 157.371 21.04 157.551C19.56 157.741 18.07 157.831 16.58 157.921C16.09 157.951 14.48 158.251 14.44 157.461C14.41 156.751 15.9 156.031 16.41 155.901C16.65 155.841 17.52 155.551 17.39 155.171C17.26 154.791 16.43 154.961 16.18 155.021C14.82 155.371 13.49 156.041 12.64 157.191C11.79 158.341 12.46 158.961 13.67 159.051C15.42 159.181 17.32 158.901 19.07 158.731C20.82 158.561 22.44 158.341 24.09 157.961C25.43 157.661 27.04 157.351 28.16 156.501C29.37 155.581 29.07 154.031 29.08 152.691C29.08 152.241 29.08 151.791 29.09 151.331C29.1 150.941 29.39 149.721 28.63 150.281C28.85 150.121 29.71 150.271 30.03 150.261L31.43 150.241L37.51 150.171C38.21 150.171 39.87 149.101 38.41 149.121H38.4Z" fill="#1D1D1B"/>
<path d="M24.9401 116.511L21.1701 117.571L19.4901 118.041L18.4401 118.331L18.0201 118.451C17.6401 118.551 17.7401 118.541 18.3201 118.431L19.2201 118.771C18.6601 118.251 18.4801 117.551 17.8001 117.081C17.1201 116.611 16.2901 116.341 15.4901 116.171C13.6501 115.781 11.6501 115.701 9.82012 116.201C6.24012 117.181 3.84012 120.241 3.12012 123.801C2.81012 125.371 2.53012 127.421 3.61012 128.771C4.69012 130.121 6.81012 130.631 8.37012 130.891C11.9201 131.491 16.2301 130.311 17.9601 126.881L15.1301 127.641C18.6701 129.601 22.7201 130.311 26.7201 129.801C27.3201 129.721 28.4801 129.371 28.5701 128.631C28.6601 127.891 27.6601 127.751 27.1201 127.821C23.8301 128.241 20.6101 127.571 17.7201 125.971C16.9401 125.541 15.3101 125.891 14.8901 126.731C13.4401 129.611 9.60012 129.611 7.15012 127.891C5.82012 126.951 6.13012 125.011 6.39012 123.621C6.69012 122.001 7.31012 120.391 8.49012 119.201C9.60012 118.081 10.7801 117.781 12.3201 117.911C13.7501 118.031 15.0801 118.311 15.8501 119.601C16.7201 121.051 18.4701 120.281 19.7801 119.911L25.4401 118.331C25.9701 118.181 27.0301 117.701 26.8401 116.981C26.6501 116.261 25.4601 116.371 24.9601 116.511H24.9401Z" fill="#1D1D1B"/>
<path d="M57.5 133.19C59.39 133.31 61.29 133.32 63.18 133.22C65.07 133.12 66.86 133.01 68.53 132.25C71.63 130.85 73.72 127.59 75.62 124.91C76.07 124.27 73.95 124.56 73.63 125.02C72.03 127.28 70.34 129.94 67.98 131.48C66.79 132.26 65.16 132.2 63.79 132.27C62.16 132.35 60.53 132.33 58.9 132.23C58.4 132.2 57.76 132.33 57.35 132.64C57.03 132.88 57.04 133.16 57.5 133.19Z" fill="#1D1D1B"/>
<path d="M75.07 123.77C75.43 123.77 75.79 123.77 76.14 123.76C76.29 123.76 76.44 123.75 76.58 123.75C76.49 123.75 76.45 123.75 76.56 123.75C76.65 123.75 76.73 123.75 76.82 123.75C76.88 123.75 76.94 123.75 76.99 123.76C76.99 123.76 77.24 123.79 77.12 123.77C77 123.75 77.22 123.79 77.25 123.8C77.32 123.82 77.39 123.84 77.46 123.86C77.53 123.89 77.63 123.94 77.51 123.88C77.56 123.91 77.62 123.93 77.67 123.96C77.77 124.02 77.87 124.08 77.97 124.15C77.99 124.17 78.11 124.27 78.01 124.18C78.04 124.21 78.08 124.24 78.11 124.28C78.2 124.36 78.28 124.45 78.35 124.54C78.51 124.73 78.64 124.93 78.77 125.14C78.83 125.25 78.9 125.35 78.95 125.46C78.91 125.39 78.95 125.46 78.97 125.49C79 125.56 79.04 125.62 79.07 125.69C79.18 125.91 79.28 126.14 79.37 126.37C79.57 126.84 80.21 126.87 80.64 126.74C80.95 126.65 81.76 126.26 81.56 125.78C81.11 124.73 80.61 123.67 79.68 122.97C79.14 122.56 78.46 122.37 77.8 122.31C77.42 122.27 77.03 122.28 76.64 122.29C76.49 122.29 76.34 122.29 76.2 122.3C76.17 122.3 75.87 122.32 76.13 122.3C76.04 122.3 75.95 122.3 75.87 122.3C75.36 122.29 74.7 122.45 74.44 122.94C74.2 123.39 74.65 123.73 75.08 123.74L75.07 123.77Z" fill="#1D1D1B"/>
<path d="M45.17 90.0792C49.62 92.2292 54.1 94.2892 58.63 96.2792C59.09 96.4792 59.76 96.2992 60.17 96.0592C60.44 95.8992 60.86 95.4792 60.38 95.2792C55.86 93.2892 51.37 91.2292 46.92 89.0792C46.47 88.8592 45.78 89.0592 45.38 89.2992C45.09 89.4692 44.71 89.8592 45.17 90.0792Z" fill="#1D1D1B"/>
<path d="M75.59 98.6711C78.27 97.2211 81.28 96.9011 84.23 96.3811C85.7 96.1211 87.16 95.8311 88.58 95.3611C88.77 95.2911 88.96 95.2311 89.15 95.1711C88.86 95.1211 88.86 95.1811 89.14 95.3711C89.28 95.6911 89.6 95.9911 89.8 96.2811C90.27 96.9611 90.69 97.6711 91.08 98.4111C91.51 99.2311 93.65 98.5411 93.27 97.8211C92.85 97.0311 92.41 96.2511 91.91 95.5011C91.51 94.9011 91.08 94.1311 90.35 93.8911C89.44 93.6011 88.57 94.0211 87.71 94.2811C86.85 94.5411 85.95 94.7511 85.06 94.9111C81.54 95.5811 77.9 95.8711 74.69 97.6111C74.36 97.7911 73.82 98.1611 74.13 98.5911C74.41 98.9711 75.25 98.8611 75.59 98.6711Z" fill="#1D1D1B"/>
<path d="M94.4601 117.631C94.1701 118.691 93.9601 119.781 93.8401 120.871C93.7901 121.371 93.6901 121.941 93.9401 122.401C94.1801 122.831 94.5501 123.081 94.9601 123.341C95.5201 123.691 96.0801 123.851 96.7401 123.741C97.4501 123.631 98.1501 123.261 98.5301 122.631C99.0501 121.781 99.1501 120.801 99.2101 119.831C99.2401 119.371 98.6101 119.361 98.2801 119.411C97.9901 119.451 97.7001 119.531 97.4501 119.691C97.3101 119.781 97.0401 119.941 97.0301 120.131C96.9801 120.881 96.9301 121.661 96.6401 122.361C96.5801 122.511 96.5001 122.641 96.4101 122.771C96.3501 122.841 96.3401 122.861 96.3701 122.831C96.4101 122.801 96.3901 122.811 96.3201 122.871C96.5901 122.711 96.8701 122.631 97.1701 122.601C97.1801 122.601 97.2001 122.601 97.2101 122.601C97.0801 122.481 96.8501 122.421 96.7001 122.321C96.5801 122.241 96.4701 122.161 96.3601 122.071C96.0801 121.831 95.9601 121.551 95.9601 121.171C95.9601 120.761 96.0401 120.331 96.0901 119.921C96.2101 119.051 96.4001 118.181 96.6301 117.331C96.7601 116.871 95.9601 116.871 95.7001 116.911C95.3001 116.971 94.5801 117.161 94.4501 117.631H94.4601Z" fill="#1D1D1B"/>
<path d="M73.9699 125.079L75.0599 127.009C75.2299 127.319 75.4199 127.619 75.5799 127.929C75.7399 128.239 75.7199 128.359 75.5299 128.629C74.8899 129.539 74.0999 130.319 73.1899 130.959C71.5399 132.129 69.5399 132.699 67.5199 132.509C66.9999 132.459 66.3899 132.599 65.9699 132.919C65.6399 133.179 65.6799 133.509 66.1399 133.549C69.0799 133.819 72.0599 133.029 74.5299 131.419C75.6699 130.679 76.6899 129.729 77.4899 128.629C77.6499 128.409 77.8499 128.169 77.8999 127.899C77.9599 127.519 77.6599 127.149 77.4799 126.839L76.1599 124.499C75.7999 123.859 73.7099 124.619 73.9699 125.089V125.079Z" fill="#1D1D1B"/>
</svg>
