<svg width="525" height="174" viewBox="0 0 525 174" fill="none" xmlns="http://www.w3.org/2000/svg">
<rect width="524.53" height="173.62" fill="white"/>
<path d="M80.59 141.28C106.49 141.86 132.4 142.28 158.31 142.55C184.15 142.82 209.98 142.93 235.82 142.88C250.37 142.85 264.91 142.78 279.46 142.66C280.02 142.66 281.26 141.8 280.14 141.81C254.23 142.03 228.32 142.1 202.41 142C176.5 141.9 150.74 141.66 124.9 141.26C110.36 141.03 95.81 140.76 81.27 140.43C80.7 140.42 79.46 141.25 80.59 141.28Z" fill="#1D1D1B"/>
<path d="M337.17 141.172C351.83 141.882 366.5 142.422 381.17 142.792C395.84 143.162 410.38 143.352 424.98 143.382C433.29 143.402 441.61 143.362 449.92 143.262C450.24 143.262 450.89 143.152 451.03 142.802C451.17 142.452 450.92 142.282 450.57 142.292C435.89 142.452 421.22 142.452 406.54 142.282C391.94 142.112 377.33 141.762 362.74 141.252C354.43 140.962 346.12 140.612 337.82 140.212C337.16 140.182 336.04 141.132 337.17 141.192V141.172Z" fill="#1D1D1B"/>
<path d="M455.66 142.94C456.04 142.94 456.77 142.82 456.93 142.39C457.08 141.99 456.8 141.73 456.38 141.73C456 141.73 455.27 141.85 455.11 142.28C454.96 142.68 455.24 142.94 455.66 142.94Z" fill="#1D1D1B"/>
<path d="M68.19 140.359H74.7C75.09 140.359 75.6 140.249 75.8 139.879C75.99 139.539 75.64 139.289 75.32 139.289H68.81C68.42 139.289 67.91 139.399 67.71 139.769C67.52 140.109 67.87 140.359 68.19 140.359Z" fill="#1D1D1B"/>
<path d="M210.27 74.0503C210.69 76.7103 210.3 79.4403 209.16 81.8803C209.03 82.1503 209.83 81.8803 209.88 81.8503C210.19 81.7203 210.67 81.5003 210.82 81.1703C211.98 78.6803 212.36 75.9003 211.93 73.1903C211.9 73.0003 210.19 73.5603 210.27 74.0503Z" fill="#1D1D1B"/>
<path d="M209.1 128.292C231.804 128.292 250.21 108.901 250.21 84.9819C250.21 61.0624 231.804 41.6719 209.1 41.6719C186.396 41.6719 167.99 61.0624 167.99 84.9819C167.99 108.901 186.396 128.292 209.1 128.292Z" fill="#0086CD"/>
<path d="M197.13 69.0898L195.7 72.8098L193.72 70.3398L190.78 73.3398L192.59 75.8998L189.38 76.8898L189.55 80.9998L192.88 80.1199L191.38 84.0298L194.99 85.6698L196.55 81.5098L198.93 84.8898L202.66 81.5098L200.04 78.2398L204.24 77.1398L203.48 72.5198L199.46 73.7598L200.94 69.8198L197.13 69.0898Z" fill="#1D1D1B"/>
<path d="M221.71 69.0898L220.28 72.8098L218.31 70.3398L215.37 73.3398L217.17 75.8998L213.96 76.8898L214.13 80.9998L217.47 80.1199L215.96 84.0298L219.57 85.6698L221.14 81.5098L223.51 84.8898L227.24 81.5098L224.62 78.2398L228.83 77.1398L228.07 72.5198L224.05 73.7598L225.53 69.8198L221.71 69.0898Z" fill="#1D1D1B"/>
<path d="M206.03 67.7188C206.42 70.1588 206.81 72.5887 207.2 75.0287C207.4 76.2787 207.6 77.5287 207.8 78.7787C207.88 79.2887 208.02 79.8287 207.99 80.3487C207.99 80.4987 207.97 80.6488 207.91 80.7988L208.14 80.9287C208.08 80.9987 207.73 81.0387 207.63 81.0687C206.31 81.4887 204.98 82.1087 204.63 83.5687C204.17 85.5087 205.65 87.0887 207.09 88.1387C207.43 88.3887 208.67 87.2988 208.81 87.4088C207.4 86.3788 205.95 84.8687 206.32 82.9688C206.36 82.7487 206.42 82.5387 206.51 82.3387C206.57 82.2087 206.99 81.7187 206.98 81.6287C207.12 81.5087 207.09 81.4987 206.88 81.5887C206.64 81.6587 206.63 81.6587 206.83 81.6087C207.01 81.5587 207.2 81.5087 207.38 81.4487C207.98 81.2487 208.74 80.9988 209.24 80.5788C209.94 79.9788 209.68 79.0388 209.55 78.2288L208.95 74.4788L207.75 66.9688C207.75 66.9688 205.99 67.4187 206.03 67.6987V67.7188Z" fill="#1D1D1B"/>
<path d="M192.57 47.2689C204.48 47.2689 216.39 47.2689 228.3 47.2689C228.77 47.2689 228.13 46.9089 228.04 46.8489C227.71 46.5989 227.04 46.3789 226.62 46.3789C214.71 46.3789 202.8 46.3789 190.89 46.3789C190.42 46.3789 191.06 46.7389 191.15 46.7989C191.48 47.0489 192.15 47.2689 192.57 47.2689Z" fill="#303031"/>
<path d="M198.71 44.0287C200.83 39.6687 202.96 35.3087 205.08 30.9487L203.16 30.7187C204.27 32.1987 205.48 33.6087 206.8 34.9087C207.84 35.9287 209.34 37.7487 210.86 37.9887C211.59 38.0987 212.12 37.7787 212.65 37.3087C213.38 36.6587 214.08 35.9787 214.85 35.3687C216.32 34.1987 218.03 32.9387 219.8 32.2687L219.07 32.3287L219.35 32.3787L218.44 31.8087C218.98 32.5187 218.74 34.1887 218.76 35.0387C218.79 36.2187 218.87 37.3887 219 38.5587C219.26 40.8087 219.73 43.0287 220.39 45.1887C220.65 46.0587 222.76 46.3587 222.41 45.2187C221.69 42.8287 221.2 40.3787 220.99 37.8887C220.89 36.7487 220.87 35.5987 220.84 34.4587C220.82 33.5887 220.86 32.3987 220.4 31.6187C219.33 29.8087 217.09 31.4487 215.91 32.1787C214.98 32.7587 214.07 33.3987 213.21 34.0787C212.77 34.4187 212.34 34.7787 211.93 35.1487C211.52 35.5187 210.89 36.3587 210.34 36.4587L211.14 36.5587C210.53 36.3487 209.96 35.6887 209.48 35.2687C208.93 34.7787 208.4 34.2687 207.88 33.7387C206.84 32.6787 205.89 31.5387 204.99 30.3587C204.62 29.8687 203.44 29.3687 203.07 30.1287C200.95 34.4887 198.82 38.8487 196.7 43.2087C196.28 44.0787 198.29 44.9287 198.72 44.0387L198.71 44.0287Z" fill="#303031"/>
<path d="M193.06 115.752C189.99 115.472 186.54 115.742 183.72 117.082C181.19 118.282 180.37 120.792 180.57 123.452C180.97 128.752 184.34 133.512 188.92 136.072C189.51 136.402 190.91 135.982 189.92 135.432C185.83 133.152 182.97 128.922 182.34 124.282C182.02 121.932 182.42 119.262 184.69 118.022C187.22 116.642 190.55 116.472 193.35 116.722C193.64 116.752 194.1 116.622 194.05 116.262C194 115.902 193.32 115.782 193.05 115.762L193.06 115.752Z" fill="#1D1D1B"/>
<path d="M207.39 116.168C205.22 116.408 201.82 116.768 200.6 118.888C199.96 119.998 199.89 121.438 199.8 122.698C199.7 124.048 199.74 125.418 200.01 126.748C201.04 131.768 205.44 134.888 209.49 137.478C210.44 138.088 209.94 136.688 209.44 136.358C205.82 134.038 201.79 131.388 201.15 126.768C200.99 125.588 201 124.388 201.11 123.208C201.21 122.118 201.3 120.878 201.92 119.928C203.12 118.088 206.34 117.788 208.32 117.568C208.86 117.508 207.95 116.098 207.39 116.158V116.168Z" fill="#1D1D1B"/>
<path d="M187.29 134.26C186.05 136.08 184.67 138.59 186.36 140.61C187.81 142.35 190.51 142.22 192.5 141.7C197.55 140.37 200.68 135.93 203.34 131.77C203.82 131.02 202.28 130.26 201.87 130.89C199.69 134.28 197.33 137.83 193.63 139.7C192.17 140.44 189.83 141.27 188.23 140.51C187.3 140.07 187.13 138.9 187.31 137.98C187.52 136.92 188.15 136 188.75 135.13C189.25 134.4 187.71 133.63 187.28 134.25L187.29 134.26Z" fill="#1D1D1B"/>
<path d="M205.81 134.78C204.62 136.57 203.56 138.72 204.75 140.8C205.84 142.7 208.38 143.19 210.4 142.89C212.89 142.53 214.62 140.84 216.28 139.1C217.2 138.13 218.09 137.14 218.97 136.14C219.43 135.62 219.88 135.09 220.33 134.57C220.69 134.15 221.27 133.67 221.41 133.11C221.55 132.55 221.26 132.01 221.05 131.52C220.73 130.79 220.4 130.07 220.08 129.34C219.39 127.78 218.69 126.23 218 124.67C217.88 124.39 217.52 123.85 217.14 123.95C216.76 124.05 216.8 124.51 216.93 124.79C217.53 126.14 218.13 127.49 218.74 128.84C219.02 129.46 219.3 130.08 219.57 130.71C219.71 131.02 219.87 131.33 219.99 131.64C220.16 132.07 220.2 132.06 219.97 132.44C219.65 132.96 219.12 133.43 218.72 133.89C218.27 134.41 217.81 134.94 217.35 135.46C216.47 136.46 215.57 137.44 214.64 138.4C212.83 140.25 210.7 141.71 207.99 141.36C206.85 141.21 205.55 140.87 205.5 139.53C205.45 138.19 206.27 137.1 206.95 136.08C207.31 135.53 206.25 134.17 205.84 134.8L205.81 134.78Z" fill="#1D1D1B"/>
<path d="M226.02 118.909C226.56 120.639 225.98 122.699 224.65 123.919C223.02 125.409 220.62 125.249 218.57 125.109C218.18 125.079 217.66 125.199 217.53 125.639C217.42 126.039 217.82 126.369 218.19 126.399C220.83 126.579 223.84 126.669 225.93 124.759C227.66 123.179 228.36 120.689 227.66 118.459C227.41 117.679 225.73 118.029 226.01 118.919L226.02 118.909Z" fill="#1D1D1B"/>
<path d="M134.1 88.0994C150.33 88.0994 166.55 88.0994 182.78 88.0994C183.25 88.0994 184.2 87.9194 184.45 87.4494C184.7 86.9794 184.23 86.8594 183.81 86.8594C167.58 86.8594 151.36 86.8594 135.13 86.8594C134.66 86.8594 133.71 87.0394 133.46 87.5094C133.21 87.9794 133.68 88.0994 134.1 88.0994Z" fill="#1D1D1B"/>
<path d="M182.47 88.1208C184.26 96.4008 186.98 104.441 190.58 112.111C190.96 112.921 193.42 112.121 193.1 111.441C189.5 103.771 186.78 95.7308 184.99 87.4508C184.82 86.6508 182.29 87.2808 182.47 88.1208Z" fill="#1D1D1B"/>
<path d="M133.29 88.1018C135.4 93.4618 137.73 98.7418 140.26 103.922C141.5 106.442 142.79 108.942 144.12 111.422C144.63 112.362 145.08 113.612 146 114.232C147.09 114.962 148.65 114.752 149.89 114.772C161.9 114.892 173.92 115.012 185.93 115.132C192.73 115.202 199.54 115.272 206.34 115.342C206.87 115.342 207.74 115.182 207.99 114.622C208.22 114.102 207.79 113.772 207.28 113.772C195.63 113.652 183.98 113.542 172.33 113.422C166.54 113.362 160.75 113.302 154.96 113.252C153.58 113.242 152.21 113.222 150.83 113.212C150.17 113.212 149.39 113.292 148.74 113.192C147.98 113.072 147.68 112.642 147.3 111.992C145.87 109.512 144.59 106.932 143.31 104.372C140.56 98.8418 138.06 93.1918 135.79 87.4418C135.41 86.4718 132.91 87.2118 133.27 88.1118L133.29 88.1018Z" fill="#1D1D1B"/>
<path d="M191.13 111.812C194.77 112.082 198.4 112.352 202.04 112.622L207.5 113.032L210.02 113.222C210.4 113.252 210.83 113.222 211.2 113.312C211.55 113.322 211.77 113.492 211.86 113.802C212.54 113.682 212.65 113.622 212.21 113.612C211.6 113.512 210.87 113.612 210.43 114.092C210.09 114.452 210.12 115.022 210.71 115.122C211.98 115.322 215.19 114.942 214.28 112.872C213.89 111.982 212.82 111.792 211.97 111.702C210.66 111.562 209.34 111.502 208.02 111.402C202.7 111.002 197.39 110.612 192.07 110.212C191.54 110.172 190.66 110.392 190.42 110.932C190.18 111.472 190.63 111.762 191.14 111.802L191.13 111.812Z" fill="#1D1D1B"/>
<path d="M235.75 91.0486C235.42 95.1386 231.87 97.7486 228.12 98.5686C225.82 99.0786 223.42 99.1186 221.07 99.1786C218.72 99.2386 216.36 99.2486 214.01 99.0886C212.88 99.0186 211.75 98.9086 210.62 98.7486C209.59 98.6086 208.57 98.4186 207.53 98.5886C205.82 98.8686 204.32 100.009 202.97 101.029C201.41 102.209 199.97 103.559 198.68 105.029C197.72 106.119 196.25 107.859 197.34 109.359C198.32 110.709 200.48 109.989 201.56 109.149C203.44 107.689 204.76 105.639 207.32 105.319C208.08 105.219 208.75 104.359 207.58 104.509C205.95 104.709 204.47 105.369 203.15 106.339C202.49 106.819 201.88 107.369 201.3 107.949C201 108.239 200.72 108.649 200.36 108.859C199.44 109.409 198.83 108.939 198.69 108.099C198.39 106.309 200.75 104.349 201.91 103.249C203.28 101.939 204.84 100.609 206.52 99.7186C207.64 99.1286 208.81 99.4786 210 99.6286C211.19 99.7786 212.26 99.8686 213.39 99.9386C215.51 100.069 217.63 100.079 219.76 100.039C223.56 99.9586 227.56 99.9086 231.12 98.4086C234.28 97.0786 237.14 94.3886 237.43 90.8086C237.48 90.2186 235.8 90.5586 235.76 91.0486H235.75Z" fill="#1D1D1B"/>
<path d="M207.8 103.311C207.11 104.851 205.13 109.341 208.14 109.731C208.68 109.801 209.23 109.641 209.71 109.411C210.1 109.221 210.04 109.181 210.36 109.441C210.55 109.591 210.68 109.791 210.89 109.931C212.03 110.661 213.18 110.111 214.39 110.011L213.72 109.871C214.56 110.471 215.29 110.761 216.35 110.801C217.58 110.851 218.86 110.761 220.08 110.521C222.06 110.141 224.62 109.111 224.78 106.771C224.83 106.081 223.14 106.401 223.1 106.981C222.94 109.271 220.34 109.691 218.49 109.811C217.62 109.861 216.54 109.991 215.75 109.551C215.41 109.361 215.24 109.091 214.83 109.061C214.39 109.021 213.96 109.201 213.54 109.291C213 109.401 212.5 109.381 212.09 108.991C211.82 108.731 211.66 108.451 211.3 108.311C210.47 107.991 209.88 108.481 209.13 108.681C207.94 108.991 208.27 106.771 208.42 106.181C208.68 105.131 209.05 104.111 209.49 103.121C209.65 102.761 208.94 102.731 208.76 102.751C208.38 102.791 207.97 102.971 207.81 103.331L207.8 103.311Z" fill="#1D1D1B"/>
<path d="M245.29 92.1394C246.36 94.4794 246.02 97.0894 245.4 99.5094C244.78 101.929 243.46 104.219 241.21 105.559C238.81 106.999 235.73 107.379 233 107.679C230.47 107.949 227.76 108.129 225.52 106.699C225.11 106.429 223.67 107.109 223.94 107.289C226.3 108.799 229.18 108.719 231.87 108.449C234.96 108.149 238.22 107.679 241.08 106.399C243.67 105.249 245.72 103.209 246.67 100.509C247.63 97.7794 248.2 94.4094 246.96 91.6894C246.76 91.2494 245.13 91.8094 245.28 92.1394H245.29Z" fill="#1D1D1B"/>
<path d="M199.98 96.0011C201.93 96.5911 203.67 97.7311 205 99.3011C205.26 99.6111 205.8 99.5811 206.14 99.4111C206.4 99.2711 206.82 98.9011 206.54 98.5711C205.08 96.8411 203.13 95.5611 200.96 94.9011C200.56 94.7811 200.05 94.9011 199.77 95.2211C199.52 95.5011 199.6 95.8911 199.98 96.0011Z" fill="#1D1D1B"/>
<path d="M191.72 62.7416C194.98 67.7216 201.52 69.2716 206.85 66.7916C207.12 66.6616 207.51 66.3516 207.27 66.0216C207.03 65.6916 206.43 65.8216 206.14 65.9516C201.46 68.1316 196.04 66.2816 193.27 62.0416C192.91 61.4916 191.29 62.0816 191.72 62.7416Z" fill="#1D1D1B"/>
<path d="M216 63.3217C216.33 61.4917 218.19 60.2917 219.88 59.8317C221.84 59.2917 223.66 61.0417 224.97 62.2517C225.34 62.6017 226.9 61.9717 226.54 61.6417C225.62 60.7917 224.67 59.9517 223.52 59.4117C222.31 58.8417 220.98 58.8117 219.7 59.1617C217.57 59.7417 214.77 61.1817 214.33 63.5817C214.24 64.1017 215.91 63.8117 216 63.3217Z" fill="#1D1D1B"/>
<path d="M159.96 102.611C159.96 102.191 160.02 101.761 160.16 101.371C160.23 101.191 160.31 101.011 160.41 100.841C160.45 100.761 160.5 100.691 160.55 100.621C160.57 100.591 160.7 100.471 160.63 100.511L160.23 100.691L160.31 100.671H159.68C159.59 100.601 159.59 100.601 159.66 100.681L159.81 100.871L160.04 101.151C160.22 101.371 160.4 101.591 160.57 101.801C160.74 102.011 160.9 102.241 161.1 102.421C161.43 102.721 161.95 102.671 162.32 102.491C162.83 102.251 163.04 101.691 163.36 101.261C163.51 101.061 163.68 100.861 163.85 100.671C163.94 100.581 164.02 100.481 164.12 100.391C164.15 100.361 164.37 100.221 164.24 100.271L163.79 100.391C163.52 100.301 163.46 100.301 163.61 100.391C163.61 100.411 163.63 100.431 163.65 100.441C163.71 100.511 163.76 100.591 163.8 100.661C163.91 100.861 164.01 101.071 164.1 101.281C164.29 101.731 164.45 102.191 164.57 102.671C164.75 103.371 166.43 102.931 166.25 102.221C166.09 101.601 165.88 101.001 165.6 100.421C165.32 99.8409 165 99.3109 164.28 99.2609C163.47 99.2109 162.9 99.7809 162.41 100.341C162.19 100.591 161.98 100.851 161.79 101.121C161.64 101.331 161.43 101.711 161.31 101.831L161.64 101.601L161.58 101.631L162.24 101.511H162.18C162.34 101.571 162.49 101.641 162.65 101.711C162.42 101.511 162.24 101.231 162.05 100.991C161.87 100.771 161.69 100.551 161.52 100.341C161.35 100.131 161.17 99.8509 160.91 99.7009C160.52 99.4809 160.02 99.5709 159.65 99.7709C159.15 100.031 158.84 100.611 158.63 101.121C158.42 101.631 158.29 102.191 158.28 102.761C158.28 103.161 158.7 103.271 159.04 103.241C159.33 103.211 159.97 102.991 159.98 102.601L159.96 102.611Z" fill="#1D1D1B"/>
<path d="M226.44 118.851H245.08C245.66 118.851 246.37 118.701 246.86 118.371C247.23 118.131 247.24 117.871 246.73 117.871H228.09C227.51 117.871 226.8 118.021 226.31 118.351C225.94 118.591 225.93 118.851 226.44 118.851Z" fill="#1D1D1B"/>
<path d="M245.3 118.55C245.46 121.02 245.43 123.48 245.24 125.95L246.96 124.98C238.96 124.79 230.96 124.88 222.97 125.26C221.59 125.32 220.98 127.05 222.71 126.97C230.49 126.61 238.27 126.51 246.06 126.7C246.61 126.71 247.72 126.47 247.78 125.73C247.99 123.12 247.99 120.5 247.82 117.89C247.75 116.85 245.23 117.42 245.3 118.56V118.55Z" fill="#1D1D1B"/>
<path d="M240.99 126.089C240.47 131.459 240.31 136.849 240.52 142.229C240.54 142.869 243.07 142.419 243.04 141.559C242.84 136.269 242.99 130.989 243.5 125.719C243.58 124.859 241.07 125.359 241 126.089H240.99Z" fill="#1D1D1B"/>
<path d="M234.53 126.609C233.76 131.679 233.58 136.809 233.94 141.929C234.01 142.969 236.54 142.389 236.46 141.259C236.11 136.299 236.33 131.309 237.07 126.389C237.25 125.209 234.69 125.579 234.53 126.619V126.609Z" fill="#1D1D1B"/>
<path d="M199.44 134.99C199.68 137.42 200.05 139.84 200.56 142.23C200.63 142.58 201.72 142.3 201.91 142.24C202.12 142.18 203.15 141.92 203.08 141.55C202.58 139.16 202.21 136.74 201.96 134.31C201.93 133.97 200.78 134.25 200.61 134.3C200.36 134.37 199.41 134.6 199.44 134.99Z" fill="#1D1D1B"/>
<path d="M299.09 141.981C301.81 141.821 304.53 141.771 307.25 141.861C307.85 141.881 308.53 141.731 309.03 141.381C309.41 141.121 309.38 140.781 308.86 140.761C305.96 140.661 303.05 140.701 300.15 140.881C299.61 140.911 298.85 141.081 298.47 141.501C298.09 141.921 298.81 141.991 299.08 141.981H299.09Z" fill="#1D1D1B"/>
<path d="M459.38 142.871C460.46 143.621 461.81 143.401 463.02 143.151C464.65 142.821 465.88 143.321 467.42 143.811C470.5 144.781 473.67 144.261 476.79 143.771C483.78 142.661 490.87 142.431 497.92 143.051C498.9 143.141 500.59 141.751 498.89 141.601C492.2 141.011 485.45 141.171 478.8 142.101C475.68 142.531 472.43 143.441 469.31 142.531C467.92 142.131 466.6 141.531 465.13 141.511C463.97 141.491 462.38 142.331 461.38 141.641C460.7 141.161 458.37 142.171 459.38 142.871Z" fill="#1D1D1B"/>
<path d="M318 142.609C323.14 142.439 328.27 142.139 333.39 141.739C333.81 141.709 334.74 141.429 334.83 140.929C334.93 140.389 334.06 140.449 333.77 140.479C328.86 140.869 323.93 141.139 319.01 141.299C318.48 141.319 317.65 141.469 317.34 141.959C317.03 142.449 317.6 142.619 318 142.609Z" fill="#1D1D1B"/>
<path d="M61.07 140.928C61.66 140.928 62.69 140.738 62.98 140.128C63.27 139.518 62.74 139.238 62.18 139.238C61.59 139.238 60.56 139.428 60.27 140.038C59.98 140.648 60.51 140.928 61.07 140.928Z" fill="#1D1D1B"/>
<path d="M62.35 139.372C58.63 139.142 54.91 138.882 51.19 138.692C49.62 138.612 48.1 138.672 46.65 139.342C45.2 140.012 44.02 141.312 42.38 141.342C40.59 141.372 38.72 140.902 36.94 140.712C35.16 140.522 33.28 140.392 31.45 140.322C27.74 140.172 24.03 140.242 20.34 140.532C19.83 140.572 19 140.912 18.94 141.512C18.88 142.112 19.61 142.312 20.09 142.272C23.79 141.982 27.49 141.912 31.19 142.082C33.02 142.172 34.85 142.312 36.68 142.512C38.38 142.702 40.1 143.082 41.81 143.082C43.35 143.082 44.67 142.562 45.96 141.772C46.59 141.382 47.2 140.922 47.89 140.652C48.66 140.352 49.49 140.382 50.29 140.422C54.01 140.612 57.73 140.872 61.45 141.102C62.02 141.132 62.84 140.932 63.1 140.352C63.34 139.802 62.89 139.392 62.35 139.362V139.372Z" fill="#1D1D1B"/>
<path d="M312.61 128.711C334.409 128.711 352.08 110.095 352.08 87.1308C352.08 64.1668 334.409 45.5508 312.61 45.5508C290.811 45.5508 273.14 64.1668 273.14 87.1308C273.14 110.095 290.811 128.711 312.61 128.711Z" fill="#FFDC67"/>
<path d="M301.11 71.8711L299.73 75.4411L297.84 73.0711L295.02 75.9511L296.75 78.4111L293.67 79.3611L293.83 83.3011L297.03 82.4611L295.59 86.2211L299.05 87.7911L300.55 83.8011L302.84 87.0411L306.42 83.8011L303.9 80.6611L307.94 79.6011L307.21 75.1611L303.35 76.3611L304.77 72.5811L301.11 71.8711Z" fill="#1D1D1B"/>
<path d="M324.72 71.8711L323.34 75.4411L321.45 73.0711L318.62 75.9511L320.36 78.4111L317.27 79.3611L317.44 83.3011L320.64 82.4611L319.19 86.2211L322.66 87.7911L324.16 83.8011L326.44 87.0411L330.02 83.8011L327.51 80.6611L331.55 79.6011L330.82 75.1611L326.96 76.3611L328.38 72.5811L324.72 71.8711Z" fill="#1D1D1B"/>
<path d="M348.84 83.5518C352.67 85.4518 356.58 87.4818 359.12 91.0518C361.56 94.4818 362.61 98.6618 363.53 102.702C363.55 102.802 365.08 102.242 365 101.892C364.06 97.7518 362.97 93.4618 360.41 89.9918C357.86 86.5318 353.98 84.5618 350.22 82.6918C349.89 82.5218 348.73 83.4918 348.85 83.5518H348.84Z" fill="#1D1D1B"/>
<path d="M344.54 94.8311C345.13 97.3111 345.53 99.8211 345.71 102.361C345.76 103.081 346.15 104.531 345.17 104.701C344.48 104.821 343.75 104.681 343.05 104.761C342.41 104.831 341.74 105.051 341.32 105.561C340.68 106.331 340.91 107.341 341.28 108.181C341.98 109.741 343.35 111.521 345.29 110.991C346.35 110.701 345.77 109.571 344.85 109.821C343.69 110.131 341.79 106.721 342.93 106.051C343.38 105.781 344.15 105.941 344.65 105.931C345.26 105.931 345.89 105.881 346.45 105.611C347.06 105.311 347.41 104.761 347.47 104.081C347.57 103.041 347.37 101.901 347.27 100.871C347.05 98.7311 346.67 96.6111 346.17 94.5111C345.99 93.7711 344.34 93.9611 344.55 94.8111L344.54 94.8311Z" fill="#1D1D1B"/>
<path d="M346.66 108.991C346.16 110.321 345.94 111.571 346.78 112.811C347.32 113.621 348.22 114.381 349.22 113.931C349.77 113.681 350.12 113.351 350.76 113.401C351.26 113.441 351.73 113.661 352.17 113.881C352.98 114.291 353.74 114.821 354.62 115.061C355.5 115.301 356.25 115.061 356.8 114.371C357.39 113.621 357.81 112.201 359.01 112.401C360.21 112.601 360.88 113.591 362.18 113.131C363.23 112.761 363.88 111.751 363.83 110.661C363.81 110.311 363.52 109.881 363.26 109.661C363.13 109.551 362.75 109.261 362.77 109.631C362.82 110.651 362.04 111.551 361.06 111.791C359.96 112.061 359.24 111.141 358.21 110.991C356.41 110.731 356.37 113.281 354.89 113.701C353.48 114.101 352 112.601 350.73 112.171C350.12 111.971 349.5 111.911 348.9 112.171C348.51 112.341 347.81 112.981 347.37 112.571C346.88 112.111 347.51 110.731 347.69 110.241C347.85 109.821 346.77 108.651 346.65 108.991H346.66Z" fill="#1D1D1B"/>
<path d="M363.47 102.431C363.87 104.991 363.49 107.611 362.4 109.961C362.29 110.201 363.01 109.961 363.05 109.941C363.33 109.821 363.76 109.631 363.9 109.331C365.01 106.941 365.38 104.271 364.97 101.671C364.94 101.501 363.41 102.001 363.48 102.441L363.47 102.431Z" fill="#1D1D1B"/>
<path d="M309.19 70.7619C309.56 73.1019 309.94 75.4419 310.31 77.7819C310.5 78.9819 310.69 80.1819 310.88 81.3819C310.96 81.8719 311.09 82.3919 311.06 82.8919C311.06 83.0419 311.04 83.1819 310.99 83.3219L312.07 83.0519C311.91 83.1519 311.64 83.1719 311.46 83.2219C310.01 83.6819 308.24 84.3319 307.85 85.9719C307.41 87.8419 308.83 89.3519 310.21 90.3619C310.44 90.5319 311.33 90.0419 311.55 89.9519C311.65 89.9119 312.8 89.2819 312.78 89.2719C311.43 88.2819 310.04 86.8319 310.39 85.0119C310.43 84.8019 310.49 84.6019 310.57 84.4119C310.64 84.2419 311 83.9019 311.01 83.7519C311.25 83.5219 311.08 83.5719 310.49 83.9019C309.84 84.1319 309.68 84.2019 310.02 84.1119C310.22 84.0719 310.43 84.0019 310.62 83.9419C311.44 83.6819 312.47 83.3419 313.14 82.7719C313.84 82.1819 313.6 81.2819 313.47 80.4819C313.28 79.2819 313.09 78.0819 312.9 76.8819C312.52 74.4819 312.13 72.0819 311.75 69.6719C311.75 69.6719 309.11 70.3419 309.17 70.7719L309.19 70.7619Z" fill="#1D1D1B"/>
<path d="M301.21 43.8404C308.57 43.8404 315.94 43.8404 323.3 43.8404C323.63 43.8404 324.18 43.8404 323.85 43.4904C323.52 43.1404 322.38 43.1604 321.96 43.1604C314.6 43.1604 307.23 43.1604 299.87 43.1604C299.54 43.1604 298.99 43.1604 299.32 43.5104C299.65 43.8604 300.79 43.8404 301.21 43.8404Z" fill="#303031"/>
<path d="M303.11 50.3509C304.91 47.6409 306.7 44.9209 308.7 42.3509C309.67 41.1009 310.69 39.8709 311.79 38.7209C312.64 37.8309 314.19 36.1409 315.56 36.2609L314.82 36.0909C315.61 36.4209 315.93 38.1209 316.17 38.8509C316.56 40.0509 316.93 41.2609 317.31 42.4709C318.06 44.8609 318.82 47.2409 319.57 49.6309C319.76 50.2409 321.84 50.1809 321.6 49.4309C320.53 46.0609 319.47 42.6809 318.4 39.3109C318.04 38.1709 317.73 36.4009 316.73 35.6509C315.73 34.9009 314.11 35.3009 313.08 35.7809C310.47 36.9809 308.5 39.6809 306.78 41.8909C304.74 44.5009 302.91 47.2709 301.09 50.0309C300.7 50.6109 302.72 50.9409 303.1 50.3609L303.11 50.3509Z" fill="#303031"/>
<path d="M297.62 116.728C294.55 116.448 291.1 116.718 288.28 118.058C285.75 119.258 284.93 121.768 285.13 124.428C285.53 129.728 288.9 134.488 293.48 137.048C294.07 137.378 295.47 136.958 294.48 136.408C290.39 134.128 287.53 129.898 286.9 125.258C286.58 122.908 286.98 120.238 289.25 118.998C291.78 117.618 295.11 117.448 297.91 117.698C298.2 117.728 298.66 117.598 298.61 117.238C298.56 116.878 297.88 116.758 297.61 116.738L297.62 116.728Z" fill="#1D1D1B"/>
<path d="M311.95 117.149C309.78 117.389 306.38 117.749 305.16 119.869C304.52 120.979 304.45 122.419 304.36 123.679C304.26 125.029 304.3 126.399 304.57 127.729C305.6 132.749 310 135.869 314.05 138.459C315 139.069 314.5 137.669 314 137.339C310.38 135.019 306.35 132.369 305.71 127.749C305.55 126.569 305.56 125.369 305.67 124.189C305.77 123.099 305.86 121.859 306.48 120.909C307.68 119.069 310.9 118.769 312.88 118.549C313.42 118.489 312.51 117.079 311.95 117.139V117.149Z" fill="#1D1D1B"/>
<path d="M291.85 135.241C290.61 137.061 289.23 139.571 290.92 141.591C292.37 143.331 295.07 143.201 297.06 142.681C302.11 141.351 305.24 136.911 307.9 132.751C308.38 132.001 306.84 131.241 306.43 131.871C304.25 135.261 301.89 138.811 298.19 140.681C296.73 141.421 294.39 142.251 292.79 141.491C291.86 141.051 291.69 139.881 291.87 138.961C292.08 137.901 292.71 136.981 293.31 136.111C293.81 135.381 292.27 134.611 291.84 135.231L291.85 135.241Z" fill="#1D1D1B"/>
<path d="M310.37 135.76C309.18 137.55 308.12 139.7 309.31 141.78C310.4 143.68 312.94 144.17 314.96 143.87C317.45 143.51 319.18 141.82 320.84 140.08C321.76 139.11 322.65 138.12 323.53 137.12C323.99 136.6 324.44 136.07 324.89 135.55C325.25 135.13 325.83 134.65 325.97 134.09C326.11 133.53 325.82 132.99 325.61 132.5C325.29 131.77 324.96 131.05 324.64 130.32C323.95 128.76 323.25 127.21 322.56 125.65C322.44 125.37 322.08 124.83 321.7 124.93C321.32 125.03 321.36 125.49 321.49 125.77C322.09 127.12 322.69 128.47 323.3 129.82C323.58 130.44 323.86 131.06 324.13 131.69C324.27 132 324.43 132.31 324.55 132.62C324.72 133.05 324.76 133.04 324.53 133.42C324.21 133.94 323.68 134.41 323.28 134.87C322.83 135.39 322.37 135.92 321.91 136.44C321.03 137.44 320.13 138.42 319.2 139.38C317.39 141.23 315.26 142.69 312.55 142.34C311.41 142.19 310.11 141.85 310.06 140.51C310.01 139.17 310.83 138.08 311.51 137.06C311.87 136.51 310.81 135.15 310.4 135.78L310.37 135.76Z" fill="#1D1D1B"/>
<path d="M330.58 119.89C331.12 121.62 330.54 123.68 329.21 124.9C327.58 126.39 325.18 126.23 323.13 126.09C322.74 126.06 322.22 126.18 322.09 126.62C321.98 127.02 322.38 127.35 322.75 127.38C325.39 127.56 328.4 127.65 330.49 125.74C332.22 124.16 332.92 121.67 332.22 119.44C331.97 118.66 330.29 119.01 330.57 119.9L330.58 119.89Z" fill="#1D1D1B"/>
<path d="M299.57 97.3203C301.48 103.34 309.61 103.24 314.67 102.89C317.62 102.69 320.85 102.36 323.49 100.94C325.8 99.7003 327.67 97.3903 327.43 94.6503C327.34 93.6203 324.74 93.5703 324.83 94.5103C325.32 100.06 318.54 101.11 314.46 101.43C310.24 101.76 303.69 102.11 302.1 97.0703C301.82 96.1803 299.23 96.2603 299.57 97.3203Z" fill="#1D1D1B"/>
<path d="M264.93 65.3583C264.93 65.3583 265.97 65.7083 266.62 66.1483C266.66 66.0283 266.69 65.9083 266.73 65.7883C266.79 65.6483 266.81 65.4983 266.79 65.3383C266.79 65.1783 266.77 65.0183 266.7 64.8583C266.64 64.6883 266.55 64.5383 266.43 64.4183C266.33 64.2783 266.21 64.1683 266.06 64.0883C265.96 64.0483 265.87 64.0083 265.77 63.9583C265.58 63.8983 265.38 63.8883 265.19 63.9383L264.93 64.0583C264.77 64.1683 264.65 64.3183 264.58 64.5083C264.41 64.9383 264.3 65.3883 264.22 65.8383C264.2 65.9683 264.22 66.0983 264.25 66.2283C264.4 66.2183 264.58 66.2483 264.75 66.3183C264.81 65.9983 264.87 65.6783 264.93 65.3483V65.3583Z" fill="black"/>
<path d="M262.95 83.4391C262.88 83.4791 262.81 83.5291 262.74 83.5691C262.61 83.6391 262.47 83.6991 262.32 83.7391C262.21 83.7791 262.09 83.8091 261.97 83.8091H261.51C261.44 84.0191 261.38 84.2391 261.32 84.4491C261.21 84.7891 260.67 84.6691 260.26 84.3991C259.66 84.8391 259.13 85.3691 258.73 85.9991C258.15 86.9191 257.78 88.2591 258.82 89.0091C259.75 89.6791 261.03 89.8091 262.14 89.6991C262.19 89.6991 262.25 89.6791 262.3 89.6691C262.3 89.5091 262.31 89.3591 262.32 89.1991C262.33 88.9991 262.42 88.8191 262.56 88.6791C262.27 88.7191 262.02 88.7391 261.73 88.7191C261.37 88.6891 261 88.5991 260.67 88.4491C258.84 87.6491 260.49 85.4591 261.51 84.7791C261.59 84.7291 261.67 84.6791 261.75 84.6291C261.73 84.6291 261.73 84.6391 261.77 84.6191C261.77 84.6191 261.76 84.6191 261.75 84.6291C261.77 84.6191 261.81 84.5991 261.81 84.5991C261.86 84.5691 261.91 84.5491 261.97 84.5191C262.06 84.4791 262.16 84.4291 262.26 84.3991C262.21 84.4091 262.28 84.3991 262.29 84.3891C262.28 84.3891 262.27 84.3891 262.26 84.3991C262.26 84.3991 262.26 84.3991 262.28 84.3991C262.35 84.3791 262.42 84.3491 262.49 84.3291C262.65 84.2791 262.75 84.2491 262.93 84.2391C263.04 84.2391 263.19 84.2391 263.33 84.3691C263.63 84.6191 264.12 84.5191 264.45 84.3691C264.63 84.2791 265.17 83.9091 264.87 83.6491C264.65 83.4591 264.39 83.3491 264.11 83.2891C264.08 83.4891 264.04 83.6791 264.01 83.8791C264.01 83.8991 263.5 83.7191 262.97 83.4591L262.95 83.4391Z" fill="black"/>
<path d="M263.66 88.2995C263.66 88.2995 263.65 88.2995 263.64 88.3095C263.67 88.2895 263.67 88.2895 263.66 88.2995Z" fill="black"/>
<path d="M261.74 84.6194C261.74 84.6194 261.75 84.6194 261.76 84.6094C261.72 84.6294 261.72 84.6294 261.74 84.6194Z" fill="black"/>
<path d="M262.24 84.3811C262.24 84.3811 262.26 84.3711 262.27 84.3711C262.25 84.3711 262.19 84.4011 262.24 84.3811Z" fill="black"/>
<path d="M263.93 88.6291C263.92 88.8191 263.91 89.0191 263.9 89.2091C264.59 88.9191 265.22 88.5191 265.75 87.9891C266 87.7391 265.91 87.4391 265.56 87.3691C265.17 87.2891 264.66 87.4391 264.38 87.7191C264.25 87.8491 264.11 87.9791 264 88.0591C263.93 88.1091 263.86 88.1591 263.78 88.2091C263.74 88.2391 263.69 88.2591 263.65 88.2891C263.66 88.2891 263.66 88.2891 263.63 88.2991C263.63 88.2991 263.64 88.2991 263.65 88.2891C263.65 88.2891 263.64 88.2891 263.63 88.2991C263.8 88.3391 263.94 88.4291 263.93 88.6191V88.6291Z" fill="black"/>
<path d="M259.82 83.5283C259.82 83.5283 259.81 83.5683 259.8 83.5883C259.71 83.8783 259.94 84.1783 260.25 84.3883C260.56 84.1683 260.88 83.9583 261.22 83.7983H261.19C261.08 83.8183 261 83.7883 260.93 83.7083C260.93 83.6683 260.92 83.6283 260.91 83.5883C260.94 83.4583 261 83.3483 261.1 83.2483C261.16 83.1783 261.23 83.1183 261.29 83.0483C261.41 82.9383 261.54 82.8383 261.68 82.7483C261.74 82.7083 261.8 82.6783 261.86 82.6383C261.82 82.5583 261.79 82.4883 261.81 82.4183C261.91 81.8483 262.01 81.2783 262.11 80.7183C262.06 80.6683 262.04 80.6183 262.11 80.5883C262.11 80.5883 262.12 80.5883 262.13 80.5883C262.92 76.0383 263.75 71.4883 264.63 66.9583C264.58 66.8983 264.51 66.8583 264.47 66.7883C264.37 66.6483 264.3 66.4883 264.27 66.3183C264.27 66.2883 264.26 66.2583 264.25 66.2383C264.06 66.2583 263.91 66.3383 263.88 66.5483C263.04 71.8183 261.82 77.0183 260.25 82.1183C260.54 82.3383 260.81 82.5683 261.06 82.8083C261.35 83.0883 260.39 83.5583 259.82 83.5483V83.5283Z" fill="black"/>
<path d="M264.47 66.7902C264.51 66.8602 264.58 66.9002 264.63 66.9602C264.67 66.7502 264.71 66.5402 264.75 66.3302C264.58 66.2602 264.4 66.2302 264.25 66.2402C264.25 66.2702 264.25 66.3002 264.27 66.3202C264.3 66.4902 264.37 66.6502 264.47 66.7902Z" fill="black"/>
<path d="M261.32 84.4486C261.39 84.2386 261.45 84.0186 261.51 83.8086H261.22C260.88 83.9686 260.56 84.1786 260.25 84.3986C260.66 84.6786 261.2 84.7886 261.31 84.4486H261.32Z" fill="black"/>
<path d="M256.43 81.7619C256.43 81.7619 256.46 81.7619 256.47 81.7619C256.51 81.7319 256.47 81.7519 256.43 81.7619Z" fill="black"/>
<path d="M258.25 90.8313C258.25 90.8313 258.22 90.8012 258.2 90.7812C258.18 90.9112 258.17 91.0412 258.16 91.1712C258.29 91.0512 258.35 90.9313 258.25 90.8313Z" fill="black"/>
<path d="M257.63 90.1999C256.96 89.4999 256.32 88.74 255.86 87.9C255.25 86.79 255.19 85.5399 255.43 84.3199C255.53 83.7699 255.68 83.2299 255.88 82.7099C255.97 82.4699 256.08 82.2399 256.23 82.0299C256.29 81.9399 256.36 81.86 256.44 81.79C256.45 81.78 256.46 81.7699 256.47 81.7699C256.46 81.7699 256.44 81.7699 256.43 81.7699C256.48 81.7699 256.52 81.7399 256.47 81.7699C256.98 81.7099 257.64 82.0999 258.05 82.3399C258.58 82.6499 259.06 83.0299 259.5 83.4499C259.57 83.5099 259.69 83.54 259.82 83.54C259.97 83.07 260.1 82.59 260.25 82.11C259.33 81.42 258.24 80.8899 257.1 80.9499C255.59 81.0299 254.56 81.94 254.1 83.33C253.64 84.71 253.39 86.31 253.88 87.72C254.37 89.11 255.53 90.32 256.56 91.36C256.58 91.22 256.6 91.07 256.62 90.93C256.67 90.55 257.19 90.2499 257.62 90.1999H257.63Z" fill="black"/>
<path d="M261.06 82.7994C260.81 82.5594 260.54 82.3294 260.25 82.1094C260.1 82.5794 259.97 83.0594 259.82 83.5394C260.39 83.5494 261.35 83.0794 261.06 82.7994Z" fill="black"/>
<path d="M265.47 80.7589C265.47 80.7589 265.52 80.7589 265.55 80.7589C265.51 80.7189 265.47 80.6789 265.45 80.6389C265.85 80.7289 265.94 80.7689 265.73 80.7589C265.67 80.7589 265.61 80.7589 265.55 80.7589C265.6 80.8089 265.66 80.8589 265.69 80.8889C265.87 81.1089 266.02 81.3489 266.18 81.5789C266.86 82.5589 267.47 83.5789 268.02 84.6389C268.49 85.5489 268.79 86.6189 269.72 87.1589C270.68 87.7189 271.82 87.8689 272.91 87.8989C273.23 87.9089 273.24 87.7489 272.99 87.5889C272.66 87.3789 272.19 87.2789 271.8 87.2689C271.57 87.2689 271.3 87.2689 271.07 87.2089C271.04 87.2089 270.85 87.0889 270.75 86.9789C270.36 86.5789 270.17 85.9989 269.93 85.4989C269.39 84.3989 268.79 83.3389 268.11 82.3289C267.81 81.8689 267.51 81.3789 267.13 80.9789C266.74 80.5589 266.17 80.3589 265.63 80.2389C265.3 80.1689 264.97 80.1389 264.64 80.1289C264.6 80.3789 264.55 80.6389 264.51 80.8889C264.82 80.8189 265.14 80.7689 265.47 80.7589Z" fill="black"/>
<path d="M265.45 80.6406C265.45 80.6406 265.5 80.7206 265.55 80.7606C265.61 80.7606 265.67 80.7606 265.73 80.7606C265.94 80.7706 265.85 80.7306 265.45 80.6406Z" fill="black"/>
<path d="M262.12 80.5881C262.05 80.6181 262.06 80.6681 262.12 80.7181C262.12 80.6681 262.14 80.6281 262.14 80.5781C262.14 80.5781 262.13 80.5781 262.12 80.5781V80.5881Z" fill="black"/>
<path d="M275.91 99.6498C275.85 99.5998 275.56 99.7598 275.52 99.7698C275.32 99.8598 275.12 99.9698 274.93 100.09C274.96 100.07 275 100.05 275.03 100.03C274.99 100.05 274.99 100.05 275.01 100.04C274.96 100.07 274.92 100.08 274.83 100.11C274.67 100.17 274.52 100.21 274.35 100.24C273.95 100.33 273.55 100.35 273.14 100.33C272.32 100.29 271.54 100.04 270.85 99.5898C271.22 100.19 270.88 101.18 270.05 100.83C270 100.81 269.96 100.79 269.91 100.77C270.6 101.09 271.36 101.26 272.12 101.23C273.33 101.2 274.44 100.71 275.46 100.08C275.59 99.9998 275.78 99.8798 275.88 99.7598C275.95 99.6698 275.97 99.6699 275.9 99.6199L275.91 99.6498Z" fill="black"/>
<path d="M275.06 100.031C275.06 100.031 275.02 100.051 275.01 100.061C275.01 100.061 275.02 100.061 275.03 100.051C275.03 100.051 275.05 100.041 275.06 100.041V100.031Z" fill="black"/>
<path d="M275.03 100.039C275.03 100.039 275.01 100.039 275.01 100.049C274.99 100.059 274.99 100.059 275.03 100.039Z" fill="black"/>
<path d="M262.77 88.6397C262.77 88.6397 262.77 88.6397 262.79 88.6397C262.83 88.6297 262.87 88.6197 262.92 88.6097C263.02 88.5797 263.12 88.5497 263.21 88.5197C263.25 88.5097 263.28 88.4897 263.32 88.4697C263.41 88.4297 263.51 88.3797 263.6 88.3397C263.6 88.3397 263.62 88.3297 263.64 88.3197C263.45 88.2797 263.21 88.3097 263.08 88.3497C262.89 88.4197 262.7 88.5297 262.56 88.6797C262.61 88.6797 262.66 88.6697 262.72 88.6597C262.75 88.6597 262.76 88.6597 262.77 88.6597V88.6397Z" fill="black"/>
<path d="M258.81 96.2202C258.88 96.2302 258.98 96.2602 259.08 96.3002C259.14 96.2602 259.2 96.2301 259.27 96.2001C259.39 95.8401 259.7 95.5902 260.18 95.7802H260.2C260.24 95.7102 260.29 95.6602 260.34 95.6301C259.45 95.6701 258.25 95.5702 257.98 94.6502C257.81 94.0802 257.94 93.3802 257.98 92.8002C258.02 92.2502 258.09 91.7002 258.16 91.1602C257.82 91.4602 256.95 91.7202 256.7 91.4702C256.66 91.4302 256.62 91.3902 256.58 91.3502C256.42 92.4802 256.28 93.6602 256.33 94.7902C256.37 95.7802 257.02 96.3902 257.86 96.6702C257.87 96.5702 257.88 96.4701 257.9 96.3801C257.95 96.0601 258.64 96.1802 258.83 96.2202H258.81Z" fill="black"/>
<path d="M262.09 93.2387C262.03 93.8187 261.92 94.4188 261.65 94.9388C261.43 95.3688 261.25 95.5687 260.76 95.6087C260.73 95.6087 260.7 95.6087 260.68 95.6087C260.95 95.6887 261.24 95.9387 261.38 96.0887C261.4 96.1087 261.41 96.1388 261.43 96.1588C261.62 96.1988 261.82 96.2387 262.02 96.2687C262.07 96.2387 262.12 96.2087 262.17 96.1687C263.13 95.3987 263.54 94.1687 263.67 92.9887C263.81 91.7387 263.85 90.4688 263.9 89.2188C263.39 89.4387 262.85 89.5888 262.3 89.6588C262.25 90.8488 262.22 92.0587 262.09 93.2387Z" fill="black"/>
<path d="M257.63 90.1992C257.82 90.3992 258.01 90.5892 258.2 90.7792C258.2 90.7492 258.2 90.7192 258.2 90.6892C258.26 90.2892 257.97 90.1692 257.62 90.2092L257.63 90.1992Z" fill="black"/>
<path d="M263.21 88.51C263.21 88.51 263.21 88.51 263.2 88.51C263.22 88.51 263.31 88.47 263.21 88.51Z" fill="black"/>
<path d="M262.3 89.6603C262.85 89.5903 263.39 89.4403 263.9 89.2203C263.9 89.0303 263.92 88.8303 263.93 88.6403C263.94 88.4503 263.8 88.3503 263.63 88.3203C263.62 88.3203 263.6 88.3403 263.59 88.3403C263.5 88.3903 263.41 88.4303 263.31 88.4703C263.27 88.4903 263.24 88.5003 263.2 88.5203C263.29 88.4903 263.2 88.5203 263.19 88.5203C263.19 88.5203 263.19 88.5203 263.2 88.5203C263.1 88.5503 263.01 88.5803 262.91 88.6103C262.87 88.6203 262.83 88.6303 262.78 88.6403C262.76 88.6403 262.76 88.6403 262.76 88.6403C262.76 88.6403 262.74 88.6403 262.71 88.6403C262.65 88.6403 262.6 88.6503 262.55 88.6603C262.42 88.8003 262.32 88.9803 262.31 89.1803C262.31 89.3403 262.3 89.4903 262.29 89.6503L262.3 89.6603Z" fill="black"/>
<path d="M258.16 91.1614C258.18 91.0314 258.18 90.9014 258.2 90.7714C258.01 90.5814 257.82 90.3914 257.63 90.1914C257.2 90.2414 256.68 90.5414 256.63 90.9214C256.61 91.0614 256.59 91.2014 256.57 91.3514C256.61 91.3914 256.65 91.4314 256.69 91.4714C256.94 91.7214 257.81 91.4614 258.15 91.1614H258.16Z" fill="black"/>
<path d="M257.93 100.49C257.93 100.49 258 100.47 258.03 100.45C258.03 100.36 258.04 100.28 258.05 100.19C257.98 99.9897 257.93 99.6697 258.05 99.4797C258.08 99.4297 258.12 99.3897 258.16 99.3597C258.28 98.5197 258.45 97.6797 258.7 96.8697C258.65 96.8697 258.6 96.8697 258.56 96.8497C258.32 96.8197 258.08 96.7597 257.86 96.6797C257.66 98.0497 257.6 99.4397 257.67 100.82C257.67 100.85 257.7 100.88 257.71 100.91C257.71 100.87 257.71 100.83 257.71 100.8C257.7 100.65 257.84 100.56 257.95 100.49H257.93Z" fill="black"/>
<path d="M258.69 96.8595C258.69 96.8595 258.69 96.8195 258.7 96.8095C258.77 96.5895 258.9 96.4195 259.08 96.2995C258.97 96.2595 258.88 96.2395 258.81 96.2195C258.63 96.1795 257.93 96.0595 257.88 96.3795C257.86 96.4795 257.86 96.5795 257.84 96.6695C258.06 96.7495 258.3 96.8095 258.54 96.8395C258.59 96.8395 258.64 96.8395 258.68 96.8595H258.69Z" fill="black"/>
<path d="M270.02 99.9185C270.17 99.8285 270.67 99.4885 270.85 99.6085C270.76 99.4685 270.64 99.3385 270.47 99.2685C269.67 98.9285 268.79 98.5885 268.14 97.9785C267.81 97.6685 267.71 97.3285 267.49 96.9485C267.23 96.4785 266.8 96.1685 266.28 96.0785C265.35 95.9185 264.35 96.3485 263.41 96.3785C262.94 96.3885 262.47 96.3485 262.01 96.2785C261.9 96.3585 261.78 96.4285 261.66 96.4885C261.75 96.6485 261.83 96.8085 261.88 96.9685C261.94 97.1785 262 97.4785 261.88 97.6885C261.84 97.7685 261.79 97.8485 261.75 97.9285C262.14 97.9985 262.54 98.0485 262.93 98.0585C263.48 98.0785 264.04 98.0585 264.59 97.9885C265.06 97.9285 265.55 97.7485 266.03 97.7485C266.08 97.7485 266.21 97.7485 266.25 97.7685C266.23 97.7585 266.18 97.7685 266.19 97.7885C266.32 97.9685 266.39 98.2185 266.51 98.4185C266.77 98.8185 267.09 99.1585 267.46 99.4585C268.18 100.049 269.06 100.439 269.91 100.799C269.71 100.709 269.51 100.599 269.33 100.479C269.25 100.429 269.96 99.9485 270.01 99.9185H270.02Z" fill="black"/>
<path d="M270.86 99.6113C270.68 99.4913 270.19 99.8313 270.03 99.9213C269.98 99.9513 269.27 100.431 269.35 100.481C269.54 100.601 269.73 100.701 269.93 100.801C269.98 100.821 270.02 100.841 270.07 100.861C270.89 101.211 271.24 100.221 270.87 99.6213L270.86 99.6113Z" fill="black"/>
<path d="M261.67 96.4919C261.79 96.4319 261.91 96.3619 262.02 96.2819C261.82 96.2519 261.63 96.2119 261.43 96.1719C261.52 96.2719 261.6 96.3719 261.67 96.4919Z" fill="black"/>
<path d="M260.01 96.1497C260.07 96.0297 260.13 95.9197 260.2 95.7997H260.18C259.7 95.6097 259.39 95.8597 259.27 96.2197C259.4 96.1597 259.53 96.1197 259.68 96.1097C259.79 96.1097 259.9 96.1297 260.01 96.1697V96.1497Z" fill="black"/>
<path d="M259.27 96.1992C259.2 96.2292 259.14 96.2592 259.08 96.2992C259.13 96.3192 259.18 96.3392 259.23 96.3592C259.23 96.2992 259.25 96.2492 259.27 96.1992Z" fill="black"/>
<path d="M258.33 99.2794C258.49 99.0394 258.62 98.7594 258.75 98.5094C258.91 98.2094 259.07 97.9094 259.22 97.6194C259.3 97.4694 259.38 97.3194 259.46 97.1694C259.39 97.0894 259.33 97.0094 259.29 96.9094C259.08 96.9094 258.88 96.8794 258.68 96.8594C258.43 97.6794 258.26 98.5094 258.14 99.3494C258.19 99.3094 258.25 99.2994 258.3 99.2894C258.3 99.2894 258.31 99.2894 258.32 99.2794H258.33Z" fill="black"/>
<path d="M258.05 100.191C258.05 100.281 258.04 100.361 258.03 100.451C258.07 100.431 258.11 100.421 258.15 100.411C258.12 100.341 258.08 100.271 258.05 100.201V100.191Z" fill="black"/>
<path d="M259.23 96.3608C259.18 96.3408 259.13 96.3208 259.08 96.3008C258.91 96.4208 258.77 96.6008 258.7 96.8108C258.7 96.8308 258.7 96.8508 258.69 96.8608C258.89 96.8808 259.09 96.9008 259.3 96.9108C259.22 96.7308 259.21 96.5408 259.24 96.3608H259.23Z" fill="black"/>
<path d="M259.55 97.0219C259.55 97.0219 259.59 96.9519 259.6 96.9219C259.59 96.9219 259.57 96.9219 259.56 96.9219C259.56 96.9519 259.56 96.9919 259.55 97.0219Z" fill="black"/>
<path d="M259.58 96.7606C259.58 96.8106 259.57 96.8606 259.56 96.9106C259.57 96.9106 259.59 96.9106 259.6 96.9106C259.74 96.6506 259.87 96.4006 260.01 96.1406C259.9 96.0906 259.79 96.0706 259.68 96.0806C259.54 96.0806 259.4 96.1306 259.27 96.1906C259.25 96.2406 259.24 96.2906 259.23 96.3506C259.43 96.4406 259.6 96.5806 259.58 96.7606Z" fill="black"/>
<path d="M259.3 96.9102C259.34 97.0002 259.4 97.0902 259.47 97.1702C259.5 97.1202 259.52 97.0701 259.55 97.0201C259.55 96.9901 259.55 96.9502 259.56 96.9202C259.47 96.9202 259.39 96.9202 259.3 96.9202V96.9102Z" fill="black"/>
<path d="M259.56 96.9194C259.56 96.8694 259.57 96.8194 259.58 96.7694C259.61 96.5894 259.43 96.4594 259.23 96.3594C259.2 96.5394 259.22 96.7394 259.29 96.9094C259.38 96.9094 259.46 96.9094 259.55 96.9094L259.56 96.9194Z" fill="black"/>
<path d="M259.25 101.54C259.14 101.52 259.05 101.47 258.95 101.41C258.91 101.41 258.87 101.41 258.82 101.41C258.65 101.45 258.43 101.44 258.28 101.36C258.24 101.34 258.2 101.31 258.16 101.28C257.93 101.19 257.75 101.07 257.69 100.91C257.75 101.74 257.7 102.57 257.54 103.38C257.52 103.51 257.73 103.63 257.81 103.66C257.99 103.74 258.24 103.77 258.43 103.75C258.74 103.73 259.21 103.65 259.28 103.29C259.39 102.72 259.43 102.13 259.43 101.55C259.37 101.55 259.31 101.55 259.24 101.53L259.25 101.54Z" fill="black"/>
<path d="M258.16 101.281C258.06 101.191 257.98 101.071 257.98 100.951C257.98 100.781 258.01 100.611 258.02 100.441C257.99 100.451 257.95 100.461 257.92 100.481C257.81 100.541 257.67 100.641 257.68 100.791C257.68 100.831 257.68 100.871 257.68 100.901C257.74 101.061 257.92 101.191 258.15 101.271L258.16 101.281Z" fill="black"/>
<path d="M258.87 101.411C258.87 101.411 258.83 101.411 258.82 101.411C258.87 101.411 258.9 101.411 258.95 101.411C258.95 101.411 258.93 101.401 258.92 101.391C258.9 101.391 258.89 101.401 258.87 101.411Z" fill="black"/>
<path d="M258.28 101.361C258.44 101.441 258.65 101.441 258.82 101.411C258.61 101.411 258.37 101.361 258.16 101.281C258.2 101.311 258.24 101.341 258.28 101.361Z" fill="black"/>
<path d="M258.92 101.388C258.78 101.288 258.66 101.168 258.56 101.058C258.38 100.868 258.25 100.638 258.15 100.398C258.11 100.408 258.07 100.428 258.03 100.438C258.02 100.608 258 100.778 257.99 100.948C257.99 101.068 258.07 101.188 258.17 101.278C258.38 101.358 258.62 101.398 258.83 101.408C258.85 101.408 258.87 101.408 258.88 101.408C258.9 101.408 258.91 101.398 258.93 101.388H258.92Z" fill="black"/>
<path d="M262.63 81.0201C262.63 81.0201 262.5 80.9702 262.39 80.9102C262.22 81.4902 262.04 82.0702 261.87 82.6502C261.96 82.6002 262.04 82.5402 262.13 82.5002C262.26 82.4302 262.4 82.3702 262.55 82.3302C262.66 82.2902 262.78 82.2602 262.9 82.2602H263.68C263.79 82.2402 263.87 82.2702 263.94 82.3502C263.94 82.3902 263.95 82.4302 263.96 82.4702C263.93 82.6002 263.87 82.7102 263.77 82.8102C263.71 82.8802 263.64 82.9402 263.58 83.0102C263.5 83.0902 263.4 83.1502 263.31 83.2202C263.58 83.2002 263.85 83.2202 264.11 83.2802C264.25 82.4902 264.39 81.7002 264.53 80.9102C264.25 80.9802 263.98 81.0602 263.72 81.1602C263.4 81.2902 262.95 81.1402 262.65 81.0302L262.63 81.0201Z" fill="black"/>
<path d="M266.51 66.5406C266.49 66.7406 266.42 66.9206 266.3 67.0806C266.23 67.1506 266.16 67.2106 266.09 67.2806C265.92 67.3906 265.74 67.4406 265.54 67.4306C265.5 67.4306 265.46 67.4206 265.42 67.4106C264.71 71.8206 263.74 76.1706 262.52 80.4606C263.21 80.2306 263.93 80.1106 264.65 80.1306C265.44 75.6706 266.25 71.2206 267.12 66.7806C267.16 66.5806 266.94 66.3606 266.62 66.1406C266.59 66.2506 266.54 66.3606 266.52 66.4706C266.52 66.4906 266.52 66.5106 266.51 66.5306V66.5406Z" fill="black"/>
<path d="M266.49 66.5595C266.49 66.5595 266.51 66.5095 266.51 66.4795C266.52 66.4095 266.54 66.3395 266.55 66.2695L266.48 66.5595H266.49Z" fill="black"/>
<path d="M264.93 65.3583C264.87 65.6783 264.81 65.9983 264.75 66.3283C265.15 66.4883 265.52 66.8283 265.47 67.1383C265.46 67.2283 265.44 67.3183 265.42 67.4083C265.46 67.4083 265.5 67.4183 265.54 67.4283C265.74 67.4283 265.92 67.3883 266.09 67.2783C266.16 67.2083 266.23 67.1483 266.3 67.0783C266.42 66.9183 266.49 66.7383 266.51 66.5383C266.51 66.5183 266.51 66.4983 266.52 66.4783C266.52 66.5083 266.5 66.5283 266.5 66.5583L266.57 66.2683C266.55 66.3383 266.54 66.4083 266.53 66.4783C266.56 66.3683 266.6 66.2583 266.63 66.1483C265.99 65.7083 264.95 65.3183 264.94 65.3583H264.93Z" fill="black"/>
<path d="M263.3 83.2104C263.3 83.2104 263.23 83.2704 263.19 83.3004C263.12 83.3504 263.03 83.3904 262.96 83.4404C263.49 83.7004 263.99 83.8804 264 83.8604C264.03 83.6604 264.07 83.4704 264.1 83.2704C263.85 83.2104 263.58 83.2004 263.3 83.2104Z" fill="black"/>
<path d="M262.11 80.7188C262.01 81.2887 261.91 81.8487 261.81 82.4187C261.8 82.4887 261.82 82.5587 261.86 82.6387C262.04 82.0587 262.22 81.4788 262.38 80.8988C262.27 80.8388 262.16 80.7787 262.1 80.7188H262.11Z" fill="black"/>
<path d="M265.42 67.4092C265.36 67.4092 265.3 67.3892 265.24 67.3792C265.08 67.3392 264.94 67.2592 264.82 67.1492C264.74 67.0992 264.69 67.0192 264.63 66.9492C263.76 71.4892 262.92 76.0292 262.13 80.5792C262.26 80.5292 262.39 80.4992 262.52 80.4592C263.74 76.1692 264.71 71.8092 265.42 67.4092Z" fill="black"/>
<path d="M265.24 67.3781C265.3 67.3781 265.36 67.3981 265.42 67.4081C265.43 67.3181 265.45 67.2281 265.47 67.1381C265.52 66.8281 265.15 66.4881 264.75 66.3281C264.71 66.5381 264.67 66.7481 264.63 66.9581C264.69 67.0281 264.74 67.1081 264.82 67.1581C264.94 67.2681 265.08 67.3381 265.24 67.3881V67.3781Z" fill="black"/>
<path d="M262.39 80.9089C262.51 80.9689 262.62 81.0189 262.63 81.0189C262.93 81.1289 263.38 81.2689 263.7 81.1489C263.96 81.0489 264.24 80.9589 264.51 80.8989C264.55 80.6489 264.6 80.3889 264.64 80.1389C263.92 80.1189 263.2 80.2389 262.51 80.4689C262.47 80.6189 262.42 80.7689 262.38 80.9089H262.39Z" fill="black"/>
<path d="M262.52 80.4609C262.39 80.5009 262.26 80.5409 262.13 80.5809C262.13 80.6309 262.11 80.6709 262.11 80.7209C262.17 80.7809 262.28 80.8509 262.39 80.9009C262.43 80.7509 262.48 80.6009 262.52 80.4609Z" fill="black"/>
<path d="M262.68 83.2884C262.32 83.0884 261.99 82.8584 261.86 82.6484C261.76 82.9784 261.66 83.3184 261.56 83.6484C261.9 83.4984 262.29 83.3684 262.68 83.2884Z" fill="black"/>
<path d="M261.56 83.6608C261.56 83.6608 261.53 83.7608 261.52 83.8108H261.98C262.1 83.8108 262.22 83.7808 262.33 83.7408C262.48 83.7008 262.61 83.6408 262.75 83.5708C262.82 83.5308 262.89 83.4908 262.96 83.4408C262.87 83.3908 262.78 83.3508 262.69 83.3008C262.29 83.3908 261.91 83.5208 261.57 83.6608H261.56Z" fill="black"/>
<path d="M261.56 83.6602C261.66 83.3302 261.76 82.9902 261.86 82.6602C261.8 82.7002 261.73 82.7301 261.68 82.7701C261.54 82.8601 261.41 82.9602 261.29 83.0702C261.23 83.1402 261.16 83.2001 261.1 83.2701C261.01 83.3701 260.95 83.4802 260.91 83.6102C260.91 83.6502 260.92 83.6902 260.93 83.7302C261 83.8102 261.09 83.8402 261.19 83.8202H261.22C261.22 83.8202 261.24 83.8102 261.25 83.8002C261.34 83.7602 261.45 83.7102 261.55 83.6702L261.56 83.6602Z" fill="black"/>
<path d="M261.56 83.6602C261.46 83.7002 261.36 83.7502 261.26 83.7902C261.25 83.7902 261.24 83.8002 261.23 83.8102H261.52C261.52 83.8102 261.55 83.7102 261.56 83.6602Z" fill="black"/>
<path d="M262.68 83.2882C262.89 83.2482 263.09 83.2182 263.3 83.2082C263.39 83.1382 263.49 83.0782 263.57 82.9982C263.63 82.9282 263.7 82.8682 263.76 82.7982C263.85 82.6982 263.91 82.5882 263.95 82.4582C263.95 82.4182 263.94 82.3782 263.93 82.3382C263.86 82.2582 263.77 82.2282 263.67 82.2482H262.89C262.77 82.2482 262.65 82.2782 262.54 82.3182C262.39 82.3582 262.26 82.4182 262.12 82.4882C262.03 82.5282 261.95 82.5882 261.86 82.6382C261.99 82.8582 262.31 83.0782 262.68 83.2782V83.2882Z" fill="black"/>
<path d="M262.95 83.4409C263.03 83.3909 263.11 83.3509 263.18 83.3009C263.22 83.2709 263.25 83.2409 263.29 83.2109C263.08 83.2209 262.88 83.2509 262.67 83.2909C262.76 83.3409 262.85 83.3909 262.94 83.4309L262.95 83.4409Z" fill="black"/>
<path d="M259.87 98.6717C259.81 99.0017 259.76 99.3417 259.72 99.6717C259.68 99.9917 259.66 100.272 259.64 100.542C259.63 100.752 259.55 100.932 259.42 101.072C259.42 101.232 259.42 101.392 259.42 101.562C259.58 101.562 259.73 101.522 259.85 101.402C260.01 101.232 260.1 101.052 260.21 100.852C260.4 100.502 260.58 100.152 260.77 99.8017C261.1 99.1817 261.43 98.5617 261.76 97.9417C261.2 97.8417 260.66 97.7017 260.13 97.5117C260.03 97.9017 259.94 98.2917 259.87 98.6817V98.6717Z" fill="black"/>
<path d="M260.34 95.6416C260.46 95.6416 260.57 95.6316 260.68 95.6216C260.56 95.5816 260.44 95.5816 260.34 95.6416Z" fill="black"/>
<path d="M261.38 96.1011C261.24 95.9611 260.95 95.7111 260.68 95.6211C260.57 95.6211 260.46 95.6411 260.34 95.6411C260.29 95.6711 260.24 95.7211 260.2 95.7911C260.6 95.9511 261.01 96.0711 261.43 96.1711C261.41 96.1511 261.4 96.1211 261.38 96.1011Z" fill="black"/>
<path d="M258.04 99.4698C257.93 99.6698 257.98 99.9898 258.04 100.18C258.07 99.8998 258.1 99.6198 258.14 99.3398C258.1 99.3698 258.06 99.4098 258.03 99.4598L258.04 99.4698Z" fill="black"/>
<path d="M261.89 96.9683C261.84 96.8083 261.77 96.6483 261.67 96.4883C261.25 96.6983 260.78 96.8283 260.3 96.8783C260.24 97.0883 260.18 97.2883 260.13 97.4983C260.66 97.6883 261.21 97.8383 261.76 97.9283C261.8 97.8483 261.85 97.7683 261.89 97.6883C262 97.4783 261.95 97.1783 261.89 96.9683Z" fill="black"/>
<path d="M260.2 95.7913C260.14 95.9113 260.08 96.0213 260.01 96.1413C260.25 96.2413 260.43 96.4612 260.34 96.7412C260.33 96.7812 260.32 96.8313 260.3 96.8713C260.78 96.8213 261.25 96.7013 261.67 96.4813C261.6 96.3613 261.52 96.2513 261.43 96.1613C261.01 96.0613 260.6 95.9412 260.2 95.7812V95.7913Z" fill="black"/>
<path d="M259.52 97.2109C259.37 98.3109 259.31 99.4309 259.33 100.541C259.38 100.591 259.42 100.641 259.42 100.711C259.42 100.831 259.42 100.951 259.42 101.071C259.54 100.931 259.63 100.751 259.64 100.541C259.65 100.271 259.68 100.001 259.72 99.6709C259.76 99.3409 259.81 99.0009 259.87 98.6709C259.94 98.2709 260.03 97.8809 260.13 97.5009C260.01 97.4609 259.88 97.4209 259.76 97.3709C259.67 97.3309 259.59 97.2709 259.52 97.2109Z" fill="black"/>
<path d="M258.4 99.2913C258.4 99.2913 258.39 99.2913 258.38 99.2913C258.37 99.2913 258.36 99.2913 258.35 99.2913C258.35 99.2913 258.34 99.3112 258.33 99.3112C258.35 99.3112 258.38 99.2912 258.4 99.2812V99.2913Z" fill="black"/>
<path d="M258.15 100.4C258.28 100.36 258.41 100.34 258.54 100.33C258.73 100.32 258.98 100.34 259.16 100.42C259.22 100.45 259.28 100.48 259.34 100.53C259.32 99.4202 259.38 98.3001 259.53 97.2001C259.51 97.1901 259.49 97.1802 259.48 97.1602C259.4 97.3102 259.32 97.4602 259.24 97.6102C259.08 97.9102 258.92 98.2102 258.77 98.5002C258.64 98.7502 258.51 99.0301 258.35 99.2701C258.37 99.2501 258.4 99.2402 258.42 99.2202C258.4 99.2402 258.39 99.2602 258.37 99.2802C258.38 99.2802 258.39 99.2802 258.4 99.2802C258.41 99.2802 258.43 99.2802 258.44 99.2802C258.44 99.2802 258.44 99.2802 258.43 99.2802C258.47 99.2802 258.52 99.2802 258.56 99.2902C258.58 99.2902 258.59 99.2902 258.6 99.2902C258.54 99.2902 258.48 99.2801 258.42 99.2701C258.4 99.2701 258.37 99.2902 258.35 99.3002C258.33 99.3202 258.32 99.3402 258.3 99.3602C258.31 99.3502 258.32 99.3302 258.33 99.3102C258.31 99.3102 258.29 99.3202 258.27 99.3302C258.3 99.3202 258.31 99.3002 258.33 99.2802C258.27 99.2802 258.21 99.3101 258.17 99.3401C258.13 99.6201 258.1 99.9002 258.07 100.18C258.09 100.25 258.13 100.32 258.17 100.39L258.15 100.4Z" fill="black"/>
<path d="M258.33 99.2913C258.33 99.2913 258.33 99.2912 258.33 99.2812C258.33 99.2812 258.32 99.2813 258.31 99.2913C258.31 99.2913 258.31 99.2913 258.32 99.2913H258.33Z" fill="black"/>
<path d="M258.32 99.2891C258.32 99.2891 258.28 99.3291 258.26 99.3391C258.28 99.3391 258.3 99.3291 258.32 99.3191C258.32 99.3191 258.33 99.2991 258.34 99.2891C258.34 99.2891 258.34 99.2891 258.33 99.2891H258.32Z" fill="black"/>
<path d="M258.35 99.2905C258.35 99.2905 258.38 99.2505 258.4 99.2305C258.38 99.2505 258.35 99.2605 258.33 99.2805C258.33 99.2805 258.33 99.2805 258.33 99.2905H258.35Z" fill="black"/>
<path d="M258.28 99.3686C258.28 99.3686 258.31 99.3286 258.33 99.3086C258.33 99.3086 258.32 99.3086 258.31 99.3086C258.3 99.3286 258.29 99.3386 258.28 99.3586V99.3686Z" fill="black"/>
<path d="M258.31 99.3208C258.31 99.3208 258.32 99.3208 258.33 99.3208C258.33 99.3208 258.34 99.3008 258.35 99.3008H258.33C258.33 99.3008 258.32 99.3208 258.31 99.3308V99.3208Z" fill="black"/>
<path d="M258.58 99.3108C258.58 99.3108 258.55 99.3108 258.54 99.3108C258.5 99.3108 258.45 99.3008 258.41 99.3008C258.47 99.3008 258.53 99.3108 258.59 99.3208L258.58 99.3108Z" fill="black"/>
<path d="M259.55 97.0189C259.55 97.0789 259.53 97.1489 259.53 97.2089C259.6 97.2689 259.67 97.3289 259.77 97.3689C259.89 97.4189 260.02 97.4589 260.14 97.4989C260.19 97.2889 260.25 97.0889 260.31 96.8789C260.08 96.9089 259.84 96.9189 259.61 96.9189C259.59 96.9489 259.57 96.9889 259.56 97.0189H259.55Z" fill="black"/>
<path d="M260.01 96.1484C259.87 96.4084 259.74 96.6584 259.6 96.9184C259.83 96.9184 260.07 96.9084 260.3 96.8784C260.31 96.8384 260.32 96.7884 260.34 96.7484C260.42 96.4684 260.24 96.2584 260.01 96.1484Z" fill="black"/>
<path d="M259.52 97.2095C259.52 97.1495 259.54 97.0795 259.54 97.0195C259.51 97.0695 259.49 97.1195 259.46 97.1695C259.48 97.1895 259.5 97.1995 259.51 97.2095H259.52Z" fill="black"/>
<path d="M259.35 101.15C259.35 101.15 259.35 101.19 259.35 101.2C259.35 101.33 259.18 101.39 258.95 101.41C259.04 101.47 259.14 101.53 259.25 101.54C259.31 101.55 259.38 101.56 259.44 101.56C259.44 101.4 259.44 101.24 259.44 101.07C259.42 101.1 259.39 101.12 259.36 101.15H259.35Z" fill="black"/>
<path d="M258.95 101.401C259.18 101.391 259.36 101.331 259.35 101.191C259.35 101.171 259.35 101.151 259.35 101.141C259.23 101.251 259.09 101.331 258.92 101.381C258.92 101.381 258.94 101.391 258.95 101.401Z" fill="black"/>
<path d="M259.33 100.539C259.33 100.739 259.33 100.949 259.35 101.149C259.38 101.119 259.41 101.099 259.43 101.069C259.43 100.949 259.43 100.829 259.43 100.709C259.43 100.639 259.39 100.589 259.34 100.539H259.33Z" fill="black"/>
<path d="M259.15 100.432C258.97 100.352 258.72 100.322 258.53 100.342C258.4 100.342 258.27 100.372 258.14 100.412C258.24 100.652 258.37 100.882 258.55 101.072C258.65 101.182 258.78 101.302 258.91 101.402C259.07 101.352 259.22 101.272 259.34 101.162C259.34 100.962 259.33 100.752 259.32 100.552C259.27 100.502 259.2 100.462 259.14 100.442L259.15 100.432Z" fill="black"/>
<path d="M331.5 120.011C335.3 119.971 339.09 119.931 342.89 119.891L345.65 119.861H347.03C347.34 119.841 348.04 119.701 348.26 119.971C348.45 120.211 348.36 120.841 348.37 121.121C348.39 121.631 348.4 122.131 348.42 122.641C348.45 123.601 348.48 124.551 348.51 125.511C348.52 125.861 351.05 125.491 351.03 124.841C351 123.831 350.96 122.811 350.93 121.801C350.92 121.351 350.9 120.901 350.89 120.451C350.88 120.071 350.95 119.531 350.71 119.211C350.29 118.651 349.1 118.881 348.51 118.891L345.4 118.921C341.32 118.961 337.23 119.001 333.15 119.041C332.56 119.041 331.87 119.191 331.37 119.521C331 119.761 330.99 120.011 331.5 120.011Z" fill="#1D1D1B"/>
<path d="M323.24 128.908C328.58 128.958 333.93 128.988 339.27 128.988C341.85 128.988 344.44 128.988 347.02 128.988C347.97 128.988 351.8 128.938 351.36 127.148C351.21 126.538 348.68 127.178 348.84 127.818C349.52 127.888 349.55 127.908 348.95 127.898C348.67 127.898 348.38 127.898 348.1 127.898C347.6 127.898 347.1 127.898 346.6 127.898C345.48 127.898 344.36 127.898 343.24 127.898C341.25 127.898 339.25 127.898 337.26 127.898C333.13 127.888 329 127.858 324.87 127.828C324.31 127.828 323.53 127.918 323.09 128.308C322.78 128.578 322.69 128.918 323.25 128.918L323.24 128.908Z" fill="#1D1D1B"/>
<path d="M347.27 128.479C347.29 129.479 346.88 130.529 346.7 131.519C346.52 132.509 346.4 133.469 346.32 134.449C346.15 136.499 346.19 138.549 346.39 140.589C346.45 141.209 347.46 141.219 347.88 141.109C348.45 140.959 348.97 140.549 348.91 139.919C348.72 137.959 348.72 135.989 348.9 134.029C348.99 133.049 349.12 132.069 349.3 131.099C349.47 130.189 349.84 129.219 349.83 128.289C349.82 127.669 349.23 127.429 348.67 127.469C348.2 127.509 347.27 127.869 347.28 128.479H347.27Z" fill="#1D1D1B"/>
<path d="M340.22 128.512C339.71 132.292 339.58 136.102 339.82 139.902C339.86 140.532 340.4 140.812 341 140.772C341.47 140.742 342.42 140.352 342.38 139.732C342.14 135.932 342.28 132.122 342.78 128.342C342.96 127.022 340.38 127.332 340.22 128.512Z" fill="#1D1D1B"/>
<path d="M301.5 139.122L302.06 141.202C302.13 141.442 302.36 141.602 302.58 141.672C302.87 141.762 303.25 141.752 303.53 141.672C303.81 141.592 304.15 141.442 304.36 141.202C304.51 141.012 304.65 140.792 304.58 140.532L304.02 138.452C303.95 138.212 303.72 138.052 303.5 137.982C303.21 137.892 302.83 137.902 302.55 137.982C302.27 138.062 301.93 138.212 301.72 138.452C301.57 138.642 301.43 138.862 301.5 139.122Z" fill="#1D1D1B"/>
<path d="M341.16 91.1118C339.82 91.5018 338.49 91.9518 337.2 92.4918C336.23 92.8918 334.73 93.3318 334.02 94.1618C333.31 94.9918 333.89 96.6718 334.05 97.6218C334.3 99.0818 334.64 100.522 335.02 101.952C336.47 107.452 338.48 112.892 338.34 118.662C338.34 118.962 340.84 118.662 340.86 117.992C340.98 113.012 339.5 108.262 338.15 103.522C337.48 101.172 336.85 98.8018 336.47 96.3818C336.38 95.8218 336.27 95.2418 336.25 94.6618C336.22 93.7518 336.78 93.5518 337.55 93.1918C338.78 92.6218 340.04 92.1518 341.34 91.7718C341.54 91.7118 342.6 91.4418 342.51 91.1018C342.42 90.7618 341.31 91.0618 341.16 91.1018V91.1118Z" fill="#1D1D1B"/>
<path d="M339.37 119.901C348.2 120.261 357.02 119.421 365.63 117.381C367.2 117.011 366.73 115.271 365.16 115.641C357.01 117.581 348.61 118.401 340.24 118.061C339.65 118.041 338.85 118.221 338.6 118.831C338.38 119.371 338.8 119.881 339.37 119.901Z" fill="#1D1D1B"/>
<path d="M356.37 87.7791L360.9 88.2791L363.17 88.5291C363.72 88.5891 364.9 88.4891 365.29 88.9891C365.62 89.4191 365.49 90.4191 365.51 90.9091C365.54 91.7091 365.58 92.4991 365.61 93.2991C365.68 94.8891 365.74 96.4791 365.81 98.0691C366.08 104.429 366.35 110.799 366.62 117.159C366.63 117.509 369.17 117.129 369.14 116.489C368.86 109.839 368.58 103.179 368.29 96.5291C368.22 94.9391 368.16 93.3491 368.09 91.7591C368.05 90.8891 368.05 90.0191 367.98 89.1591C367.94 88.6291 367.85 88.1691 367.34 87.9091C366.86 87.6691 366.17 87.7091 365.66 87.6491L363.39 87.3991L358.45 86.8491C357.87 86.7891 357.22 86.9391 356.69 87.1891C356.53 87.2691 355.79 87.7091 356.36 87.7791H356.37Z" fill="#1D1D1B"/>
</svg>
