<svg width="100" height="100" viewBox="0 0 100 100" fill="none" xmlns="http://www.w3.org/2000/svg">
<rect width="100" height="100" fill="white"/>
<path d="M50.1901 38.6298C50.5201 40.7198 50.2101 42.8698 49.3201 44.7898C49.2201 44.9998 49.8501 44.7898 49.8901 44.7698C50.1401 44.6698 50.5101 44.4998 50.6301 44.2398C51.5401 42.2798 51.8401 40.0898 51.5001 37.9598C51.4801 37.8098 50.1301 38.2498 50.1901 38.6298Z" fill="#1D1D1B"/>
<path d="M49.2699 81.2719C67.1253 81.2719 81.5999 66.0272 81.5999 47.2219C81.5999 28.4166 67.1253 13.1719 49.2699 13.1719C31.4146 13.1719 16.9399 28.4166 16.9399 47.2219C16.9399 66.0272 31.4146 81.2719 49.2699 81.2719Z" fill="#0086CD"/>
<path d="M62.8899 52.6719C60.0399 52.6719 54.5999 52.6719 49.2499 52.6719C43.8999 52.6719 38.4599 52.6719 35.6099 52.6719C34.9799 52.6719 34.6399 53.1319 34.6399 53.5719C34.6399 60.1519 39.7599 67.1419 49.2499 67.1419C58.7399 67.1419 63.8599 60.1519 63.8599 53.5719C63.8599 53.1219 63.5199 52.6719 62.8899 52.6719Z" fill="#1D1D1B"/>
<path d="M39.86 34.7188L38.73 37.6488L37.18 35.7087L34.87 38.0588L36.29 40.0788L33.76 40.8587L33.9 44.0887L36.52 43.3988L35.34 46.4688L38.17 47.7587L39.4 44.4888L41.27 47.1488L44.21 44.4888L42.14 41.9187L45.45 41.0487L44.86 37.4187L41.69 38.3988L42.86 35.2987L39.86 34.7188Z" fill="#1D1D1B"/>
<path d="M59.1901 34.7188L58.0701 37.6488L56.5101 35.7087L54.2001 38.0588L55.6201 40.0788L53.1001 40.8587L53.2301 44.0887L55.8501 43.3988L54.6701 46.4688L57.5101 47.7587L58.7401 44.4888L60.6001 47.1488L63.5401 44.4888L61.4801 41.9187L64.7901 41.0487L64.1901 37.4187L61.0301 38.3988L62.1901 35.2987L59.1901 34.7188Z" fill="#1D1D1B"/>
<path d="M32.0399 76.4099C33.2399 80.8399 34.4499 85.2699 35.6499 89.7099C35.7799 90.1999 35.9999 90.7199 36.0499 91.2199C36.1399 92.1699 35.1699 92.0899 34.4499 92.0999C33.5799 92.1099 32.7099 92.1199 31.8499 92.3099C30.6199 92.5899 29.1599 93.2299 29.0899 94.6199C28.9899 96.4999 31.2399 96.2199 32.5399 96.1899C34.8799 96.1399 37.2199 96.0899 39.5599 96.0399C41.8999 95.9899 44.1299 95.9799 46.3999 95.8999C46.9399 95.8799 47.5899 95.8199 48.0499 95.5099C48.6699 95.0999 48.5099 94.3799 48.4199 93.7599C47.6799 88.7399 47.4099 83.6899 47.6699 78.6299C47.6699 78.4799 46.2599 78.5999 46.2399 78.9599C46.0299 82.9199 46.1299 86.8999 46.5599 90.8399C46.6699 91.8099 46.7899 92.7799 46.9299 93.7499C46.9799 94.1099 47.0899 94.4899 47.0799 94.8599C47.0599 95.5199 46.8899 95.4199 46.2599 95.4299C44.2199 95.4699 42.1799 95.5199 40.1399 95.5599L34.0199 95.6899C33.1999 95.7099 31.7899 95.9799 31.0699 95.5299C30.4399 95.1299 30.3799 94.2399 30.6699 93.6399C31.1899 92.5799 32.4299 92.5999 33.4899 92.5899C34.3199 92.5799 35.1599 92.5399 35.9699 92.3299C36.3999 92.2199 36.9299 92.0599 37.2399 91.7399C37.8299 91.1299 37.2399 90.0499 37.0599 89.3699C35.8599 84.9399 34.6499 80.5099 33.4499 76.0699C33.3799 75.8099 31.9499 76.1499 32.0199 76.3999L32.0399 76.4099Z" fill="#1D1D1B"/>
<path d="M66.54 76.4099C65.35 80.8399 64.15 85.2699 62.96 89.7099C62.83 90.1999 62.61 90.7199 62.56 91.2199C62.47 92.1699 63.43 92.0899 64.15 92.0999C65.02 92.1099 65.87 92.1199 66.72 92.3099C67.94 92.5899 69.39 93.2299 69.46 94.6199C69.56 96.4999 67.33 96.2199 66.04 96.1899C63.72 96.1399 61.4 96.0899 59.08 96.0399C56.76 95.9899 54.56 95.9799 52.3 95.8999C51.77 95.8799 51.12 95.8199 50.67 95.5099C50.06 95.0999 50.21 94.3799 50.3 93.7599C51.03 88.7399 51.3 83.6899 51.04 78.6299C51.04 78.4799 52.44 78.5999 52.45 78.9599C52.65 82.9199 52.56 86.8999 52.13 90.8399C52.03 91.8099 51.9 92.7799 51.76 93.7499C51.71 94.1099 51.61 94.4899 51.62 94.8599C51.64 95.5199 51.81 95.4199 52.43 95.4299C54.45 95.4699 56.47 95.5199 58.5 95.5599L64.57 95.6899C65.38 95.7099 66.78 95.9799 67.49 95.5299C68.11 95.1299 68.18 94.2399 67.88 93.6399C67.36 92.5799 66.14 92.5999 65.09 92.5899C64.26 92.5799 63.44 92.5399 62.64 92.3299C62.21 92.2199 61.69 92.0599 61.38 91.7399C60.79 91.1299 61.38 90.0499 61.56 89.3699C62.75 84.9399 63.95 80.5099 65.14 76.0699C65.21 75.8099 66.62 76.1499 66.55 76.3999L66.54 76.4099Z" fill="#1D1D1B"/>
<path d="M78.9099 44.3087C82.0499 45.8687 85.2499 47.5287 87.3299 50.4487C89.4099 53.3687 90.1899 56.6787 90.9399 59.9887C90.9599 60.0687 92.2999 59.5887 92.2299 59.2787C91.4599 55.8887 90.5699 52.3787 88.4699 49.5387C86.3699 46.6987 83.1999 45.0887 80.1199 43.5587C79.8299 43.4187 78.8199 44.2587 78.9199 44.3087H78.9099Z" fill="#1D1D1B"/>
<path d="M75.39 53.54C75.87 55.56 76.2 57.62 76.35 59.7C76.39 60.26 76.71 61.45 75.94 61.59C75.37 61.69 74.77 61.58 74.2 61.64C73.67 61.7 73.11 61.88 72.75 62.31C72.22 62.95 72.41 63.79 72.72 64.48C73.3 65.78 74.45 67.24 76.06 66.81C76.98 66.56 76.48 65.57 75.68 65.79C74.78 66.03 73.27 63.3 74.14 62.76C74.49 62.54 75.13 62.67 75.52 62.67C76.03 62.67 76.55 62.63 77.02 62.4C77.53 62.15 77.83 61.69 77.88 61.12C77.96 60.27 77.8 59.34 77.71 58.49C77.53 56.73 77.22 54.99 76.81 53.27C76.66 52.62 75.21 52.79 75.39 53.54Z" fill="#1D1D1B"/>
<path d="M77.14 65.0884C76.72 66.1984 76.55 67.2284 77.25 68.2584C77.7 68.9284 78.45 69.5884 79.29 69.1984C79.74 68.9984 80.03 68.7284 80.55 68.7684C80.96 68.7984 81.34 68.9784 81.7 69.1584C82.36 69.4984 82.99 69.9284 83.71 70.1284C84.43 70.3284 85.05 70.1284 85.5 69.5584C85.98 68.9484 86.32 67.7784 87.31 67.9384C88.3 68.0984 88.84 68.9184 89.91 68.5284C90.77 68.2184 91.3 67.3984 91.26 66.4884C91.25 66.1684 90.99 65.8184 90.76 65.6084C90.65 65.4984 90.32 65.2584 90.33 65.5884C90.37 66.4184 89.73 67.1584 88.94 67.3484C88.04 67.5684 87.45 66.8084 86.61 66.6884C85.13 66.4684 85.1 68.5684 83.89 68.9084C82.68 69.2484 81.53 68.0084 80.49 67.6584C79.99 67.4884 79.48 67.4384 78.98 67.6584C78.66 67.8084 78.11 68.3084 77.74 67.9884C77.39 67.6884 77.92 66.4784 78.05 66.1484C78.19 65.7784 77.25 64.7584 77.14 65.0584V65.0884Z" fill="#1D1D1B"/>
<path d="M46.8599 33.6481C47.1699 35.5681 47.4699 37.4781 47.7799 39.3981C47.9399 40.3781 48.0899 41.3681 48.2499 42.3481C48.3099 42.7481 48.4299 43.1781 48.3999 43.5881C48.3999 43.7081 48.3799 43.8281 48.3399 43.9381L48.5199 44.0381C48.4799 44.0981 48.1999 44.1281 48.1199 44.1481C47.0899 44.4781 46.0299 44.9681 45.7599 46.1081C45.3999 47.6381 46.5599 48.8681 47.6999 49.6981C47.9699 49.8981 48.9399 49.0381 49.0499 49.1181C47.9399 48.3081 46.7999 47.1181 47.0899 45.6281C47.1199 45.4581 47.1699 45.2881 47.2399 45.1381C47.2799 45.0381 47.6199 44.6481 47.6099 44.5781C47.7199 44.4781 47.6999 44.4781 47.5299 44.5481C47.3399 44.5981 47.3299 44.6081 47.4899 44.5681C47.6299 44.5281 47.7799 44.4881 47.9199 44.4481C48.3999 44.2981 48.9899 44.0981 49.3799 43.7681C49.9299 43.2881 49.7299 42.5581 49.6299 41.9281L49.1599 38.9781C48.8499 37.0081 48.5299 35.0381 48.2199 33.0781C48.2199 33.0781 46.8299 33.4281 46.8699 33.6581L46.8599 33.6481Z" fill="#1D1D1B"/>
<path d="M9.90992 47.6404C9.59992 46.1304 9.27992 44.6204 9.16992 43.0904C9.06992 41.8304 9.02992 40.4504 9.56992 39.2804C9.67992 39.0304 9.81992 38.8004 9.99992 38.6004C10.0899 38.5004 10.1899 38.3904 10.2999 38.3104C10.3899 38.2304 10.4899 38.1704 10.5899 38.1204L10.3799 38.0504C10.3799 38.0504 10.8099 38.8104 10.8599 38.9104C11.0099 39.2104 11.1399 39.5304 11.2499 39.8504C11.7099 41.1604 11.8399 42.5904 11.6599 43.9604C11.5799 44.5204 12.9699 44.9504 13.0399 44.4804C13.2699 42.8204 13.0799 41.1704 12.4599 39.6204C12.1899 38.9404 11.8399 38.0704 11.2399 37.6104C10.5599 37.0904 9.70992 37.1004 9.05992 37.6304C7.88992 38.5704 7.72992 40.2604 7.73992 41.6504C7.73992 43.5804 8.13992 45.4704 8.52992 47.3504C8.62992 47.8504 10.0399 48.1904 9.92992 47.6604L9.90992 47.6404Z" fill="#1D1D1B"/>
<path d="M12.38 38.2881C12.07 37.0181 12.05 35.6981 12.35 34.4281C12.39 34.2581 12.43 34.0781 12.49 33.9181C12.54 33.7981 12.65 33.6881 12.54 33.7081C12.63 33.6881 12.85 33.8281 12.94 33.9081C13.39 34.2681 13.71 34.8881 13.97 35.3881C14.54 36.4481 14.92 37.6081 15.1 38.7881C15.31 40.1481 15.15 41.5181 15.25 42.8881C15.3 43.6181 16.73 43.3381 16.68 42.7281C16.56 41.0281 16.75 39.3281 16.37 37.6481C16.05 36.2181 15.42 34.6681 14.48 33.5281C14.03 32.9881 13.4 32.6381 12.68 32.6981C11.96 32.7581 11.37 33.1481 11.12 33.8081C10.54 35.3381 10.57 37.1381 10.95 38.7081C11.11 39.3381 12.52 38.9281 12.36 38.2881H12.38Z" fill="#1D1D1B"/>
<path d="M16.6001 35.4116C16.6401 34.8116 16.7501 34.2216 16.9701 33.6616C17.1601 33.1716 17.4201 32.5816 17.8301 32.2416C18.7001 31.5116 19.4601 33.0316 19.6801 33.6916C20.0401 34.7516 20.1001 35.8916 20.1701 36.9916C20.2501 38.3316 20.2701 39.6716 20.2301 41.0016C20.2101 41.6316 21.5901 42.1116 21.6101 41.4116C21.6601 39.7316 21.6201 38.0516 21.4801 36.3716C21.3701 35.0216 21.1801 33.6116 20.3801 32.4716C19.6701 31.4416 18.1501 30.4116 16.9101 31.2016C15.7601 31.9316 15.3001 33.7316 15.2201 35.0016C15.1801 35.6216 16.5601 36.1216 16.6001 35.4116Z" fill="#1D1D1B"/>
<path d="M20.6701 44.6308C19.4501 45.3008 18.8901 46.5008 18.4801 47.7808C18.0401 49.1508 17.7801 50.6908 18.3801 52.0608C18.5801 52.5108 19.9801 52.1408 19.8301 51.7908C19.2901 50.5508 19.4601 49.1908 19.8301 47.9308C20.1201 46.9508 20.5301 45.5808 21.5001 45.0508C21.6901 44.9508 21.9601 44.7408 21.6801 44.5708C21.4301 44.4108 20.9101 44.5108 20.6701 44.6408V44.6308Z" fill="#1D1D1B"/>
<path d="M22.6099 43.8492C22.9099 42.8492 23.2099 41.8592 23.5199 40.8592C23.7399 40.1392 23.9499 39.3192 24.4899 38.7692C25.1999 38.0592 26.1399 38.5192 26.5099 39.3392C26.9199 40.2592 26.7199 41.4392 26.6099 42.3992C26.1699 46.4692 25.0699 50.4392 23.4399 54.1892C23.1199 54.9292 24.3799 55.5892 24.7399 54.7592C25.7999 52.3392 26.6299 49.8192 27.2099 47.2392C27.4799 46.0192 27.6999 44.7892 27.8599 43.5492C28.0199 42.3092 28.2299 41.0492 28.0099 39.8392C27.6899 38.0892 25.8499 36.2292 23.9999 37.2992C23.1799 37.7792 22.7499 38.6792 22.4499 39.5492C22.0199 40.7692 21.6899 42.0292 21.3099 43.2692C21.0799 44.0492 22.3499 44.7092 22.6099 43.8392V43.8492Z" fill="#1D1D1B"/>
<path d="M8.2299 47.8188C7.8699 50.7388 7.6799 53.7288 7.8899 56.6688C8.0699 59.1588 8.6299 61.7588 10.2199 63.7588C13.0399 67.2988 18.6099 67.6588 22.1699 65.0488C22.8299 64.5688 21.4299 64.4488 21.0599 64.7188C17.5599 67.2888 12.6999 65.6888 10.7399 62.0188C9.7199 60.1088 9.4099 57.8788 9.3099 55.7388C9.1899 53.0788 9.3499 50.3988 9.6799 47.7588C9.7499 47.1888 8.3099 47.3488 8.2499 47.8188H8.2299Z" fill="#1D1D1B"/>
<path d="M23.0701 54.8009C21.5801 56.3609 19.9301 57.7609 18.1501 58.9809C18.1101 59.0009 18.3801 59.1109 18.3401 59.1009C18.5001 59.1609 18.6701 59.2109 18.8401 59.2409C19.0201 59.2809 19.4101 59.4209 19.5801 59.3009C21.3601 58.0809 23.0101 56.6809 24.5001 55.1209C24.5401 55.0709 23.8601 54.8709 23.8101 54.8609C23.6401 54.8209 23.4701 54.7909 23.3001 54.7809C23.2401 54.7809 23.1201 54.7509 23.0701 54.8109V54.8009Z" fill="#1D1D1B"/>
<path d="M25.0701 11.3491C25.7801 12.8391 26.9901 14.0391 28.4701 14.7691C28.7501 14.9091 29.2501 14.9391 29.4901 14.6891C29.7301 14.4391 29.5401 14.1691 29.2801 14.0391C29.1901 13.9991 29.1101 13.9491 29.0201 13.9091C28.9801 13.8891 28.9501 13.8691 28.9101 13.8491C28.8401 13.8091 28.8401 13.8291 28.9101 13.8491C28.8301 13.8291 28.7301 13.7391 28.6601 13.6891C28.5901 13.6391 28.5301 13.5991 28.4601 13.5491C28.3201 13.4491 28.1701 13.3391 28.0401 13.2191C27.9701 13.1591 27.8901 13.0891 27.8201 13.0291C27.7401 12.9591 27.8501 13.0591 27.8001 13.0091C27.7701 12.9791 27.7301 12.9391 27.7001 12.9091C27.4501 12.6591 27.2201 12.3791 27.0101 12.0891C26.9101 11.9391 26.8101 11.7991 26.7201 11.6391C26.7001 11.6091 26.6801 11.5691 26.6601 11.5291C26.7101 11.6091 26.6301 11.4791 26.6301 11.4691C26.5801 11.3791 26.5401 11.2991 26.5001 11.2091C26.3501 10.8991 25.9501 10.7791 25.6301 10.8091C25.4201 10.8291 24.9201 10.9991 25.0701 11.3291V11.3491Z" fill="#1D1D1B"/>
<path d="M29.76 9.00148C30.03 10.3015 30.62 11.5315 31.46 12.5615C31.55 12.6715 31.74 12.7015 31.87 12.7015C32.05 12.7015 32.26 12.6515 32.42 12.5615C32.65 12.4315 32.94 12.1515 32.73 11.8815C31.94 10.9115 31.41 9.75148 31.16 8.52148C31.13 8.40148 30.96 8.32148 30.85 8.30148C30.68 8.26148 30.47 8.30148 30.32 8.35148C30.05 8.45148 29.7 8.67148 29.77 9.01148L29.76 9.00148Z" fill="#1D1D1B"/>
<path d="M34.52 7.02815L35.08 10.4081C35.13 10.7181 35.43 10.9681 35.71 11.0981C35.85 11.1581 36 11.2281 36.16 11.2181C36.24 11.2181 36.38 11.1681 36.36 11.0581L35.8 7.67815C35.75 7.36815 35.45 7.11815 35.17 6.98815C35.03 6.92815 34.88 6.85815 34.72 6.86815C34.64 6.86815 34.5 6.91815 34.52 7.02815Z" fill="#1D1D1B"/>
<path d="M90.8101 61.23C90.9101 62.64 91.0201 64.14 90.3301 65.42C90.1701 65.73 90.5301 66.09 90.7901 66.19C91.0801 66.31 91.5001 66.34 91.6701 66.02C92.4001 64.65 92.3201 63.05 92.2101 61.56C92.1801 61.21 91.8701 60.93 91.5301 60.86C91.2901 60.81 90.7801 60.86 90.8001 61.23H90.8101Z" fill="#1D1D1B"/>
<path d="M36.27 17.5594C45.63 17.5594 55 17.5594 64.36 17.5594C64.73 17.5594 64.23 17.2794 64.16 17.2294C63.9 17.0294 63.37 16.8594 63.04 16.8594C53.68 16.8594 44.31 16.8594 34.95 16.8594C34.58 16.8594 35.08 17.1394 35.15 17.1894C35.41 17.3894 35.94 17.5594 36.27 17.5594Z" fill="#303031"/>
<path d="M41.0999 15.0208C42.7699 11.5908 44.4399 8.16081 46.1099 4.73081L44.5999 4.55081C45.4799 5.71081 46.4199 6.82081 47.4599 7.84081C48.2699 8.64081 49.4599 10.0808 50.6499 10.2608C51.2299 10.3508 51.6399 10.1008 52.0599 9.73081C52.6399 9.22081 53.1799 8.68081 53.7899 8.20081C54.9499 7.28081 56.2899 6.29081 57.6899 5.77081L57.1199 5.82081L57.3399 5.86081L56.6199 5.41081C57.0499 5.96081 56.8599 7.28081 56.8799 7.95081C56.8999 8.88081 56.9599 9.80081 57.0699 10.7208C57.2799 12.4908 57.6499 14.2308 58.1599 15.9408C58.3599 16.6208 60.0199 16.8608 59.7499 15.9708C59.1799 14.0908 58.7999 12.1708 58.6299 10.2108C58.5499 9.31081 58.5399 8.41081 58.5099 7.51081C58.4899 6.83081 58.5299 5.89081 58.1599 5.28081C57.3199 3.86081 55.5499 5.14081 54.6299 5.72081C53.8899 6.18081 53.1799 6.68081 52.4999 7.21081C52.1599 7.48081 51.8199 7.76081 51.4899 8.05081C51.1599 8.34081 50.6699 9.00081 50.2399 9.08081L50.8699 9.15081C50.3899 8.99081 49.9399 8.47081 49.5699 8.13081C49.1399 7.74081 48.7199 7.34081 48.3099 6.93081C47.4899 6.09081 46.7399 5.20081 46.0399 4.27081C45.7499 3.88081 44.8199 3.49081 44.5299 4.09081C42.8599 7.52081 41.1899 10.9508 39.5199 14.3808C39.1899 15.0608 40.7699 15.7308 41.1099 15.0308L41.0999 15.0208Z" fill="#303031"/>
</svg>
