<svg width="100" height="100" viewBox="0 0 100 100" fill="none" xmlns="http://www.w3.org/2000/svg">
<rect width="100" height="100" fill="white"/>
<path d="M64.61 40.3017C64.94 42.4017 64.63 44.5517 63.73 46.4817C63.63 46.6917 64.26 46.4817 64.3 46.4617C64.55 46.3517 64.92 46.1917 65.04 45.9217C65.95 43.9617 66.25 41.7617 65.92 39.6317C65.9 39.4817 64.55 39.9217 64.61 40.3017Z" fill="#1D1D1B"/>
<path d="M63.69 83.0695C81.5951 83.0695 96.11 67.7801 96.11 48.9195C96.11 30.059 81.5951 14.7695 63.69 14.7695C45.7849 14.7695 31.27 30.059 31.27 48.9195C31.27 67.7801 45.7849 83.0695 63.69 83.0695Z" fill="#0086CD"/>
<path d="M54.2499 36.3906L53.1199 39.3206L51.5699 37.3806L49.2499 39.7406L50.6699 41.7606L48.1399 42.5406L48.2699 45.7806L50.8999 45.0906L49.7199 48.1706L52.5599 49.4606L53.7999 46.1906L55.6699 48.8506L58.6099 46.1906L56.5499 43.6106L59.8599 42.7406L59.2599 39.0906L56.0899 40.0706L57.2599 36.9706L54.2499 36.3906Z" fill="#1D1D1B"/>
<path d="M73.64 36.3906L72.51 39.3206L70.95 37.3806L68.63 39.7406L70.06 41.7606L67.53 42.5406L67.66 45.7806L70.29 45.0906L69.1 48.1706L71.95 49.4606L73.18 46.1906L75.06 48.8506L78 46.1906L75.93 43.6106L79.25 42.7406L78.65 39.0906L75.48 40.0706L76.65 36.9706L73.64 36.3906Z" fill="#1D1D1B"/>
<path d="M61.27 35.3088C61.58 37.2288 61.88 39.1487 62.19 41.0687C62.35 42.0587 62.5 43.0387 62.66 44.0287C62.72 44.4287 62.84 44.8587 62.81 45.2687C62.81 45.3887 62.79 45.5087 62.75 45.6187L62.93 45.7188C62.89 45.7788 62.61 45.8088 62.53 45.8288C61.49 46.1588 60.44 46.6487 60.16 47.7987C59.8 49.3287 60.96 50.5688 62.1 51.3988C62.37 51.5988 63.34 50.7387 63.46 50.8187C62.35 50.0087 61.21 48.8187 61.5 47.3187C61.53 47.1487 61.58 46.9787 61.65 46.8187C61.7 46.7187 62.03 46.3287 62.02 46.2587C62.13 46.1587 62.11 46.1587 61.94 46.2287C61.75 46.2787 61.74 46.2887 61.9 46.2487C62.05 46.2087 62.19 46.1687 62.33 46.1287C62.81 45.9788 63.41 45.7787 63.79 45.4487C64.34 44.9688 64.14 44.2287 64.04 43.5987L63.57 40.6387C63.26 38.6687 62.94 36.6888 62.63 34.7188C62.63 34.7188 61.24 35.0687 61.27 35.2987V35.3088Z" fill="#1D1D1B"/>
<path d="M50.6601 19.1805C60.0501 19.1805 69.4401 19.1805 78.8301 19.1805C79.2001 19.1805 78.6901 18.9005 78.6301 18.8505C78.3701 18.6505 77.8401 18.4805 77.5101 18.4805C68.1201 18.4805 58.7301 18.4805 49.3401 18.4805C48.9701 18.4805 49.4801 18.7605 49.5401 18.8105C49.8001 19.0105 50.3301 19.1805 50.6601 19.1805Z" fill="#303031"/>
<path d="M55.5 16.6294C57.18 13.1894 58.85 9.74941 60.53 6.30941L59.01 6.12941C59.89 7.29941 60.84 8.40941 61.88 9.42941C62.7 10.2294 63.88 11.6694 65.08 11.8594C65.66 11.9494 66.07 11.6994 66.49 11.3194C67.07 10.8094 67.62 10.2694 68.22 9.78941C69.38 8.86941 70.73 7.87941 72.13 7.34941L71.55 7.39941L71.77 7.43941L71.05 6.98941C71.48 7.54941 71.29 8.86941 71.31 9.53941C71.33 10.4694 71.39 11.3894 71.5 12.3194C71.71 14.0894 72.08 15.8394 72.59 17.5494C72.8 18.2294 74.46 18.4794 74.19 17.5794C73.62 15.6894 73.24 13.7694 73.07 11.7994C72.99 10.8994 72.98 9.99941 72.95 9.08941C72.93 8.39941 72.97 7.45941 72.6 6.84941C71.76 5.41941 69.99 6.70941 69.06 7.28941C68.32 7.74941 67.61 8.24941 66.93 8.78941C66.58 9.05941 66.25 9.33941 65.92 9.62941C65.59 9.91941 65.1 10.5794 64.67 10.6594L65.3 10.7294C64.82 10.5694 64.37 10.0494 63.99 9.70941C63.56 9.31941 63.13 8.91941 62.73 8.49941C61.91 7.65941 61.16 6.76941 60.45 5.82941C60.16 5.43941 59.23 5.04941 58.93 5.64941C57.25 9.08941 55.58 12.5294 53.9 15.9694C53.57 16.6494 55.15 17.3194 55.5 16.6194V16.6294Z" fill="#303031"/>
<path d="M51.05 73.1788C48.63 72.9588 45.91 73.1788 43.69 74.2288C41.69 75.1788 41.05 77.1488 41.21 79.2488C41.52 83.4288 44.18 87.1888 47.8 89.1988C48.27 89.4588 49.37 89.1288 48.59 88.6888C45.36 86.8888 43.11 83.5588 42.62 79.8988C42.37 78.0388 42.68 75.9388 44.47 74.9688C46.46 73.8788 49.09 73.7488 51.3 73.9488C51.53 73.9688 51.89 73.8688 51.85 73.5888C51.81 73.3088 51.28 73.2088 51.06 73.1888L51.05 73.1788Z" fill="#1D1D1B"/>
<path d="M62.35 73.5117C60.64 73.7017 57.96 73.9817 57 75.6517C56.49 76.5317 56.44 77.6617 56.37 78.6617C56.29 79.7317 56.32 80.8017 56.54 81.8617C57.35 85.8217 60.83 88.2817 64.01 90.3217C64.76 90.8017 64.37 89.7017 63.97 89.4417C61.11 87.6117 57.94 85.5217 57.43 81.8817C57.3 80.9517 57.31 80.0117 57.4 79.0817C57.48 78.2217 57.55 77.2417 58.04 76.5017C58.99 75.0517 61.52 74.8117 63.09 74.6417C63.52 74.5917 62.8 73.4817 62.35 73.5317V73.5117Z" fill="#1D1D1B"/>
<path d="M46.5001 87.78C45.5201 89.22 44.4301 91.19 45.7601 92.78C46.9101 94.15 49.0301 94.05 50.6001 93.64C54.5801 92.59 57.0501 89.09 59.1501 85.81C59.5301 85.22 58.3201 84.62 57.9901 85.12C56.2701 87.79 54.4101 90.59 51.4901 92.07C50.3401 92.65 48.4901 93.31 47.2301 92.71C46.5001 92.36 46.3601 91.44 46.5001 90.72C46.6601 89.89 47.1701 89.16 47.6401 88.47C48.0301 87.89 46.8201 87.28 46.4801 87.78H46.5001Z" fill="#1D1D1B"/>
<path d="M61.1001 88.1906C60.1601 89.6006 59.3201 91.2906 60.2701 92.9306C61.1301 94.4306 63.1301 94.8106 64.7201 94.5806C66.6801 94.2906 68.0501 92.9606 69.3601 91.5906C70.0801 90.8306 70.7901 90.0506 71.4801 89.2606C71.8401 88.8506 72.2001 88.4406 72.5501 88.0206C72.8401 87.6906 73.2901 87.3106 73.4001 86.8606C73.5101 86.4106 73.2801 85.9906 73.1101 85.6106C72.8601 85.0406 72.6001 84.4606 72.3401 83.8906C71.7901 82.6606 71.2401 81.4406 70.7001 80.2106C70.6001 79.9906 70.3201 79.5706 70.0201 79.6406C69.7201 79.7106 69.7501 80.0806 69.8501 80.3106C70.3201 81.3706 70.8001 82.4406 71.2701 83.5006C71.4901 83.9906 71.7101 84.4806 71.9301 84.9706C72.0401 85.2106 72.1601 85.4606 72.2601 85.7106C72.3901 86.0506 72.4301 86.0406 72.2401 86.3406C71.9901 86.7506 71.5701 87.1206 71.2501 87.4906C70.8901 87.9006 70.5301 88.3206 70.1701 88.7206C69.4701 89.5106 68.7701 90.2806 68.0301 91.0406C66.6001 92.5006 64.9301 93.6506 62.7801 93.3706C61.8801 93.2606 60.8601 92.9806 60.8201 91.9306C60.7801 90.8806 61.4301 90.0106 61.9601 89.2106C62.2501 88.7806 61.4101 87.7006 61.0801 88.2006L61.1001 88.1906Z" fill="#1D1D1B"/>
<path d="M77.0399 75.6816C77.4699 77.0416 77.0099 78.6716 75.9599 79.6316C74.6699 80.8116 72.7799 80.6816 71.1699 80.5716C70.8599 80.5516 70.4499 80.6416 70.3499 80.9916C70.2599 81.3016 70.5799 81.5716 70.8699 81.5916C72.9499 81.7316 75.3199 81.8116 76.9699 80.3016C78.3299 79.0516 78.8899 77.0916 78.3399 75.3316C78.1499 74.7116 76.8199 74.9916 77.0399 75.6916V75.6816Z" fill="#1D1D1B"/>
<path d="M4.54989 51.3802H42.9399C43.3099 51.3802 44.0599 51.2402 44.2599 50.8702C44.4599 50.5002 44.0799 50.4102 43.7499 50.4102C30.9499 50.4102 18.1599 50.4102 5.35989 50.4102C4.98989 50.4102 4.23989 50.5502 4.03989 50.9202C3.83989 51.2902 4.21989 51.3802 4.54989 51.3802Z" fill="#1D1D1B"/>
<path d="M42.6899 51.4015C44.0999 57.9315 46.2399 64.2715 49.0799 70.3215C49.3799 70.9615 51.3199 70.3215 51.0699 69.7915C48.2299 63.7515 46.0899 57.4015 44.6799 50.8715C44.5399 50.2415 42.5499 50.7415 42.6899 51.4015Z" fill="#1D1D1B"/>
<path d="M3.90999 51.3808C5.57999 55.6108 7.40999 59.7708 9.40999 63.8508C10.39 65.8408 11.4 67.8108 12.46 69.7608C12.86 70.5008 13.21 71.4908 13.95 71.9808C14.81 72.5608 16.04 72.3908 17.02 72.4008C26.49 72.5008 35.97 72.5908 45.44 72.6908C50.8 72.7408 56.17 72.8008 61.53 72.8508C61.95 72.8508 62.64 72.7208 62.83 72.2808C63.02 71.8708 62.67 71.6108 62.27 71.6108C53.08 71.5208 43.89 71.4308 34.71 71.3308C30.14 71.2808 25.58 71.2408 21.01 71.1908C19.93 71.1808 18.84 71.1708 17.76 71.1608C17.24 71.1608 16.63 71.2208 16.11 71.1408C15.51 71.0408 15.27 70.7108 14.98 70.1908C13.86 68.2308 12.84 66.2008 11.84 64.1808C9.66999 59.8208 7.69999 55.3608 5.90999 50.8308C5.60999 50.0708 3.63999 50.6508 3.91999 51.3608L3.90999 51.3808Z" fill="#1D1D1B"/>
<path d="M49.52 70.0798L58.12 70.7198L62.42 71.0398L64.41 71.1898C64.71 71.2098 65.05 71.1898 65.34 71.2598C65.61 71.2698 65.79 71.3998 65.86 71.6398C66.39 71.5498 66.49 71.4998 66.14 71.4898C65.66 71.4098 65.08 71.4898 64.74 71.8698C64.47 72.1598 64.5 72.6098 64.96 72.6798C65.96 72.8398 68.5 72.5398 67.78 70.9098C67.47 70.2098 66.63 70.0598 65.96 69.9898C64.93 69.8798 63.88 69.8298 62.85 69.7598C58.66 69.4498 54.47 69.1298 50.28 68.8198C49.86 68.7898 49.17 68.9598 48.98 69.3898C48.79 69.8198 49.15 70.0498 49.55 70.0798H49.52Z" fill="#1D1D1B"/>
<path d="M84.7099 53.701C84.4499 56.921 81.6499 58.981 78.6899 59.631C76.8699 60.031 74.9899 60.061 73.1299 60.111C71.2699 60.161 69.4099 60.161 67.5599 60.041C66.6699 59.981 65.7699 59.901 64.8899 59.771C64.0799 59.661 63.2699 59.511 62.4499 59.641C61.0999 59.861 59.9199 60.761 58.8599 61.561C57.6299 62.491 56.4899 63.551 55.4799 64.711C54.7199 65.571 53.5699 66.941 54.4299 68.121C55.2099 69.191 56.9099 68.621 57.7499 67.961C59.2299 66.801 60.2799 65.191 62.2899 64.941C62.8899 64.871 63.4199 64.181 62.4999 64.301C61.2099 64.461 60.0499 64.981 59.0099 65.741C58.4899 66.121 58.0099 66.561 57.5499 67.011C57.3199 67.241 57.0899 67.561 56.8099 67.731C56.0799 68.171 55.5999 67.791 55.4899 67.131C55.2599 65.711 57.1099 64.181 58.0299 63.301C59.1099 62.271 60.3399 61.221 61.6699 60.521C62.5499 60.061 63.4699 60.331 64.4099 60.451C65.3499 60.571 66.1899 60.641 67.0899 60.691C68.7599 60.791 70.4399 60.801 72.1099 60.771C75.1099 60.711 78.2599 60.671 81.0699 59.481C83.5599 58.431 85.8199 56.311 86.0399 53.491C86.0799 53.031 84.7499 53.291 84.7199 53.681L84.7099 53.701Z" fill="#1D1D1B"/>
<path d="M62.67 63.3707C62.13 64.5907 60.56 68.1207 62.94 68.4407C63.37 68.5007 63.8 68.3707 64.18 68.1907C64.49 68.0407 64.44 68.0107 64.69 68.2107C64.84 68.3307 64.94 68.4907 65.11 68.6007C66.01 69.1807 66.92 68.7407 67.87 68.6607L67.34 68.5507C68.01 69.0307 68.58 69.2507 69.41 69.2907C70.38 69.3307 71.39 69.2607 72.35 69.0707C73.91 68.7707 75.93 67.9607 76.06 66.1107C76.1 65.5607 74.77 65.8207 74.73 66.2707C74.61 68.0807 72.55 68.4107 71.1 68.5007C70.42 68.5407 69.56 68.6407 68.94 68.3007C68.67 68.1507 68.53 67.9407 68.21 67.9107C67.86 67.8807 67.53 68.0207 67.19 68.0907C66.76 68.1807 66.37 68.1607 66.04 67.8507C65.83 67.6507 65.7 67.4207 65.42 67.3107C64.76 67.0607 64.3 67.4507 63.71 67.6007C62.77 67.8407 63.04 66.0907 63.15 65.6307C63.36 64.8007 63.65 64.0007 64 63.2207C64.13 62.9407 63.56 62.9107 63.43 62.9307C63.13 62.9607 62.81 63.1007 62.68 63.3807L62.67 63.3707Z" fill="#1D1D1B"/>
<path d="M92.23 54.5697C93.07 56.4197 92.81 58.4697 92.32 60.3797C91.83 62.2897 90.79 64.0897 89.02 65.1497C87.13 66.2797 84.7 66.5897 82.54 66.8197C80.54 67.0397 78.41 67.1797 76.64 66.0497C76.31 65.8397 75.18 66.3797 75.4 66.5097C77.26 67.6997 79.53 67.6297 81.65 67.4297C84.09 67.1897 86.66 66.8197 88.92 65.8197C90.96 64.9097 92.58 63.2997 93.33 61.1797C94.08 59.0597 94.54 56.3697 93.56 54.2197C93.4 53.8697 92.12 54.3097 92.24 54.5697H92.23Z" fill="#1D1D1B"/>
<path d="M56.5001 57.6093C58.0401 58.0793 59.4101 58.9793 60.4601 60.2093C60.6701 60.4593 61.0901 60.4293 61.3601 60.2993C61.5701 60.1893 61.9001 59.8993 61.6801 59.6393C60.5301 58.2793 58.9901 57.2593 57.2801 56.7493C56.9701 56.6493 56.5601 56.7493 56.3401 56.9993C56.1401 57.2193 56.2101 57.5193 56.5001 57.6093Z" fill="#1D1D1B"/>
<path d="M49.9801 31.3785C52.5501 35.3085 57.7101 36.5285 61.9101 34.5685C62.1201 34.4685 62.4301 34.2185 62.2401 33.9585C62.0501 33.6985 61.5801 33.7985 61.3501 33.8985C57.6601 35.6185 53.3901 34.1585 51.2001 30.8185C50.9201 30.3885 49.6401 30.8485 49.9801 31.3685V31.3785Z" fill="#1D1D1B"/>
<path d="M69.1301 31.8392C69.3901 30.3892 70.8601 29.4492 72.1901 29.0892C73.7301 28.6592 75.1701 30.0392 76.2001 30.9992C76.4901 31.2692 77.7201 30.7792 77.4401 30.5192C76.7201 29.8492 75.9601 29.1792 75.0601 28.7592C74.1001 28.3092 73.0601 28.2892 72.0501 28.5592C70.3701 29.0192 68.1601 30.1492 67.8201 32.0392C67.7501 32.4492 69.0701 32.2192 69.1301 31.8392Z" fill="#1D1D1B"/>
<path d="M24.9501 62.82C24.9501 62.49 25.0001 62.15 25.1101 61.84C25.1601 61.7 25.2301 61.56 25.3101 61.42C25.3401 61.36 25.3801 61.3 25.4201 61.24C25.4401 61.21 25.5401 61.12 25.4801 61.15L25.1601 61.3H25.2201C25.0501 61.29 24.8901 61.3 24.7201 61.3C24.6501 61.24 24.6501 61.24 24.7101 61.3L24.8301 61.45L25.0101 61.67C25.1501 61.84 25.2901 62.01 25.4301 62.19C25.5701 62.37 25.6901 62.54 25.8501 62.68C26.1101 62.92 26.5201 62.88 26.8101 62.74C27.2101 62.55 27.3801 62.11 27.6301 61.77C27.7501 61.61 27.8801 61.45 28.0201 61.3C28.0901 61.23 28.1601 61.15 28.2301 61.08C28.2501 61.06 28.4201 60.95 28.3201 60.99L27.9701 61.08C27.7601 61.01 27.7101 61.01 27.8301 61.08C27.8301 61.1 27.8501 61.11 27.8601 61.12C27.9101 61.17 27.9401 61.24 27.9801 61.3C28.0701 61.46 28.1401 61.62 28.2101 61.79C28.3601 62.14 28.4801 62.51 28.5801 62.88C28.7201 63.43 30.0501 63.09 29.9001 62.53C29.7801 62.04 29.6101 61.57 29.3801 61.11C29.1501 60.65 28.9001 60.23 28.3401 60.19C27.7001 60.15 27.2501 60.6 26.8701 61.04C26.7001 61.24 26.5301 61.44 26.3801 61.66C26.2601 61.82 26.1001 62.13 26.0001 62.22L26.2601 62.04L26.2101 62.06L26.7301 61.96H26.6801C26.8001 62.01 26.9301 62.06 27.0501 62.12C26.8701 61.96 26.7301 61.74 26.5701 61.55C26.4301 61.38 26.2901 61.21 26.1501 61.03C26.0101 60.85 25.8701 60.64 25.6701 60.53C25.3701 60.36 24.9701 60.43 24.6801 60.58C24.2901 60.79 24.0401 61.25 23.8701 61.64C23.7001 62.03 23.6001 62.48 23.6001 62.93C23.6001 63.25 23.9301 63.33 24.2001 63.31C24.4301 63.29 24.9401 63.12 24.9401 62.81L24.9501 62.82Z" fill="#1D1D1B"/>
<path d="M77.3701 75.6294H92.0701C92.5301 75.6294 93.0901 75.5094 93.4701 75.2494C93.7601 75.0594 93.7701 74.8594 93.3601 74.8594H78.6601C78.2001 74.8594 77.6401 74.9794 77.2601 75.2394C76.9701 75.4294 76.9601 75.6294 77.3701 75.6294Z" fill="#1D1D1B"/>
<path d="M92.2401 75.3916C92.3701 77.3316 92.3501 79.2816 92.1901 81.2216L93.5501 80.4616C87.2401 80.3116 80.9301 80.3816 74.6301 80.6816C73.5401 80.7316 73.0601 82.0916 74.4301 82.0316C80.5601 81.7416 86.7001 81.6716 92.8401 81.8116C93.2801 81.8216 94.1501 81.6316 94.2001 81.0516C94.3601 78.9916 94.3701 76.9316 94.2301 74.8716C94.1801 74.0516 92.1801 74.5016 92.2401 75.4016V75.3916Z" fill="#1D1D1B"/>
<path d="M88.8399 81.3297C88.4299 85.5597 88.2999 89.8097 88.4699 94.0597C88.4899 94.5697 90.4799 94.2097 90.4599 93.5297C90.2999 89.3597 90.4199 85.1897 90.8199 81.0397C90.8899 80.3597 88.8999 80.7497 88.8499 81.3297H88.8399Z" fill="#1D1D1B"/>
<path d="M83.74 81.7501C83.14 85.7501 82.99 89.7901 83.28 93.8301C83.34 94.6501 85.33 94.2001 85.27 93.3001C84.99 89.3901 85.17 85.4501 85.75 81.5701C85.89 80.6401 83.87 80.9301 83.75 81.7501H83.74Z" fill="#1D1D1B"/>
<path d="M56.07 88.3516C56.26 90.2716 56.55 92.1716 56.95 94.0616C57.01 94.3416 57.86 94.1116 58.02 94.0616C58.19 94.0116 59 93.8116 58.94 93.5216C58.55 91.6316 58.25 89.7316 58.06 87.8116C58.03 87.5416 57.13 87.7616 56.99 87.8116C56.79 87.8716 56.04 88.0416 56.07 88.3516Z" fill="#1D1D1B"/>
</svg>
