<svg width="23" height="23" viewBox="0 0 23 23" fill="none" xmlns="http://www.w3.org/2000/svg">
<path d="M11.5 4C7.35646 4 4 7.35646 4 11.5C4 15.6436 7.35646 19.0001 11.5 19.0001C15.6436 19.0001 19.0001 15.6436 19.0001 11.5C19.0001 7.35646 15.638 4 11.5 4ZM11.5 17.6395C8.10984 17.6395 5.36058 14.8902 5.36058 11.5C5.36058 8.10984 8.10984 5.36058 11.5 5.36058C14.8902 5.36058 17.6395 8.10984 17.6395 11.5C17.6395 14.8902 14.8902 17.6339 11.5 17.6395Z" fill="#1E1E1E"/>
<path d="M16.2734 12.1803H15.5594C15.5819 11.9554 15.5932 11.7249 15.5932 11.5C15.5932 11.2751 15.5819 11.0446 15.5594 10.8197H16.2734C16.6501 10.8197 16.9537 10.5161 16.9537 10.1394C16.9537 9.76272 16.6501 9.45912 16.2734 9.45912H15.3064C15.059 8.57081 14.6486 7.73872 14.092 7.00221C13.8671 6.69861 13.4398 6.64239 13.1362 6.86728C12.8326 7.09217 12.7764 7.51945 13.0013 7.82305C13.3724 8.32343 13.6704 8.87441 13.8784 9.45912H9.1276C9.33562 8.87441 9.62798 8.31781 10.0047 7.82305C10.2296 7.51945 10.1677 7.09217 9.86973 6.86728C9.56613 6.64239 9.13884 6.70423 8.91395 7.00221C8.36298 7.73872 7.94693 8.57081 7.69956 9.45912H6.73253C6.35585 9.45912 6.05225 9.76272 6.05225 10.1394C6.05225 10.5161 6.35585 10.8197 6.73253 10.8197H7.44656C7.42407 11.0446 7.41282 11.2751 7.41282 11.5C7.41282 11.7249 7.42407 11.9554 7.44656 12.1803H6.73253C6.35585 12.1803 6.05225 12.4839 6.05225 12.8606C6.05225 13.2373 6.35585 13.5408 6.73253 13.5408H7.69956C7.94693 14.4292 8.35736 15.2612 8.91395 15.9978C9.13884 16.3014 9.56613 16.3576 9.86973 16.1327C10.1733 15.9078 10.2296 15.4805 10.0047 15.1769C9.6336 14.6765 9.33562 14.1256 9.1276 13.5408H13.8784C13.6704 14.1256 13.378 14.6822 13.0013 15.1769C12.7764 15.4805 12.8383 15.9078 13.1362 16.1327C13.4342 16.3576 13.8671 16.2957 14.092 15.9978C14.643 15.2612 15.0534 14.4292 15.3064 13.5408H16.2734C16.6501 13.5408 16.9537 13.2373 16.9537 12.8606C16.9537 12.4839 16.6501 12.1803 16.2734 12.1803ZM8.81276 12.1803C8.75653 11.7249 8.75653 11.2695 8.81276 10.8141H14.1876C14.2438 11.2695 14.2438 11.7249 14.1876 12.1803H8.81276Z" fill="#425CC7"/>
</svg>
